#N canvas 212 148 843 390 10;
#X obj 304 309 r MIDI-channel;
#X obj 245 28 inlet;
#X obj 358 28 inlet;
#X obj 301 28 inlet;
#X obj 457 31 loadbang;
#X obj 410 30 inlet;
#X obj 523 33 inlet;
#X obj 410 56 int \$4;
#X obj 245 109 list prepend 0;
#X obj 245 130 route 0 1;
#X obj 245 73 makenote \$1 \$2;
#X obj 430 287 dac~;
#X obj 430 221 list prepend 1;
#X obj 430 189 pack 0 0;
#X text 597 191 1992-2000 by Karlheinz Essl;
#X text 598 209 vs 3.2;
#X obj 245 309 noteout;
#X obj 523 62 route float;
#X obj 57 87 hsl 64 15 0 1 0 0 empty empty volume 20 6 0 8 -262144
-1 -1 1700 1;
#X obj 352 110 * 1;
#X obj 430 262 fluid~;
#X msg 148 152 load \$1;
#X obj 148 127 openpanel;
#X obj 56 68 bng 15 250 50 0 empty empty load_sf2 20 6 0 8 -262144
-1 -1;
#X msg 38 212 load /usr/share/sounds/sf2/FluidR3_GM.sf2;
#X obj 39 188 loadbang;
#X obj 131 86 hradio 15 1 0 2 empty empty nouteout/fluid~ 0 -6 0 8
-262144 -1 -1 0;
#X msg 36 156 0;
#X msg 74 155 0.5;
#X connect 0 0 16 2;
#X connect 1 0 10 0;
#X connect 2 0 10 2;
#X connect 3 0 10 1;
#X connect 4 0 7 0;
#X connect 5 0 7 0;
#X connect 6 0 17 0;
#X connect 7 0 8 1;
#X connect 8 0 9 0;
#X connect 9 0 16 0;
#X connect 9 1 13 0;
#X connect 10 0 8 0;
#X connect 10 1 19 0;
#X connect 12 0 20 0;
#X connect 13 0 12 0;
#X connect 17 0 12 1;
#X connect 17 0 16 2;
#X connect 17 1 20 0;
#X connect 18 0 19 1;
#X connect 19 0 16 1;
#X connect 19 0 13 1;
#X connect 20 0 11 0;
#X connect 20 1 11 1;
#X connect 21 0 20 0;
#X connect 22 0 21 0;
#X connect 23 0 22 0;
#X connect 24 0 20 0;
#X connect 25 0 24 0;
#X connect 25 0 27 0;
#X connect 25 0 28 0;
#X connect 26 0 7 0;
#X connect 27 0 26 0;
#X connect 28 0 18 0;
#X coords 0 -1 1 1 160 55 1 50 50;
