#N canvas 50 399 1353 607 12;
#X obj 155 74 inlet;
#X obj 155 432 outlet;
#X obj 155 125 sel 0 1 2 3 4 5 6 7 8 9 10 11;
#X obj 546 174 comment 23 9 helvetica ? 35584 0 0 0 G#;
#X msg 535 198 0 0 \, 1 1 \, 2 1 \, 3 3 \, 4 3 \, 5 5 \, 6 7 \, 7 7
\, 8 8 \, 9 8 \, 10 10 \, 11 10 \,;
#X obj 499 174 comment 23 9 helvetica ? 35584 0 0 0 G;
#X msg 488 198 0 0 \, 1 0 \, 2 2 \, 3 2 \, 4 4 \, 5 6 \, 6 6 \, 7 7
\, 8 7 \, 9 9 \, 10 11 \, 11 11 \,;
#X obj 450 174 comment 23 9 helvetica ? 35584 0 0 0 F#;
#X msg 440 198 0 1 \, 1 1 \, 2 3 \, 3 3 \, 4 5 \, 5 5 \, 6 6 \, 7 6
\, 8 8 \, 9 10 \, 10 10 \, 11 11 \,;
#X obj 404 174 comment 23 9 helvetica ? 35584 0 0 0 F;
#X msg 393 198 0 0 \, 1 0 \, 2 2 \, 3 4 \, 4 4 \, 5 5 \, 6 5 \, 7 7
\, 8 9 \, 9 9 \, 10 10 \, 11 10 \,;
#X obj 358 174 comment 23 9 helvetica ? 35584 0 0 0 E;
#X msg 345 198 0 1 \, 1 1 \, 2 3 \, 3 3 \, 4 4 \, 5 4 \, 6 6 \, 7 8
\, 8 8 \, 9 9 \, 10 9 \, 11 11 \,;
#X obj 311 174 comment 23 9 helvetica ? 35584 0 0 0 D#;
#X msg 298 198 0 0 \, 1 2 \, 2 2 \, 3 3 \, 4 3 \, 5 5 \, 6 7 \, 7 7
\, 8 8 \, 9 8 \, 10 10 \, 11 10 \,;
#X obj 261 174 comment 23 9 helvetica ? 35584 0 0 0 D;
#X msg 250 198 0 1 \, 1 1 \, 2 2 \, 3 2 \, 4 4 \, 5 6 \, 6 6 \, 7 7
\, 8 7 \, 9 9 \, 10 9 \, 11 11 \,;
#X obj 164 174 comment 23 9 helvetica ? 35584 0 0 0 C;
#X msg 154 260 0 0 \, 1 0 \, 2 2 \, 3 4 \, 4 4 \, 5 5 \, 6 5 \, 7 7
\, 8 7 \, 9 9 \, 10 11 \, 11 11 \,;
#X obj 214 174 comment 23 9 helvetica ? 35584 0 0 0 C#;
#X msg 203 198 0 0 \, 1 1 \, 2 1 \, 3 3 \, 4 5 \, 5 5 \, 6 6 \, 7 6
\, 8 8 \, 9 8 \, 10 10 \, 11 10 \,;
#X obj 688 174 comment 23 9 helvetica ? 35584 0 0 0 B;
#X msg 678 198 0 1 \, 1 1 \, 2 3 \, 3 3 \, 4 4 \, 5 4 \, 6 6 \, 7 6
\, 8 8 \, 9 10 \, 10 10 \, 11 11 \,;
#X obj 593 174 comment 23 9 helvetica ? 35584 0 0 0 A;
#X msg 583 198 0 1 \, 1 1 \, 2 2 \, 3 2 \, 4 4 \, 5 4 \, 6 6 \, 7 8
\, 8 8 \, 9 9 \, 10 9 \, 11 11 \,;
#X msg 630 198 0 0 \, 1 2 \, 2 2 \, 3 3 \, 4 3 \, 5 5 \, 6 5 \, 7 7
\, 8 9 \, 9 9 \, 10 10 \, 11 10 \,;
#X obj 640 174 comment 23 9 helvetica ? 35584 0 0 0 A#;
#X obj 71 193 comment 83 9 helvetica ? 35584 0 0 0 major modes;
#X obj 82 345 bng 15 250 50 0 empty empty empty 17 7 0 10 -262144 -1
-1;
#X obj 155 106 nbx 5 14 -1e+037 1e+037 0 0 empty empty empty 0 -8 0
10 -262144 -1 -1 0 256;
#X msg 234 64 0;
#X connect 0 0 29 0;
#X connect 2 0 18 0;
#X connect 2 0 28 0;
#X connect 2 1 20 0;
#X connect 2 2 16 0;
#X connect 2 3 14 0;
#X connect 2 4 12 0;
#X connect 2 5 10 0;
#X connect 2 6 8 0;
#X connect 2 7 6 0;
#X connect 2 8 4 0;
#X connect 2 9 24 0;
#X connect 2 10 25 0;
#X connect 2 11 22 0;
#X connect 4 0 1 0;
#X connect 6 0 1 0;
#X connect 8 0 1 0;
#X connect 10 0 1 0;
#X connect 12 0 1 0;
#X connect 14 0 1 0;
#X connect 16 0 1 0;
#X connect 18 0 1 0;
#X connect 20 0 1 0;
#X connect 22 0 1 0;
#X connect 24 0 1 0;
#X connect 25 0 1 0;
#X connect 29 0 2 0;
#X connect 30 0 29 0;
