#N canvas 87 111 369 184 10;
#X obj 1679 1150 send modal_change_coll;
#X obj 1750 1078 mc_3_harm_major_modes;
#X obj 1609 1078 mc_3_mel_minor_modes;
#X obj 1473 1078 mc_3_harm_minor_modes;
#X obj 1344 1078 mc_3_major_modes;
#X obj 1316 1035 gate 4 1;
#X obj 1436 967 comment 125 9 helvetica ? 35584 0 0 0 offsets determine
the collection of filters 1 = major 2 = harmonic minor 3 = melodic
minor 4 = harmonic major;
#X obj 1377 775 r offset_switch;
#X obj 1465 862 r offset_number;
#X obj 1398 941 modal_offset;
#X obj 563 948 comment 285 9 helvetica ? 35584 0 0 0 vj@vjmanzo.com
;
#X obj 561 932 comment 285 9 helvetica ? 35584 0 0 0 please leave this
comment intact;
#X obj 559 915 comment 285 9 helvetica ? 35584 0 0 0 www.vincemanzo.com
;
#X obj 76 435 value root;
#X obj 1479 1212 outlet;
#X obj 58 1170 bng 15 250 50 0 empty empty empty 17 7 0 10 -262144
-1 -1;
#X obj 428 782 loadbang;
#X obj 471 891 print :;
#X obj 58 913 bng 15 250 50 0 empty empty empty 17 7 0 10 -262144 -1
-1;
#X obj 58 940 send start;
#N canvas 0 50 750 440 incoming 0;
#X obj 75 699 outlet;
#X obj 171 1 inlet;
#X msg 613 581 1 2 1 2 2 2 2;
#X msg 536 581 2 1 2 1 2 2 2;
#X msg 460 581 2 2 1 2 1 2 2;
#X msg 384 581 2 2 2 1 2 1 2;
#X msg 308 581 2 2 2 2 1 2 1;
#X msg 231 581 1 2 2 2 2 1 2;
#X msg 155 581 2 1 2 2 2 2 1;
#X obj 199 519 comment 125 9 helvetica ? 35584 0 0 0 melodic minor
;
#X msg 620 450 1 2 1 2 2 1 3;
#X msg 544 450 3 1 2 1 2 2 1;
#X msg 468 450 1 3 1 2 1 2 2;
#X msg 391 450 2 1 3 1 2 1 2;
#X msg 315 450 2 2 1 3 1 2 1;
#X msg 239 450 1 2 2 1 3 1 2;
#X msg 163 450 2 1 2 2 1 3 1;
#X obj 206 388 comment 125 9 helvetica ? 35584 0 0 0 harmonic minor
;
#X msg 619 305 1 2 2 1 2 1 3;
#X msg 543 305 3 1 2 2 1 2 1;
#X msg 466 305 1 3 1 2 2 1 2;
#X msg 390 305 2 1 3 1 2 2 1;
#X msg 314 305 1 2 1 3 1 2 2;
#X msg 238 305 2 1 2 1 3 1 2;
#X msg 161 305 2 2 1 2 1 3 1;
#X obj 205 243 comment 125 9 helvetica ? 35584 0 0 0 harmonic major
;
#X msg 621 161 1 2 2 1 2 2 2;
#X msg 545 161 2 1 2 2 1 2 2;
#X msg 469 161 2 2 1 2 2 1 2;
#X msg 393 161 2 2 2 1 2 2 1;
#X msg 316 161 1 2 2 2 1 2 2;
#X msg 240 161 2 1 2 2 2 1 2;
#X msg 164 161 2 2 1 2 2 2 1;
#X obj 219 99 comment 125 9 helvetica ? 35584 0 0 0 major;
#X obj 108 219 bng 15 250 50 0 empty empty empty 17 7 0 10 -262144
-1 -1;
#X obj 170 110 route major ionian dorian phrygian lydian mixolydian
aeolian locrian minor;
#X msg 197 52 major;
#X obj 161 266 route harmonic_major dorian_b5 phrygian_b4 lydian_b3
mixolydian_b2 aeolian_b1 locrian_b7;
#X obj 170 413 route harmonic_minor locrian_#6 ionian_#5 dorian_#4
phrygian_#3 lydian_#2 mixolydian_#1;
#X obj 172 543 route melodic_minor dorian_b2 lydian_#5 lydian_b7 mixolydian_b6
locrian_#2 locrian_b4;
#X connect 1 0 35 0;
#X connect 2 0 0 0;
#X connect 3 0 0 0;
#X connect 4 0 0 0;
#X connect 5 0 0 0;
#X connect 6 0 0 0;
#X connect 7 0 0 0;
#X connect 8 0 0 0;
#X connect 10 0 0 0;
#X connect 11 0 0 0;
#X connect 12 0 0 0;
#X connect 13 0 0 0;
#X connect 14 0 0 0;
#X connect 15 0 0 0;
#X connect 16 0 0 0;
#X connect 18 0 0 0;
#X connect 19 0 0 0;
#X connect 20 0 0 0;
#X connect 21 0 0 0;
#X connect 22 0 0 0;
#X connect 23 0 0 0;
#X connect 24 0 0 0;
#X connect 26 0 0 0;
#X connect 27 0 0 0;
#X connect 28 0 0 0;
#X connect 29 0 0 0;
#X connect 30 0 0 0;
#X connect 31 0 0 0;
#X connect 32 0 0 0;
#X connect 35 0 32 0;
#X connect 35 0 34 0;
#X connect 35 1 32 0;
#X connect 35 2 31 0;
#X connect 35 3 30 0;
#X connect 35 4 29 0;
#X connect 35 5 28 0;
#X connect 35 6 27 0;
#X connect 35 7 26 0;
#X connect 35 8 27 0;
#X connect 35 9 37 0;
#X connect 36 0 35 0;
#X connect 37 0 24 0;
#X connect 37 1 23 0;
#X connect 37 2 22 0;
#X connect 37 3 21 0;
#X connect 37 4 20 0;
#X connect 37 5 19 0;
#X connect 37 6 18 0;
#X connect 37 7 38 0;
#X connect 38 0 16 0;
#X connect 38 1 15 0;
#X connect 38 2 14 0;
#X connect 38 3 13 0;
#X connect 38 4 12 0;
#X connect 38 5 11 0;
#X connect 38 6 10 0;
#X connect 38 7 39 0;
#X connect 39 0 8 0;
#X connect 39 1 7 0;
#X connect 39 2 6 0;
#X connect 39 3 5 0;
#X connect 39 4 4 0;
#X connect 39 5 3 0;
#X connect 39 6 2 0;
#X restore 675 188 pd incoming;
#X obj 1123 911 comment 125 9 helvetica ? 35584 0 0 0 major modes;
#N canvas 330 188 1076 628 (subpatch) 0;
#X msg 236 406 11;
#X msg 213 405 9;
#X msg 190 406 7;
#X msg 170 405 5;
#X msg 149 405 4;
#X msg 69 404 0;
#X msg 124 405 2;
#X obj 238 539 s offset_switch;
#X obj 97 507 s offset_number;
#X msg 241 286 mode 7 of the major scale;
#X msg 241 252 mode 6 of the major scale;
#X msg 241 223 mode 5 of the major scale;
#X msg 241 196 mode 4 of the major scale;
#X msg 241 176 mode 3 of the major scale;
#X msg 241 152 mode 2 of the major scale;
#X msg 804 106 Locrian Mode;
#X obj 804 80 bng 15 250 50 0 empty empty empty 17 7 0 10 -262144 -1
-1;
#X obj 804 55 match 1 2 2 1 2 2 2;
#X msg 531 106 Mixolydian Mode;
#X obj 531 80 bng 15 250 50 0 empty empty empty 17 7 0 10 -262144 -1
-1;
#X obj 531 55 match 2 2 1 2 2 1 2;
#X msg 281 106 Phrygian Mode;
#X obj 281 80 bng 15 250 50 0 empty empty empty 17 7 0 10 -262144 -1
-1;
#X obj 281 55 match 1 2 2 2 1 2 2;
#X msg 156 106 Dorian Mode;
#X obj 156 80 bng 15 250 50 0 empty empty empty 17 7 0 10 -262144 -1
-1;
#X obj 156 55 match 2 1 2 2 2 1 2;
#X msg 415 106 Lydian Mode;
#X obj 408 80 bng 15 250 50 0 empty empty empty 17 7 0 10 -262144 -1
-1;
#X obj 408 55 match 2 2 2 1 2 2 1;
#X msg 33 141 mode 1 of the major scale;
#X msg 649 106 Minor Scale / Aeolian Mode;
#X msg 40 103 Major Scale / Ionian Mode;
#X obj 650 79 bng 15 250 50 0 empty empty empty 17 7 0 10 -262144 -1
-1;
#X obj 650 55 match 2 1 2 2 1 2 2;
#X obj 0 80 bng 15 250 50 0 empty empty empty 17 7 0 10 -262144 -1
-1;
#X obj 0 55 match 2 2 1 2 2 2 1;
#X obj 0 33 inlet;
#X obj 156 33 inlet;
#X obj 281 33 inlet;
#X obj 408 33 inlet;
#X obj 531 33 inlet;
#X obj 650 33 inlet;
#X obj 804 33 inlet;
#X obj 804 130 outlet;
#X obj 649 130 outlet;
#X obj 8 130 outlet;
#X obj 156 130 outlet;
#X obj 281 130 outlet;
#X obj 531 130 outlet;
#X obj 415 130 outlet;
#X obj 0 167 outlet;
#X obj 241 176 outlet;
#X obj 241 200 outlet;
#X obj 241 220 outlet;
#X obj 241 248 outlet;
#X obj 241 276 outlet;
#X obj 241 310 outlet;
#X obj 97 475 nbx 5 14 -1e+037 1e+037 0 0 empty empty empty 0 -8 0
10 -262144 -1 -1 0 256;
#X obj 234 507 nbx 5 14 -1e+037 1e+037 0 0 empty empty empty 0 -8 0
10 -262144 -1 -1 0 256;
#X msg 212 473 1;
#X obj 124 438 t f b;
#X connect 0 0 61 0;
#X connect 1 0 61 0;
#X connect 2 0 61 0;
#X connect 3 0 61 0;
#X connect 4 0 61 0;
#X connect 5 0 61 0;
#X connect 6 0 61 0;
#X connect 9 0 57 0;
#X connect 10 0 56 0;
#X connect 11 0 55 0;
#X connect 12 0 54 0;
#X connect 13 0 53 0;
#X connect 14 0 52 0;
#X connect 15 0 44 0;
#X connect 16 0 0 0;
#X connect 16 0 9 0;
#X connect 16 0 15 0;
#X connect 17 0 16 0;
#X connect 18 0 49 0;
#X connect 19 0 2 0;
#X connect 19 0 11 0;
#X connect 19 0 18 0;
#X connect 20 0 19 0;
#X connect 21 0 48 0;
#X connect 22 0 4 0;
#X connect 22 0 13 0;
#X connect 22 0 21 0;
#X connect 23 0 22 0;
#X connect 24 0 47 0;
#X connect 25 0 6 0;
#X connect 25 0 24 0;
#X connect 25 0 14 0;
#X connect 26 0 25 0;
#X connect 27 0 50 0;
#X connect 28 0 3 0;
#X connect 28 0 12 0;
#X connect 28 0 27 0;
#X connect 29 0 28 0;
#X connect 30 0 51 0;
#X connect 31 0 45 0;
#X connect 32 0 46 0;
#X connect 33 0 1 0;
#X connect 33 0 10 0;
#X connect 33 0 31 0;
#X connect 34 0 33 0;
#X connect 35 0 30 0;
#X connect 35 0 32 0;
#X connect 35 0 5 0;
#X connect 36 0 35 0;
#X connect 37 0 36 0;
#X connect 38 0 26 0;
#X connect 39 0 23 0;
#X connect 40 0 29 0;
#X connect 41 0 20 0;
#X connect 42 0 34 0;
#X connect 43 0 17 0;
#X connect 58 0 8 0;
#X connect 59 0 7 0;
#X connect 60 0 59 0;
#X connect 61 0 58 0;
#X connect 61 1 60 0;
#X restore 1084 906 pd;
#X obj 1135 657 comment 206 9 helvetica ? 35584 0 0 0 to analyze distance
list;
#X obj 1106 697 bng 15 250 50 0 empty empty empty 17 7 0 10 -262144
-1 -1;
#X obj 1238 689 bng 15 250 50 0 empty empty empty 17 7 0 10 -262144
-1 -1;
#X msg 1146 697 2 2 1 2 2 2 1;
#X obj 1061 654 prepend set;
#X msg 1238 716 clear;
#X obj 955 583 bng 15 250 50 0 empty empty empty 17 7 0 10 -262144
-1 -1;
#X msg 108 80 -------;
#N canvas 560 51 1076 697 (subpatch) 0;
#X msg 401 499 11;
#X msg 379 499 8;
#X msg 356 501 7;
#X msg 336 499 5;
#X msg 315 499 4;
#X msg 250 499 0;
#X msg 290 499 2;
#X obj 422 611 s offset_switch;
#X obj 236 580 s offset_number;
#X msg 375 436 mode 7 of the harmonic major scale;
#X msg 374 413 mode 6 of the harmonic major scale;
#X msg 374 391 mode 5 of the harmonic major scale;
#X msg 375 366 mode 4 of the harmonic major scale;
#X msg 375 341 mode 3 of the harmonic major scale;
#X msg 35 281 mode 1 of the harmonic major scale;
#X obj 71 352 comment 51 9 helvetica ? 35584 0 0 0 to box 2;
#X obj 124 352 outlet;
#X obj 124 323 outlet;
#X obj 131 161 comment 125 9 helvetica ? 35584 0 0 0 from clear;
#X obj 113 123 inlet;
#X obj 113 160 inlet;
#X msg 193 284 mode 2 of the harmonic major scale;
#X msg 931 238 Locrian b7;
#X obj 931 212 bng 15 250 50 0 empty empty empty 17 7 0 10 -262144
-1 -1;
#X obj 931 187 match 1 2 2 1 2 1 3;
#X msg 659 238 Mixolydian b2;
#X obj 659 212 bng 15 250 50 0 empty empty empty 17 7 0 10 -262144
-1 -1;
#X obj 659 187 match 1 3 1 2 2 1 2;
#X msg 428 237 Phrygian b4;
#X obj 409 212 bng 15 250 50 0 empty empty empty 17 7 0 10 -262144
-1 -1;
#X obj 409 187 match 1 2 1 3 1 2 2;
#X msg 284 238 Dorian b5;
#X obj 284 212 bng 15 250 50 0 empty empty empty 17 7 0 10 -262144
-1 -1;
#X obj 284 187 match 2 1 2 1 3 1 2;
#X msg 543 238 Lydian b3;
#X obj 535 212 bng 15 250 50 0 empty empty empty 17 7 0 10 -262144
-1 -1;
#X obj 535 187 match 2 1 3 1 2 2 1;
#X msg 778 238 Aeolian b1;
#X msg 134 238 Harmonic Major Scale;
#X obj 778 211 bng 15 250 50 0 empty empty empty 17 7 0 10 -262144
-1 -1;
#X obj 778 187 match 3 1 2 2 1 2 1;
#X obj 128 212 bng 15 250 50 0 empty empty empty 17 7 0 10 -262144
-1 -1;
#X obj 128 187 match 2 2 1 2 1 3 1;
#X obj 131 124 comment 125 9 helvetica ? 35584 0 0 0 from pack;
#X obj 71 325 comment 51 9 helvetica ? 35584 0 0 0 to box 1;
#X obj 419 583 nbx 5 14 -1e+037 1e+037 0 0 empty empty empty 0 -8 0
10 -262144 -1 -1 0 256;
#X msg 414 549 4;
#X obj 290 532 t f b;
#X connect 0 0 47 0;
#X connect 1 0 47 0;
#X connect 2 0 47 0;
#X connect 3 0 47 0;
#X connect 4 0 47 0;
#X connect 5 0 47 0;
#X connect 6 0 47 0;
#X connect 9 0 16 0;
#X connect 10 0 16 0;
#X connect 11 0 16 0;
#X connect 12 0 16 0;
#X connect 13 0 16 0;
#X connect 14 0 16 0;
#X connect 19 0 42 0;
#X connect 19 0 33 0;
#X connect 19 0 30 0;
#X connect 19 0 36 0;
#X connect 19 0 27 0;
#X connect 19 0 40 0;
#X connect 19 0 24 0;
#X connect 20 0 42 0;
#X connect 20 0 33 0;
#X connect 20 0 30 0;
#X connect 20 0 36 0;
#X connect 20 0 27 0;
#X connect 20 0 40 0;
#X connect 20 0 24 0;
#X connect 21 0 16 0;
#X connect 22 0 17 0;
#X connect 23 0 9 0;
#X connect 23 0 0 0;
#X connect 23 0 22 0;
#X connect 24 0 23 0;
#X connect 25 0 17 0;
#X connect 26 0 2 0;
#X connect 26 0 11 0;
#X connect 26 0 25 0;
#X connect 27 0 26 0;
#X connect 28 0 17 0;
#X connect 29 0 4 0;
#X connect 29 0 13 0;
#X connect 29 0 28 0;
#X connect 30 0 29 0;
#X connect 31 0 17 0;
#X connect 32 0 21 0;
#X connect 32 0 31 0;
#X connect 32 0 6 0;
#X connect 33 0 32 0;
#X connect 34 0 17 0;
#X connect 35 0 3 0;
#X connect 35 0 12 0;
#X connect 35 0 34 0;
#X connect 36 0 35 0;
#X connect 37 0 17 0;
#X connect 38 0 17 0;
#X connect 39 0 10 0;
#X connect 39 0 1 0;
#X connect 39 0 37 0;
#X connect 40 0 39 0;
#X connect 41 0 14 0;
#X connect 41 0 38 0;
#X connect 41 0 5 0;
#X connect 42 0 41 0;
#X connect 45 0 7 0;
#X connect 46 0 45 0;
#X connect 47 0 8 0;
#X connect 47 1 46 0;
#X restore 1084 1016 pd;
#N canvas 45 35 1114 625 (subpatch) 0;
#X msg 386 408 11;
#X msg 364 408 9;
#X msg 341 409 7;
#X msg 321 408 5;
#X msg 300 408 3;
#X msg 250 408 0;
#X msg 275 408 2;
#X obj 404 527 s offset_switch;
#X obj 230 481 s offset_number;
#X msg 384 314 mode 7 of the melodic minor scale;
#X msg 383 290 mode 6 of the melodic minor scale;
#X msg 383 268 mode 5 of the melodic minor scale;
#X msg 384 244 mode 4 of the melodic minor scale;
#X msg 384 219 mode 3 of the melodic minor scale;
#X msg 44 158 mode 1 of the melodic minor scale;
#X obj 80 230 comment 51 9 helvetica ? 35584 0 0 0 to box 2;
#X obj 133 230 outlet;
#X obj 133 201 outlet;
#X obj 140 39 comment 125 9 helvetica ? 35584 0 0 0 from clear;
#X obj 121 1 inlet;
#X obj 121 37 inlet;
#X msg 201 162 mode 2 of the melodic minor scale;
#X msg 940 116 Locrian b4;
#X obj 940 90 bng 15 250 50 0 empty empty empty 17 7 0 10 -262144 -1
-1;
#X obj 940 65 match 1 2 1 2 2 2 2;
#X msg 668 116 Mixolydian b6;
#X obj 668 90 bng 15 250 50 0 empty empty empty 17 7 0 10 -262144 -1
-1;
#X obj 668 65 match 2 2 1 2 1 2 2;
#X msg 436 114 Lydian_#5;
#X obj 418 90 bng 15 250 50 0 empty empty empty 17 7 0 10 -262144 -1
-1;
#X obj 418 65 match 2 2 2 2 1 2 1;
#X msg 293 116 Dorian b2;
#X obj 293 90 bng 15 250 50 0 empty empty empty 17 7 0 10 -262144 -1
-1;
#X obj 293 65 match 1 2 2 2 2 1 2;
#X msg 554 121 Lydian b7;
#X obj 544 90 bng 15 250 50 0 empty empty empty 17 7 0 10 -262144 -1
-1;
#X obj 544 65 match 2 2 2 1 2 1 2;
#X msg 786 116 Locrian_#2;
#X msg 143 116 Melodic Minor Scale;
#X obj 786 89 bng 15 250 50 0 empty empty empty 17 7 0 10 -262144 -1
-1;
#X obj 786 65 match 2 1 2 1 2 2 2;
#X obj 136 90 bng 15 250 50 0 empty empty empty 17 7 0 10 -262144 -1
-1;
#X obj 136 65 match 2 1 2 2 2 2 1;
#X obj 140 2 comment 125 9 helvetica ? 35584 0 0 0 from pack;
#X obj 80 202 comment 51 9 helvetica ? 35584 0 0 0 to box 1;
#X obj 404 504 nbx 5 14 -1e+037 1e+037 0 0 empty empty empty 0 -8 0
10 -262144 -1 -1 0 256;
#X msg 404 476 3;
#X obj 275 441 t f b;
#X connect 0 0 47 0;
#X connect 1 0 47 0;
#X connect 2 0 47 0;
#X connect 3 0 47 0;
#X connect 4 0 47 0;
#X connect 5 0 47 0;
#X connect 6 0 47 0;
#X connect 9 0 16 0;
#X connect 10 0 16 0;
#X connect 11 0 16 0;
#X connect 12 0 16 0;
#X connect 13 0 16 0;
#X connect 14 0 16 0;
#X connect 19 0 42 0;
#X connect 19 0 33 0;
#X connect 19 0 30 0;
#X connect 19 0 36 0;
#X connect 19 0 27 0;
#X connect 19 0 40 0;
#X connect 19 0 24 0;
#X connect 20 0 42 0;
#X connect 20 0 33 0;
#X connect 20 0 30 0;
#X connect 20 0 36 0;
#X connect 20 0 27 0;
#X connect 20 0 40 0;
#X connect 20 0 24 0;
#X connect 21 0 16 0;
#X connect 22 0 17 0;
#X connect 23 0 9 0;
#X connect 23 0 0 0;
#X connect 23 0 22 0;
#X connect 24 0 23 0;
#X connect 25 0 17 0;
#X connect 26 0 2 0;
#X connect 26 0 11 0;
#X connect 26 0 25 0;
#X connect 27 0 26 0;
#X connect 28 0 17 0;
#X connect 29 0 4 0;
#X connect 29 0 13 0;
#X connect 29 0 28 0;
#X connect 30 0 29 0;
#X connect 31 0 17 0;
#X connect 32 0 21 0;
#X connect 32 0 6 0;
#X connect 32 0 31 0;
#X connect 33 0 32 0;
#X connect 34 0 17 0;
#X connect 35 0 3 0;
#X connect 35 0 12 0;
#X connect 35 0 34 0;
#X connect 36 0 35 0;
#X connect 37 0 17 0;
#X connect 38 0 17 0;
#X connect 39 0 1 0;
#X connect 39 0 10 0;
#X connect 39 0 37 0;
#X connect 40 0 39 0;
#X connect 41 0 14 0;
#X connect 41 0 38 0;
#X connect 41 0 5 0;
#X connect 42 0 41 0;
#X connect 45 0 7 0;
#X connect 46 0 45 0;
#X connect 47 0 8 0;
#X connect 47 1 46 0;
#X restore 1084 978 pd;
#X obj 1124 1022 comment 149 9 helvetica ? 35584 0 0 0 harmonic major
modes;
#X obj 1124 984 comment 125 9 helvetica ? 35584 0 0 0 melodic minor
modes;
#X obj 912 906 comment 100 9 helvetica ? 35584 0 0 0 sub-display;
#X obj 971 906 prepend set;
#X obj 971 862 prepend set;
#X obj 908 861 comment 94 9 helvetica ? 35584 0 0 0 main display;
#N canvas 293 72 1076 697 (subpatch) 0;
#X msg 325 518 11;
#X msg 303 518 8;
#X msg 280 519 7;
#X msg 260 518 5;
#X msg 239 518 3;
#X msg 189 518 0;
#X msg 214 518 2;
#X obj 349 592 s offset_switch;
#X obj 214 584 s offset_number;
#X msg 375 436 mode 7 of the harmonic minor scale;
#X msg 374 413 mode 6 of the harmonic minor scale;
#X msg 374 391 mode 5 of the harmonic minor scale;
#X msg 375 366 mode 4 of the harmonic minor scale;
#X msg 375 341 mode 3 of the harmonic minor scale;
#X msg 35 281 mode 1 of the harmonic minor scale;
#X obj 71 352 comment 43 9 helvetica ? 35584 0 0 0 to box 2;
#X obj 124 352 outlet;
#X obj 124 323 outlet;
#X obj 131 161 comment 125 9 helvetica ? 35584 0 0 0 from clear;
#X obj 113 123 inlet;
#X obj 113 160 inlet;
#X msg 193 284 mode 2 of the harmonic minor scale;
#X msg 931 238 Mixolydian_#1;
#X obj 931 212 bng 15 250 50 0 empty empty empty 17 7 0 10 -262144
-1 -1;
#X obj 931 187 match 1 2 1 2 2 1 3;
#X msg 659 238 Phrygian_#3;
#X obj 659 212 bng 15 250 50 0 empty empty empty 17 7 0 10 -262144
-1 -1;
#X obj 659 187 match 1 3 1 2 1 2 2;
#X msg 428 237 Ionian_#5;
#X obj 409 212 bng 15 250 50 0 empty empty empty 17 7 0 10 -262144
-1 -1;
#X obj 409 187 match 2 2 1 3 1 2 1;
#X msg 284 238 Locrian_#6;
#X obj 284 212 bng 15 250 50 0 empty empty empty 17 7 0 10 -262144
-1 -1;
#X obj 284 187 match 1 2 2 1 3 1 2;
#X msg 543 238 Dorian_#4;
#X obj 535 212 bng 15 250 50 0 empty empty empty 17 7 0 10 -262144
-1 -1;
#X obj 535 187 match 2 1 3 1 2 1 2;
#X msg 778 238 Lydian_#2;
#X msg 134 238 Harmonic Minor Scale;
#X obj 778 211 bng 15 250 50 0 empty empty empty 17 7 0 10 -262144
-1 -1;
#X obj 784 186 match 3 1 2 1 2 2 1;
#X obj 128 212 bng 15 250 50 0 empty empty empty 17 7 0 10 -262144
-1 -1;
#X obj 128 187 match 2 1 2 2 1 3 1;
#X obj 131 124 comment 125 9 helvetica ? 35584 0 0 0 from pack;
#X obj 71 325 comment 43 9 helvetica ? 35584 0 0 0 to box 1;
#X obj 349 570 nbx 5 14 -1e+037 1e+037 0 0 empty empty empty 0 -8 0
10 -262144 -1 -1 0 256;
#X msg 350 543 2;
#X obj 214 551 t f b;
#X connect 0 0 47 0;
#X connect 1 0 47 0;
#X connect 2 0 47 0;
#X connect 3 0 47 0;
#X connect 4 0 47 0;
#X connect 5 0 47 0;
#X connect 6 0 47 0;
#X connect 9 0 16 0;
#X connect 10 0 16 0;
#X connect 11 0 16 0;
#X connect 12 0 16 0;
#X connect 13 0 16 0;
#X connect 14 0 16 0;
#X connect 19 0 42 0;
#X connect 19 0 33 0;
#X connect 19 0 30 0;
#X connect 19 0 36 0;
#X connect 19 0 27 0;
#X connect 19 0 40 0;
#X connect 19 0 24 0;
#X connect 20 0 42 0;
#X connect 20 0 33 0;
#X connect 20 0 30 0;
#X connect 20 0 36 0;
#X connect 20 0 27 0;
#X connect 20 0 40 0;
#X connect 20 0 24 0;
#X connect 21 0 16 0;
#X connect 22 0 17 0;
#X connect 23 0 0 0;
#X connect 23 0 9 0;
#X connect 23 0 22 0;
#X connect 24 0 23 0;
#X connect 25 0 17 0;
#X connect 26 0 2 0;
#X connect 26 0 11 0;
#X connect 26 0 25 0;
#X connect 27 0 26 0;
#X connect 28 0 17 0;
#X connect 29 0 4 0;
#X connect 29 0 13 0;
#X connect 29 0 28 0;
#X connect 30 0 29 0;
#X connect 31 0 17 0;
#X connect 32 0 21 0;
#X connect 32 0 6 0;
#X connect 32 0 31 0;
#X connect 33 0 32 0;
#X connect 34 0 17 0;
#X connect 35 0 3 0;
#X connect 35 0 12 0;
#X connect 35 0 34 0;
#X connect 36 0 35 0;
#X connect 37 0 17 0;
#X connect 38 0 17 0;
#X connect 39 0 1 0;
#X connect 39 0 10 0;
#X connect 39 0 37 0;
#X connect 40 0 39 0;
#X connect 41 0 14 0;
#X connect 41 0 38 0;
#X connect 41 0 5 0;
#X connect 42 0 41 0;
#X connect 45 0 7 0;
#X connect 46 0 45 0;
#X connect 47 0 8 0;
#X connect 47 1 46 0;
#X restore 1084 941 pd;
#X obj 1124 943 comment 149 9 helvetica ? 35584 0 0 0 harmonic minor
modes;
#X obj 631 603 outlet;
#X obj 605 567 value scalenote8;
#X floatatom 605 393 0 0 0 0 - - -;
#X obj 556 422 + 0;
#X obj 615 144 route list;
#X floatatom 1388 553 0 0 0 0 - - -;
#X obj 1388 524 -;
#X floatatom 1316 553 0 0 0 0 - - -;
#X obj 1316 524 -;
#X floatatom 1251 553 0 0 0 0 - - -;
#X obj 1258 524 -;
#X floatatom 1185 553 0 0 0 0 - - -;
#X obj 1185 524 -;
#X floatatom 1123 553 0 0 0 0 - - -;
#X obj 1123 524 -;
#X floatatom 1060 553 0 0 0 0 - - -;
#X obj 1060 524 -;
#X floatatom 996 553 0 0 0 0 - - -;
#X obj 996 524 -;
#X obj 1243 635 comment 125 9 helvetica ? 35584 0 0 0 distance-display
;
#X obj 181 603 outlet;
#X obj 234 603 outlet;
#X obj 295 603 outlet;
#X obj 358 603 outlet;
#X obj 449 603 outlet;
#X obj 505 603 outlet;
#X obj 596 603 outlet;
#X obj 615 115 inlet;
#X obj 131 274 inlet;
#X msg 74 62 Degree_Distances: -------;
#X obj 1050 627 prepend set Degree_Distances:;
#N canvas 19 61 750 440 namer 0;
#X obj 126 204 outlet;
#X obj 104 25 inlet;
#X obj 66 55 sel 0 1 2 3 4 5 6 7 8 9 10 11;
#X msg 228 114 A#/Bb;
#X msg 188 114 G#/Ab;
#X msg 148 114 F#/Gb;
#X msg 109 114 D#/Eb;
#X msg 179 84 B;
#X msg 160 84 A;
#X msg 140 84 G;
#X msg 121 84 F;
#X msg 103 84 E;
#X msg 83 84 D;
#X msg 66 114 C#/Db;
#X msg 63 84 C;
#X connect 1 0 2 0;
#X connect 2 0 14 0;
#X connect 2 1 13 0;
#X connect 2 2 12 0;
#X connect 2 3 6 0;
#X connect 2 4 11 0;
#X connect 2 5 10 0;
#X connect 2 6 5 0;
#X connect 2 7 9 0;
#X connect 2 8 4 0;
#X connect 2 9 8 0;
#X connect 2 10 3 0;
#X connect 2 11 7 0;
#X connect 3 0 0 0;
#X connect 4 0 0 0;
#X connect 5 0 0 0;
#X connect 6 0 0 0;
#X connect 7 0 0 0;
#X connect 8 0 0 0;
#X connect 9 0 0 0;
#X connect 10 0 0 0;
#X connect 11 0 0 0;
#X connect 12 0 0 0;
#X connect 13 0 0 0;
#X connect 14 0 0 0;
#X restore 117 647 pd namer;
#N canvas 19 61 1076 640 roots 0;
#X obj 908 25 inlet;
#X obj 79 477 outlet;
#X msg 239 396 11;
#X msg 214 396 10;
#X msg 110 396 5;
#X msg 173 396 8;
#X msg 194 396 9;
#X msg 131 396 6;
#X msg 153 396 7;
#X msg 6 396 0;
#X msg 69 396 3;
#X msg 90 396 4;
#X msg 28 396 1;
#X msg 49 396 2;
#X obj 461 122 match Db;
#X obj 746 85 match Bb;
#X obj 676 96 match Ab;
#X obj 608 125 match Gb;
#X obj 539 127 match Eb;
#X obj 1521 154 match 10;
#X obj 1461 155 match 8;
#X obj 1394 155 match 6;
#X obj 1325 156 match 3;
#X obj 1250 156 match 1;
#X obj 1188 157 match 11;
#X obj 1124 157 match 9;
#X obj 1060 157 match 7;
#X obj 993 157 match 5;
#X obj 928 157 match 4;
#X obj 864 157 match 2;
#X obj 798 154 match 0;
#X obj 731 207 bng 15 250 50 0 empty empty empty 17 7 0 10 -262144
-1 -1;
#X obj 756 133 match A#;
#X obj 668 207 bng 15 250 50 0 empty empty empty 17 7 0 10 -262144
-1 -1;
#X obj 666 157 match G#;
#X obj 600 207 bng 15 250 50 0 empty empty empty 17 7 0 10 -262144
-1 -1;
#X obj 599 157 match F#;
#X obj 531 208 bng 15 250 50 0 empty empty empty 17 7 0 10 -262144
-1 -1;
#X obj 530 158 match D#;
#X obj 456 208 bng 15 250 50 0 empty empty empty 17 7 0 10 -262144
-1 -1;
#X obj 455 158 match C#;
#X obj 394 209 bng 15 250 50 0 empty empty empty 17 7 0 10 -262144
-1 -1;
#X obj 393 160 match B;
#X obj 330 209 bng 15 250 50 0 empty empty empty 17 7 0 10 -262144
-1 -1;
#X obj 329 160 match A;
#X obj 266 209 bng 15 250 50 0 empty empty empty 17 7 0 10 -262144
-1 -1;
#X obj 265 160 match G;
#X obj 199 209 bng 15 250 50 0 empty empty empty 17 7 0 10 -262144
-1 -1;
#X obj 198 160 match F;
#X obj 134 209 bng 15 250 50 0 empty empty empty 17 7 0 10 -262144
-1 -1;
#X obj 133 160 match E;
#X obj 70 209 bng 15 250 50 0 empty empty empty 17 7 0 10 -262144 -1
-1;
#X obj 69 160 match D;
#X obj 3 209 bng 15 250 50 0 empty empty empty 17 7 0 10 -262144 -1
-1;
#X obj 1 160 match C;
#X connect 0 0 54 0;
#X connect 0 0 52 0;
#X connect 0 0 50 0;
#X connect 0 0 48 0;
#X connect 0 0 46 0;
#X connect 0 0 44 0;
#X connect 0 0 42 0;
#X connect 0 0 40 0;
#X connect 0 0 14 0;
#X connect 0 0 38 0;
#X connect 0 0 18 0;
#X connect 0 0 36 0;
#X connect 0 0 17 0;
#X connect 0 0 34 0;
#X connect 0 0 16 0;
#X connect 0 0 15 0;
#X connect 0 0 32 0;
#X connect 0 0 30 0;
#X connect 0 0 29 0;
#X connect 0 0 28 0;
#X connect 0 0 27 0;
#X connect 0 0 26 0;
#X connect 0 0 25 0;
#X connect 0 0 24 0;
#X connect 0 0 23 0;
#X connect 0 0 22 0;
#X connect 0 0 21 0;
#X connect 0 0 20 0;
#X connect 0 0 19 0;
#X connect 2 0 1 0;
#X connect 3 0 1 0;
#X connect 4 0 1 0;
#X connect 5 0 1 0;
#X connect 6 0 1 0;
#X connect 7 0 1 0;
#X connect 8 0 1 0;
#X connect 9 0 1 0;
#X connect 10 0 1 0;
#X connect 11 0 1 0;
#X connect 12 0 1 0;
#X connect 13 0 1 0;
#X connect 14 0 39 0;
#X connect 15 0 31 0;
#X connect 16 0 33 0;
#X connect 17 0 35 0;
#X connect 18 0 37 0;
#X connect 19 0 31 0;
#X connect 20 0 33 0;
#X connect 21 0 35 0;
#X connect 22 0 37 0;
#X connect 23 0 39 0;
#X connect 24 0 41 0;
#X connect 25 0 43 0;
#X connect 26 0 45 0;
#X connect 27 0 47 0;
#X connect 28 0 49 0;
#X connect 29 0 51 0;
#X connect 30 0 53 0;
#X connect 31 0 3 0;
#X connect 32 0 31 0;
#X connect 33 0 5 0;
#X connect 34 0 33 0;
#X connect 35 0 7 0;
#X connect 36 0 35 0;
#X connect 37 0 10 0;
#X connect 38 0 37 0;
#X connect 39 0 12 0;
#X connect 40 0 39 0;
#X connect 41 0 2 0;
#X connect 42 0 41 0;
#X connect 43 0 6 0;
#X connect 44 0 43 0;
#X connect 45 0 8 0;
#X connect 46 0 45 0;
#X connect 47 0 4 0;
#X connect 48 0 47 0;
#X connect 49 0 11 0;
#X connect 50 0 49 0;
#X connect 51 0 13 0;
#X connect 52 0 51 0;
#X connect 53 0 9 0;
#X connect 54 0 53 0;
#X restore 131 311 pd roots;
#X msg 74 33 -------;
#X obj 117 684 prepend set;
#X msg 118 33 -------;
#X obj 133 478 bng 15 250 50 0 empty empty empty 17 7 0 10 -262144
-1 -1;
#X obj 165 363 bng 15 250 50 0 empty empty empty 17 7 0 10 -262144
-1 -1;
#X obj 676 501 bng 15 250 50 0 empty empty empty 17 7 0 10 -262144
-1 -1;
#X msg 676 533 clear;
#X obj 556 533 value scalenote7;
#X obj 493 567 value scalenote6;
#X obj 431 533 value scalenote5;
#X obj 365 567 value scalenote4;
#X obj 298 533 value scalenote3;
#X obj 234 567 value scalenote2;
#X obj 165 533 value scalenote1;
#X obj 608 276 unpack 1 2 3 4 5 6 7;
#X floatatom 556 393 0 0 0 0 - - -;
#X obj 493 422 + 0;
#X floatatom 493 393 0 0 0 0 - - -;
#X obj 431 422 + 0;
#X floatatom 431 393 0 0 0 0 - - -;
#X obj 365 422 + 0;
#X floatatom 365 393 0 0 0 0 - - -;
#X obj 298 422 + 0;
#X floatatom 298 393 0 0 0 0 - - -;
#X obj 233 422 + 0;
#X floatatom 233 393 0 0 0 0 - - -;
#X obj 163 422 + 0;
#X floatatom 163 393 0 0 0 0 - - -;
#X obj 701 499 comment 125 9 helvetica ? 35584 0 0 0 triggers calculation
;
#X obj 179 99 comment 583 12 helvetica ? 35584 0 0 0 vj@vjmanzo.com
;
#X obj 51 682 comment 125 9 helvetica ? 35584 0 0 0 root display;
#X obj 1499 1148 comment 196 9 helvetica ? 35584 0 0 0 creates keyfilter
coll list;
#X obj 563 900 comment 285 9 helvetica ? 35584 0 0 0 this source is
the work of Vincent Joseph Manzo;
#X obj 71 100 comment 655 12 helvetica ? 35584 0 0 0 (c) 2006 V.J.
Manzo;
#X obj 1061 613 pack 0 1 2 3 4 5 6;
#X obj 937 358 loadbang;
#X msg 937 387 -------;
#X obj 1377 1150 coll modal_scale;
#C restore;
#X msg 739 270 2 2 1 2 2 2 1;
#X obj 985 613 change;
#X obj 985 642 bng 15 250 50 0 empty empty empty 17 7 0 10 -262144
-1 -1;
#X msg 739 241 2 1 2 2 2 1 2;
#X msg 218 236 0;
#X obj 301 292 bng 15 250 50 0 empty empty empty 17 7 0 10 -262144
-1 -1;
#X obj 340 304 bng 15 250 50 0 empty empty empty 17 7 0 10 -262144
-1 -1;
#X obj 1316 990 nbx 5 14 -1e+037 1e+037 0 0 empty empty empty 0 -8
0 10 -262144 -1 -1 0 256;
#X obj 1466 906 nbx 5 14 -1e+037 1e+037 0 0 empty empty empty 0 -8
0 10 -262144 -1 -1 0 256;
#X msg 256 236 6;
#X msg 445 845 www.vincemanzo.com ::;
#X text 101 117 http://www.vincemanzo.com;
#X msg 471 812 Modal Object Library (c) 2006 V.J. Manzo ::;
#X connect 1 0 0 0;
#X connect 1 0 111 0;
#X connect 2 0 0 0;
#X connect 2 0 111 0;
#X connect 3 0 0 0;
#X connect 3 0 111 0;
#X connect 4 0 0 0;
#X connect 4 0 111 0;
#X connect 5 0 4 0;
#X connect 5 1 3 0;
#X connect 5 2 2 0;
#X connect 5 3 1 0;
#X connect 7 0 119 0;
#X connect 8 0 120 0;
#X connect 9 0 5 1;
#X connect 15 0 14 0;
#X connect 16 0 122 0;
#X connect 16 0 124 0;
#X connect 18 0 19 0;
#X connect 18 0 15 0;
#X connect 20 0 88 0;
#X connect 20 0 117 0;
#X connect 20 0 118 0;
#X connect 22 0 36 0;
#X connect 22 1 37 0;
#X connect 22 2 37 0;
#X connect 22 3 36 0;
#X connect 22 4 36 0;
#X connect 22 5 36 0;
#X connect 22 6 36 0;
#X connect 22 7 36 0;
#X connect 22 8 36 0;
#X connect 22 9 37 0;
#X connect 22 10 37 0;
#X connect 22 11 37 0;
#X connect 22 12 37 0;
#X connect 22 13 37 0;
#X connect 24 0 26 0;
#X connect 25 0 28 0;
#X connect 26 0 22 0;
#X connect 26 0 39 0;
#X connect 26 0 32 0;
#X connect 26 0 31 0;
#X connect 26 0 22 1;
#X connect 26 0 22 2;
#X connect 26 0 22 3;
#X connect 26 0 22 4;
#X connect 26 0 22 5;
#X connect 26 0 22 6;
#X connect 27 0 24 0;
#X connect 27 0 26 0;
#X connect 27 0 25 0;
#X connect 28 0 22 0;
#X connect 28 0 22 1;
#X connect 28 0 22 2;
#X connect 28 0 22 3;
#X connect 28 0 22 4;
#X connect 28 0 22 5;
#X connect 28 0 22 6;
#X connect 28 0 39 1;
#X connect 28 0 32 1;
#X connect 28 0 31 1;
#X connect 29 0 108 0;
#X connect 31 0 36 0;
#X connect 31 1 37 0;
#X connect 32 0 36 0;
#X connect 32 1 37 0;
#X connect 36 0 30 0;
#X connect 37 0 76 0;
#X connect 39 0 36 0;
#X connect 39 1 37 0;
#X connect 42 0 41 0;
#X connect 43 0 42 0;
#X connect 43 0 47 0;
#X connect 44 0 43 0;
#X connect 45 0 88 0;
#X connect 45 0 117 0;
#X connect 45 0 118 0;
#X connect 45 1 20 0;
#X connect 46 0 108 6;
#X connect 47 0 46 0;
#X connect 48 0 108 5;
#X connect 49 0 48 0;
#X connect 50 0 108 4;
#X connect 51 0 50 0;
#X connect 52 0 108 3;
#X connect 53 0 52 0;
#X connect 54 0 108 2;
#X connect 55 0 54 0;
#X connect 56 0 108 1;
#X connect 57 0 56 0;
#X connect 58 0 108 0;
#X connect 59 0 58 0;
#X connect 68 0 45 0;
#X connect 69 0 73 0;
#X connect 71 0 70 0;
#X connect 72 0 75 0;
#X connect 73 0 101 0;
#X connect 73 0 117 0;
#X connect 73 0 118 0;
#X connect 75 0 74 0;
#X connect 77 0 79 0;
#X connect 78 0 101 0;
#X connect 79 0 18 0;
#X connect 79 0 87 0;
#X connect 79 0 86 0;
#X connect 79 0 85 0;
#X connect 79 0 84 0;
#X connect 79 0 83 0;
#X connect 79 0 82 0;
#X connect 79 0 81 0;
#X connect 79 0 42 0;
#X connect 79 0 80 0;
#X connect 81 0 67 0;
#X connect 82 0 66 0;
#X connect 83 0 65 0;
#X connect 84 0 64 0;
#X connect 85 0 63 0;
#X connect 86 0 62 0;
#X connect 87 0 61 0;
#X connect 88 0 78 0;
#X connect 88 0 100 1;
#X connect 88 1 78 0;
#X connect 88 1 98 1;
#X connect 88 2 78 0;
#X connect 88 2 96 1;
#X connect 88 3 78 0;
#X connect 88 3 94 1;
#X connect 88 4 78 0;
#X connect 88 4 92 1;
#X connect 88 5 78 0;
#X connect 88 5 90 1;
#X connect 88 6 44 1;
#X connect 89 0 44 0;
#X connect 89 0 81 0;
#X connect 89 0 49 0;
#X connect 89 0 47 1;
#X connect 90 0 89 0;
#X connect 91 0 90 0;
#X connect 91 0 82 0;
#X connect 91 0 51 0;
#X connect 91 0 49 1;
#X connect 92 0 91 0;
#X connect 93 0 92 0;
#X connect 93 0 83 0;
#X connect 93 0 53 0;
#X connect 93 0 51 1;
#X connect 94 0 93 0;
#X connect 95 0 94 0;
#X connect 95 0 84 0;
#X connect 95 0 55 0;
#X connect 95 0 53 1;
#X connect 96 0 95 0;
#X connect 97 0 96 0;
#X connect 97 0 85 0;
#X connect 97 0 57 0;
#X connect 97 0 55 1;
#X connect 98 0 97 0;
#X connect 99 0 98 0;
#X connect 99 0 86 0;
#X connect 99 0 59 0;
#X connect 99 0 57 1;
#X connect 100 0 99 0;
#X connect 101 0 13 0;
#X connect 101 0 72 0;
#X connect 101 0 77 0;
#X connect 101 0 100 0;
#X connect 101 0 87 0;
#X connect 101 0 59 1;
#X connect 101 0 9 0;
#X connect 108 0 71 0;
#X connect 108 0 27 0;
#X connect 109 0 110 0;
#X connect 110 0 71 0;
#X connect 110 0 37 0;
#X connect 110 0 36 0;
#X connect 110 0 75 0;
#X connect 112 0 88 0;
#X connect 112 0 118 0;
#X connect 112 0 117 0;
#X connect 113 0 114 0;
#X connect 114 0 108 0;
#X connect 115 0 88 0;
#X connect 115 0 118 0;
#X connect 115 0 117 0;
#X connect 116 0 101 0;
#X connect 116 0 117 0;
#X connect 116 0 118 0;
#X connect 117 0 101 0;
#X connect 118 0 101 0;
#X connect 119 0 5 0;
#X connect 120 0 9 1;
#X connect 121 0 101 0;
#X connect 121 0 117 0;
#X connect 121 0 118 0;
#X connect 122 0 17 0;
#X connect 124 0 17 0;
#X coords 0 0 1 1 85 60 0;
