#N canvas 773 85 437 420 12;
#X obj 24 259 comment 214 20 helvetica ? 35584 0 0 0 Modal_Prog;
#X obj 129 27 comment 125 9 helvetica ? 35584 0 0 0 chord progressions
;
#X obj 153 77 zl len;
#X obj 153 109 nbx 5 14 -1e+037 1e+037 0 0 empty empty empty 0 -8 0
10 -262144 -1 -1 10 256;
#X obj 130 186 prepend set;
#X msg 130 216 1 4 5 V/5 5 6 V/6 6 7 8;
#X obj 130 161 prepend;
#X obj 187 302 prepend set;
#X msg 187 326 V/6;
#X obj 187 276 prepend;
#X obj 187 242 zl nth 1;
#X obj 219 110 bng 15 250 50 0 empty empty empty 17 7 0 10 -262144
-1 -1;
#X obj 219 162 nbx 5 14 -1e+037 1e+037 0 0 empty empty empty 0 -8 0
10 -262144 -1 -1 7 256;
#X obj 219 185 t b f;
#X obj 130 41 inlet;
#X obj 84 41 inlet;
#X obj 187 354 outlet;
#X obj 82 26 comment 125 9 helvetica ? 35584 0 0 0 bang;
#X obj 219 134 counter 0 1 4;
#X msg 263 95 1;
#X obj 26 290 comment 125 9 helvetica ? 35584 0 0 0 a chopped down
version of my modal_prog object for max. Lacks some features of the
original.;
#X obj 167 331 bng 15 250 50 0 empty empty empty 17 7 0 10 -262144
-1 -1;
#X connect 2 0 3 0;
#X connect 3 0 10 1;
#X connect 3 0 18 4;
#X connect 4 0 5 0;
#X connect 5 0 10 0;
#X connect 6 0 4 0;
#X connect 7 0 8 0;
#X connect 7 0 21 0;
#X connect 8 0 16 0;
#X connect 9 0 7 0;
#X connect 10 0 9 0;
#X connect 11 0 18 0;
#X connect 12 0 13 0;
#X connect 13 0 5 0;
#X connect 13 1 10 1;
#X connect 14 0 2 0;
#X connect 14 0 6 0;
#X connect 14 0 19 0;
#X connect 15 0 11 0;
#X connect 18 0 12 0;
#X connect 19 0 18 2;
#X connect 21 0 8 0;
