#N canvas 32 117 591 422 12;
#X msg 80 508 window flags nogrow \, window exec;
#X obj 79 481 loadbang;
#X obj 83 535 thispatcher;
#X obj 249 373 outlet;
#X obj 325 19 inlet;
#X floatatom 325 50 0 0 0 0 - - -;
#X obj 491 186 comment 61 9 helvetica ? 35584 0 0 0 mode data stored
in list;
#X floatatom 393 270 0 0 0 0 - - -;
#X floatatom 393 145 0 0 0 0 - - -;
#X floatatom 249 146 0 0 0 0 - - -;
#X obj 249 217 * 12;
#X obj 439 113 comment 125 9 helvetica ? 35584 0 0 0 pitch class;
#X floatatom 249 350 0 0 0 0 - - -;
#X obj 249 316 +;
#X obj 393 111 % 12;
#X obj 249 111 / 12;
#X obj 296 112 comment 68 9 helvetica ? 35584 0 0 0 octave register
;
#X obj 48 100 comment 189 18 helvetica ? 35584 0 0 0 Modal_Filter;
#X obj 48 130 comment 176 9 helvetica ? 35584 0 0 0 simple abstraction
that filters all incoming notes to those specified by the Modal_Change
object;
#X obj 46 235 comment 189 9 helvetica ? 35584 0 0 0 vincemanzo.com
;
#X obj 44 207 comment 196 12 helvetica ? 35584 0 0 0 Vincent J. Manzo
(2007);
#X obj 249 178 int;
#X msg 436 167 clear;
#X obj 393 217 coll modal_scale;
#C restore;
#X connect 0 0 2 0;
#X connect 1 0 0 0;
#X connect 4 0 5 0;
#X connect 5 0 15 0;
#X connect 5 0 14 0;
#X connect 7 0 13 1;
#X connect 8 0 23 0;
#X connect 9 0 21 0;
#X connect 10 0 13 0;
#X connect 12 0 3 0;
#X connect 13 0 12 0;
#X connect 14 0 8 0;
#X connect 15 0 9 0;
#X connect 21 0 10 0;
#X connect 22 0 23 0;
#X connect 23 0 7 0;
