#N canvas 251 25 943 644 12;
#X msg 236 203 6 2 5 1;
#X msg 222 181 1 5 6 4;
#X obj 46 40 comment 865 12 helvetica ? 35584 0 0 0 the modal_prog
object connects to the modal_triad object to easily display the chords
of common progressions.;
#X obj 198 22 comment 58 9 helvetica ? 35584 0 0 0 (c) 2007;
#X obj 246 258 comment 139 9 helvetica ? 35584 0 0 0 the outlet connects
to the 1st inlet of the modal_triad object;
#X obj 134 79 tgl 15 0 empty empty empty 17 7 0 10 -262144 -1 -1 1
1;
#X obj 205 81 loadbang;
#X obj 134 163 bng 15 250 50 0 empty empty empty 17 7 0 10 -262144
-1 -1;
#X obj 169 254 modal_prog;
#X obj 455 83 loadbang;
#X obj 455 110 bng 15 250 50 0 empty empty empty 17 7 0 10 -262144
-1 -1;
#X msg 496 244 major;
#X msg 416 243 C;
#X obj 471 372 comment 35 9 helvetica ? 35584 0 0 0 5th;
#X obj 397 371 comment 35 9 helvetica ? 35584 0 0 0 3rd;
#X floatatom 470 352 0 0 0 0 - - -;
#X floatatom 396 352 0 0 0 0 - - -;
#X floatatom 330 351 0 0 0 0 - - -;
#X obj 416 268 modal_change;
#X obj 330 319 modal_triad;
#X obj 336 372 comment 30 9 helvetica ? 35584 0 0 0 Root;
#X msg 205 156 1 4 5 V/5 5 6 V/6 6 7 8;
#X obj 230 139 comment 136 9 helvetica ? 35584 0 0 0 chords progressions
;
#X obj 671 151 comment 214 9 helvetica ? 35584 0 0 0 visit www.clicheprogressions.com
for more of pop musics most infamous chord progressions;
#X obj 31 229 comment 139 9 helvetica ? 35584 0 0 0 left inlet takes
a bang to bang each chord from the progression;
#X obj 254 22 comment 231 9 helvetica ? 35584 0 0 0 by V.J. Manzo;
#X obj 46 10 comment 866 20 helvetica ? 35584 0 0 0 modal_prog;
#X msg 247 225 1 Gr6 5 1 e N6 3;
#X obj 23 370 comment 118 18 helvetica ? 35584 0 0 0 see also:;
#X text 22 393 http://www.vincemanzo.com | vj@vjmanzo.com;
#X obj 100 375 Modal_Object_Library;
#X obj 134 114 metro 1000;
#X msg 450 214 E;
#X obj 330 422 abs-sampler-chordosc;
#X obj 512 362 bng 15 250 50 0 empty empty empty 17 7 0 10 -262144
-1 -1;
#X obj 542 385 hradio 15 1 0 8 empty empty empty 0 -8 0 10 -262144
-1 -1 5;
#X obj 129 302 prepend set;
#X msg 129 325 3;
#X connect 0 0 8 1;
#X connect 1 0 8 1;
#X connect 5 0 31 0;
#X connect 6 0 21 0;
#X connect 7 0 8 0;
#X connect 8 0 19 0;
#X connect 8 0 36 0;
#X connect 9 0 10 0;
#X connect 10 0 12 0;
#X connect 10 0 11 0;
#X connect 11 0 18 1;
#X connect 12 0 18 0;
#X connect 15 0 33 2;
#X connect 16 0 33 1;
#X connect 17 0 33 0;
#X connect 18 0 19 2;
#X connect 18 1 19 3;
#X connect 18 2 19 4;
#X connect 18 3 19 5;
#X connect 18 4 19 6;
#X connect 18 5 19 7;
#X connect 18 6 19 8;
#X connect 18 7 19 9;
#X connect 19 0 17 0;
#X connect 19 0 34 0;
#X connect 19 1 16 0;
#X connect 19 2 15 0;
#X connect 21 0 8 1;
#X connect 27 0 8 1;
#X connect 31 0 7 0;
#X connect 32 0 18 0;
#X connect 34 0 33 3;
#X connect 35 0 33 4;
#X connect 36 0 37 0;
