#N canvas 19 61 576 518 12;
#X obj 223 131 comment 235 9 helvetica ? 35584 0 0 0 part of the Modal
Object Library;
#X obj 336 94 comment 125 9 helvetica ? 35584 0 0 0 vj@vjmanzo.com
;
#X obj 338 116 comment 125 9 helvetica ? 35584 0 0 0 (c) 2008;
#X obj 204 114 comment 125 9 helvetica ? 35584 0 0 0 www.vincemanzo.com
;
#X obj 204 94 comment 125 9 helvetica ? 35584 0 0 0 by V.J. Manzo;
#X obj 191 408 outlet;
#X floatatom 191 388 0 0 0 0 - - -;
#X obj 191 364 % 12;
#X obj 191 341 - 0;
#X obj 191 317 + 60;
#X obj 191 293 value modal_offset_tonic;
#X obj 191 272 bng 15 250 50 0 empty empty empty 17 7 0 10 -262144
-1 -1;
#X obj 191 246 t b f;
#X obj 191 222 int;
#X msg 370 196 11;
#X msg 354 196 10;
#X msg 338 196 9;
#X msg 321 196 8;
#X msg 305 196 7;
#X msg 289 196 6;
#X msg 273 196 5;
#X msg 256 196 4;
#X msg 240 196 3;
#X msg 224 196 2;
#X msg 208 196 1;
#X msg 191 196 0;
#X obj 191 166 sel 0 1 2 3 4 5 6 7 8 9 10 11;
#X obj 48 110 value modal_offset_tonic;
#X obj 33 164 bng 15 250 50 0 empty empty empty 17 7 0 10 -262144 -1
-1;
#X floatatom 33 80 0 0 0 0 - - -;
#X obj 191 145 inlet;
#X obj 33 59 inlet;
#X obj 234 62 comment 224 18 helvetica ? 35584 0 0 0 modal_offset;
#X obj 33 139 change;
#X connect 6 0 5 0;
#X connect 7 0 6 0;
#X connect 8 0 7 0;
#X connect 9 0 8 0;
#X connect 10 0 9 0;
#X connect 11 0 10 0;
#X connect 12 0 11 0;
#X connect 12 1 8 1;
#X connect 13 0 12 0;
#X connect 14 0 13 0;
#X connect 15 0 13 0;
#X connect 16 0 13 0;
#X connect 17 0 13 0;
#X connect 18 0 13 0;
#X connect 19 0 13 0;
#X connect 20 0 13 0;
#X connect 21 0 13 0;
#X connect 22 0 13 0;
#X connect 23 0 13 0;
#X connect 24 0 13 0;
#X connect 25 0 13 0;
#X connect 26 0 25 0;
#X connect 26 1 24 0;
#X connect 26 2 23 0;
#X connect 26 3 22 0;
#X connect 26 4 21 0;
#X connect 26 5 20 0;
#X connect 26 6 19 0;
#X connect 26 7 18 0;
#X connect 26 8 17 0;
#X connect 26 9 16 0;
#X connect 26 10 15 0;
#X connect 26 11 14 0;
#X connect 28 0 13 0;
#X connect 29 0 27 0;
#X connect 29 0 33 0;
#X connect 30 0 26 0;
#X connect 31 0 29 0;
#X connect 33 0 28 0;
