#N canvas 106 176 750 440 12;
#X obj 48 117 comment 40 9 helvetica ? 35584 0 0 0 Up a P5;
#X obj 226 103 comment 293 18 helvetica ? 35584 0 0 0 Makes V7 Tonicizations
;
#X obj 98 285 outlet;
#X floatatom 98 162 0 0 0 0 - - -;
#X floatatom 98 110 0 0 0 0 - - -;
#X obj 98 133 + 7;
#X obj 343 277 comment 125 9 helvetica ? 35584 0 0 0 (c) 2008;
#X obj 343 221 comment 125 9 helvetica ? 35584 0 0 0 part of the modal
object library;
#X obj 343 257 comment 125 9 helvetica ? 35584 0 0 0 www.vincemanzo.com
;
#X obj 271 285 outlet;
#X obj 213 285 outlet;
#X obj 153 285 outlet;
#X obj 98 81 inlet;
#X floatatom 271 254 0 0 0 0 - - -;
#X floatatom 213 253 0 0 0 0 - - -;
#X floatatom 153 253 0 0 0 0 - - -;
#X floatatom 271 197 0 0 0 0 - - -;
#X floatatom 213 196 0 0 0 0 - - -;
#X floatatom 153 196 0 0 0 0 - - -;
#X obj 274 153 comment 43 9 helvetica ? 35584 0 0 0 min 7th Up;
#X obj 271 219 + 10;
#X obj 206 153 comment 51 9 helvetica ? 35584 0 0 0 Perfect 5th Up
;
#X obj 213 220 + 7;
#X obj 153 220 + 4;
#X obj 149 153 comment 40 9 helvetica ? 35584 0 0 0 Maj 3rd Up;
#X obj 344 188 comment 125 9 helvetica ? 35584 0 0 0 Simple Chord Builder
by V.J. Manzo;
#X connect 3 0 2 0;
#X connect 3 0 18 0;
#X connect 3 0 17 0;
#X connect 3 0 16 0;
#X connect 4 0 5 0;
#X connect 5 0 3 0;
#X connect 12 0 4 0;
#X connect 13 0 9 0;
#X connect 14 0 10 0;
#X connect 15 0 11 0;
#X connect 16 0 20 0;
#X connect 17 0 22 0;
#X connect 18 0 23 0;
#X connect 20 0 13 0;
#X connect 22 0 14 0;
#X connect 23 0 15 0;
