#N canvas 183 185 1067 779 10;
#N canvas 78 172 1086 792 tocador 0;
#X obj 45 221 openpanel;
#X obj 45 354 soundfiler;
#X floatatom 45 417 0 0 0 0 - - -;
#N canvas 0 0 450 300 (subpatch) 0;
#X array teste 236034 float 2;
#X coords 0 1 236034 -1 200 140 1;
#X restore 282 74 graph;
#X msg 37 88 abrir;
#X obj 45 143 bng 15 250 50 0 empty empty empty 17 7 0 10 -262144 -1
-1;
#X msg 45 284 read -resize -maxsize 1e+06 \$1 teste;
#X text 36 13 ABRE UM ARQUIVO;
#X obj 540 254 hip~ 5;
#X obj 540 380 dac~;
#X obj 790 127 tgl 15 0 empty empty empty 17 7 0 10 -262144 -1 -1 0
1;
#X obj 540 81 bng 15 250 50 0 empty empty empty 17 7 0 10 -262144 -1
-1;
#X obj 706 181 spigot;
#X obj 540 317 *~;
#X text 742 303 volume do sample;
#X obj 540 15 bng 15 250 50 0 empty empty empty 17 7 0 10 -262144 -1
-1;
#X obj 708 244 hsl 128 15 0 1 0 0 empty empty empty -2 -8 0 10 -262144
-1 -1 0 1;
#X obj 540 180 tabplay~ teste;
#X text 611 1 Toca o arquivo em loop;
#X obj 373 378 send~ nota;
#X obj 191 343 receive~ nota;
#X obj 191 375 fiddle~ 1024;
#X floatatom 191 438 5 0 0 0 - - -;
#X obj 191 407 int;
#X text 656 377 olhar em: /references/list abs;
#X obj 699 454 serialize 4;
#X floatatom 699 414 0 0 0 0 - - -;
#X msg 699 496 \$1 \$2 \$3 \$4;
#X obj 356 624 coll;
#C restore;
#N canvas 4 49 1156 662 coll 0;
#X text 8 -12 comment;
#X text 15 936 docs based on the MAX/MSP reference (c) cycling'74;
#X text 14 957 ___________________________________________________
;
#X text 219 15 store and edit collections of messages;
#X obj 45 15 coll filename;
#C restore;
#X obj 365 732 coll /tmp/test.coll;
#C restore;
#X obj 366 72 bng 15 250 50 0 empty empty empty 0 -6 0 8 -262144 -1
-1;
#X msg 383 166 next;
#X obj 365 865 print coll;
#X msg 399 201 prev;
#X msg 234 193 clear;
#X floatatom 428 831 5 0 0 0 - - -;
#X obj 492 801 bng 15 250 50 0 empty empty empty 0 -6 0 8 -262144 -1
-1;
#X obj 557 774 bng 15 250 50 0 empty empty empty 0 -6 0 8 -262144 -1
-1;
#X msg 411 235 dump;
#X msg 425 271 read /tmp/foo;
#X msg 435 310 read;
#X msg 474 417 length;
#X text 531 804 bang when we finished a load or save operation;
#X text 591 777 bang when finished with a dump operation;
#X text 494 834 index of the message sent out;
#X text 584 729 optional arg loads a file into coll;
#N canvas 79 76 816 488 loadsomeitems 0;
#X obj -65 80 inlet;
#X obj -19 330 outlet;
#X obj -65 113 t b b;
#X text -104 32 messages prefixed with an index are stored:;
#X msg -88 165 4 this is a message;
#X msg 11 270 1 10;
#X msg -59 198 3 and another one with 12345 in it;
#X msg -19 233 2 some_symbol;
#X connect 0 0 2 0;
#X connect 2 1 4 0;
#X connect 2 1 6 0;
#X connect 2 1 7 0;
#X connect 2 1 5 0;
#X connect 4 0 1 0;
#X connect 5 0 1 0;
#X connect 6 0 1 0;
#X connect 7 0 1 0;
#X restore 366 123 pd loadsomeitems;
#X text 414 72 load stuff;
#X text 230 125 look inside:;
#X text 458 203 previous;
#X text 471 237 dump them all;
#X text 575 273 read a file;
#X text 486 309 opens a dialog;
#X msg 447 346 write /tmp/foo;
#X text 606 350 write a file;
#X text 531 380 open a dialog;
#X msg 462 381 write;
#X floatatom 305 166 5 0 0 0 - - -;
#X text 128 165 output by index:;
#X text 69 194 clear contents:;
#X text 558 417 output nr. of messages stored;
#X text 443 165 output next =;
#X msg 588 163 bang;
#X msg 483 450 delete 2;
#X text 584 450 delete message \, and decrement larger indexes;
#X msg 489 519 goto 2;
#X text 569 522 goto item nr;
#X msg 498 553 end;
#X text 545 555 goto last item;
#X msg 500 586 filetype;
#X text 611 591 useless on unix it's a dummy function;
#X msg 507 621 flags 1 0;
#X text 618 624 save coll's contents with the patch;
#X msg 507 660 flags 0 0;
#X text 621 662 don't save (default);
#N canvas 98 103 484 259 more 0;
#X obj 194 308 outlet;
#X msg 75 56 store named_one this works too;
#X msg 143 101 named_one;
#X msg 194 168 nstore 5 foobar stored and associated;
#X msg 219 210 foobar;
#X text 297 212 =;
#X msg 321 212 5;
#X text 191 140 store and associate at once:;
#X connect 1 0 0 0;
#X connect 2 0 0 0;
#X connect 3 0 0 0;
#X connect 4 0 0 0;
#X connect 6 0 0 0;
#X restore 98 603 pd more ways to store;
#N canvas 27 85 1174 595 complex 0;
#X obj 150 549 outlet;
#X msg 66 93 assoc bar 1;
#X msg 150 132 bar;
#X msg 177 179 subsym foo bar;
#X msg 197 224 foo;
#X msg 207 267 deassoc foo 1;
#X text 27 16 coll can associate indexes and symbols \, symbols;
#X text 26 34 can be used just like ints to operate on or re-;
#X text 24 53 trieve data:;
#X obj 197 377 r cout;
#X obj 750 558 s cout;
#X text 203 95 associate index 1 with 'bar';
#X text 207 137 retrieve it using association;
#X text 345 182 change association;
#X text 245 224 retrieve;
#X text 359 269 remove association;
#X msg 473 314 nth 4 3;
#X text 24 316 retrieve 3rd element of message at index 4;
#X msg 635 105 merge 2 and this was appended;
#X msg 672 144 2;
#X text 629 56 merge appends a message to an;
#X text 629 76 already stored one:;
#X msg 750 195 insert 2 a new two;
#X text 747 154 inserts new message at index;
#X text 749 170 and increments all indexes >=;
#X floatatom 780 240 5 0 0 0 - - -;
#X text 843 239 check it out ...;
#X text 815 331 or send it out immediately:;
#X text 804 272 replace an item (silently):;
#X msg 806 303 nsub 2 3 one;
#X msg 819 357 sub 2 2 newer;
#X connect 1 0 0 0;
#X connect 2 0 0 0;
#X connect 3 0 0 0;
#X connect 4 0 0 0;
#X connect 5 0 0 0;
#X connect 9 0 0 0;
#X connect 16 0 0 0;
#X connect 18 0 10 0;
#X connect 19 0 10 0;
#X connect 22 0 10 0;
#X connect 25 0 10 0;
#X connect 29 0 10 0;
#X connect 30 0 10 0;
#X restore 96 568 pd complex operations;
#X text 93 540 for more info:;
#X msg 180 229 open;
#X text 50 231 open editor:;
#X msg 704 270 readagain;
#X text 813 269 reopens last file read;
#X msg 488 483 remove 3;
#X text 587 482 delete message \, leave index alone;
#X msg 744 345 writeagain;
#X text 864 348 rewrite last file written;
#N canvas 116 68 589 315 even 0;
#X obj 48 311 coll /tmp/new.coll;
#C restore;
#X obj 48 354 print more_coll;
#X text 200 118 load ...;
#X msg 74 149 dump;
#X msg 116 219 renumber;
#X msg 117 254 dump;
#X msg 101 183 swap 1 2;
#X msg 48 114 1 100 \, 2 200;
#X text 32 49 this is not like in the reference \,;
#X text 33 68 renumber shouldn't be needed:;
#X text 203 185 swap 1 & 2;
#X msg 50 402 renumber;
#X text 45 434 doesn't quite work as expected ...;
#X obj 452 363 print more_coll;
#X obj 452 320 coll /tmp/new1.coll;
#C restore;
#X msg 452 120 2 2 3 4 \, 1 1 2 3 \, 3 3 4 5;
#X msg 477 159 sort 1;
#X msg 488 198 dump;
#X msg 618 159 sort -1;
#X text 449 74 sort by index or element \, up or down:;
#X text 702 163 up;
#X text 563 161 down;
#X msg 549 233 sort 1 3;
#X msg 663 230 sort -1 3;
#X text 557 206 sort by 3rd element:;
#X msg 569 273 dump;
#X text 212 221 order by index*;
#X text 26 389 *;
#X connect 0 0 1 0;
#X connect 3 0 0 0;
#X connect 4 0 0 0;
#X connect 5 0 0 0;
#X connect 6 0 0 0;
#X connect 7 0 0 0;
#X connect 14 0 13 0;
#X connect 15 0 14 0;
#X connect 16 0 14 0;
#X connect 17 0 14 0;
#X connect 18 0 14 0;
#X connect 22 0 14 0;
#X connect 23 0 14 0;
#X connect 25 0 14 0;
#X restore 866 120 pd even more things;
#X msg 167 267 wclose;
#X text 29 269 close & save:;
#N canvas 0 0 450 300 problems 0;
#X obj 182 308 outlet;
#X msg 140 129 min;
#X msg 182 171 max;
#X text 128 50 please look at coll.txt if you think;
#X text 128 70 you can help...;
#N canvas 63 144 658 284 refer 0;
#X msg 68 147 1 1 \, 2 2 \, 3 3;
#X floatatom 612 203 5 0 0 0 - - -;
#X floatatom 713 306 5 0 0 0 - - -;
#X obj 68 198 coll /tmp/1.coll;
#C restore;
#X obj 713 251 coll /tmp/2.coll;
#C restore;
#X msg 713 149 refer /tmp/1.coll;
#X text 65 107 load data into 1.coll:;
#X text 594 110 tell 2.coll to refer to 1.coll:;
#X text 323 203 retrieve 1.coll's contents:;
#X text 60 47 I once crashed* pd using this so please use with caution
...;
#X text 75 355 * can't reproduce it :(;
#X connect 0 0 3 0;
#X connect 1 0 4 0;
#X connect 4 0 2 0;
#X connect 5 0 4 0;
#X restore 453 375 pd refer;
#X text 486 151 comment;
#X text 75 370 I don't consider this to be stable:;
#X connect 1 0 0 0;
#X connect 2 0 0 0;
#X restore 38 706 pd problems;
#X text 860 93 swap \, sort \, renumber:;
#X connect 5 0 8 0;
#X connect 5 1 11 0;
#X connect 5 2 12 0;
#X connect 5 3 13 0;
#X connect 6 0 22 0;
#X connect 7 0 5 0;
#X connect 9 0 5 0;
#X connect 10 0 5 0;
#X connect 14 0 5 0;
#X connect 15 0 5 0;
#X connect 16 0 5 0;
#X connect 17 0 5 0;
#X connect 22 0 5 0;
#X connect 29 0 5 0;
#X connect 32 0 5 0;
#X connect 33 0 5 0;
#X connect 39 0 5 0;
#X connect 41 0 5 0;
#X connect 43 0 5 0;
#X connect 45 0 5 0;
#X connect 47 0 5 0;
#X connect 49 0 5 0;
#X connect 51 0 5 0;
#X connect 52 0 5 0;
#X connect 54 0 5 0;
#X connect 58 0 5 0;
#X connect 63 0 5 0;
#X connect 65 0 5 0;
#X restore 668 344 pd coll help;
#X obj 356 514 count;
#X obj 356 491 bng 15 250 50 0 empty empty empty 17 7 0 10 -262144
-1 -1;
#X obj 356 546 select 1 2;
#X msg 356 580 write ~/Desktop/orientação;
#X obj 676 624 coll;
#C restore;
#X msg 676 580 write ~/Desktop/orientação;
#X floatatom 256 564 5 0 0 0 - - -;
#X msg 130 587 prev;
#X msg 137 551 length;
#X obj 353 664 print;
#X msg 118 625 clear;
#X connect 0 0 6 0;
#X connect 1 0 2 0;
#X connect 4 0 5 0;
#X connect 5 0 0 0;
#X connect 6 0 1 0;
#X connect 8 0 13 0;
#X connect 10 0 12 1;
#X connect 11 0 17 0;
#X connect 12 0 11 0;
#X connect 13 0 9 0;
#X connect 13 0 9 1;
#X connect 15 0 11 0;
#X connect 15 0 10 0;
#X connect 16 0 13 1;
#X connect 17 0 8 0;
#X connect 17 0 19 0;
#X connect 17 1 12 0;
#X connect 20 0 21 0;
#X connect 21 0 23 0;
#X connect 22 0 26 0;
#X connect 23 0 22 0;
#X connect 25 0 27 0;
#X connect 25 0 31 0;
#X connect 26 0 25 0;
#X connect 27 0 28 0;
#X connect 27 0 34 0;
#X connect 28 0 39 0;
#X connect 30 0 32 0;
#X connect 30 0 36 0;
#X connect 31 0 30 0;
#X connect 32 0 33 0;
#X connect 32 1 35 0;
#X connect 33 0 28 0;
#X connect 35 0 34 0;
#X connect 37 0 28 0;
#X connect 38 0 28 0;
#X connect 40 0 28 0;
#X restore 94 82 pd tocador sample;
#N canvas 8 115 1192 849 testes 0;
#X msg 173 64 debug;
#X obj 183 421 dac~;
#X floatatom 244 74 5 0 0 0 - - -;
#X obj 221 12 hsl 256 15 0 256 0 0 empty empty empty -2 -6 0 8 -262144
-1 -1 0 1;
#X obj 167 182 tgl 15 0 empty empty empty 0 -6 0 8 -262144 -1 -1 0
1;
#X obj 267 185 tgl 15 0 empty empty empty 0 -6 0 8 -262144 -1 -1 0
1;
#X text 265 161 play steady states components;
#X text 8 160 play transients;
#X floatatom 10 226 5 0 0 0 - - -;
#X obj 13 182 hsl 128 15 0 127 0 0 empty empty empty -2 -6 0 8 -262144
-1 -1 0 1;
#X floatatom 285 225 5 0 0 0 - - -;
#X obj 301 186 hsl 128 15 0 127 0 0 empty empty empty -2 -6 0 8 -262144
-1 -1 0 1;
#X text 236 -1 separation threshold;
#X obj 144 137 aubiotss~ 0.015;
#X text 265 99 transient and steady state separation;
#X obj 244 239 *~ 1;
#X obj 244 267 *~ 1;
#X obj 144 240 *~ 1;
#X obj 144 265 *~ 1;
#X obj 285 204 / 68;
#X obj 10 203 / 68;
#X obj 244 51 / 256;
#X obj 172 350 *~;
#X obj 222 334 *~;
#X obj 199 219 tgl 15 0 empty empty empty 0 -6 0 8 -262144 -1 -1 0
1;
#X text 185 204 stereo;
#X obj 311 139 aubiotss~ 0.015;
#X obj 299 68 * -1;
#X obj 353 63 + 1;
#X floatatom 412 63 5 0 0 0 - - -;
#X obj 600 484 bng 15 250 50 0 empty empty empty 0 -6 0 8 -262144 -1
-1;
#X floatatom 678 416 5 0 0 0 - - -;
#X text 730 458 the creation argument and right input can be used to
set the detection threshold of the onset detection function. see the
documentation for aubioonset~;
#X obj 600 452 aubiotempo~ 0.3;
#X text 731 413 aubiotempo~ takes an input signal and outputs a bang
when at each detected beat location.;
#X text 966 432 comment;
#X obj 60 792 bng 15 250 50 0 empty empty empty 0 -6 0 8 -262144 -1
-1;
#X obj 160 792 bng 15 250 50 0 empty empty empty 0 -6 0 8 -262144 -1
-1;
#X obj 60 756 aubioquiet~ -90;
#X text 181 793 noisy;
#X text 79 792 quiet;
#X text 101 626 aubioquiet~ outputs bangs: - on its left input when
a change to silence is detected - on its right output when a change
to loudness is detected;
#X text 100 682 object creation argument and right input can be used
to set the noise threshold \, in dB. default value is -90;
#X text 223 738 this object was written as an exercise and test. note
that it could also easily be rewritten as a patch.;
#X text 712 596 aubioonset~ takes an input signal and outputs a bang
when an onset has been detected;
#X text 711 634 this is somewhat similar to the bonk~ object \, except
it should work on non-percussive attacks too.;
#X obj 581 667 bng 15 250 50 0 empty empty empty 0 -6 0 8 -262144 -1
-1;
#X text 713 681 the creation argument and right input can be used to
set the detection threshold. values between 0 and 10 are accepted.
low values favorise over-detection. higher values will reduce the number
of onset detected.;
#X obj 581 635 aubioonset~ 0.3;
#X floatatom 659 599 5 0 0 0 - - -;
#X obj 594 378 receive~ nota;
#X obj 581 562 receive~ nota;
#X obj 60 602 receive~ nota;
#X floatatom 531 223 10 0 0 0 - - -;
#X obj 533 175 aubiopitch~;
#X obj 532 134 receive~ nota;
#X obj 122 29 receive~ nota;
#X floatatom 45 381 10 0 0 0 - - -;
#X obj 44 347 aubiopitch~;
#X floatatom 325 405 5 0 0 0 - - -;
#X obj 324 377 aubiopitch~;
#N canvas 408 155 845 554 contador 0;
#X obj 34 92 metro 1;
#X obj 34 133 float;
#X obj 34 164 + 1;
#X floatatom 34 199 5 0 0 0 - - -;
#X obj 34 64 tgl 15 0 empty empty empty 17 7 0 10 -262144 -1 -1 0 1
;
#X msg 138 87 0;
#X obj 107 156 bng 15 250 50 0 empty empty empty 17 7 0 10 -262144
-1 -1;
#X obj 553 157 list prepend;
#X obj 481 208 list append;
#X obj 481 85 bng 15 250 50 0 empty empty empty 17 7 0 10 -262144 -1
-1;
#X obj 414 106 bng 15 250 50 0 empty empty empty 17 7 0 10 -262144
-1 -1;
#X obj 668 171 t l;
#X obj 480 261 coll;
#C restore;
#X msg 414 222 clear;
#X msg 542 16 1;
#X msg 602 9 2;
#X msg 658 9 3;
#X msg 723 14 4;
#X obj 528 260 print list;
#X obj 480 294 print coll;
#X msg 589 231 goto \$1;
#X msg 589 199 1;
#X msg 623 199 2;
#X msg 658 200 3;
#X obj 241 26 bng 15 250 50 0 empty empty onset 17 7 0 10 -262144 -1
-1;
#N canvas 16 121 450 414 listas 0;
#X obj 173 157 list prepend;
#X obj 101 208 list append;
#X obj 101 85 bng 15 250 50 0 empty empty empty 17 7 0 10 -262144 -1
-1;
#X obj 34 106 bng 15 250 50 0 empty empty empty 17 7 0 10 -262144 -1
-1;
#X obj 288 171 t l;
#X obj 100 261 coll;
#C restore;
#X msg 34 222 clear;
#X msg 162 16 1;
#X msg 222 9 2;
#X msg 278 9 3;
#X msg 343 14 4;
#X obj 148 260 print list;
#X obj 100 294 print coll;
#X msg 209 231 goto \$1;
#X msg 209 199 1;
#X msg 243 199 2;
#X msg 278 200 3;
#X connect 0 0 1 1;
#X connect 0 0 4 0;
#X connect 1 0 5 0;
#X connect 1 0 11 0;
#X connect 2 0 1 0;
#X connect 3 0 0 1;
#X connect 3 0 6 0;
#X connect 4 0 0 1;
#X connect 5 0 12 0;
#X connect 6 0 5 0;
#X connect 7 0 0 0;
#X connect 8 0 0 0;
#X connect 9 0 0 0;
#X connect 10 0 0 0;
#X connect 13 0 5 0;
#X connect 14 0 13 0;
#X connect 15 0 13 0;
#X connect 16 0 13 0;
#X restore 354 340 pd listas e coll funcionando;
#X obj 80 26 t b b b b;
#X obj 34 241 spigot;
#X obj 99 216 tgl 15 0 empty empty empty 17 7 0 10 -262144 -1 -1 1
1;
#X obj 116 182 loadbang;
#X floatatom 34 274 5 0 0 0 - - -;
#X obj 241 51 float;
#X obj 241 82 + 1;
#X obj 241 109 select 1;
#X obj 241 140 t b b b;
#N canvas 4 49 450 525 contador 0;
#X obj 45 38 bng 15 250 50 0 empty empty ONSET_1 17 7 0 10 -262144
-1 -1;
#X obj 152 40 bng 15 250 50 0 empty empty ONSET_2 17 7 0 10 -262144
-1 -1;
#X obj 257 37 bng 15 250 50 0 empty empty ONSET_3 17 7 0 10 -262144
-1 -1;
#X obj 45 193 float;
#X floatatom 45 259 5 0 0 0 - - -;
#X obj 45 124 tgl 15 0 empty empty empty 17 7 0 10 -262144 -1 -1 0
1;
#X msg 108 150 0;
#X obj 45 301 spigot;
#X floatatom 45 334 5 0 0 0 - - -;
#X obj 45 83 t b b;
#X obj 143 81 t b b b b b;
#X obj 266 244 spigot;
#X obj 266 275 bng 15 250 50 0 empty empty empty 17 7 0 10 -262144
-1 -1;
#X obj 303 220 tgl 15 0 empty empty empty 17 7 0 10 -262144 -1 -1 0
1;
#X obj 267 103 bng 15 250 50 0 empty empty empty 17 7 0 10 -262144
-1 -1;
#X obj 304 157 bng 15 250 50 0 empty empty empty 17 7 0 10 -262144
-1 -1;
#X obj 303 189 delay 1;
#X obj 141 258 tgl 15 0 empty empty empty 17 7 0 10 -262144 -1 -1 0
1;
#X obj 45 225 + 1;
#X obj 102 213 t b b;
#X obj 33 149 metro 1;
#X connect 0 0 9 0;
#X connect 1 0 10 0;
#X connect 2 0 5 0;
#X connect 3 0 18 0;
#X connect 4 0 7 0;
#X connect 5 0 20 0;
#X connect 6 0 3 1;
#X connect 7 0 8 0;
#X connect 9 0 5 0;
#X connect 9 1 6 0;
#X connect 10 1 5 0;
#X connect 10 2 6 0;
#X connect 10 3 17 0;
#X connect 10 3 19 0;
#X connect 10 4 5 0;
#X connect 11 0 12 0;
#X connect 13 0 11 1;
#X connect 14 0 13 0;
#X connect 14 0 15 0;
#X connect 14 0 11 0;
#X connect 15 0 16 0;
#X connect 16 0 13 0;
#X connect 17 0 7 1;
#X connect 18 0 3 1;
#X connect 18 0 4 0;
#X connect 19 0 17 0;
#X connect 19 1 4 0;
#X connect 20 0 3 0;
#X restore 352 394 pd contador de intervalos de onsets;
#N canvas 183 206 981 780 contador 0;
#X obj 45 39 bng 15 250 50 0 empty empty ONSET_1 17 7 0 10 -262144
-1 -1;
#X obj 152 40 bng 15 250 50 0 empty empty ONSET_2 17 7 0 10 -262144
-1 -1;
#X obj 257 37 bng 15 250 50 0 empty empty ONSET_3 17 7 0 10 -262144
-1 -1;
#X obj 45 193 float;
#X floatatom 45 259 5 0 0 0 - - -;
#X obj 45 124 tgl 15 0 empty empty empty 17 7 0 10 -262144 -1 -1 0
1;
#X msg 108 150 0;
#X obj 45 301 spigot;
#X floatatom 45 334 5 0 0 0 - - -;
#X obj 45 83 t b b;
#X obj 143 81 t b b b b b;
#X obj 134 246 tgl 15 0 empty empty empty 17 7 0 10 -262144 -1 -1 0
1;
#X obj 45 225 + 1;
#X obj 102 213 t b b;
#X obj 45 153 metro 1;
#X obj 358 395 list prepend;
#X obj 286 430 list append;
#X obj 437 366 bng 15 250 50 0 empty empty empty 17 7 0 10 -262144
-1 -1;
#X obj 373 431 t l;
#X obj 286 483 coll;
#C restore;
#X msg 236 440 clear;
#X obj 334 482 print list;
#X obj 286 516 print coll;
#X obj 45 386 f;
#X obj 45 416 + 1;
#X obj 45 441 sel 4;
#X obj 256 356 bng 15 250 50 0 empty empty empty 17 7 0 10 -262144
-1 -1;
#X obj 45 362 bng 15 250 50 0 empty empty empty 17 7 0 10 -262144 -1
-1;
#X msg 97 397 0;
#X obj 256 388 t b b;
#X obj 608 395 list prepend;
#X obj 536 430 list append;
#X obj 687 338 bng 15 250 50 0 empty empty empty 17 7 0 10 -262144
-1 -1;
#X obj 623 431 t l;
#X obj 536 483 coll;
#C restore;
#X msg 486 440 clear;
#X obj 584 482 print list;
#X obj 536 516 print coll;
#X obj 506 356 bng 15 250 50 0 empty empty empty 17 7 0 10 -262144
-1 -1;
#X obj 506 388 t b b;
#X obj 608 241 f;
#X obj 608 268 + 1;
#X obj 45 468 t b b;
#X obj 608 341 f;
#X obj 608 368 + 1;
#X msg 626 317 0;
#X obj 608 318 bng 15 250 50 0 empty empty empty 17 7 0 10 -262144
-1 -1;
#X msg 662 234 0;
#X obj 608 295 select 5;
#X msg 679 425 next;
#X msg 680 446 3;
#X connect 0 0 9 0;
#X connect 0 0 40 0;
#X connect 0 0 43 0;
#X connect 1 0 10 0;
#X connect 1 0 40 0;
#X connect 2 0 5 0;
#X connect 2 0 40 0;
#X connect 3 0 12 0;
#X connect 4 0 7 0;
#X connect 5 0 14 0;
#X connect 6 0 3 1;
#X connect 7 0 8 0;
#X connect 8 0 27 0;
#X connect 8 0 15 0;
#X connect 9 0 5 0;
#X connect 9 1 6 0;
#X connect 10 1 5 0;
#X connect 10 2 6 0;
#X connect 10 3 11 0;
#X connect 10 3 13 0;
#X connect 10 4 5 0;
#X connect 11 0 7 1;
#X connect 12 0 3 1;
#X connect 12 0 4 0;
#X connect 13 0 11 0;
#X connect 13 1 4 0;
#X connect 14 0 3 0;
#X connect 15 0 16 1;
#X connect 15 0 18 0;
#X connect 16 0 19 0;
#X connect 16 0 21 0;
#X connect 16 0 30 0;
#X connect 17 0 15 1;
#X connect 18 0 15 1;
#X connect 19 0 22 0;
#X connect 20 0 19 0;
#X connect 23 0 24 0;
#X connect 24 0 23 1;
#X connect 24 0 25 0;
#X connect 25 0 28 0;
#X connect 25 0 42 0;
#X connect 26 0 29 0;
#X connect 27 0 23 0;
#X connect 28 0 23 1;
#X connect 29 0 17 0;
#X connect 29 1 16 0;
#X connect 30 0 31 1;
#X connect 30 0 33 0;
#X connect 31 0 34 0;
#X connect 31 0 36 0;
#X connect 32 0 30 1;
#X connect 33 0 30 1;
#X connect 34 0 37 0;
#X connect 35 0 34 0;
#X connect 38 0 39 0;
#X connect 39 0 32 0;
#X connect 39 1 31 0;
#X connect 40 0 41 0;
#X connect 41 0 40 1;
#X connect 41 0 48 0;
#X connect 42 0 38 0;
#X connect 42 1 26 0;
#X connect 43 0 44 0;
#X connect 44 0 43 1;
#X connect 44 0 30 0;
#X connect 45 0 43 1;
#X connect 46 0 43 0;
#X connect 47 0 40 1;
#X connect 48 0 46 0;
#X connect 48 0 47 0;
#X connect 49 0 34 0;
#X connect 50 0 34 0;
#X restore 65 365 pd contador de ritmos e estocando beta;
#X connect 0 0 1 0;
#X connect 1 0 2 0;
#X connect 2 0 1 1;
#X connect 2 0 3 0;
#X connect 3 0 27 0;
#X connect 4 0 0 0;
#X connect 5 0 1 1;
#X connect 6 0 3 0;
#X connect 7 0 8 1;
#X connect 7 0 11 0;
#X connect 8 0 12 0;
#X connect 8 0 18 0;
#X connect 9 0 8 0;
#X connect 10 0 7 1;
#X connect 10 0 13 0;
#X connect 11 0 7 1;
#X connect 12 0 19 0;
#X connect 13 0 12 0;
#X connect 14 0 7 0;
#X connect 15 0 7 0;
#X connect 16 0 7 0;
#X connect 17 0 7 0;
#X connect 20 0 12 0;
#X connect 21 0 20 0;
#X connect 22 0 20 0;
#X connect 23 0 20 0;
#X connect 24 0 31 0;
#X connect 26 1 28 0;
#X connect 26 2 4 0;
#X connect 26 3 5 0;
#X connect 27 0 30 0;
#X connect 28 0 27 1;
#X connect 29 0 28 0;
#X connect 31 0 32 0;
#X connect 32 0 31 1;
#X connect 32 0 33 0;
#X connect 33 0 34 0;
#X connect 33 1 26 0;
#X connect 34 1 4 0;
#X connect 34 2 5 0;
#X restore 942 216 pd contador de ritmos;
#X connect 0 0 13 0;
#X connect 2 0 13 1;
#X connect 2 0 27 0;
#X connect 3 0 21 0;
#X connect 4 0 18 1;
#X connect 5 0 16 1;
#X connect 8 0 17 1;
#X connect 9 0 20 0;
#X connect 10 0 15 1;
#X connect 11 0 19 0;
#X connect 13 0 17 0;
#X connect 15 0 16 0;
#X connect 16 0 1 1;
#X connect 16 0 23 0;
#X connect 16 0 60 0;
#X connect 17 0 18 0;
#X connect 18 0 1 0;
#X connect 18 0 22 0;
#X connect 18 0 58 0;
#X connect 19 0 10 0;
#X connect 20 0 8 0;
#X connect 21 0 2 0;
#X connect 22 0 1 1;
#X connect 23 0 1 0;
#X connect 24 0 22 0;
#X connect 24 0 23 1;
#X connect 26 1 15 0;
#X connect 27 0 28 0;
#X connect 28 0 29 0;
#X connect 29 0 26 1;
#X connect 31 0 33 1;
#X connect 33 0 30 0;
#X connect 38 0 36 0;
#X connect 38 1 37 0;
#X connect 48 0 46 0;
#X connect 49 0 48 1;
#X connect 50 0 33 0;
#X connect 51 0 48 0;
#X connect 52 0 38 0;
#X connect 54 0 53 0;
#X connect 55 0 54 0;
#X connect 56 0 13 0;
#X connect 56 0 26 0;
#X connect 58 0 57 0;
#X connect 60 0 59 0;
#X restore 100 167 pd testes aubio;
