#N canvas 426 35 611 552 10;
#X obj 165 -71 adc~;
#X obj 111 54 fiddle~;
#X floatatom 111 87 5 0 0 0 - - -;
#X obj 199 23 bonk~;
#X obj 215 148 tabwrite teste;
#N canvas 0 0 450 300 (subpatch) 0;
#X array teste 52 float 3;
#A 0 52 80 81 82 81 82 85 84 84 88 89 89 90 90 91 92 92 93 93 93 94
94 91 89 88 89 85 85 81 79 79 79 76 76 73 72 72 72 71 71 71 71 71 71
77 77 81 86 85 81 81 81;
#X coords 0 127 52 0 200 140 1;
#X restore 382 74 graph;
#X floatatom 296 114 5 0 0 0 - - -;
#X obj 296 60 f;
#X obj 327 36 + 1;
#X obj 69 228 osc~;
#X obj 69 173 mtof;
#X obj 68 271 *~;
#X obj 70 362 dac~;
#X obj 111 110 int;
#X floatatom 201 178 5 0 0 0 - - -;
#X obj 111 232 vline~;
#X obj 69 200 + 12;
#X obj 296 88 % 5;
#X obj 69 140 - 1;
#X msg 111 205 1 100 \, 0 100 500;
#X obj 198 -8 *~;
#X obj 218 -30 hsl 128 15 0 1 0 0 empty empty empty -2 -8 0 10 -262144
-1 -1 400 1;
#X obj 199 46 bng 15 250 50 0 empty empty empty 17 7 0 10 -262144 -1
-1;
#X obj 69 313 *~ 0.2;
#X obj 286 305 spigot;
#X obj 319 283 tgl 15 0 empty empty gravar 17 7 0 10 -262144 -1 -1
0 1;
#X obj 314 351 counter;
#X floatatom 314 373 5 0 0 0 - - -;
#X msg 400 405 resize \$1;
#X obj 400 429 send teste;
#X obj 400 385 + 1;
#X obj 287 327 t f b;
#X obj 314 394 t f f;
#X obj 441 306 counter;
#X floatatom 437 269 5 0 0 0 - - -;
#X floatatom 442 341 5 0 0 0 - - -;
#X obj 227 422 tabwrite teste;
#X obj 343 315 bng 15 250 50 0 empty empty empty 17 7 0 10 -262144
-1 -1;
#X connect 0 0 1 0;
#X connect 0 0 20 0;
#X connect 0 1 1 0;
#X connect 0 1 20 0;
#X connect 1 0 2 0;
#X connect 2 0 13 0;
#X connect 3 0 22 0;
#X connect 6 0 4 1;
#X connect 7 0 8 0;
#X connect 7 0 17 0;
#X connect 8 0 7 1;
#X connect 9 0 11 0;
#X connect 10 0 16 0;
#X connect 13 0 14 0;
#X connect 13 0 19 0;
#X connect 13 0 18 0;
#X connect 13 0 24 0;
#X connect 15 0 11 1;
#X connect 16 0 9 0;
#X connect 17 0 6 0;
#X connect 18 0 10 0;
#X connect 19 0 15 0;
#X connect 20 0 3 0;
#X connect 21 0 20 1;
#X connect 22 0 7 0;
#X connect 23 0 12 0;
#X connect 23 0 12 1;
#X connect 24 0 31 0;
#X connect 25 0 24 1;
#X connect 26 0 27 0;
#X connect 27 0 32 0;
#X connect 28 0 29 0;
#X connect 30 0 28 0;
#X connect 31 0 36 0;
#X connect 31 1 26 0;
#X connect 32 0 36 1;
#X connect 32 1 30 0;
#X connect 33 0 35 0;
#X connect 34 0 33 0;
#X connect 37 0 26 3;
