#N canvas 132 53 970 570 16;
#X obj 19 13 inlet~;
#X obj 118 12 inlet;
#X text 527 35 1- entrada de audio;
#X text 532 68 2 - volume do audio;
#X text 550 99 de entrada;
#X floatatom 18 233 5 0 0 0 - - -;
#X floatatom 295 272 5 0 0 0 - - -;
#X text 85 255 pitch;
#X text 311 238 envelope;
#X obj 18 200 sigmund~ -hop 4096 pitch env;
#X obj 53 64 adc~;
#X obj 146 79 hsl 128 15 0 0.5 0 0 empty empty empty -2 -8 0 10 -262144
-1 -1 0 1;
#X obj 18 263 int;
#X floatatom 18 296 5 0 0 0 - - -;
#X obj 17 342 moses 0;
#X floatatom 17 389 5 0 0 0 - - -;
#X floatatom 84 390 5 0 0 0 - - -;
#X floatatom 153 120 5 0 0 0 - - -;
#X obj 18 157 *~ 0.015;
#X floatatom 294 374 5 0 0 0 - - -;
#X floatatom 372 380 5 0 0 0 - - -;
#X obj 295 320 moses 42;
#X floatatom 371 276 5 0 0 0 - - -;
#X text 401 344 com o volume de entrada;
#X text 393 319 3 - calibrar o moses de acordo;
#X obj 703 382 timer;
#X obj 703 301 b;
#X floatatom 703 408 5 0 0 0 - - -;
#X obj 703 361 bng 15 250 50 0 empty empty empty 17 7 0 10 -262144
-1 -1;
#X obj 750 361 bng 15 250 50 0 empty empty empty 17 7 0 10 -262144
-1 -1;
#X obj 703 331 alternate;
#X obj 703 245 bonk~;
#X obj 703 274 bng 15 250 50 0 empty empty empty 17 7 0 10 -262144
-1 -1;
#X obj 703 443 send tempo;
#X obj 823 444 send onset;
#X obj 50 461 outlet;
#X obj 308 459 outlet;
#X obj 660 482 outlet;
#X obj 819 489 outlet;
#X obj 84 427 send nota;
#X obj 372 418 send vol;
#X connect 0 0 18 0;
#X connect 1 0 18 1;
#X connect 5 0 12 0;
#X connect 6 0 21 0;
#X connect 9 0 5 0;
#X connect 9 1 6 0;
#X connect 10 0 18 0;
#X connect 10 1 18 0;
#X connect 11 0 17 0;
#X connect 11 0 18 1;
#X connect 12 0 13 0;
#X connect 13 0 14 0;
#X connect 14 0 15 0;
#X connect 14 1 16 0;
#X connect 16 0 35 0;
#X connect 16 0 39 0;
#X connect 18 0 9 0;
#X connect 18 0 31 0;
#X connect 20 0 36 0;
#X connect 20 0 40 0;
#X connect 21 0 19 0;
#X connect 21 1 20 0;
#X connect 22 0 21 1;
#X connect 25 0 27 0;
#X connect 26 0 30 0;
#X connect 27 0 33 0;
#X connect 27 0 37 0;
#X connect 28 0 25 0;
#X connect 29 0 25 1;
#X connect 30 0 28 0;
#X connect 30 1 29 0;
#X connect 31 0 32 0;
#X connect 31 0 34 0;
#X connect 31 0 38 0;
#X connect 32 0 26 0;
