#N canvas 70 156 1069 292 16;
#X obj 657 14 bng 60 250 50 0 baoum empty Cliquez-moi!! 0 -6 0 8 -250685
-99865 -1;
#X obj 833 75 time;
#X obj 735 129 s h;
#X obj 782 161 s m;
#X obj 842 142 s s;
#X obj 898 120 s mi;
#X obj 833 20 bng 40 250 50 0 empty empty Seed 0 -6 0 8 -1 -262144
-1;
#X floatatom 718 178 5 0 0 0 - - -;
#X floatatom 789 190 5 0 0 0 - - -;
#X floatatom 854 193 5 0 0 0 - - -;
#X floatatom 894 152 5 0 0 0 - - -;
#X text 886 16 no caso aqui;
#X text 886 29 alguns elementos;
#X text 886 42 da performance musical;
#X text 889 58 podem ser seeds;
#X obj 121 79 random 1000;
#X obj 205 -38 bng 15 250 50 0 empty empty empty 17 7 0 10 -262144
-1 -1;
#X floatatom 122 112 5 0 0 0 - - -;
#X floatatom 253 112 5 0 0 0 - - -;
#N canvas 99 53 537 562 noise 0;
#X obj 438 303 vsl 15 60 0 1 0 0 empty empty empty 0 -8 0 8 -262144
-1 -1 0 1;
#X obj 9 233 noise~;
#X obj 74 328 vcf~;
#X obj 83 165 *~ 0.5;
#X obj 83 200 +~ 0.5;
#X obj 75 440 dac~;
#X obj 84 272 *~ 20000;
#X obj 83 237 +~ 50;
#X msg 153 242 1200;
#X obj 83 66 random 7;
#X obj 83 108 / 100;
#X obj 183 360 line~;
#X obj 75 365 *~;
#X obj 304 330 random 10000;
#X obj 249 219 i;
#X obj 300 240 + 1;
#X obj 249 251 % 2;
#X obj 260 149 moses 75;
#X obj 260 117 random 100;
#X obj 260 8 metro 5000;
#X obj 260 -27 tgl 30 0 empty baoum empty 0 -6 0 8 -44926 -1 -1 0 1
;
#X obj 304 287 b;
#X obj 156 187 loadbang;
#X msg 209 312 0;
#X floatatom 178 161 5 0 0 0 - - -;
#X obj 75 397 *~ 0.1;
#X obj 83 134 osc~;
#X floatatom 249 285 5 0 0 0 - - -;
#X obj 334 183 b;
#X msg 253 311 1;
#X obj 83 -26 r h;
#X obj 381 -14 r m;
#X obj 446 116 r s;
#X msg 83 -4 seed \$1;
#X msg 445 153 seed \$1;
#X msg 381 21 seed \$1;
#X connect 0 0 25 1;
#X connect 1 0 2 0;
#X connect 2 0 12 0;
#X connect 3 0 4 0;
#X connect 4 0 7 0;
#X connect 6 0 2 1;
#X connect 7 0 6 0;
#X connect 8 0 2 2;
#X connect 9 0 10 0;
#X connect 10 0 26 0;
#X connect 11 0 12 1;
#X connect 12 0 25 0;
#X connect 13 0 11 1;
#X connect 14 0 16 0;
#X connect 15 0 14 1;
#X connect 16 0 11 0;
#X connect 16 0 21 0;
#X connect 16 0 27 0;
#X connect 16 0 15 0;
#X connect 17 1 28 0;
#X connect 18 0 17 0;
#X connect 18 0 24 0;
#X connect 19 0 9 0;
#X connect 19 0 18 0;
#X connect 20 0 19 0;
#X connect 21 0 13 0;
#X connect 22 0 8 0;
#X connect 23 0 11 0;
#X connect 25 0 5 0;
#X connect 25 0 5 1;
#X connect 26 0 3 0;
#X connect 28 0 14 0;
#X connect 29 0 11 0;
#X connect 30 0 33 0;
#X connect 31 0 35 0;
#X connect 32 0 34 0;
#X connect 33 0 9 0;
#X connect 34 0 13 0;
#X connect 35 0 18 0;
#X restore 448 -24 pd noise;
#N canvas 231 151 660 517 clip 0;
#X obj 199 183 *~ 0.2;
#X obj 46 -28 tgl 30 0 empty baoum empty 0 -6 0 8 -241291 -1 -1 0 1
;
#X obj 199 119 mtof;
#X obj 46 65 t b b;
#X msg 93 95 1;
#X msg 46 146 0;
#X obj 46 27 metro 100;
#X obj 199 217 *~;
#X obj 199 70 random 127;
#X obj 46 122 del 5;
#X obj 46 177 line~ 0 10;
#X obj 317 141 vd~ delay2;
#X obj 208 278 delwrite~ delay2 1000;
#X obj 316 59 *~ 0.5;
#X obj 316 86 +~ 0.5;
#X obj 316 114 *~ 1000;
#X obj 316 174 *~;
#X obj 459 162 / 10;
#X obj 200 245 +~;
#X obj 198 406 dac~;
#X obj 402 338 vsl 15 60 0 1 0 0 empty empty empty 0 -8 0 8 -262144
-1 -1 2700 1;
#X obj 459 96 metro 2000;
#X floatatom 459 190 5 0 0 0 - - -;
#X obj 316 29 osc~ 1;
#X obj 199 153 osc~;
#X obj 199 377 *~;
#X obj 423 269 - 1;
#X obj 423 293 abs;
#X obj 236 375 *~;
#X obj 423 239 random 2;
#X obj 199 307 clip~ -0.7 0.7;
#X obj 459 131 random 12;
#X obj 199 340 *~ 0.5;
#X obj 423 -33 r h;
#X obj 513 -34 r s;
#X obj 199 -32 r mi;
#X msg 423 -11 seed \$1;
#X msg 513 -10 seed \$1;
#X msg 199 -5 seed \$1;
#X connect 0 0 7 0;
#X connect 1 0 6 0;
#X connect 1 0 21 0;
#X connect 2 0 24 0;
#X connect 3 0 9 0;
#X connect 3 1 4 0;
#X connect 4 0 10 0;
#X connect 5 0 10 0;
#X connect 6 0 3 0;
#X connect 6 0 8 0;
#X connect 6 0 29 0;
#X connect 7 0 18 0;
#X connect 8 0 2 0;
#X connect 9 0 5 0;
#X connect 10 0 7 1;
#X connect 11 0 16 0;
#X connect 13 0 14 0;
#X connect 14 0 15 0;
#X connect 15 0 11 0;
#X connect 16 0 18 1;
#X connect 17 0 22 0;
#X connect 17 0 16 1;
#X connect 18 0 12 0;
#X connect 18 0 30 0;
#X connect 20 0 32 1;
#X connect 21 0 31 0;
#X connect 23 0 13 0;
#X connect 24 0 0 0;
#X connect 25 0 19 0;
#X connect 26 0 27 0;
#X connect 27 0 28 1;
#X connect 28 0 19 1;
#X connect 29 0 25 1;
#X connect 29 0 26 0;
#X connect 30 0 32 0;
#X connect 31 0 17 0;
#X connect 32 0 25 0;
#X connect 32 0 28 0;
#X connect 33 0 36 0;
#X connect 34 0 37 0;
#X connect 35 0 38 0;
#X connect 36 0 29 0;
#X connect 37 0 31 0;
#X connect 38 0 8 0;
#X restore 448 3 pd clip;
#N canvas 3 111 554 539 phasor 0;
#X obj 242 261 phasor~;
#X obj 120 504 dac~;
#X obj 242 228 mtof;
#X obj 352 351 vsl 15 60 0 1 0 0 empty empty empty 0 -8 0 8 -262144
-1 -1 0 1;
#X obj 269 345 line~;
#X obj 316 318 random 10000;
#X obj 446 213 i;
#X obj 486 213 + 1;
#X obj 446 238 % 2;
#X obj 369 128 random 100;
#X obj 315 288 b;
#X obj 242 378 *~;
#X obj 369 44 tgl 30 0 empty baoum empty 0 -6 0 8 -1 -262144 -1 0 1
;
#X obj 82 289 osc~;
#X obj 82 226 random 10;
#X obj 82 258 / 10;
#X obj 82 336 *~ 0.5;
#X obj 81 370 -~ 0.5;
#X obj 151 370 +~ 0.5;
#X obj 81 455 *~;
#X obj 150 456 *~;
#X obj 80 417 abs~;
#X obj 369 156 moses 65;
#X obj 243 410 *~ 0.07;
#X obj 369 102 metro 10000;
#X obj 446 190 b;
#X obj 429 38 r h;
#X obj 82 82 r s;
#X obj 224 31 r mi;
#X msg 429 60 seed \$1;
#X msg 82 106 seed \$1;
#X msg 224 55 seed \$1;
#X floatatom 445 270 5 0 0 0 - - -;
#X msg 463 395 1;
#X obj 241 165 metro 1000;
#X obj 242 199 random 40;
#X connect 0 0 11 0;
#X connect 2 0 0 0;
#X connect 3 0 23 1;
#X connect 4 0 11 1;
#X connect 5 0 4 1;
#X connect 6 0 8 0;
#X connect 7 0 6 1;
#X connect 8 0 4 0;
#X connect 8 0 10 0;
#X connect 8 0 32 0;
#X connect 8 0 7 0;
#X connect 9 0 22 0;
#X connect 10 0 5 0;
#X connect 11 0 23 0;
#X connect 12 0 24 0;
#X connect 12 0 34 0;
#X connect 13 0 16 0;
#X connect 14 0 15 0;
#X connect 15 0 13 0;
#X connect 16 0 17 0;
#X connect 16 0 18 0;
#X connect 17 0 21 0;
#X connect 18 0 20 0;
#X connect 19 0 1 0;
#X connect 20 0 1 0;
#X connect 21 0 19 0;
#X connect 22 1 25 0;
#X connect 23 0 20 1;
#X connect 23 0 19 1;
#X connect 24 0 9 0;
#X connect 24 0 14 0;
#X connect 25 0 6 0;
#X connect 26 0 29 0;
#X connect 27 0 30 0;
#X connect 28 0 31 0;
#X connect 29 0 9 0;
#X connect 30 0 5 0;
#X connect 30 0 14 0;
#X connect 31 0 35 0;
#X connect 33 0 10 0;
#X connect 33 0 4 0;
#X connect 34 0 35 0;
#X connect 35 0 2 0;
#X restore 448 30 pd phasor;
#N canvas 2 69 466 652 aditiva 0;
#X obj 220 261 + 11;
#X obj 158 260 + 7;
#X obj 158 173 random 100;
#X obj 132 357 +~;
#X obj 194 398 +~;
#X obj 195 436 *~;
#X obj 291 356 line~ 0 1000;
#X obj 324 262 t b b;
#X obj 291 298 del 1000;
#X obj 321 158 random 5000;
#X obj 250 106 metro;
#X obj 250 61 tgl 30 0 empty baoum empty 0 -6 0 8 -24198 -1 -1 0 1
;
#X obj 196 567 dac~;
#X obj 353 526 vsl 15 60 0 1 0 0 empty empty empty 0 -8 0 8 -262144
-1 -1 800 1;
#X obj 99 273 mtof;
#X obj 158 287 mtof;
#X obj 220 288 mtof;
#X obj 321 184 + 2000;
#X msg 383 323 1 1000;
#X obj 215 491 delwrite~ delay3 2000;
#X obj 195 460 +~;
#X obj 267 407 delread~ delay3 1000;
#X obj 268 435 *~ 0.6;
#X obj 220 325 osc~;
#X obj 158 314 osc~;
#X obj 99 308 osc~;
#X obj 196 533 *~ 0.2;
#X msg 291 321 0 100;
#X obj 321 39 r h;
#X obj 158 29 r m;
#X msg 321 75 seed \$1;
#X msg 158 64 seed \$1;
#X obj 185 200 random 12;
#X obj 257 226 random 12;
#X connect 0 0 16 0;
#X connect 1 0 15 0;
#X connect 2 0 1 0;
#X connect 2 0 0 0;
#X connect 2 0 14 0;
#X connect 3 0 4 0;
#X connect 4 0 5 0;
#X connect 5 0 20 0;
#X connect 6 0 5 1;
#X connect 7 0 8 0;
#X connect 7 1 18 0;
#X connect 8 0 27 0;
#X connect 9 0 17 0;
#X connect 10 0 9 0;
#X connect 10 0 2 0;
#X connect 10 0 7 0;
#X connect 10 0 32 0;
#X connect 10 0 33 0;
#X connect 11 0 10 0;
#X connect 13 0 26 1;
#X connect 14 0 25 0;
#X connect 15 0 24 0;
#X connect 16 0 23 0;
#X connect 17 0 10 1;
#X connect 18 0 6 0;
#X connect 20 0 19 0;
#X connect 20 0 26 0;
#X connect 21 0 22 0;
#X connect 22 0 20 1;
#X connect 23 0 4 1;
#X connect 24 0 3 1;
#X connect 25 0 3 0;
#X connect 26 0 12 0;
#X connect 26 0 12 1;
#X connect 27 0 6 0;
#X connect 28 0 30 0;
#X connect 29 0 31 0;
#X connect 30 0 9 0;
#X connect 30 0 32 0;
#X connect 31 0 2 0;
#X connect 31 0 33 0;
#X connect 32 0 1 1;
#X connect 33 0 0 1;
#X restore 448 57 pd aditiva;
#N canvas 200 53 575 664 aditiva2 1;
#X obj 53 48 random 3000;
#X obj 26 87 metro;
#X obj 26 181 random 127;
#X obj 26 221 mtof;
#X obj 157 346 line~;
#X obj 129 396 *~;
#X obj 157 224 t b b;
#X msg 204 258 1 40;
#X obj 157 285 del 100;
#X msg 157 315 0 60;
#X obj 162 468 delwrite~ delay1 1000;
#X obj 287 297 delread~ delay1;
#X obj 287 360 *~;
#X obj 151 434 +~;
#X obj 287 256 random 1000;
#X obj 451 276 random 9;
#X obj 451 309 / 10;
#X obj 27 339 +~;
#X obj 151 498 /~ 2;
#X obj 26 -47 tgl 30 0 empty baoum empty 0 -6 0 8 -258699 -1 -1 1 1
;
#X obj 403 419 vsl 15 60 0 1 0 0 empty empty empty 0 -8 0 8 -262144
-1 -1 0 1;
#X obj 149 135 / 100;
#X obj 149 158 + 1;
#X obj 26 251 line 0 80;
#X obj 149 182 line 0 100;
#X obj 93 280 *;
#X obj 151 522 *~ 0.5;
#X obj 26 309 osc~;
#X obj 93 309 osc~;
#X obj 149 111 random 100;
#X obj 451 -7 r h;
#X obj 53 -13 r m;
#X obj 149 -14 r s;
#X obj 287 -19 r mi;
#X msg 451 15 seed \$1;
#X msg 149 9 seed \$1;
#X msg 53 13 seed \$1;
#X msg 287 8 seed \$1;
#X obj 152 551 dac~;
#X obj 409 365 line~;
#X msg 410 336 \$1 10;
#X connect 0 0 1 1;
#X connect 1 0 0 0;
#X connect 1 0 2 0;
#X connect 1 0 15 0;
#X connect 1 0 14 0;
#X connect 1 0 29 0;
#X connect 2 0 3 0;
#X connect 2 0 6 0;
#X connect 3 0 23 0;
#X connect 4 0 5 1;
#X connect 5 0 13 0;
#X connect 6 0 8 0;
#X connect 6 1 7 0;
#X connect 7 0 4 0;
#X connect 8 0 9 0;
#X connect 9 0 4 0;
#X connect 11 0 12 0;
#X connect 12 0 13 1;
#X connect 13 0 10 0;
#X connect 13 0 18 0;
#X connect 14 0 11 0;
#X connect 15 0 16 0;
#X connect 16 0 40 0;
#X connect 17 0 5 0;
#X connect 18 0 26 0;
#X connect 19 0 1 0;
#X connect 20 0 26 1;
#X connect 21 0 22 0;
#X connect 22 0 24 0;
#X connect 23 0 25 0;
#X connect 23 0 27 0;
#X connect 24 0 25 1;
#X connect 25 0 28 0;
#X connect 26 0 38 0;
#X connect 26 0 38 1;
#X connect 27 0 17 0;
#X connect 28 0 17 1;
#X connect 29 0 21 0;
#X connect 30 0 34 0;
#X connect 31 0 36 0;
#X connect 32 0 35 0;
#X connect 33 0 37 0;
#X connect 34 0 15 0;
#X connect 35 0 29 0;
#X connect 36 0 0 0;
#X connect 37 0 14 0;
#X connect 39 0 12 1;
#X connect 40 0 39 0;
#X restore 448 82 pd aditiva2;
#X obj 249 81 random 400;
#X msg 233 -35 seed 2;
#X connect 1 0 2 0;
#X connect 1 0 7 0;
#X connect 1 1 3 0;
#X connect 1 1 8 0;
#X connect 1 2 4 0;
#X connect 1 2 9 0;
#X connect 1 3 5 0;
#X connect 1 3 10 0;
#X connect 6 0 1 0;
#X connect 15 0 17 0;
#X connect 16 0 15 0;
#X connect 16 0 24 0;
#X connect 24 0 18 0;
#X connect 25 0 15 0;
#X connect 25 0 24 0;
