#N canvas 184 88 868 660 16;
#X obj 56 272 brown-rhythm;
#X obj 56 203 tgl 15 0 empty empty empty 17 7 0 10 -262144 -1 -1 0
1;
#X msg 207 413 60;
#X obj 207 446 QT-PercPlayer;
#X floatatom 75 7 4 0 0 2 min_ED - -;
#X floatatom 159 8 4 0 0 2 max_ED - -;
#X floatatom 328 24 4 0 100 2 brownian_factor - -;
#X floatatom 233 14 4 0 0 2 ED-values - -;
#X obj 85 76 pack f f f f;
#X obj 85 130 prepend set;
#X msg 85 158 400 566 7 0.09;
#X obj 85 201 unpack f f f f;
#X obj 108 49 bng 15 250 50 0 empty empty empty 17 7 0 10 -262144 -1
-1;
#X obj 248 276 alea-rhythm;
#X floatatom 173 319 5 0 0 0 - - -;
#X obj 248 199 tgl 15 0 empty empty empty 17 7 0 10 -262144 -1 -1 0
1;
#X floatatom 317 311 5 0 0 0 - - -;
#X obj 392 276 serial-rhythm;
#X obj 392 209 tgl 15 0 empty empty empty 17 7 0 10 -262144 -1 -1 0
1;
#X floatatom 519 325 5 0 0 0 - - -;
#X floatatom 455 348 5 0 0 0 - - -;
#X obj 563 272 sneak-rhythm;
#X obj 563 219 tgl 15 0 empty empty empty 17 7 0 10 -262144 -1 -1 0
1;
#X floatatom 677 309 5 0 0 0 - - -;
#X obj 311 55 / 100;
#X connect 0 0 2 0;
#X connect 0 2 14 0;
#X connect 1 0 0 0;
#X connect 2 0 3 0;
#X connect 4 0 8 0;
#X connect 4 0 12 0;
#X connect 5 0 8 1;
#X connect 5 0 12 0;
#X connect 6 0 12 0;
#X connect 6 0 24 0;
#X connect 7 0 8 2;
#X connect 7 0 12 0;
#X connect 8 0 9 0;
#X connect 9 0 10 0;
#X connect 10 0 11 0;
#X connect 11 0 0 1;
#X connect 11 0 13 1;
#X connect 11 0 17 1;
#X connect 11 0 21 1;
#X connect 11 1 0 2;
#X connect 11 1 13 2;
#X connect 11 1 17 2;
#X connect 11 1 21 2;
#X connect 11 2 0 3;
#X connect 11 2 13 3;
#X connect 11 2 17 3;
#X connect 11 2 21 3;
#X connect 11 3 0 4;
#X connect 12 0 8 0;
#X connect 12 0 10 0;
#X connect 13 0 2 0;
#X connect 13 2 16 0;
#X connect 15 0 13 0;
#X connect 17 0 2 0;
#X connect 17 1 20 0;
#X connect 17 2 19 0;
#X connect 18 0 17 0;
#X connect 21 0 2 0;
#X connect 21 2 23 0;
#X connect 22 0 21 0;
#X connect 24 0 8 3;
