#N canvas 346 58 907 618 10;
#X obj 292 80 probalizer 200 200 2 100 1 0 57 1 10;
#X obj 303 19 bng 15 250 50 0 empty empty empty 17 7 0 10 -262144 -1
-1;
#X floatatom 296 310 5 0 0 0 - - -;
#X obj 477 314 bng 15 250 50 0 empty empty empty 17 7 0 10 -262144
-1 -1;
#X obj 592 171 clip;
#X obj 673 162 wrap;
#X floatatom 678 109 5 0 0 0 - - -;
#X floatatom 674 208 5 0 0 0 - - -;
#X obj 769 97 inv;
#X floatatom 763 73 5 0 0 0 - - -;
#X floatatom 770 134 5 0 0 0 - - -;
#X obj 770 191 about;
#X obj 25 204 breakpoints;
#X obj 548 275 diff_n;
#X text 605 277 bom pra segmentos de contornos melodicos;
#X obj 549 334 drunk;
#X msg 429 453;
#X text 599 333 random dentro de um range;
#X obj 212 413 velocity;
#X obj 88 432 Borax;
#X obj 166 461 borax;
#X obj 276 455 beat;
#X obj 281 503 rhythm;
#X obj 126 520 gestalt;
#X connect 0 0 2 0;
#X connect 0 1 3 0;
#X connect 1 0 0 0;
#X connect 5 0 7 0;
#X connect 6 0 5 0;
#X connect 8 0 10 0;
#X connect 9 0 8 0;
