#N canvas 351 89 707 478 10;
#X obj 109 314 * 2;
#X obj 109 349 - 1;
#X obj 114 144 vsl 15 128 0 1 0 0 empty empty empty 0 -9 0 10 -262144
-1 -1 0 1;
#X floatatom 109 393 5 0 0 0 - - -;
#X obj 168 153 vsl 15 128 -1 1 0 0 empty empty empty 0 -9 0 10 -262144
-1 -1 4000 1;
#X obj 169 311 + 1;
#X floatatom 172 392 5 0 0 0 - - -;
#X obj 171 349 * 0.5;
#X obj 57 42 comment 0 10 helvetica ? 0 0 0 0 como transformar fluxo
de numeros positivos ( 0 a 1) em fluxo de numeros centrados em zero
(- 1 a 1);
#X connect 0 0 1 0;
#X connect 1 0 3 0;
#X connect 2 0 0 0;
#X connect 4 0 5 0;
#X connect 5 0 7 0;
#X connect 7 0 6 0;
