#N canvas 6 51 819 672 10;
#X obj 346 616 sprintf;
#X obj 141 620 makefilename;
#X obj 246 620 textfile;
#X obj 88 77 cnv 15 200 150 empty empty empty 20 12 0 14 -233017 -66577
0;
#X obj 105 120 seq;
#X msg 220 86 read compasso1.mid;
#X obj 106 78 bng 15 250 50 0 empty empty empty 17 7 0 10 -262144 -1
-1;
#X msg 105 95 bang;
#X msg 141 63 stop;
#X msg 182 62 pause;
#X msg 224 61 continue;
#X obj 69 173 midiparse ----------;
#X obj 48 402 pitch 60;
#X obj 69 275 unpack f f;
#X floatatom 69 298 5 0 0 0 - - -;
#X floatatom 126 297 5 0 0 0 - - -;
#X text 68 314 pitch;
#X text 125 315 velocity;
#X obj 88 208 unpack f f;
#X floatatom 88 238 5 0 0 0 - - -;
#X floatatom 153 238 5 0 0 0 - - -;
#X text 87 253 aftert;
#X text 153 255 pitch;
#X floatatom 48 556 5 0 0 0 - - -;
#X floatatom 70 477 5 0 0 0 - - -;
#X floatatom 81 453 5 0 0 0 - - -;
#X floatatom 93 429 5 0 0 0 - - -;
#X symbolatom 59 502 7 0 0 0 - - -;
#X text 106 481 pitch class;
#X text 94 560 numero nota MIDI;
#X text 109 504 nome de nota;
#X text 130 426 oitava;
#X obj 91 615 poly;
#X obj 348 348 chord 127;
#X floatatom 348 565 5 0 0 0 - - -;
#X symbolatom 373 501 48 0 0 0 - - -;
#X floatatom 399 408 5 0 0 0 - - -;
#X floatatom 439 408 5 0 0 0 - - -;
#X floatatom 480 408 5 0 0 0 - - -;
#X floatatom 519 408 5 0 0 0 - - -;
#X floatatom 386 471 5 0 0 0 - - -;
#X floatatom 360 534 5 0 0 0 - - -;
#X obj 399 377 unpack f f f f f f;
#X floatatom 561 408 5 0 0 0 - - -;
#X floatatom 601 409 5 0 0 0 - - -;
#X text 116 454 intervalo em relação a última nota;
#X text 404 565 Número da nota MIDI do baixo;
#X text 417 540 classe da nota do baixo;
#X text 462 515 notas no acorde : nome do acorde;
#X text 449 464 posição fundamental (0) \, 1st inversão (1);
#X text 448 477 ou 2nd inversão (2);
#X text 556 377 lista de notas do acorde;
#X obj 555 78 image compasso1.gif;
#X text 338 84 ---------->;
#X text 620 561 problema:;
#X text 620 577 como lidar com a polifonia \,;
#X obj 399 431 bng 15 250 50 0 empty empty empty 17 7 0 10 -262144
-1 -1;
#X obj 439 431 bng 15 250 50 0 empty empty empty 17 7 0 10 -262144
-1 -1;
#X obj 480 432 bng 15 250 50 0 empty empty empty 17 7 0 10 -262144
-1 -1;
#X obj 519 432 bng 15 250 50 0 empty empty empty 17 7 0 10 -262144
-1 -1;
#X obj 561 432 bng 15 250 50 0 empty empty empty 17 7 0 10 -262144
-1 -1;
#X obj 59 525 send nota;
#X text 621 591 tem que liberar as notas;
#X text 622 607 que acionam bang;
#N canvas 678 65 596 493 formata 1;
#X obj 91 43 receive nota;
#X obj 91 74 sel E4 F4 G4 A4 C5 E5;
#X obj 91 100 bng 15 250 50 0 empty empty empty 17 7 0 10 -262144 -1
-1;
#X obj 111 101 bng 15 250 50 0 empty empty empty 17 7 0 10 -262144
-1 -1;
#X obj 132 100 bng 15 250 50 0 empty empty empty 17 7 0 10 -262144
-1 -1;
#X obj 152 102 bng 15 250 50 0 empty empty empty 17 7 0 10 -262144
-1 -1;
#X obj 173 101 bng 15 250 50 0 empty empty empty 17 7 0 10 -262144
-1 -1;
#X obj 194 103 bng 15 250 50 0 empty empty empty 17 7 0 10 -262144
-1 -1;
#X msg 91 137 e;
#X msg 122 137 f;
#X msg 156 137 g;
#X msg 189 138 a;
#X msg 223 138 cc;
#X msg 258 140 ee;
#X text 334 34 conferir o parser do xenophylus;
#X text 340 56 do pedro;
#X obj 252 56 bng 15 250 50 0 empty empty empty 17 7 0 10 -262144 -1
-1;
#X obj 112 210 pack s s s;
#X connect 0 0 1 0;
#X connect 1 0 2 0;
#X connect 1 1 3 0;
#X connect 1 2 4 0;
#X connect 1 3 5 0;
#X connect 1 4 6 0;
#X connect 1 5 7 0;
#X connect 2 0 8 0;
#X connect 3 0 9 0;
#X connect 4 0 10 0;
#X connect 5 0 11 0;
#X connect 6 0 12 0;
#X connect 7 0 13 0;
#X connect 8 0 17 0;
#X connect 8 0 17 1;
#X connect 8 0 17 2;
#X connect 9 0 17 0;
#X connect 16 0 11 0;
#X connect 16 0 12 0;
#X connect 16 0 13 0;
#X restore 555 256 pd formata kern;
#X obj 48 345 stripnote;
#X text 114 342 esse objeto;
#X text 119 356 ignora os note-off;
#X text 209 173 ----------------> problema:;
#X text 317 184 pra lidar com ritmo;
#X text 321 200 tem que estabelecer uma regra;
#X text 318 212 de quantização \, transformando o tempo;
#X text 318 226 entre note-on e note-off em duração;
#X obj 243 258 pddp/print;
#X obj 585 172 image umanota.gif;
#X msg 388 154 read umanota.mid;
#X text 492 153 ---->;
#X obj 142 137 bng 15 250 50 0 empty empty empty 17 7 0 10 -262144
-1 -1;
#X obj 156 8 key;
#X obj 236 10 alternate;
#X obj 185 9 sel 32;
#X connect 4 0 11 0;
#X connect 4 1 77 0;
#X connect 5 0 4 0;
#X connect 6 0 7 0;
#X connect 7 0 4 0;
#X connect 8 0 4 0;
#X connect 9 0 4 0;
#X connect 10 0 4 0;
#X connect 11 0 13 0;
#X connect 11 0 65 0;
#X connect 11 0 73 0;
#X connect 11 1 18 0;
#X connect 12 0 23 0;
#X connect 12 1 27 0;
#X connect 12 2 24 0;
#X connect 12 3 25 0;
#X connect 12 4 26 0;
#X connect 13 0 14 0;
#X connect 13 1 15 0;
#X connect 14 0 33 0;
#X connect 15 0 33 1;
#X connect 18 0 19 0;
#X connect 18 1 20 0;
#X connect 27 0 61 0;
#X connect 33 0 34 0;
#X connect 33 1 41 0;
#X connect 33 2 35 0;
#X connect 33 3 40 0;
#X connect 33 4 42 0;
#X connect 36 0 56 0;
#X connect 37 0 57 0;
#X connect 38 0 58 0;
#X connect 39 0 59 0;
#X connect 42 0 36 0;
#X connect 42 1 37 0;
#X connect 42 2 38 0;
#X connect 42 3 39 0;
#X connect 42 4 43 0;
#X connect 42 5 44 0;
#X connect 43 0 60 0;
#X connect 65 0 12 0;
#X connect 65 1 12 1;
#X connect 75 0 4 0;
#X connect 77 0 6 0;
#X connect 78 0 80 0;
#X connect 79 0 9 0;
#X connect 79 1 10 0;
#X connect 80 0 79 0;
#X coords 0 0 2 2 0 0 0;
