#N canvas 711 25 450 685 16;
#X msg 51 23 #;
#X msg 126 27 $;
#X msg 38 80;
#X text 105 83 espaco;
#X msg 215 29 =;
#X msg 288 30 [;
#X msg 219 78 ];
#X msg 289 76 _;
#X msg 46 138 (;
#X msg 125 136 );
#X msg 214 132 \;;
#X text 12 546 o q nao tem:;
#X text 24 581 * phrase mark (start e end);
#X msg 298 141 ';
#X msg 51 190 ";
#X msg 130 194 `;
#X msg 220 185 ~;
#X msg 310 191 ^;
#X msg 42 249 :;
#X msg 134 250 ´;
#X obj 326 346 key;
#X floatatom 324 395 5 0 0 0 - - -;
#X text 192 250 acento agudo;
#X msg 49 298 /;
#X obj 173 371 keyname;
#X symbolatom 171 426 10 0 0 0 - - -;
#X obj 190 468 prepend set;
#X msg 209 517 Control_L;
#X text 23 609 * down-stem;
#X msg 137 298 &;
#N canvas 65 25 1186 713 teste 0;
#X obj -58 521 shell;
#X msg -39 443 set;
#X obj -39 411 loadbang;
#X obj -58 549 prepend add2;
#X msg -58 580;
#X text 609 277 1) gravar o midi com seq;
#X text 616 308 2) midi2hum;
#X text 620 344 3);
#X text 494 346 ----------->;
#X text 612 378 4) abrir com msgfile e parsear;
#N canvas 0 25 1268 713 msg 0;
#X obj 79 247 msgfile;
#X msg 110 204 bang;
#X obj 70 320 prepend set;
#X obj 220 320 prepend set;
#X msg 219 354;
#X msg 55 170 read /home/livre/pesquisa/SINCOPA/rascunhos/compasso1.txt
cr;
#X obj 259 281 print;
#X obj 438 290 shell;
#X msg 416 221 cat /home/livre/pesquisa/SINCOPA/rascunhos/compasso1.txt
;
#X obj 438 350 print;
#X obj 561 322 prepend add2;
#X msg 566 357;
#X msg 305 220 set;
#X obj 218 496 bng 15 250 50 0 empty empty empty 17 7 0 10 -262144
-1 -1;
#X obj 219 416 list-drip;
#X obj 320 501 bng 15 250 50 0 empty empty empty 17 7 0 10 -262144
-1 -1;
#X obj 412 504 bng 15 250 50 0 empty empty empty 17 7 0 10 -262144
-1 -1;
#X obj 509 503 bng 15 250 50 0 empty empty empty 17 7 0 10 -262144
-1 -1;
#X obj 217 457 select tokens: voices: records: Longest voce;
#X msg 52 529;
#X obj 572 504 bng 15 250 50 0 empty empty empty 17 7 0 10 -262144
-1 -1;
#X text 276 27 AGORA SIM \; );
#X obj 64 30 inlet;
#N canvas 0 0 474 353 montando 0;
#X obj 170 247 textfile;
#X msg 91 197 add \$1;
#X msg 179 197 print;
#X obj 170 278 print;
#X obj 91 163 symbol;
#X msg 122 15 **kern;
#X obj 91 121 bng 15 250 50 0 empty empty empty 17 7 0 10 -262144 -1
-1;
#X obj 148 130 l2s;
#X msg 144 52 =1;
#X msg 162 91 4a 4cc 4ee;
#X msg 170 162 clear;
#X msg 261 199 write kern.krn cr;
#X connect 0 0 3 0;
#X connect 1 0 0 0;
#X connect 2 0 0 0;
#X connect 4 0 1 0;
#X connect 5 0 7 0;
#X connect 6 0 4 0;
#X connect 7 0 4 1;
#X connect 8 0 7 0;
#X connect 9 0 7 0;
#X connect 10 0 0 0;
#X connect 11 0 0 0;
#X restore 706 44 pd montando kern;
#X msg 104 102 read compasso1.txt cr;
#X connect 0 0 2 0;
#X connect 0 0 6 0;
#X connect 0 0 14 0;
#X connect 0 1 3 0;
#X connect 1 0 0 0;
#X connect 2 0 19 0;
#X connect 3 0 4 0;
#X connect 5 0 0 0;
#X connect 7 0 9 0;
#X connect 7 0 10 0;
#X connect 8 0 7 0;
#X connect 10 0 11 0;
#X connect 12 0 19 0;
#X connect 12 0 11 0;
#X connect 14 0 18 0;
#X connect 18 0 13 0;
#X connect 18 1 15 0;
#X connect 18 2 16 0;
#X connect 18 3 17 0;
#X connect 18 4 20 0;
#X connect 24 0 0 0;
#X restore 161 420 pd msg;
#X text 649 346 aqui descobrir comando pra acordes;
#X msg -72 218 mid2hum \$1 > m2h.krn;
#X obj -72 189 openpanel;
#X obj -72 169 bng 15 250 50 0 empty empty empty 17 7 0 10 -262144
-1 -1;
#X obj -72 246 prepend set;
#X obj 29 161 closebang;
#X msg 29 188 set;
#X obj 199 97 msgfile;
#X msg 217 62 bang;
#X obj 199 190 bng 15 250 50 0 empty empty empty 17 7 0 10 -262144
-1 -1;
#X obj 199 127 list-drip;
#X obj 286 190 bng 15 250 50 0 empty empty empty 17 7 0 10 -262144
-1 -1;
#X obj 373 188 bng 15 250 50 0 empty empty empty 17 7 0 10 -262144
-1 -1;
#X obj 2 476 bng 15 250 50 0 empty empty empty 17 7 0 10 -262144 -1
-1;
#X msg -51 346 census -k /home/livre/pesquisa/SINCOPA/rascunhos/m2h.krn
> /home/livre/pesquisa/SINCOPA/rascunhos/m2h.txt;
#X msg -72 281 mid2hum /home/livre/pesquisa/SINCOPA/rascunhos/ravelgmaj.mid
> m2h.krn;
#X obj 486 92 prepend set;
#X msg 199 30 read m2h.txt;
#X obj 199 157 select notes: voices:;
#X msg 489 123;
#N canvas 0 100 1200 473 parser 0;
#X obj 495 70 msgfile;
#X msg 513 35 bang;
#X obj 496 102 prepend set;
#X msg 495 3 read m2h.txt;
#X msg 496 132 HUMDRUM DATA Number of data tokens: 2510 Number of null
tokens: 0 Number of multiple-stops: 470 Number of data records: 2511
Number of comments: 817 Number of interpretations: 301 Number of records:
3629 KERN DATA Number of note-heads: 2491 Number of notes: 2209 Longest
note: 2 Shortest note: 384 Highest note: gggg# Lowest note: FFF Number
of rests: 310 Maximum number of voices: 4 Number of single barlines:
237 Number of double barlines: 0;
#X obj 110 126 list-find;
#X msg 110 17 notes:;
#X msg 186 18 voices:;
#X obj 198 269 list-seek;
#X obj 186 201 bng 15 250 50 0 empty empty empty 17 7 0 10 -262144
-1 -1;
#X obj 110 157 + 1;
#X floatatom 110 188 5 0 0 0 - - -;
#X msg 198 239 set \$1;
#X floatatom 198 299 5 0 0 0 - - -;
#X connect 0 0 2 0;
#X connect 0 0 5 1;
#X connect 0 0 8 1;
#X connect 1 0 0 0;
#X connect 2 0 4 0;
#X connect 3 0 0 0;
#X connect 5 0 10 0;
#X connect 6 0 5 0;
#X connect 6 0 9 0;
#X connect 7 0 5 0;
#X connect 7 0 9 0;
#X connect 8 0 13 0;
#X connect 9 0 8 0;
#X connect 10 0 11 0;
#X connect 11 0 12 0;
#X connect 12 0 8 0;
#X restore 757 44 pd parser;
#X connect 0 0 3 0;
#X connect 0 0 10 0;
#X connect 0 1 24 0;
#X connect 1 0 4 0;
#X connect 2 0 1 0;
#X connect 3 0 4 0;
#X connect 12 0 15 0;
#X connect 13 0 12 0;
#X connect 14 0 13 0;
#X connect 15 0 26 0;
#X connect 16 0 17 0;
#X connect 17 0 26 0;
#X connect 18 0 21 0;
#X connect 18 0 27 0;
#X connect 19 0 18 0;
#X connect 21 0 29 0;
#X connect 25 0 0 0;
#X connect 26 0 0 0;
#X connect 27 0 30 0;
#X connect 28 0 18 0;
#X connect 29 0 20 0;
#X connect 29 1 22 0;
#X connect 29 2 23 0;
#X restore 17 374 pd teste;
#X connect 20 0 21 0;
#X connect 24 1 25 0;
#X connect 25 0 26 0;
#X connect 26 0 27 0;
