#N canvas 136 83 1138 681 10;
#N canvas 0 25 1257 716 maxlib 0;
#X obj 317 270 average;
#X obj 28 160 beat;
#X obj 28 185 borax;
#X obj 28 135 chord;
#X obj 24 598 dist;
#X obj 317 165 divide;
#X obj 317 139 divmod;
#X obj 666 158 fifo;
#X obj 317 296 history;
#X obj 413 587 ignore;
#X obj 413 562 iso;
#X obj 665 132 lifo;
#X obj 317 322 match;
#X obj 317 190 minus;
#X obj 670 353 mlife;
#X obj 317 217 multi;
#X obj 24 623 netdist;
#X obj 28 261 pitch;
#X obj 317 244 plus;
#X obj 413 509 pulse;
#X obj 24 647 remote;
#X obj 28 210 rhythm;
#X obj 28 235 score array01;
#X obj 413 535 speedlim;
#X obj 413 613 step;
#X obj 670 328 subst;
#X text 150 54 written by Olaf Matthes <olaf.matthes@gmx.de>;
#X text 81 135 chord detection;
#X text 78 160 beat tracking;
#X text 87 211 beat detection;
#X text 82 186 music analysis;
#X text 145 235 score following;
#X text 82 261 pitch information;
#X text 29 104 MUSIC / MIDI ANALYSIS;
#X text 320 101 MATH;
#X text 384 140 calculate / and %;
#X text 382 165 / for several inputs;
#X text 376 245 + for several inputs;
#X text 376 217 * for several inputs;
#X text 380 191 - for several inputs;
#X text 388 269 average of last N values;
#X text 389 295 average over last N seconds;
#X text 372 322 match input to list of numbers;
#X text 413 483 TIME;
#X text 490 536 lets input through every N milliseconds;
#X text 452 563 play sequence of MIDI notes;
#X text 474 588 ignore too fast changing input;
#X text 72 597 send to list of receive objects;
#X text 93 621 same for netreceive;
#X text 83 646 send to one receive object;
#X text 664 105 BUFFER;
#X text 460 615 a line object that steps;
#X text 669 304 OTHER / EXPERIMENTAL;
#X text 727 327 self-similar substitution;
#X text 726 353 cellular automaton;
#X obj 317 348 scale;
#X text 468 509 a 'better' metro;
#X obj 413 639 history;
#X obj 413 665 velocity;
#X text 482 639 average over last N milliseconds;
#X text 489 665 velocity of input in digits per second;
#X obj 24 671 netrec;
#X text 83 672 netreceive with extra info about sender;
#X obj 317 374 delta;
#X text 149 71 download at http://www.akustische-kunst.org/puredata/maxlib
;
#X obj 666 183 listfifo;
#X text 744 182 first in first out for lists;
#X text 713 157 first in first out for floats;
#X text 710 132 last in first out for floats;
#X obj 412 691 sync;
#X text 457 693 extended trigger object;
#X text 371 348 scale input to output range;
#X text 22 575 (REMOTE)CONTROL;
#X obj 25 696 netserver;
#X obj 25 723 netclient;
#X text 112 701 bidirectional communication;
#X text 121 716 (client / server based);
#X obj 317 402 wrap;
#X obj 317 429 rewrap;
#X text 363 402 warp a number in a range;
#X text 380 430 warp it back and forth;
#X text 371 374 calculate 1st or 2nd order diff.;
#X text 670 384 RANDOM;
#X obj 670 408 gauss;
#X obj 670 433 poisson;
#X obj 736 408 linear;
#X obj 736 433 bilex;
#X obj 806 407 expo;
#X obj 855 407 beta;
#X obj 904 408 cauchy;
#X obj 807 434 arbran array01 array02;
#X obj 28 288 gestalt;
#X obj 28 313 edge;
#X text 76 317 detect rising/falling edge;
#X text 94 288 'gestalt' of music;
#X obj 669 462 urn;
#X text 702 462 urn selection model;
#X obj 413 719 timebang;
#X text 492 719 send a bang at given time of day;
#X obj 25 400 split;
#X obj 25 449 unroute;
#X text 91 450 opposit to route;
#X text 84 402 split according to range;
#X obj 25 473 limit;
#X text 73 474 limiter for floats;
#X obj 25 425 nroute;
#X text 90 424 r. according to Nth elem.;
#X text 34 373 ROUTING / CHECKING;
#X obj 412 745 pong;
#X obj 28 340 tilt;
#X obj 412 770 temperature;
#X text 510 771 amount of input changes per time;
#X text 458 746 a bouncing ball model;
#X text 76 343 meassure tilt of input;
#X obj 26 499 listfunnel;
#X text 117 500 Max's funnel for lists;
#X text 40 36 maxlib 1;
#X obj 666 211 arraycopy;
#X text 751 212 copy from one array to another;
#X obj 27 535 nchange s;
#X text 99 536 change that exepts any kind of input;
#X restore 581 187 pd maxlib;
#X obj 163 46 comment 0 10 helvetica ? 0 0 0 0 comment;
#X obj 255 44 comment 0 20 Times ? 0 0 0 0 Estudo de libs a serem usadas
20/04/2010;
#N canvas 6 51 450 300 mjlib 0;
#X obj 99 41 metroplus;
#X obj 95 75 monorhythm;
#X obj 102 124 morse;
#X obj 103 160 n2m;
#X obj 103 195 prob;
#C restore;
#X text 180 41 gera sequencias de ritmos;
#X text 168 71 gera sequencias de ritmos;
#X text 153 125 gera curtos e longos;
#X text 149 156 nome de nota > midi;
#X restore 577 134 pd mjlib;
#N canvas 6 51 1255 713 windowing 0;
#X obj 23 80 hanning~;
#X obj 23 106 tabsend~ hanning;
#X obj 23 57 sig~ 1;
#X obj 191 58 sig~ 1;
#X obj 191 82 hamming~;
#X obj 191 107 tabsend~ hamming;
#X obj 25 196 sig~ 1;
#X obj 193 197 sig~ 1;
#X obj 25 219 blackman~;
#X obj 193 221 connes~;
#X obj 24 345 sig~ 1;
#X obj 192 349 sig~ 1;
#X obj 24 371 cosine~;
#X obj 192 373 bartlett~;
#X obj 25 502 sig~ 1;
#X obj 193 504 sig~ 1;
#X obj 25 525 welch~;
#X obj 193 528 lanczos~;
#X obj 26 634 sig~ 1;
#X obj 26 693 tabsend~ gaussian;
#X floatatom 78 634 5 0 0 0 - - -;
#X obj 194 653 sig~ 1;
#X floatatom 246 653 5 0 0 0 - - -;
#X obj 194 712 tabsend~ kaiser;
#X obj 25 245 tabsend~ blackman;
#X obj 193 246 tabsend~ connes;
#X obj 24 397 tabsend~ cosine;
#X obj 192 398 tabsend~ bartlett;
#X obj 25 552 tabsend~ welch;
#X obj 193 553 tabsend~ lanczos;
#N canvas 0 0 450 300 (subpatch) 0;
#X array hanning 64 float 0;
#X coords 0 1 63 -1 200 140 1;
#X restore 379 22 graph;
#N canvas 0 0 450 300 (subpatch) 0;
#X array hamming 64 float 0;
#X coords 0 1 63 -1 200 140 1;
#X restore 640 21 graph;
#N canvas 0 0 450 300 (subpatch) 0;
#X array blackman 64 float 0;
#X coords 0 1 63 -1 200 140 1;
#X restore 379 165 graph;
#N canvas 0 0 450 300 (subpatch) 0;
#X array connes 64 float 0;
#X coords 0 1 63 -1 200 140 1;
#X restore 641 164 graph;
#N canvas 0 0 450 300 (subpatch) 0;
#X array cosine 64 float 0;
#X coords 0 1 63 -1 200 140 1;
#X restore 379 308 graph;
#N canvas 0 0 450 300 (subpatch) 0;
#X array bartlett 64 float 0;
#X coords 0 1 63 -1 200 140 1;
#X restore 641 307 graph;
#N canvas 0 0 450 300 (subpatch) 0;
#X array welch 64 float 0;
#X coords 0 1 63 -1 200 140 1;
#X restore 379 452 graph;
#N canvas 0 0 450 300 (subpatch) 0;
#X array lanczos 64 float 0;
#X coords 0 1 63 -1 200 140 1;
#X restore 641 451 graph;
#N canvas 0 0 450 300 (subpatch) 0;
#X array gaussian 64 float 0;
#X coords 0 1 63 -1 200 140 1;
#X restore 379 596 graph;
#N canvas 0 0 450 300 (subpatch) 0;
#X array kaiser 64 float 0;
#X coords 0 1 63 -1 200 140 1;
#X restore 641 595 graph;
#X obj 26 667 gaussian~ 0;
#X obj 194 686 kaiser~ 10;
#X text 260 372 (triangle);
#X text 255 528 (sinc);
#X text 22 33 0.5*(1+cos(pi*x));
#X text 189 34 0.54+0.46*(cos(pi*x));
#X text 24 174 0.8*cos(2*pi*x);
#X text 190 171 (1-x^2)^2;
#X text 24 159 0.42+(0.5*cos(pi*x))+;
#X text 23 321 cos(pi*x/2);
#X text 189 322 1-x^2;
#X text 24 475 1 - abs(x);
#X text 190 476 sin(pi*x)/(pi*x);
#X text 26 612 2^(-(x/d)^2);
#X text 194 632 modified Bessel function;
#X text 194 618 where Io is 0th order;
#X text 193 603 Io(a*sqrt(1-x^2))/Io(a);
#X connect 0 0 1 0;
#X connect 2 0 0 0;
#X connect 3 0 4 0;
#X connect 4 0 5 0;
#X connect 6 0 8 0;
#X connect 7 0 9 0;
#X connect 8 0 24 0;
#X connect 9 0 25 0;
#X connect 10 0 12 0;
#X connect 11 0 13 0;
#X connect 12 0 26 0;
#X connect 13 0 27 0;
#X connect 14 0 16 0;
#X connect 15 0 17 0;
#X connect 16 0 28 0;
#X connect 17 0 29 0;
#X connect 18 0 40 0;
#X connect 20 0 40 0;
#X connect 21 0 41 0;
#X connect 22 0 41 0;
#X connect 40 0 19 0;
#X connect 41 0 23 0;
#X restore 580 260 pd windowing;
#N canvas 6 51 450 300 cyclone 0;
#X restore 577 94 pd cyclone;
#N canvas 0 0 450 300 ekext 0;
#X obj 77 77 steady;
#X text 128 77 parecido com changemorethan;
#X obj 67 131 simile;
#X restore 561 319 pd ekext;
#N canvas 6 51 450 300 ggee 0;
#X restore 551 373 pd ggee;
#N canvas 6 51 450 300 rtc 0;
#X restore 560 410 pd rtc;
#N canvas 0 0 450 300 pdmtl 0;
#X restore 562 467 pd pdmtl;
#N canvas 6 51 450 300 iem/tab 0;
#X restore 283 263 pd iem/tab;
#N canvas 6 51 450 300 iemlib 0;
#X restore 274 166 pd iemlib;
