#N canvas 0 24 1138 675 16;
#X text 89 -1 off;
#X floatatom 54 54 0 0 0 0 - - -;
#X obj 54 392 noteout;
#X obj 54 83 metro 500;
#X msg 54 22 1;
#X msg 86 22 0;
#X text 54 -1 on;
#X obj 54 299 unpack f f;
#X obj 54 353 makenote 64 50;
#X msg 197 262 200;
#X msg 202 291 20;
#X msg 203 321 300;
#X text 193 238 duração;
#X obj 244 9 adc~;
#X obj 553 56 *~;
#X obj 614 55 hsl 80 40 0 0.1 0 0 empty empty empty -2 -8 0 10 -262130
-1 -1 0 1;
#N canvas 0 0 625 689 entendendo 0;
#X obj 297 51 osc~ 440;
#X obj 297 75 *~;
#X obj 178 411 unpack 0 0 0 0;
#X floatatom 223 483 5 0 0 0 - - -;
#X floatatom 269 454 5 0 0 0 - - -;
#X floatatom 316 517 5 0 0 0 - - -;
#X floatatom 295 20 5 0 0 0 - - -;
#X obj 346 78 hsl 70 30 0 0.5 0 0 empty empty empty -2 -8 0 10 -262144
-1 -1 0 1;
#X obj 178 324 route 0 1 2 3 4 5 6 7 8 9;
#X obj 297 200 +~;
#X obj 460 81 osc~ 440;
#X obj 460 105 *~;
#X floatatom 458 50 5 0 0 0 - - -;
#X obj 509 108 hsl 70 30 0 0.5 0 0 empty empty empty -2 -8 0 10 -262144
-1 -1 0 1;
#X obj 383 409 unpack 0 0 0 0;
#X floatatom 428 486 5 0 0 0 - - -;
#X floatatom 474 463 5 0 0 0 - - -;
#X floatatom 520 438 5 0 0 0 - - -;
#X obj 178 288 sigmund~ -npeak 10 peaks;
#X floatatom 179 597 5 0 0 0 - - -;
#X obj 178 512 change;
#X obj 179 537 int;
#X obj 179 563 speedlim 350;
#X floatatom 384 597 5 0 0 0 - - -;
#X obj 383 512 change;
#X obj 384 537 int;
#X obj 384 563 speedlim 350;
#X text 464 184 teste;
#X obj 130 95 inlet~;
#X obj 179 635 outlet;
#X connect 0 0 1 0;
#X connect 1 0 9 0;
#X connect 2 0 20 0;
#X connect 2 1 3 0;
#X connect 2 2 4 0;
#X connect 2 3 5 0;
#X connect 6 0 0 0;
#X connect 7 0 1 1;
#X connect 8 0 2 0;
#X connect 8 1 14 0;
#X connect 10 0 11 0;
#X connect 11 0 9 1;
#X connect 12 0 10 0;
#X connect 13 0 11 1;
#X connect 14 0 24 0;
#X connect 14 1 15 0;
#X connect 14 2 16 0;
#X connect 14 3 17 0;
#X connect 18 0 8 0;
#X connect 19 0 29 0;
#X connect 20 0 21 0;
#X connect 21 0 22 0;
#X connect 22 0 19 0;
#X connect 24 0 25 0;
#X connect 25 0 26 0;
#X connect 26 0 23 0;
#X connect 28 0 18 0;
#X restore 657 132 pd entendendo sigmund;
#X floatatom 657 174 5 0 0 0 - - -;
#X msg 54 258 \$1 100;
#X obj 54 174 random 127;
#X obj 248 397 noteout;
#X obj 248 310 unpack f f;
#X obj 248 364 makenote 64 50;
#X msg 387 274 200;
#X msg 392 303 20;
#X msg 393 333 300;
#X text 386 247 duração;
#X msg 248 269 \$1 100;
#X obj 248 185 random 127;
#N canvas 417 24 688 481 sample 0;
#N canvas 0 0 450 300 (subpatch) 0;
#X array amostra 297755 float 2;
#X coords 0 1 297755 -1 200 140 1;
#X restore 449 265 graph;
#X obj 56 168 soundfiler;
#X obj 56 76 openpanel;
#X obj 56 48 bng 15 250 50 0 empty empty empty 17 7 0 10 -262144 -1
-1;
#X msg 170 78 /home/livre/pesquisa/SINCOPA/samples/vlao2.wav;
#X msg 56 137 read -resize \$1 amostra;
#X obj 93 343 tabplay~ amostra;
#X obj 94 383 *~;
#X obj 180 434 line~;
#X msg 198 404 0 100;
#X obj 95 435 dac~;
#X obj 93 302 bng 15 250 50 0 empty empty empty 17 7 0 10 -262144 -1
-1;
#X msg 180 372 0.6 100;
#X obj 170 47 loadbang;
#X obj 93 240 inlet;
#X obj 12 438 outlet~;
#X connect 2 0 5 0;
#X connect 3 0 2 0;
#X connect 4 0 5 0;
#X connect 5 0 1 0;
#X connect 6 0 7 0;
#X connect 6 0 15 0;
#X connect 7 0 10 0;
#X connect 7 0 10 1;
#X connect 8 0 7 1;
#X connect 9 0 8 0;
#X connect 11 0 6 0;
#X connect 12 0 8 0;
#X connect 13 0 4 0;
#X connect 14 0 11 0;
#X restore 552 25 pd sample;
#X obj 552 2 bng 15 250 50 0 empty empty empty 17 7 0 10 -262144 -1
-1;
#X obj 657 205 ftom;
#X obj 657 233 int;
#X floatatom 657 264 5 0 0 0 - - -;
#X obj 593 330 spigot;
#X obj 553 110 env~;
#X floatatom 553 151 5 0 0 0 - - -;
#X floatatom 513 236 5 0 0 0 - - -;
#X floatatom 574 236 5 0 0 0 - - -;
#X msg 574 269 1;
#X msg 513 269 0;
#X floatatom 593 365 5 0 0 0 - - -;
#X obj 526 192 moses 35;
#X obj 569 548 tabwrite notas;
#N canvas 0 0 450 300 (subpatch) 0;
#X array notas 16 float 3;
#A 0 60 0 0 122 58 61 57 57 65 67 73 73 73 82 70 53;
#X coords 0 127 16 0 200 140 1;
#X restore 812 382 graph;
#X obj 646 466 metro 500;
#X obj 646 443 tgl 15 0 empty empty empty 17 7 0 10 -262144 -1 -1 0
1;
#X obj 646 495 counter 16;
#X msg 203 96 250;
#X msg 202 122 125;
#X msg 201 44 1000;
#X msg 202 70 500;
#X connect 1 0 3 0;
#X connect 3 0 19 0;
#X connect 3 0 28 0;
#X connect 4 0 1 0;
#X connect 5 0 1 0;
#X connect 7 0 8 0;
#X connect 7 1 8 1;
#X connect 8 0 2 0;
#X connect 8 1 2 1;
#X connect 9 0 8 2;
#X connect 10 0 8 2;
#X connect 11 0 8 2;
#X connect 14 0 16 0;
#X connect 14 0 35 0;
#X connect 15 0 14 1;
#X connect 16 0 17 0;
#X connect 17 0 31 0;
#X connect 18 0 7 0;
#X connect 19 0 18 0;
#X connect 21 0 22 0;
#X connect 21 1 22 1;
#X connect 22 0 20 0;
#X connect 22 1 20 1;
#X connect 23 0 22 2;
#X connect 24 0 22 2;
#X connect 25 0 22 2;
#X connect 27 0 21 0;
#X connect 28 0 27 0;
#X connect 29 0 14 0;
#X connect 30 0 29 0;
#X connect 31 0 32 0;
#X connect 32 0 33 0;
#X connect 33 0 34 0;
#X connect 33 0 43 0;
#X connect 34 0 41 0;
#X connect 35 0 36 0;
#X connect 36 0 42 0;
#X connect 37 0 40 0;
#X connect 38 0 39 0;
#X connect 39 0 34 1;
#X connect 40 0 34 1;
#X connect 42 0 37 0;
#X connect 42 1 38 0;
#X connect 45 0 47 0;
#X connect 46 0 45 0;
#X connect 47 0 43 1;
#X connect 48 0 3 1;
#X connect 49 0 3 1;
#X connect 50 0 3 1;
#X connect 51 0 3 1;
