#N canvas 0 0 800 486 16;
#X obj 98 96 permutate;
#X msg 139 50 11 9 8 1;
#X obj 98 53 bng 15 250 50 0 empty empty empty 17 7 0 10 -262144 -1
-1;
#X obj 98 131 prepend set;
#X msg 99 162 9;
#X obj 352 135 probalizer 200 200 12 10 1 0 7 1 2 2 3 3 5 4 3 5 3 6
4 7 3 8 3 9 3 10 3 11 3;
#X obj 360 61 bng 15 250 50 0 empty empty empty 17 7 0 10 -262144 -1
-1;
#X floatatom 349 382 5 0 0 0 - - -;
#X connect 0 0 3 0;
#X connect 1 0 0 1;
#X connect 2 0 0 0;
#X connect 3 0 4 0;
#X connect 5 0 7 0;
#X connect 6 0 5 0;
