#N canvas 145 25 643 518 10;
#X obj 20 13 adc~;
#X obj 20 98 tabwrite~ grava;
#X msg 68 31 bang;
#X msg 68 59 stop;
#X obj 20 49 *~ 1;
#X obj 502 91 *~ 1;
#X obj 503 121 dac~;
#X obj 501 61 tabplay~ grava;
#X msg 501 7 bang;
#X obj 582 94 bng 15 250 50 0 empty empty empty 17 7 0 10 -262144 -1
-1;
#X obj 125 387 tabread grava;
#X obj 128 323 hsl 128 15 0 999100 0 0 empty empty empty -2 -8 0 10
-262144 -1 -1 0 1;
#X floatatom 125 418 5 0 0 0 - - -;
#X floatatom 147 358 10 0 0 0 - - -;
#X floatatom 241 472 5 0 0 0 - - -;
#X obj 206 469 bng 15 250 50 0 empty empty empty 17 7 0 10 -262144
-1 -1;
#N canvas 0 0 450 300 changemorethan 0;
#X obj 19 18 inlet;
#X obj 19 56 -;
#X obj 19 75 abs;
#X obj 19 94 moses \$1;
#X obj 70 19 inlet;
#X obj 19 37 t f f;
#X obj 90 142 f;
#X obj 90 123 b;
#X obj 90 161 outlet;
#X connect 0 0 5 0;
#X connect 1 0 2 0;
#X connect 2 0 3 0;
#X connect 3 1 7 0;
#X connect 4 0 3 1;
#X connect 5 0 1 0;
#X connect 5 1 6 1;
#X connect 6 0 8 0;
#X connect 6 0 1 1;
#X connect 7 0 6 0;
#X restore 213 421 pd changemorethan 10;
#X floatatom 297 128 5 0 0 0 - - -;
#X floatatom 462 132 5 0 0 0 - - -;
#X obj 297 98 sigmund~ -hop 4096 pitch env;
#X obj 297 155 int;
#X obj 298 180 moses 0;
#X floatatom 337 205 5 0 0 0 - - -;
#X floatatom 312 371 5 0 0 0 - - -;
#X obj 21 125 table grava;
#X floatatom 161 467 5 0 0 0 - - -;
#X obj 161 443 * 30;
#X msg 528 34 94403.1;
#X floatatom 233 375 5 0 0 0 - - -;
#X text 9 393 navegando nos \; samples a gente \; ve exatamente \;
onde foi o comeco \; em qual sample \; como automatizar esse \; processo
;
#X obj 462 162 moses 75;
#X obj 431 353 osc~;
#X obj 431 327 mtof;
#X obj 431 404 dac~;
#X obj 431 378 *~ 1;
#X obj 479 307 vsl 15 128 0 1 0 0 empty empty empty 0 -9 0 10 -262144
-1 -1 0 1;
#X obj 431 304 + 1;
#X obj 522 320 / 15;
#X obj 522 370 - 5;
#X obj 589 140 vsl 15 128 0 1.5 0 0 empty empty empty 0 -9 0 10 -262144
-1 -1 10300 1;
#X obj 523 446 line;
#X obj 479 445 + 0.5;
#X obj 522 297 spigot;
#X obj 555 272 tgl 15 0 empty empty empty 17 7 0 10 -262144 -1 -1 0
1;
#X text 571 293 liga o OP;
#X text 180 18 Oscilador Papagaio;
#X msg 468 256 0;
#X msg 522 420 \$1 7;
#X obj 16 306 savepanel;
#X obj 16 351 soundfiler;
#X msg 16 248 salvar;
#X obj 16 279 bng 15 250 50 0 empty empty empty 17 7 0 10 -262144 -1
-1;
#X msg 16 327 write \$1 grava;
#X obj 142 181 presidency~;
#X connect 0 0 4 0;
#X connect 0 1 4 0;
#X connect 2 0 1 0;
#X connect 3 0 1 0;
#X connect 4 0 1 0;
#X connect 5 0 6 0;
#X connect 5 0 6 1;
#X connect 7 0 5 0;
#X connect 7 0 19 0;
#X connect 7 1 9 0;
#X connect 8 0 7 0;
#X connect 9 0 27 0;
#X connect 10 0 12 0;
#X connect 11 0 10 0;
#X connect 11 0 13 0;
#X connect 12 0 26 0;
#X connect 16 0 15 0;
#X connect 16 0 14 0;
#X connect 17 0 20 0;
#X connect 18 0 30 0;
#X connect 19 0 17 0;
#X connect 19 1 18 0;
#X connect 20 0 21 0;
#X connect 21 1 22 0;
#X connect 22 0 36 0;
#X connect 23 0 16 1;
#X connect 25 0 16 0;
#X connect 26 0 25 0;
#X connect 27 0 7 0;
#X connect 28 0 16 0;
#X connect 30 1 42 0;
#X connect 31 0 34 0;
#X connect 32 0 31 0;
#X connect 34 0 33 0;
#X connect 34 0 33 1;
#X connect 35 0 41 0;
#X connect 36 0 32 0;
#X connect 37 0 38 0;
#X connect 38 0 47 0;
#X connect 39 0 5 1;
#X connect 40 0 35 0;
#X connect 41 0 34 1;
#X connect 42 0 37 0;
#X connect 43 0 42 1;
#X connect 46 0 34 1;
#X connect 47 0 40 0;
#X connect 48 0 52 0;
#X connect 50 0 51 0;
#X connect 51 0 48 0;
#X connect 52 0 49 0;
