#N canvas 525 25 738 676 16;
#X obj 10 53 gemhead;
#X floatatom 47 239 5 0 100 1 size - -;
#X obj 10 125 translateXYZ;
#X floatatom 127 95 5 -10 10 0 - - -;
#X floatatom 49 93 3 -3.5 3.5 0 - - -;
#X obj 10 434 text2d;
#X msg 190 152 text \$1;
#X obj 384 542 gemwin;
#X msg 384 439 create;
#X msg 395 468 destroy;
#X msg 312 478 1;
#X msg 426 499 0;
#X msg 190 88 ===========================;
#X obj 190 120 l2s;
#X obj 590 100 hsl 128 15 -2.001 2.001 0 0 empty empty empty -2 -8
0 10 -262144 -1 -1 7099 1;
#X msg 603 11 0.015;
#X msg 601 44 0.11;
#X msg 667 45 0.236;
#X msg 671 13 0.33;
#X obj 188 -7 loadbang;
#X obj 47 267 send size;
#X obj 67 405 r size;
#X msg 23 210 55;
#X text 408 4 na partitura;
#N canvas 570 69 618 538 gemmouse 0;
#X obj 219 -58 gemmouse 1 2;
#X floatatom 219 26 5 0 0 0 - - -;
#X floatatom 248 -5 5 0 0 0 - - -;
#X obj 281 24 sel 1;
#X msg 281 66 1;
#X msg 327 63 0;
#X obj 236 99 spigot;
#X obj 236 131 maxlib/scale 0 2 0 0.99;
#X floatatom 236 158 5 0 0 0 - - -;
#X obj 236 215 * -1;
#X floatatom 236 245 5 0 0 0 - - -;
#X obj 236 186 - 0.58;
#X obj 238 280 outlet;
#X connect 0 0 1 0;
#X connect 0 1 2 0;
#X connect 0 2 3 0;
#X connect 2 0 6 0;
#X connect 3 0 4 0;
#X connect 3 1 5 0;
#X connect 4 0 6 1;
#X connect 5 0 6 1;
#X connect 6 0 7 0;
#X connect 7 0 8 0;
#X connect 8 0 11 0;
#X connect 9 0 10 0;
#X connect 10 0 12 0;
#X connect 11 0 9 0;
#X restore 452 34 pd gemmouse;
#X text 518 263 [nota];
#X obj 513 181 nota g 2.5;
#X text 4 22 pauta:;
#X text 349 4 clica;
#X text 575 -20 escolhe nota;
#X obj 280 113 comment 0 16 helvetica ? 0 0 0 0 pauta \; );
#X text 518 480 em "notas" funciona;
#X text 521 500 com a \, g \, f \, e;
#X obj 519 298 nota g 2.5;
#X obj 519 390 nota a;
#X obj 60 181 bng 15 250 50 0 empty update empty 17 7 0 10 -262144
-1 -1;
#X text 78 199 comment;
#X text 202 438 1) crie a janela;
#X text 349 195 nota em "symbol";
#X text 314 27 e mexe a nota;
#X msg 63 522 font pgjazz.ttf;
#X obj 63 551 send fonte;
#X obj 64 493 loadbang;
#X text 359 172 2) digite uma;
#X text 325 219 3) mexa em posicao;
#X text 320 6 4);
#X obj 258 328 nota;
#X obj 100 451 bng 15 250 50 0 empty update empty 17 7 0 10 -262144
-1 -1;
#X obj 224 204 bng 40 250 50 0 update empty update 17 50 0 15 -257985
-1 -1;
#X connect 0 0 2 0;
#X connect 1 0 20 0;
#X connect 2 0 5 0;
#X connect 3 0 2 3;
#X connect 4 0 2 1;
#X connect 6 0 5 0;
#X connect 8 0 7 0;
#X connect 8 0 10 0;
#X connect 9 0 7 0;
#X connect 10 0 7 0;
#X connect 11 0 7 0;
#X connect 12 0 13 0;
#X connect 13 0 6 0;
#X connect 14 0 26 1;
#X connect 15 0 14 0;
#X connect 16 0 14 0;
#X connect 17 0 14 0;
#X connect 18 0 14 0;
#X connect 19 0 12 0;
#X connect 19 0 22 0;
#X connect 21 0 5 1;
#X connect 22 0 20 0;
#X connect 24 0 14 0;
#X connect 35 0 22 0;
#X connect 40 0 5 0;
#X connect 40 0 41 0;
#X connect 42 0 40 0;
#X connect 47 0 40 0;
