#N canvas 381 25 631 681 10;
#X obj 49 12 adc~;
#X obj 49 85 *~ 0.015;
#X obj 116 -26 vsl 15 128 0 0.6 0 0 empty empty empty 0 -9 0 10 -262144
-1 -1 200 1;
#X floatatom 213 153 5 0 0 0 - - -;
#X obj 48 114 sigmund~ -hop 4096 notes env;
#X obj 48 203 vsl 15 128 84 92 0 0 empty empty empty 0 -9 0 10 -262144
-1 -1 0 1;
#X obj 92 192 / 10;
#X obj 92 214 - 7;
#X obj 92 239 * 4.2;
#X obj 91 261 / 10;
#X obj 91 286 - 1;
#X floatatom 94 360 5 0 0 0 - - -;
#X obj 91 310 * 30;
#X obj 91 335 + 7;
#X floatatom 41 382 5 0 0 0 - - -;
#X obj 304 -33 cnv 15 200 200 empty empty empty 20 12 0 14 -233017
-66577 0;
#X obj 309 3 vsl 15 128 84 92 0 0 empty empty empty 0 -9 0 10 -262144
-1 -1 0 1;
#X obj 356 7 osc~;
#X obj 356 43 *~;
#X obj 428 3 vsl 15 128 0 1 0 0 empty empty empty 0 -9 0 10 -262144
-1 -1 0 1;
#X obj 357 93 dac~;
#X obj 309 142 mtof;
#X obj 340 142 + 1;
#X obj 187 212 gemhead;
#X obj 425 278 gemwin;
#X msg 425 231 create \, 1;
#X msg 435 252 0 \, destroy;
#X obj 187 422 translateXYZ;
#X msg 300 471 draw line;
#X obj 91 431 s assoviu;
#X obj 223 252 r assoviu;
#X obj 210 316 spigot;
#X obj 245 291 tgl 15 0 empty empty empty 17 7 0 10 -262144 -1 -1 0
1;
#X obj 267 339 spigot;
#X obj 300 315 tgl 15 0 empty empty empty 17 7 0 10 -262144 -1 -1 0
1;
#X msg 384 378 0;
#X obj 187 456 sphere 0.75;
#X obj 91 406 line;
#X msg 91 381 \$1 50;
#X text 313 -31 1) aprenda a assoviar;
#X text 135 -25 2) levante o volume do mic;
#X obj 300 450 loadbang;
#X text 282 283 4) controle o x/y;
#X text 418 200 3) ligue o gem;
#X text 380 358 reset;
#X obj 497 360 bonk~;
#X obj 494 406 bng 15 250 50 0 empty empty empty 17 7 0 10 -262144
-1 -1;
#X obj 482 448 alternate;
#X obj 482 478 bng 15 250 50 0 empty empty empty 17 7 0 10 -262144
-1 -1;
#X obj 534 479 bng 15 250 50 0 empty empty empty 17 7 0 10 -262144
-1 -1;
#X msg 301 500 draw fill;
#X connect 0 0 1 0;
#X connect 0 1 1 0;
#X connect 1 0 4 0;
#X connect 1 0 45 0;
#X connect 2 0 1 1;
#X connect 4 0 5 0;
#X connect 4 1 3 0;
#X connect 5 0 6 0;
#X connect 5 0 14 0;
#X connect 6 0 7 0;
#X connect 7 0 8 0;
#X connect 8 0 9 0;
#X connect 9 0 10 0;
#X connect 10 0 12 0;
#X connect 11 0 38 0;
#X connect 12 0 13 0;
#X connect 13 0 11 0;
#X connect 16 0 21 0;
#X connect 17 0 18 0;
#X connect 18 0 20 0;
#X connect 18 0 20 1;
#X connect 19 0 18 1;
#X connect 21 0 22 0;
#X connect 22 0 17 0;
#X connect 23 0 27 0;
#X connect 25 0 24 0;
#X connect 26 0 24 0;
#X connect 27 0 36 0;
#X connect 28 0 36 0;
#X connect 30 0 31 0;
#X connect 30 0 33 0;
#X connect 31 0 27 1;
#X connect 32 0 31 1;
#X connect 33 0 27 2;
#X connect 34 0 33 1;
#X connect 35 0 27 2;
#X connect 35 0 27 1;
#X connect 37 0 29 0;
#X connect 38 0 37 0;
#X connect 41 0 28 0;
#X connect 45 0 46 0;
#X connect 46 0 47 0;
#X connect 47 0 48 0;
#X connect 47 1 49 0;
#X connect 48 0 28 0;
#X connect 49 0 50 0;
#X connect 50 0 36 0;
