#N canvas 253 81 242 316 10;
#X obj 34 54 vsl 15 128 84 92 0 0 empty empty empty 0 -9 0 10 -262144
-1 -1 0 1;
#X obj 123 43 / 10;
#X obj 123 68 - 7;
#X obj 123 93 * 4.2;
#X obj 122 115 / 10;
#X obj 122 140 - 1;
#X floatatom 122 214 5 0 0 0 - - -;
#X obj 122 164 * 30;
#X obj 122 189 + 7;
#X floatatom 34 210 5 0 0 0 - - -;
#X connect 0 0 1 0;
#X connect 0 0 9 0;
#X connect 1 0 2 0;
#X connect 2 0 3 0;
#X connect 3 0 4 0;
#X connect 4 0 5 0;
#X connect 5 0 7 0;
#X connect 7 0 8 0;
#X connect 8 0 6 0;
