#N canvas 501 152 773 515 10;
#N canvas 0 0 450 300 (subpatch) 0;
#X array array1 2.29677e+06 float 2;
#X coords 0 1 2.29677e+06 -1 200 140 1;
#X restore 474 250 graph;
#X obj 53 106 soundfiler;
#X floatatom 53 128 10 0 0 0 - - -;
#X obj 53 59 openpanel;
#X msg 53 85 read -resize \$1 array1;
#X obj 53 36 bng 15 250 50 0 empty empty empty 17 7 0 10 -262144 -1
-1;
#X obj 299 297 f;
#X obj 261 240 bng 15 250 50 0 empty empty empty 17 7 0 10 -262144
-1 -1;
#X obj 299 319 / 44100;
#X floatatom 299 344 5 0 0 0 tempo_em_segs - -;
#X obj 609 51 tabplay~ array1;
#X obj 566 21 bng 15 250 50 0 empty empty empty 17 7 0 10 -262144 -1
-1;
#X obj 566 95 timer;
#X floatatom 566 135 15 0 0 0 - - -;
#X obj 608 77 *~ 0.2;
#X obj 609 114 dac~;
#X obj 478 395 hsl 195 15 0 1 0 0 empty empty empty -2 -8 0 10 -262144
-1 -1 19400 1;
#X obj 314 223 line~;
#X obj 314 253 snapshot~;
#X floatatom 314 274 15 0 0 0 - - -;
#X obj 314 199 pack f f;
#X obj 359 169 / 44.1;
#X obj 332 142 t f f;
#X obj 314 170 f;
#X obj 314 103 t b b;
#X msg 360 122 0;
#X obj 314 77 bng 15 250 50 0 empty empty empty 17 7 0 10 -262144 -1
-1;
#X obj 261 194 metro 1;
#X obj 261 169 tgl 15 0 empty empty empty 17 7 0 10 -262144 -1 -1 1
1;
#X obj 261 217 t b b;
#X obj 348 387 /;
#X floatatom 348 416 5 0 0 0 - - -;
#X connect 1 0 2 0;
#X connect 2 0 22 0;
#X connect 2 0 30 1;
#X connect 3 0 4 0;
#X connect 4 0 1 0;
#X connect 5 0 3 0;
#X connect 6 0 8 0;
#X connect 7 0 6 0;
#X connect 8 0 9 0;
#X connect 10 0 14 0;
#X connect 10 1 12 1;
#X connect 11 0 10 0;
#X connect 11 0 12 0;
#X connect 12 0 13 0;
#X connect 14 0 15 0;
#X connect 14 0 15 1;
#X connect 17 0 18 0;
#X connect 18 0 19 0;
#X connect 19 0 6 1;
#X connect 19 0 30 0;
#X connect 20 0 17 0;
#X connect 21 0 20 1;
#X connect 22 0 23 1;
#X connect 22 1 21 0;
#X connect 23 0 20 0;
#X connect 24 0 23 0;
#X connect 24 1 25 0;
#X connect 25 0 17 0;
#X connect 26 0 24 0;
#X connect 26 0 11 0;
#X connect 26 0 28 0;
#X connect 27 0 29 0;
#X connect 28 0 27 0;
#X connect 29 0 7 0;
#X connect 29 1 18 0;
#X connect 30 0 31 0;
#X connect 31 0 16 0;
