#N canvas 157 95 1073 669 10;
#X obj 64 157 sigmund~ -npeak 10 peaks;
#X obj 64 180 route 0 1 2 3 4 5 6 7 8 9;
#X obj -31 231 unpack 0 0 0 0;
#X obj 62 50 osc~ 440;
#X obj 62 93 *~;
#X obj 77 70 tgl 15 0 empty empty empty 17 7 0 10 -262144 -1 -1 1 1
;
#X obj 130 43 osc~ 440;
#X obj 130 86 *~;
#X obj 145 62 tgl 15 0 empty empty empty 17 7 0 10 -262144 -1 -1 1
1;
#X obj 63 129 +~;
#X floatatom 62 26 5 0 0 0 - - -;
#X obj -31 408 troca;
#X obj -2 362 trocaf;
#X obj 23 296 trocaf;
#X obj 40 261 trocaf;
#X obj 103 287 unpack 0 0 0 0;
#X obj 103 411 troca;
#X obj 130 378 trocaf;
#X obj 157 346 trocaf;
#X obj 174 311 trocaf;
#X obj 236 295 unpack 0 0 0 0;
#X obj 236 419 troca;
#X obj 263 386 trocaf;
#X obj 290 354 trocaf;
#X obj 307 319 trocaf;
#X obj 356 295 unpack 0 0 0 0;
#X obj 356 419 troca;
#X obj 383 386 trocaf;
#X obj 410 354 trocaf;
#X obj 427 319 trocaf;
#X obj 497 289 unpack 0 0 0 0;
#X obj 497 419 troca;
#X obj 524 386 trocaf;
#X obj 551 354 trocaf;
#X obj 568 319 trocaf;
#X obj 634 290 unpack 0 0 0 0;
#X obj 634 414 troca;
#X obj 661 381 trocaf;
#X obj 688 349 trocaf;
#X obj 705 314 trocaf;
#X obj 775 294 unpack 0 0 0 0;
#X obj 775 418 troca;
#X obj 802 385 trocaf;
#X obj 829 353 trocaf;
#X obj 846 318 trocaf;
#X obj 895 294 unpack 0 0 0 0;
#X obj 895 418 troca;
#X obj 921 381 trocaf;
#X obj 949 353 trocaf;
#X obj 966 318 trocaf;
#X obj 191 50 osc~ 440;
#X obj 191 93 *~;
#X obj 206 70 tgl 15 0 empty empty empty 17 7 0 10 -262144 -1 -1 1
1;
#X obj 259 43 osc~ 440;
#X obj 259 86 *~;
#X obj 274 62 tgl 15 0 empty empty empty 17 7 0 10 -262144 -1 -1 1
1;
#X floatatom 191 26 5 0 0 0 - - -;
#X obj 68 494 vsl 50 128 0 127 0 0 empty empty empty 0 -9 0 10 -262144
-1 -1 12700 1;
#X obj 118 494 vsl 50 128 0 127 0 0 empty empty empty 0 -9 0 10 -262144
-1 -1 12700 1;
#X obj 169 494 vsl 50 128 0 127 0 0 empty empty empty 0 -9 0 10 -262144
-1 -1 0 1;
#X obj 220 494 vsl 50 128 0 127 0 0 empty empty empty 0 -9 0 10 -262144
-1 -1 0 1;
#X obj 630 518 * 1;
#X floatatom 626 562 10 0 0 0 - - -;
#X obj 762 533 * 1;
#X floatatom 749 570 10 0 0 0 - - -;
#X floatatom 725 496 5 0 0 0 - - -;
#X obj 271 494 vsl 50 128 0 127 0 0 empty empty empty 0 -9 0 10 -262144
-1 -1 0 1;
#X obj 321 494 vsl 50 128 0 127 0 0 empty empty empty 0 -9 0 10 -262144
-1 -1 0 1;
#X obj 372 494 vsl 50 128 0 127 0 0 empty empty empty 0 -9 0 10 -262144
-1 -1 0 1;
#X obj 423 494 vsl 50 128 0 127 0 0 empty empty empty 0 -9 0 10 -262144
-1 -1 0 1;
#X obj 69 472 * 127;
#X obj 118 465 * 127;
#X obj 170 467 * 127;
#X floatatom 5 527 5 0 0 0 - - -;
#X connect 0 0 1 0;
#X connect 1 0 2 0;
#X connect 1 1 15 0;
#X connect 1 2 20 0;
#X connect 1 3 25 0;
#X connect 1 4 30 0;
#X connect 1 5 35 0;
#X connect 1 6 40 0;
#X connect 1 7 45 0;
#X connect 2 0 11 0;
#X connect 2 1 12 0;
#X connect 2 2 13 0;
#X connect 2 3 14 0;
#X connect 3 0 4 0;
#X connect 4 0 9 0;
#X connect 5 0 4 1;
#X connect 6 0 7 0;
#X connect 7 0 9 1;
#X connect 8 0 7 1;
#X connect 9 0 0 0;
#X connect 10 0 3 0;
#X connect 12 0 70 0;
#X connect 15 0 16 0;
#X connect 15 1 17 0;
#X connect 15 2 18 0;
#X connect 15 3 19 0;
#X connect 17 0 61 0;
#X connect 17 0 71 0;
#X connect 20 0 21 0;
#X connect 20 1 22 0;
#X connect 20 2 23 0;
#X connect 20 3 24 0;
#X connect 22 0 72 0;
#X connect 25 0 26 0;
#X connect 25 1 27 0;
#X connect 25 2 28 0;
#X connect 25 3 29 0;
#X connect 30 0 31 0;
#X connect 30 1 32 0;
#X connect 30 2 33 0;
#X connect 30 3 34 0;
#X connect 35 0 36 0;
#X connect 35 1 37 0;
#X connect 35 2 38 0;
#X connect 35 3 39 0;
#X connect 40 0 41 0;
#X connect 40 1 42 0;
#X connect 40 2 43 0;
#X connect 40 3 44 0;
#X connect 45 0 46 0;
#X connect 45 1 47 0;
#X connect 45 2 48 0;
#X connect 45 3 49 0;
#X connect 50 0 51 0;
#X connect 51 0 9 0;
#X connect 52 0 51 1;
#X connect 53 0 54 0;
#X connect 54 0 9 1;
#X connect 55 0 54 1;
#X connect 56 0 50 0;
#X connect 61 0 62 0;
#X connect 63 0 64 0;
#X connect 65 0 63 0;
#X connect 70 0 57 0;
#X connect 71 0 58 0;
#X connect 72 0 59 0;
#X connect 72 0 73 0;
