#N canvas 139 95 1073 669 10;
#X obj 64 157 sigmund~ -npeak 10 peaks;
#X obj 64 104 phasor~;
#X obj 64 34 loadbang;
#X floatatom 64 80 5 0 120 0 - - -;
#X obj 64 185 route 0 1 2 3 4 5 6 7 8 9;
#X obj 22 229 unpack 0 0 0 0;
#X floatatom 22 351 5 0 0 0 - - -;
#X floatatom 62 321 5 0 0 0 - - -;
#X floatatom 102 296 5 0 0 0 - - -;
#X obj 64 57 440;
#X floatatom 143 270 5 0 0 0 - - -;
#X obj 262 239 unpack 0 0 0 0;
#X floatatom 262 361 5 0 0 0 - - -;
#X floatatom 302 331 5 0 0 0 - - -;
#X floatatom 342 306 5 0 0 0 - - -;
#X floatatom 383 280 5 0 0 0 - - -;
#X text 325 365 frequency (Hz.);
#X text 359 332 peak amplitude (linear);
#X text 404 306 cosine component;
#X text 439 280 sine component;
#X text 19 395 loudest partial;
#X text 272 398 quietest partial;
#X obj 144 501 osc~ 440;
#X obj 144 525 *~;
#X obj 145 579 unpack 0 0 0 0;
#X floatatom 145 672 5 0 0 0 - - -;
#X floatatom 185 650 5 0 0 0 - - -;
#X floatatom 225 627 5 0 0 0 - - -;
#X floatatom 266 603 5 0 0 0 - - -;
#X obj 186 528 tgl 15 0 empty empty empty 17 7 0 10 -262144 -1 -1 0
1;
#X text -17 425 If you ask for "tracks" \, the output is four numbers:
index \, frequency \, and amplitude as before \, and finally a flag
which is one for a new track \, zero for a continuation \, minus one
for an empty track.;
#X obj 145 552 sigmund~ -npts 16384 -hop 8192 -npeak 1 tracks;
#X floatatom 434 117 10 0 0 0 - - -;
#X obj 434 141 average;
#X obj 434 93 speedlim 300;
#X obj 434 165 int;
#X floatatom 437 195 5 0 0 0 - - -;
#X connect 0 0 4 0;
#X connect 1 0 0 0;
#X connect 2 0 9 0;
#X connect 3 0 1 0;
#X connect 4 0 5 0;
#X connect 4 9 11 0;
#X connect 5 0 6 0;
#X connect 5 1 7 0;
#X connect 5 2 8 0;
#X connect 5 3 10 0;
#X connect 9 0 3 0;
#X connect 11 0 12 0;
#X connect 11 0 34 0;
#X connect 11 1 13 0;
#X connect 11 2 14 0;
#X connect 11 3 15 0;
#X connect 22 0 23 0;
#X connect 23 0 31 0;
#X connect 24 0 25 0;
#X connect 24 1 26 0;
#X connect 24 2 27 0;
#X connect 24 3 28 0;
#X connect 29 0 23 1;
#X connect 31 0 24 0;
#X connect 32 0 33 0;
#X connect 33 0 35 0;
#X connect 34 0 32 0;
#X connect 35 0 36 0;
