#N canvas 619 125 754 486 10;
#X obj 163 120 entry 313 111 grey70 black;
#X obj 167 252 prepend set;
#X msg 168 282 olá\, aqui estamos assim! @ 
;
#X obj 166 82 bng 15 250 50 0 empty empty empty 17 7 0 10 -262144 -1
-1;
#X connect 0 0 1 0;
#X connect 1 0 2 0;
#X connect 3 0 0 0;
