#N canvas 197 25 1012 681 16;
#X obj 22 345 shell;
#X msg -67 517 set;
#X obj 59 522 prepend add2;
#X msg -23 179 mid2hum \$1 > m2h.krn;
#X obj -23 150 openpanel;
#X obj -23 130 bng 15 250 50 0 empty empty empty 17 7 0 10 -262144
-1 -1;
#X obj -23 207 prepend set;
#X msg 355 187 set;
#X msg 359 545 census -k /home/livre/pesquisa/SINCOPA/rascunhos/m2h.krn
> /home/livre/pesquisa/SINCOPA/rascunhos/m2h.txt;
#X msg -23 243 mid2hum /home/livre/pesquisa/SINCOPA/rascunhos/vivaldi.mid
> m2h.krn;
#N canvas 107 165 725 624 parser 0;
#X obj 112 116 msgfile;
#X msg 130 81 bang;
#X obj 113 148 prepend set;
#X msg 112 49 read m2h.txt;
#X obj -35 350 list-find;
#X msg -35 310 notes:;
#X msg 105 315 voices:;
#X obj -35 482 list-seek;
#X obj 31 415 bng 15 250 50 0 empty empty empty 17 7 0 10 -262144 -1
-1;
#X obj -35 381 + 1;
#X floatatom -35 412 5 0 0 0 - - -;
#X msg -35 452 set \$1;
#X floatatom -35 512 5 0 0 0 - - -;
#X obj 104 351 list-find;
#X obj 104 476 list-seek;
#X obj 166 400 bng 15 250 50 0 empty empty empty 17 7 0 10 -262144
-1 -1;
#X obj 104 382 + 1;
#X floatatom 104 413 5 0 0 0 - - -;
#X msg 104 446 set \$1;
#X floatatom 104 506 5 0 0 0 - - -;
#X obj 104 547 send voices;
#X obj -35 548 send notes;
#X obj 5 67 closebang;
#X msg 5 98 set;
#X obj 307 150 bng 15 250 50 0 empty empty empty 17 7 0 10 -262144
-1 -1;
#X text 328 145 le exemplo;
#X obj 310 178 bng 15 250 50 0 empty empty empty 17 7 0 10 -262144
-1 -1;
#X text 335 172 notas;
#X obj 310 204 bng 15 250 50 0 empty empty empty 17 7 0 10 -262144
-1 -1;
#X text 335 199 vozes;
#X obj 65 11 t b b;
#X msg 113 178 HUMDRUM DATA Number of data tokens: 1193 Number of null
tokens: 0 Number of multiple-stops: 85 Number of data records: 1199
Number of comments: 40 Number of interpretations: 10 Number of records:
1249 KERN DATA Number of note-heads: 320 Number of notes: 301 Longest
note: 8 Shortest note: 96 Highest note: f# Lowest note: FF# Number
of rests: 761 Maximum number of voices: 3 Number of single barlines:
188 Number of double barlines: 0;
#X msg 362 312 voices:;
#X obj 361 348 list-find;
#X obj 361 473 list-seek;
#X obj 423 397 bng 15 250 50 0 empty empty empty 17 7 0 10 -262144
-1 -1;
#X obj 361 379 + 1;
#X floatatom 361 410 5 0 0 0 - - -;
#X msg 361 443 set \$1;
#X floatatom 361 503 5 0 0 0 - - -;
#X symbolatom 308 238 10 0 0 0 - - -;
#X msg 274 310 \$1;
#X obj 361 544 send param;
#X connect 0 0 2 0;
#X connect 0 0 4 1;
#X connect 0 0 7 1;
#X connect 0 0 14 1;
#X connect 0 0 13 1;
#X connect 1 0 0 0;
#X connect 2 0 31 0;
#X connect 3 0 0 0;
#X connect 4 0 9 0;
#X connect 5 0 4 0;
#X connect 5 0 8 0;
#X connect 6 0 13 0;
#X connect 6 0 15 0;
#X connect 7 0 12 0;
#X connect 8 0 7 0;
#X connect 9 0 10 0;
#X connect 10 0 11 0;
#X connect 11 0 7 0;
#X connect 12 0 21 0;
#X connect 13 0 16 0;
#X connect 14 0 19 0;
#X connect 15 0 14 0;
#X connect 16 0 17 0;
#X connect 17 0 18 0;
#X connect 18 0 14 0;
#X connect 19 0 20 0;
#X connect 22 0 23 0;
#X connect 23 0 31 0;
#X connect 24 0 30 0;
#X connect 26 0 5 0;
#X connect 28 0 6 0;
#X connect 30 0 1 0;
#X connect 30 1 3 0;
#X connect 32 0 33 0;
#X connect 32 0 35 0;
#X connect 33 0 36 0;
#X connect 34 0 39 0;
#X connect 35 0 34 0;
#X connect 36 0 37 0;
#X connect 37 0 38 0;
#X connect 38 0 34 0;
#X connect 39 0 42 0;
#X connect 40 0 41 0;
#X connect 41 0 33 0;
#X coords 0 -1 1 1 170 180 2 270 100;
#X restore 709 36 pd parser;
#N canvas 488 25 717 569 vizualiza 0;
#X obj 158 18 gemhead;
#X obj 158 265 cube;
#X obj -42 293 gemwin;
#X msg -34 199 create;
#X msg -29 226 destroy;
#X msg -30 256 1;
#X msg 15 256 0;
#X floatatom 213 236 5 0 0 0 - - -;
#X obj 199 209 hsl 128 15 0 2 0 0 empty empty empty -2 -8 0 10 -262144
-1 -1 956 1;
#X obj 158 108 translate;
#X msg 255 63 0.1 0 0;
#X msg 209 146 draw line;
#X obj 62 323 receive notes;
#X floatatom 62 356 5 0 0 0 - - -;
#X obj 62 385 / 2000;
#X text 140 371 valor estipulado;
#X text 141 390 como "alto" pra numero de notas;
#X floatatom 62 426 5 0 0 0 - - -;
#X obj 255 22 loadbang;
#X msg 191 67 -17;
#X obj 383 23 gemhead;
#X obj 383 270 cube;
#X floatatom 438 241 5 0 0 0 - - -;
#X obj 424 214 hsl 128 15 0 2 0 0 empty empty empty -2 -8 0 10 -262144
-1 -1 4762 1;
#X obj 383 113 translate;
#X msg 480 68 0.1 0 0;
#X msg 434 151 draw line;
#X floatatom 492 436 5 0 0 0 - - -;
#X obj 480 27 loadbang;
#X msg 416 72 17;
#X obj 492 333 receive voices;
#X obj 493 385 / 4;
#N canvas 442 70 627 384 vizualiza 0;
#X obj 20 271 text2d;
#X obj 20 42 gemhead;
#X obj 20 149 translateXYZ;
#X floatatom 59 70 5 0 0 0 - - -;
#X floatatom 98 95 5 0 0 0 - - -;
#X floatatom 137 120 5 0 0 0 - - -;
#X obj 284 8 loadbang;
#X msg 174 39 -1.5;
#X msg 199 73 -2;
#X msg 216 108 1;
#X obj 329 337 text2d;
#X obj 329 82 gemhead;
#X obj 329 189 translateXYZ;
#X floatatom 368 110 5 0 0 0 - - -;
#X floatatom 407 135 5 0 0 0 - - -;
#X floatatom 446 160 5 0 0 0 - - -;
#X msg 508 113 -2;
#X msg 525 148 1;
#X msg 483 79 1.5;
#X msg 54 221 text numero de notas \$1;
#X msg 372 270 text numero de vozes \$1;
#X obj 150 170 receive notes;
#X obj 372 232 receive voices;
#X connect 1 0 2 0;
#X connect 2 0 0 0;
#X connect 3 0 2 1;
#X connect 4 0 2 2;
#X connect 5 0 2 3;
#X connect 6 0 7 0;
#X connect 6 0 8 0;
#X connect 6 0 9 0;
#X connect 6 0 19 0;
#X connect 6 0 18 0;
#X connect 6 0 16 0;
#X connect 6 0 17 0;
#X connect 6 0 20 0;
#X connect 7 0 3 0;
#X connect 8 0 4 0;
#X connect 9 0 5 0;
#X connect 11 0 12 0;
#X connect 12 0 10 0;
#X connect 13 0 12 1;
#X connect 14 0 12 2;
#X connect 15 0 12 3;
#X connect 16 0 14 0;
#X connect 17 0 15 0;
#X connect 18 0 13 0;
#X connect 19 0 0 0;
#X connect 20 0 10 0;
#X connect 21 0 19 0;
#X connect 22 0 20 0;
#X restore 152 468 pd vizualiza texto;
#X obj 56 107 bng 15 250 50 0 empty empty empty 17 7 0 10 -262144 -1
-1;
#X text 75 100 cria;
#X obj 55 128 bng 15 250 50 0 empty empty empty 17 7 0 10 -262144 -1
-1;
#X text 72 122 destroi;
#X obj 55 151 bng 15 250 50 0 empty empty empty 17 7 0 10 -262144 -1
-1;
#X obj 55 173 bng 15 250 50 0 empty empty empty 17 7 0 10 -262144 -1
-1;
#X text 73 148 liga;
#X text 72 167 desliga;
#X floatatom 580 106 5 0 0 0 - - -;
#X connect 0 0 9 0;
#X connect 3 0 2 0;
#X connect 4 0 2 0;
#X connect 5 0 2 0;
#X connect 6 0 2 0;
#X connect 7 0 1 1;
#X connect 8 0 1 1;
#X connect 9 0 1 0;
#X connect 10 0 9 2;
#X connect 11 0 1 0;
#X connect 12 0 13 0;
#X connect 13 0 14 0;
#X connect 14 0 17 0;
#X connect 17 0 8 0;
#X connect 18 0 10 0;
#X connect 18 0 19 0;
#X connect 18 0 11 0;
#X connect 19 0 9 1;
#X connect 20 0 24 0;
#X connect 22 0 21 1;
#X connect 23 0 21 1;
#X connect 24 0 21 0;
#X connect 25 0 24 2;
#X connect 26 0 21 0;
#X connect 27 0 23 0;
#X connect 28 0 25 0;
#X connect 28 0 29 0;
#X connect 28 0 26 0;
#X connect 29 0 24 1;
#X connect 30 0 31 0;
#X connect 31 0 27 0;
#X connect 33 0 3 0;
#X connect 35 0 4 0;
#X connect 37 0 5 0;
#X connect 38 0 6 0;
#X connect 41 0 24 1;
#X coords 0 -1 1 1 100 100 2 50 100;
#X restore 550 74 pd vizualiza Gem;
#X obj -37 13 comment 0 24 Typewriter ? 0 0 0 0 Trabalho Humdrum ->
Pd;
#X obj -33 50 comment 0 12 Typewriter ? 0 0 0 0 Cristiano Figueiro
(figocris@gmail.com);
#X obj -67 486 closebang;
#X text 761 216 parser;
#X text 556 183 Gem;
#X text 12 124 ----> abrir um midi;
#X text 195 176 ---> mid2hum;
#X text 656 322 ----> comandos humdrum;
#X obj 355 160 loadbang;
#X msg 315 596 mid2hum /usr/lib/pd-extended/extra/mrpeach/I_Wanna_Be_Sedated.mid
> m2h.krn;
#X obj 150 613 print;
#X msg 425 510 ls;
#X msg 59 552;
#X obj 180 558 bng 15 250 50 0 empty empty empty 17 7 0 10 -262144
-1 -1;
#X msg 22 303 census -k m2h.krn > m2h.txt;
#X connect 0 0 2 0;
#X connect 0 0 22 0;
#X connect 0 1 25 0;
#X connect 1 0 24 0;
#X connect 2 0 24 0;
#X connect 3 0 6 0;
#X connect 4 0 3 0;
#X connect 5 0 4 0;
#X connect 6 0 9 0;
#X connect 7 0 9 0;
#X connect 8 0 0 0;
#X connect 9 0 0 0;
#X connect 14 0 1 0;
#X connect 20 0 7 0;
#X connect 21 0 0 0;
#X connect 23 0 0 0;
#X connect 26 0 0 0;
