#N canvas 247 37 720 574 10;
#X obj 74 141 speedlim 300;
#X text 168 134 arg is minimum delay between outputs;
#X text 168 146 in milliseconds;
#X floatatom 74 182 5 0 0 0 - - -;
#X floatatom 74 86 5 0 0 0 - - -;
#X floatatom 153 109 5 0 0 0 - - -;
#X text 195 108 change delay time;
#X text 116 84 move fast!!!;
#X floatatom 68 324 0 0 0 0 - - -;
#X floatatom 68 235 0 0 0 0 - - -;
#X floatatom 106 251 0 0 0 0 - - -;
#X msg 106 273 set \$1;
#X text 151 273 set the value;
#X text 139 250 if different from current value \, output and set;
#X obj 68 345 print;
#X obj 68 302 change;
#X msg 106 211 1;
#X msg 143 212 2;
#X obj 247 340 knob 40 40 0 127 0 0 empty empty empty 0 -8 0 8 -260149
-1 -1 0 1;
#X floatatom 247 394 5 0 0 0 - - -;
#X floatatom 247 313 5 0 0 0 - - -;
#X obj 122 399 hid;
#X msg 307 378 close;
#X msg 307 357 refresh;
#X msg 307 399 print;
#X msg 312 420 info;
#X obj 390 479 pddp/print;
#X msg 407 118 close;
#X msg 407 97 refresh;
#X msg 407 139 print;
#X msg 412 160 info;
#X obj 490 219 pddp/print;
#X obj 407 305 tgl 15 0 empty empty empty 17 7 0 10 -262144 -1 -1 1
1;
#X obj 494 60 tgl 15 0 empty empty empty 17 7 0 10 -262144 -1 -1 0
1;
#X obj 390 440 hid;
#X obj 490 180 hid;
#X obj 405 383 hradio 15 1 0 11 empty empty empty 0 -8 0 10 -262144
-1 -1 8;
#X msg 410 410 open \$1;
#X connect 0 0 3 0;
#X connect 4 0 0 0;
#X connect 5 0 0 1;
#X connect 8 0 14 0;
#X connect 9 0 15 0;
#X connect 10 0 11 0;
#X connect 11 0 15 0;
#X connect 15 0 8 0;
#X connect 16 0 15 0;
#X connect 17 0 15 0;
#X connect 18 0 19 0;
#X connect 20 0 18 0;
#X connect 22 0 34 0;
#X connect 23 0 34 0;
#X connect 24 0 34 0;
#X connect 25 0 34 0;
#X connect 27 0 35 0;
#X connect 28 0 35 0;
#X connect 29 0 35 0;
#X connect 30 0 35 0;
#X connect 32 0 34 0;
#X connect 33 0 35 0;
#X connect 34 0 26 0;
#X connect 35 0 31 0;
#X connect 36 0 37 0;
#X connect 37 0 34 0;
