#N canvas 707 44 491 435 10;
#N canvas 2 24 1255 689 ball 1;
#X msg 253 20 1;
#X msg 307 21 0;
#X obj 154 212 color;
#X obj 253 117 line;
#X obj 154 246 translate 1 0 0 0;
#N canvas 0 0 450 300 (subpatch) 0;
#X array array1 6 float 3;
#A 0 3.75 -1.46 0 -3.6 -3.49 0;
#X coords 0 4 6 -4 200 140 1;
#X restore 641 -20 graph;
#X obj 253 204 linear_path 3 array1;
#X msg 454 102 \; array1 resize 6;
#X floatatom 475 144 5 0 0 0 - - -;
#X obj 475 243 bng 15 250 50 0 empty empty empty 0 -6 0 10 -262144
-1 -1;
#X obj 49 336 tabread array1;
#X floatatom 49 366 5 0 0 0 - - -;
#X obj 190 348 tabread array1;
#X floatatom 190 374 5 0 0 0 - - -;
#X msg 190 322 4;
#X obj 327 358 tabread array1;
#X floatatom 327 382 5 0 0 0 - - -;
#X msg 49 310 3;
#X msg 327 329 5;
#X obj 49 405 tabwrite array1;
#X msg 136 361 0;
#X obj 190 407 tabwrite array1;
#X msg 277 379 1;
#X obj 327 410 tabwrite array1;
#X msg 414 384 2;
#X obj 715 537 tabwrite array1;
#X obj 572 518 tabwrite array1;
#X obj 872 397 tabwrite array1;
#X msg 959 372 5;
#X msg 872 369 0;
#X floatatom 715 429 5 0 0 0 - - -;
#X obj 716 394 / 100;
#X obj 716 350 random 375;
#X text 28 308 x1;
#X text 538 350 x2;
#X text 172 318 y1;
#X text 310 333 z1;
#X text 675 342 y2;
#X text 848 398 z2;
#X msg 623 485 3.75;
#X obj 572 456 bng 15 250 50 0 empty empty empty 0 -6 0 10 -262144
-1 -1;
#X obj 623 451 bng 15 250 50 0 empty empty empty 0 -6 0 10 -262144
-1 -1;
#X obj 766 373 random 2;
#X floatatom 766 400 5 0 0 0 - - -;
#X obj 766 428 select 0 1;
#X floatatom 715 516 5 0 0 0 - - -;
#X obj 715 488 *;
#X msg 730 461 1;
#X msg 767 460 -1;
#X obj 253 -72 inlet;
#X text 242 -90 start ball;
#X obj 154 276 circle 0.3;
#X obj 307 -69 inlet;
#X text 313 -89 stop;
#X msg 376 34 \; array1 0 0 0 0 3.75 3.75 0;
#X obj 1150 51 inlet;
#X text 1146 36 platform x pos;
#X floatatom 1150 96 5 0 0 0 - - -;
#X obj 1150 121 + 3.75;
#X floatatom 1150 149 5 0 0 0 - - -;
#X obj 1049 67 tabread array1;
#X floatatom 1049 92 5 0 0 0 - - -;
#X obj 1049 115 + 3.75;
#X floatatom 1049 141 5 0 0 0 - - -;
#X obj 1110 185 -;
#X floatatom 1165 218 5 0 0 0 - - -;
#X obj 749 243 tgl 15 0 empty empty empty 0 -6 0 10 -262144 -1 -1 1
1;
#X msg 749 205 1;
#X msg 786 205 0;
#X obj 1110 227 spigot;
#X floatatom 1110 252 5 0 0 0 - - -;
#X floatatom 1187 345 5 0 0 0 - - -;
#X obj 1028 410 select 1;
#X obj 1110 276 abs;
#X obj 1111 353 select 0;
#X obj 1111 306 < 0.8;
#X msg 572 483 -3.6;
#X obj 1111 504 float;
#X msg 1138 444 0;
#X obj 1161 500 + 1;
#X floatatom 1111 531 5 0 0 0 - - -;
#X obj 1028 438 bng 15 250 50 0 empty empty empty 0 -6 0 10 -262144
-1 -1;
#X text 1059 504 Points;
#X obj 1111 558 outlet;
#X text 1164 558 Points;
#X obj 154 157 gemhead 50;
#X obj 634 210 s muda_player;
#X obj 285 229 unpack f f f;
#X floatatom 285 259 5 0 0 0 - - -;
#X floatatom 319 259 5 0 0 0 - - -;
#X floatatom 354 257 5 0 0 0 - - -;
#X obj 298 172 hsl 128 15 0 1 0 0 empty empty empty -2 -8 0 10 -262144
-1 -1 0 1;
#X msg 659 425 3;
#X msg 802 502 4;
#X text 52 443 ------------------------------------------------------------
;
#X text 571 556 ------------------------------------------------------------
;
#X text 641 567 para onde ela vai;
#X text 134 434 de onde ela sai;
#X obj 572 402 alternate;
#X obj 253 62 metro 4000;
#X msg 253 88 0 \, 1 4000;
#X obj 475 222 t b b;
#X msg 1049 43 4;
#X obj 475 188 select 0.99;
#X connect 0 0 99 0;
#X connect 1 0 99 0;
#X connect 2 0 4 0;
#X connect 3 0 6 0;
#X connect 3 0 8 0;
#X connect 4 0 51 0;
#X connect 6 0 4 2;
#X connect 6 0 87 0;
#X connect 8 0 103 0;
#X connect 9 0 17 0;
#X connect 9 0 14 0;
#X connect 9 0 18 0;
#X connect 9 0 20 0;
#X connect 9 0 22 0;
#X connect 9 0 24 0;
#X connect 9 0 93 0;
#X connect 9 0 92 0;
#X connect 9 0 29 0;
#X connect 9 0 28 0;
#X connect 9 0 32 0;
#X connect 9 0 42 0;
#X connect 9 0 98 0;
#X connect 10 0 11 0;
#X connect 11 0 19 0;
#X connect 12 0 13 0;
#X connect 13 0 21 0;
#X connect 14 0 12 0;
#X connect 15 0 16 0;
#X connect 16 0 23 0;
#X connect 17 0 10 0;
#X connect 18 0 15 0;
#X connect 20 0 19 1;
#X connect 22 0 21 1;
#X connect 24 0 23 1;
#X connect 28 0 27 1;
#X connect 29 0 27 0;
#X connect 30 0 46 0;
#X connect 31 0 30 0;
#X connect 32 0 31 0;
#X connect 39 0 26 0;
#X connect 40 0 76 0;
#X connect 40 0 67 0;
#X connect 41 0 39 0;
#X connect 41 0 68 0;
#X connect 42 0 43 0;
#X connect 43 0 44 0;
#X connect 44 0 47 0;
#X connect 44 1 48 0;
#X connect 45 0 25 0;
#X connect 46 0 45 0;
#X connect 47 0 46 1;
#X connect 48 0 46 1;
#X connect 49 0 0 0;
#X connect 49 0 54 0;
#X connect 52 0 1 0;
#X connect 55 0 57 0;
#X connect 57 0 58 0;
#X connect 58 0 59 0;
#X connect 59 0 64 1;
#X connect 60 0 61 0;
#X connect 61 0 62 0;
#X connect 62 0 63 0;
#X connect 63 0 64 0;
#X connect 64 0 65 0;
#X connect 64 0 69 0;
#X connect 66 0 69 1;
#X connect 67 0 66 0;
#X connect 68 0 66 0;
#X connect 69 0 70 0;
#X connect 70 0 73 0;
#X connect 72 0 81 0;
#X connect 73 0 75 0;
#X connect 74 0 9 0;
#X connect 74 0 78 0;
#X connect 74 0 77 0;
#X connect 75 0 71 0;
#X connect 75 0 72 0;
#X connect 75 0 74 0;
#X connect 76 0 26 0;
#X connect 77 0 79 0;
#X connect 77 0 80 0;
#X connect 78 0 77 1;
#X connect 79 0 77 1;
#X connect 80 0 83 0;
#X connect 81 0 77 0;
#X connect 85 0 2 0;
#X connect 87 0 88 0;
#X connect 87 1 89 0;
#X connect 87 2 90 0;
#X connect 91 0 6 0;
#X connect 92 0 26 1;
#X connect 93 0 25 1;
#X connect 98 0 40 0;
#X connect 98 1 41 0;
#X connect 99 0 100 0;
#X connect 100 0 3 0;
#X connect 101 0 9 0;
#X connect 101 1 102 0;
#X connect 102 0 60 0;
#X connect 103 0 86 0;
#X connect 103 0 101 0;
#X restore 161 236 pd ball;
#N canvas 502 94 839 500 points 0;
#X floatatom 281 191 0 0 0 0 - - -;
#X msg 137 119 1;
#X msg 176 130 0;
#X floatatom 335 412 0 0 0 0 - - -;
#X floatatom 185 256 4 0 0 0 - - -;
#X floatatom 238 191 0 0 0 0 - - -;
#X floatatom 194 191 0 0 0 0 - - -;
#X obj 168 337 rotate;
#X msg 238 271 0 1 0;
#X msg 242 295 1 0 0;
#X msg -36 400 justify right top;
#X obj 168 232 translateXYZ;
#X msg -37 373 justify center center;
#X text 360 447 size;
#X obj 350 210 s font1;
#X msg 350 115 symbol VeraMono.ttf;
#X obj 350 142 makefilename /usr/share/fonts/truetype/ttf-bitstream-vera/%s
;
#X msg 350 165 font \$1;
#X obj 260 365 r font1;
#X obj -19 19 inlet;
#X text -20 1 start;
#X obj 35 18 inlet;
#X text 34 0 stop;
#X obj 89 19 inlet;
#X text 86 1 pints;
#X obj 167 447 text3d \$1 points;
#X obj 168 158 gemhead 50;
#X msg 329 387 5;
#X obj 378 344 loadbang;
#X obj 349 87 loadbang;
#X connect 0 0 11 3;
#X connect 1 0 26 0;
#X connect 2 0 26 0;
#X connect 3 0 25 1;
#X connect 4 0 7 1;
#X connect 5 0 11 2;
#X connect 6 0 11 1;
#X connect 7 0 25 0;
#X connect 8 0 7 2;
#X connect 9 0 7 2;
#X connect 10 0 25 0;
#X connect 11 0 7 0;
#X connect 12 0 25 0;
#X connect 15 0 16 0;
#X connect 16 0 17 0;
#X connect 17 0 14 0;
#X connect 18 0 25 0;
#X connect 19 0 1 0;
#X connect 21 0 2 0;
#X connect 23 0 25 0;
#X connect 26 0 11 0;
#X connect 27 0 3 0;
#X connect 28 0 27 0;
#X connect 29 0 15 0;
#X restore 112 269 pd points;
#N canvas 761 196 450 300 violao_in 0;
#X obj 134 37 adc~;
#X obj 134 87 *~;
#X obj 179 58 hsl 100 40 0 127 0 0 empty empty empty -2 -8 0 10 -261682
-1 -1 0 1;
#X obj 132 132 fiddle~ 1024;
#X floatatom 134 162 5 0 0 0 - - -;
#X obj 136 195 scale.linear 64 75 -3.4 3.4;
#X obj 137 225 outlet;
#X connect 0 0 1 0;
#X connect 0 1 1 0;
#X connect 1 0 3 0;
#X connect 2 0 1 1;
#X connect 3 0 4 0;
#X connect 4 0 5 0;
#X connect 5 0 6 0;
#X restore 215 78 pd violao_in;
#X obj 63 68 gemwin;
#X msg 63 17 create \, 1;
#X msg 127 38 0 \, destroy;
#N canvas 669 24 609 689 platforma 0;
#X obj 227 252 color;
#X msg 329 197 1 1 1;
#X msg 329 162 1 0 0;
#X text 315 125 change the color;
#X text 328 232 rotate the square;
#X msg 330 308 draw line;
#X msg 330 328 draw fill;
#X msg 333 381 width 1;
#X msg 334 401 width 10;
#X obj 175 353 translateXYZ;
#X obj 42 29 inlet;
#X text 38 9 init;
#X obj 227 192 gemhead 50;
#X floatatom 235 26 5 0 0 0 - - -;
#X msg 199 77 3.8;
#X text 243 71 plataforma da direita;
#X text 277 22 y : -3.6 ate 3.6;
#X obj 464 74 vsl 15 128 -3.4 3.4 0 0 empty empty empty 0 -9 0 10 -262144
-1 -1 0 1;
#X obj 196 467 rectangle 0.1 0.5;
#X obj 197 11 inlet;
#X obj 132 62 loadbang;
#X connect 0 0 9 0;
#X connect 1 0 0 1;
#X connect 2 0 0 1;
#X connect 5 0 18 0;
#X connect 6 0 18 0;
#X connect 7 0 18 0;
#X connect 8 0 18 0;
#X connect 9 0 18 0;
#X connect 10 0 6 0;
#X connect 12 0 0 0;
#X connect 13 0 9 2;
#X connect 14 0 9 1;
#X connect 17 0 13 0;
#X connect 19 0 13 0;
#X connect 20 0 14 0;
#X restore 31 131 pd platforma da direita;
#N canvas 669 24 609 689 platforma 0;
#X obj 227 252 color;
#X msg 329 197 1 1 1;
#X msg 329 162 1 0 0;
#X text 315 125 change the color;
#X text 328 232 rotate the square;
#X msg 330 308 draw line;
#X msg 330 328 draw fill;
#X msg 333 381 width 1;
#X msg 334 401 width 10;
#X obj 175 353 translateXYZ;
#X obj 42 29 inlet;
#X text 38 9 init;
#X obj 172 19 inlet;
#X obj 227 192 gemhead 50;
#X floatatom 235 26 5 0 0 0 - - -;
#X text 243 71 plataforma da direita;
#X obj 464 74 vsl 15 128 -3.4 3.4 0 0 empty empty empty 0 -9 0 10 -262144
-1 -1 0 1;
#X obj 196 467 rectangle 0.1 0.5;
#X msg 168 99 -3.8;
#X text 277 22 y : -3.4 ate 3.4;
#X obj 141 62 loadbang;
#X connect 0 0 9 0;
#X connect 1 0 0 1;
#X connect 2 0 0 1;
#X connect 5 0 17 0;
#X connect 6 0 17 0;
#X connect 7 0 17 0;
#X connect 8 0 17 0;
#X connect 9 0 17 0;
#X connect 10 0 6 0;
#X connect 12 0 14 0;
#X connect 13 0 0 0;
#X connect 14 0 9 2;
#X connect 16 0 14 0;
#X connect 18 0 9 1;
#X connect 20 0 18 0;
#X restore 31 161 pd platforma da esquerda;
#X obj 122 201 bng 15 250 50 0 empty empty empty 17 7 0 10 -262144
-1 -1;
#N canvas 0 0 450 300 alterna_player 0;
#X obj 165 59 r muda_player;
#X obj 166 84 bng 15 250 50 0 empty empty empty 17 7 0 10 -262144 -1
-1;
#X obj 166 113 alternate;
#X obj 167 142 bng 15 250 50 0 empty empty empty 17 7 0 10 -262144
-1 -1;
#X obj 214 145 bng 15 250 50 0 empty empty empty 17 7 0 10 -262144
-1 -1;
#X obj 129 197 spigot;
#X msg 147 169 1;
#X msg 177 169 0;
#X obj 219 197 spigot;
#X msg 236 167 0;
#X msg 267 169 1;
#X obj 122 56 inlet;
#X obj 133 237 outlet;
#X obj 218 238 outlet;
#X connect 0 0 1 0;
#X connect 1 0 2 0;
#X connect 2 0 3 0;
#X connect 2 1 4 0;
#X connect 3 0 6 0;
#X connect 3 0 9 0;
#X connect 4 0 7 0;
#X connect 4 0 10 0;
#X connect 5 0 12 0;
#X connect 6 0 5 1;
#X connect 7 0 5 1;
#X connect 8 0 13 0;
#X connect 9 0 8 1;
#X connect 10 0 8 1;
#X connect 11 0 5 0;
#X connect 11 0 8 0;
#X restore 215 102 pd alterna_player;
#X obj 391 6 vsl 15 100 -3.4 3.4 0 0 empty empty empty 0 -9 0 10 -262144
-1 -1 5100 1;
#X obj 198 20 bng 15 250 50 0 empty empty empty 17 7 0 10 -262144 -1
-1;
#X connect 0 0 1 2;
#X connect 2 0 9 0;
#X connect 4 0 3 0;
#X connect 5 0 3 0;
#X connect 8 0 0 0;
#X connect 9 0 6 1;
#X connect 9 0 0 2;
#X connect 9 1 7 1;
#X connect 9 1 0 2;
#X connect 10 0 9 0;
#X connect 11 0 9 0;
