#N canvas 88 80 1057 684 16;
#X text 289 -73 spines;
#X obj 72 129 soundfiler;
#X obj 72 37 openpanel;
#X obj 72 12 bng 15 250 50 0 empty empty empty 17 7 0 10 -262144 -1
-1;
#X floatatom 72 161 20 0 0 0 - - -;
#X obj 247 191 bng 15 250 50 0 empty empty toca 17 7 0 10 -262144 -1
-1;
#N canvas 0 0 1041 578 audioin 0;
#X obj 29 23 inlet~;
#X obj 128 22 inlet;
#X text 537 45 1- entrada de audio;
#X text 542 78 2 - volume do audio;
#X text 560 109 de entrada;
#X floatatom 28 243 5 0 0 0 - - -;
#X floatatom 305 279 5 0 0 0 - - -;
#X text 95 265 pitch;
#X text 321 248 envelope;
#X obj 28 210 sigmund~ -hop 4096 pitch env;
#X obj 156 89 hsl 128 15 0 0.5 0 0 empty empty empty -2 -8 0 10 -262144
-1 -1 0 1;
#X obj 28 273 int;
#X floatatom 28 306 5 0 0 0 - - -;
#X obj 27 352 moses 0;
#X floatatom 27 399 5 0 0 0 - - -;
#X floatatom 94 400 5 0 0 0 - - -;
#X floatatom 304 384 5 0 0 0 - - -;
#X floatatom 382 390 5 0 0 0 - - -;
#X obj 305 330 moses 42;
#X floatatom 381 286 5 0 0 0 - - -;
#X text 411 354 com o volume de entrada;
#X text 403 329 3 - calibrar o moses de acordo;
#X obj 713 392 timer;
#X obj 713 311 b;
#X floatatom 713 418 5 0 0 0 - - -;
#X obj 713 371 bng 15 250 50 0 empty empty empty 17 7 0 10 -262144
-1 -1;
#X obj 760 371 bng 15 250 50 0 empty empty empty 17 7 0 10 -262144
-1 -1;
#X obj 713 341 alternate;
#X obj 713 255 bonk~;
#X obj 713 284 bng 15 250 50 0 empty empty empty 17 7 0 10 -262144
-1 -1;
#X obj 713 453 send tempo;
#X obj 60 471 outlet;
#X obj 259 454 outlet;
#X obj 670 492 outlet;
#X obj 829 499 outlet;
#X obj 94 437 send nota;
#X obj 382 428 send vol;
#X obj 833 454 send bonk;
#X obj 28 167 *~ 0.29;
#X connect 0 0 38 0;
#X connect 1 0 38 1;
#X connect 5 0 11 0;
#X connect 6 0 18 0;
#X connect 6 0 32 0;
#X connect 9 0 5 0;
#X connect 9 1 6 0;
#X connect 10 0 38 1;
#X connect 11 0 12 0;
#X connect 12 0 13 0;
#X connect 13 0 14 0;
#X connect 13 1 15 0;
#X connect 15 0 31 0;
#X connect 15 0 35 0;
#X connect 17 0 36 0;
#X connect 18 0 16 0;
#X connect 18 1 17 0;
#X connect 19 0 18 1;
#X connect 22 0 24 0;
#X connect 23 0 27 0;
#X connect 24 0 30 0;
#X connect 24 0 33 0;
#X connect 25 0 22 0;
#X connect 26 0 22 1;
#X connect 27 0 25 0;
#X connect 27 1 26 0;
#X connect 28 0 29 0;
#X connect 28 0 34 0;
#X connect 28 0 37 0;
#X connect 29 0 23 0;
#X connect 38 0 9 0;
#X connect 38 0 28 0;
#X restore 170 257 pd audioin;
#X text 262 400 uma lista pra cada onset;
#X obj 131 381 pack f f f f;
#X obj 130 541 print;
#X obj 73 284 r samppos;
#X obj 131 415 list;
#X obj 641 -48 bng 40 250 50 0 empty empty B0nq 17 7 0 30 -262144 -1
-1;
#X obj 641 -89 r bonk;
#X text 262 420 tempo pitch amp timbre?;
#N canvas 283 27 882 682 textfile 0;
#X obj -73 389 textfile;
#X msg 277 47 bang;
#X msg 358 164 clear;
#X msg 277 159 print;
#X obj -73 461 prepend set;
#X msg -72 496 2 3 45;
#X obj -183 141 prepend set;
#X msg -183 174 2.12038e+06 50 36.2827 0;
#X text -360 184 pra entrar----->;
#X text -361 167 bang aqui;
#X msg -165 252 add \$1 \$2 \$3 \$4;
#X obj -182 106 inlet;
#X msg -67 53 write textfile.txt cr;
#X msg 32 91 read textfile.txt cr;
#X obj -314 49 r bonk;
#X obj -310 86 bng 15 250 50 0 empty empty empty 17 7 0 10 -262144
-1 -1;
#X obj -140 532 outlet;
#X msg 176 49 rewind;
#X text 338 42 index por index;
#X obj -71 17 inlet;
#X obj 32 20 inlet;
#X obj 173 12 inlet;
#X obj 276 13 inlet;
#X connect 0 0 4 0;
#X connect 0 0 16 0;
#X connect 1 0 0 0;
#X connect 2 0 0 0;
#X connect 3 0 0 0;
#X connect 4 0 5 0;
#X connect 6 0 7 0;
#X connect 7 0 10 0;
#X connect 10 0 0 0;
#X connect 11 0 6 0;
#X connect 12 0 0 0;
#X connect 13 0 0 0;
#X connect 14 0 15 0;
#X connect 15 0 7 0;
#X connect 17 0 0 0;
#X connect 19 0 12 0;
#X connect 20 0 13 0;
#X connect 21 0 17 0;
#X connect 22 0 1 0;
#X restore 177 458 pd textfile;
#N canvas 44 75 732 425 textfile 0;
#X obj 243 36 inlet;
#X obj 243 86 unpack f f f f;
#X obj 243 247 /;
#X obj 270 207 r tamanhosamp;
#X floatatom 243 291 5 0 0 0 - - posicao;
#X text 273 331 esse n vai;
#X text 275 351 pro slider;
#X obj 402 161 pitch;
#X symbolatom 413 290 10 0 0 0 - - cifra;
#X floatatom 585 185 5 0 0 0 - - amplitude;
#X obj 3 169 list;
#X obj 3 238 send index;
#X obj 3 204 prepend add2;
#X floatatom 118 292 10 0 0 0 - - time;
#X connect 0 0 1 0;
#X connect 1 0 2 0;
#X connect 1 0 10 0;
#X connect 1 0 13 0;
#X connect 1 1 7 0;
#X connect 1 2 9 0;
#X connect 2 0 4 0;
#X connect 3 0 2 1;
#X connect 7 1 8 0;
#X connect 10 0 12 0;
#X connect 12 0 11 0;
#X restore 177 504 pd textfile recupera dados;
#N canvas 113 50 954 617 index 0;
#X obj -107 -485 cnv 15 300 400 empty empty empty 20 12 0 14 -233017
-66577 0;
#X obj 3 -204 prepend set;
#X obj 111 -395 t b f;
#X obj 75 -511 inlet;
#X obj 3 -118 outlet;
#X text 195 -453 1) lista com todos index;
#X text 196 -430 2) cursor do slider;
#X text -33 -61 3) ver qual a posicao (linha) do index;
#X obj 1 -233 list-apply == \$1;
#X obj 448 -435 receive index;
#X obj 111 -424 *;
#X obj 202 -482 r tamanhosamp;
#X floatatom 273 -383 20 0 0 0 - - -;
#X text 146 -510 aqui entra o slider;
#X msg 449 -316;
#X msg 3 -170;
#X connect 1 0 15 0;
#X connect 2 0 14 0;
#X connect 2 1 8 2;
#X connect 3 0 10 0;
#X connect 8 0 1 0;
#X connect 9 0 14 0;
#X connect 10 0 2 0;
#X connect 10 0 12 0;
#X connect 11 0 10 1;
#X connect 14 0 8 0;
#X connect 15 0 4 0;
#X restore 502 54 pd index;
#X obj 572 460 nbx 10 30 -1e+37 1e+37 0 0 empty time sample_n 0 -15
0 20 -262144 -1 -1 0 256;
#X obj 573 529 nbx 5 30 -1e+37 1e+37 0 0 empty amplitude amplitude
0 -15 0 20 -262144 -1 -1 0 256;
#N canvas 268 51 664 620 canvas 0;
#X obj 84 241 f;
#X msg 33 200 bang;
#X floatatom 183 221 3 0 1000 0 - - -;
#X obj 84 277 pack 0 0;
#X text 174 177 x-position;
#X text 216 228 y-position;
#X floatatom 430 183 4 0 0 0 - - -;
#X floatatom 487 183 4 0 0 0 - - -;
#X text 441 199 x;
#X text 498 199 y;
#X obj 430 139 unpack;
#X obj 407 251 metro 100;
#X obj 407 229 tgl 15 1 empty empty empty 20 8 0 10 -262144 -1 -1 0
1;
#X msg 84 310 \; to_K pos \$1 \$2;
#X floatatom 127 140 5 378 877 0 - - -;
#X obj 430 105 r from_K1;
#X msg 331 223 150;
#X text 86 369 x range: 378 871;
#X obj 127 82 bng 15 250 50 0 empty empty empty 17 7 0 10 -262144 -1
-1;
#X msg 406 283 \; to_K get_pos;
#X obj 127 30 inlet;
#X floatatom 25 102 5 0 0 0 - - -;
#X obj 127 106 counter 378 877;
#X text 83 396 tamanho do range: 499;
#X text 75 422 (exatamente o tamanho do array);
#X msg 456 557 \; cifra label \$1;
#X obj 451 443 r cifra;
#X symbolatom 451 472 10 0 0 0 - - -;
#X obj 452 525 wchars2any;
#X obj 452 498 any2wchars;
#X connect 0 0 3 0;
#X connect 1 0 0 0;
#X connect 2 0 3 1;
#X connect 2 0 1 0;
#X connect 3 0 13 0;
#X connect 10 0 6 0;
#X connect 10 1 7 0;
#X connect 11 0 19 0;
#X connect 12 0 11 0;
#X connect 14 0 0 1;
#X connect 14 0 1 0;
#X connect 15 0 10 0;
#X connect 16 0 3 1;
#X connect 18 0 22 0;
#X connect 20 0 18 0;
#X connect 21 0 1 0;
#X connect 21 0 0 1;
#X connect 22 0 14 0;
#X connect 26 0 27 0;
#X connect 27 0 29 0;
#X connect 28 0 25 0;
#X connect 29 0 28 0;
#X restore 608 52 pd canvas;
#X obj 568 358 cnv 15 100 60 empty cifra F3 20 12 0 40 -233017 -66577
0;
#X obj 292 238 bng 15 250 50 0 empty empty grava_txt 17 7 0 10 -262144
-1 -1;
#X obj 304 266 bng 15 250 50 0 empty empty le_txt 17 7 0 10 -262144
-1 -1;
#X obj 322 295 bng 15 250 50 0 empty empty rewind_txt 17 7 0 10 -262144
-1 -1;
#X obj 338 321 bng 15 250 50 0 empty empty linha_por_linha_txt 17 7
0 10 -262144 -1 -1;
#X text 550 352 nota;
#X obj 153 218 abs-sampler-table;
#X msg 23 -47 read -resize /home/livre/pd-externals/a_patchs_doc/sample1.wav
\$0-sample;
#X obj 176 37 receive idsample;
#X obj 72 66 pack s f;
#X msg 72 98 read -resize \$1 \$2-sample;
#X obj 474 104 abs-sampler-tableid;
#X connect 1 0 4 0;
#X connect 2 0 30 0;
#X connect 3 0 2 0;
#X connect 4 0 27 0;
#X connect 5 0 27 1;
#X connect 6 0 8 1;
#X connect 6 1 8 2;
#X connect 8 0 11 0;
#X connect 10 0 8 0;
#X connect 11 0 9 0;
#X connect 11 0 15 0;
#X connect 13 0 12 0;
#X connect 15 0 16 0;
#X connect 22 0 15 1;
#X connect 23 0 15 2;
#X connect 24 0 15 3;
#X connect 25 0 15 4;
#X connect 27 0 6 0;
#X connect 28 0 1 0;
#X connect 29 0 30 1;
#X connect 30 0 31 0;
#X connect 31 0 1 0;
