#N canvas 336 25 904 609 16;
#N canvas 60 104 1078 660 um 0;
#X msg 240 158 i VI iv;
#X symbolatom 240 275 10 0 0 0 - - -;
#X symbolatom 298 250 10 0 0 0 - - -;
#X symbolatom 357 225 10 0 0 0 - - -;
#X obj 240 192 unpack s s s;
#X floatatom 499 217 5 0 0 0 - - -;
#X obj 499 147 bng 15 250 50 0 empty empty empty 17 7 0 10 -262144
-1 -1;
#X obj 499 185 random 3;
#X obj 336 471 spigot;
#X obj 240 76 t b b;
#X obj 499 327 bng 15 250 50 0 empty empty empty 17 7 0 10 -262144
-1 -1;
#X obj 528 326 bng 15 250 50 0 empty empty empty 17 7 0 10 -262144
-1 -1;
#X obj 557 328 bng 15 250 50 0 empty empty empty 17 7 0 10 -262144
-1 -1;
#X obj 499 286 sel 0 1 2;
#X msg 358 441 0;
#X msg 403 441 1;
#X obj 445 471 spigot;
#X msg 467 441 0;
#X msg 512 441 1;
#X obj 567 471 spigot;
#X msg 589 441 0;
#X msg 634 441 1;
#X symbolatom 290 519 10 0 0 0 - - -;
#X symbolatom 442 515 10 0 0 0 - - -;
#X symbolatom 567 515 10 0 0 0 - - -;
#X obj 240 54 bng 15 250 50 0 empty empty empty 17 7 0 10 -262144 -1
-1;
#X obj 239 17 inlet;
#X obj 442 594 outlet;
#X obj 692 108 receive oito;
#X connect 0 0 4 0;
#X connect 1 0 8 0;
#X connect 2 0 16 0;
#X connect 3 0 19 0;
#X connect 4 0 1 0;
#X connect 4 1 2 0;
#X connect 4 2 3 0;
#X connect 5 0 13 0;
#X connect 6 0 7 0;
#X connect 7 0 5 0;
#X connect 8 0 22 0;
#X connect 9 0 0 0;
#X connect 9 1 6 0;
#X connect 10 0 15 0;
#X connect 10 0 17 0;
#X connect 10 0 20 0;
#X connect 11 0 18 0;
#X connect 11 0 14 0;
#X connect 11 0 20 0;
#X connect 12 0 21 0;
#X connect 12 0 17 0;
#X connect 12 0 14 0;
#X connect 13 0 10 0;
#X connect 13 1 11 0;
#X connect 13 2 12 0;
#X connect 14 0 8 1;
#X connect 15 0 8 1;
#X connect 16 0 23 0;
#X connect 17 0 16 1;
#X connect 18 0 16 1;
#X connect 19 0 24 0;
#X connect 20 0 19 1;
#X connect 21 0 19 1;
#X connect 22 0 27 0;
#X connect 23 0 27 0;
#X connect 24 0 27 0;
#X connect 25 0 9 0;
#X connect 26 0 25 0;
#X restore 184 362 pd um;
#N canvas 151 111 690 653 dois 0;
#X symbolatom 71 276 10 0 0 0 - - -;
#X symbolatom 129 251 10 0 0 0 - - -;
#X symbolatom 188 226 10 0 0 0 - - -;
#X obj 71 193 unpack s s s;
#X floatatom 330 218 5 0 0 0 - - -;
#X obj 330 148 bng 15 250 50 0 empty empty empty 17 7 0 10 -262144
-1 -1;
#X obj 330 186 random 3;
#X obj 167 472 spigot;
#X obj 71 77 t b b;
#X obj 330 328 bng 15 250 50 0 empty empty empty 17 7 0 10 -262144
-1 -1;
#X obj 359 327 bng 15 250 50 0 empty empty empty 17 7 0 10 -262144
-1 -1;
#X obj 388 329 bng 15 250 50 0 empty empty empty 17 7 0 10 -262144
-1 -1;
#X obj 330 287 sel 0 1 2;
#X msg 189 442 0;
#X msg 234 442 1;
#X obj 276 472 spigot;
#X msg 298 442 0;
#X msg 343 442 1;
#X obj 398 472 spigot;
#X msg 420 442 0;
#X msg 465 442 1;
#X symbolatom 121 520 10 0 0 0 - - -;
#X symbolatom 273 516 10 0 0 0 - - -;
#X symbolatom 398 516 10 0 0 0 - - -;
#X obj 71 55 bng 15 250 50 0 empty empty empty 17 7 0 10 -262144 -1
-1;
#X obj 70 18 inlet;
#X obj 273 595 outlet;
#X msg 71 159 iv6 ii VII;
#X obj 421 594 send segundo;
#X connect 0 0 7 0;
#X connect 1 0 15 0;
#X connect 2 0 18 0;
#X connect 3 0 0 0;
#X connect 3 1 1 0;
#X connect 3 2 2 0;
#X connect 4 0 12 0;
#X connect 5 0 6 0;
#X connect 6 0 4 0;
#X connect 7 0 21 0;
#X connect 8 0 27 0;
#X connect 8 1 5 0;
#X connect 9 0 14 0;
#X connect 9 0 16 0;
#X connect 9 0 19 0;
#X connect 10 0 17 0;
#X connect 10 0 13 0;
#X connect 10 0 19 0;
#X connect 11 0 20 0;
#X connect 11 0 16 0;
#X connect 11 0 13 0;
#X connect 12 0 9 0;
#X connect 12 1 10 0;
#X connect 12 2 11 0;
#X connect 13 0 7 1;
#X connect 14 0 7 1;
#X connect 15 0 22 0;
#X connect 16 0 15 1;
#X connect 17 0 15 1;
#X connect 18 0 23 0;
#X connect 19 0 18 1;
#X connect 20 0 18 1;
#X connect 21 0 26 0;
#X connect 21 0 28 0;
#X connect 22 0 26 0;
#X connect 22 0 28 0;
#X connect 23 0 26 0;
#X connect 23 0 28 0;
#X connect 24 0 8 0;
#X connect 25 0 24 0;
#X connect 27 0 3 0;
#X restore 207 330 pd dois;
#X msg 289 330 iv6 ii VII;
#X msg 256 364 i VI iv;
#X obj 184 67 hradio 30 1 0 8 empty empty empty 0 -8 0 10 -262144 -1
-1 0;
#X obj 184 109 sel 0 1 2 3 4 5 6 7;
#N canvas 302 66 685 698 tres 0;
#X obj 390 45 receive segundo;
#X obj 390 96 sel iv6 ii VII;
#X obj 390 138 bng 15 250 50 0 empty empty empty 17 7 0 10 -262144
-1 -1;
#X obj 435 136 bng 15 250 50 0 empty empty empty 17 7 0 10 -262144
-1 -1;
#X obj 481 136 bng 15 250 50 0 empty empty empty 17 7 0 10 -262144
-1 -1;
#X symbolatom 41 304 10 0 0 0 - - -;
#X symbolatom 99 279 10 0 0 0 - - -;
#X symbolatom 158 254 10 0 0 0 - - -;
#X obj 41 221 unpack s s s;
#X floatatom 285 228 5 0 0 0 - - -;
#X obj 285 173 bng 15 250 50 0 empty empty empty 17 7 0 10 -262144
-1 -1;
#X obj 285 196 random 3;
#X obj 224 468 spigot;
#X obj 41 105 t b b;
#X obj 285 298 bng 15 250 50 0 empty empty empty 17 7 0 10 -262144
-1 -1;
#X obj 314 297 bng 15 250 50 0 empty empty empty 17 7 0 10 -262144
-1 -1;
#X obj 343 299 bng 15 250 50 0 empty empty empty 17 7 0 10 -262144
-1 -1;
#X obj 285 257 sel 0 1 2;
#X msg 246 438 0;
#X msg 291 438 1;
#X obj 333 468 spigot;
#X msg 355 438 0;
#X msg 400 438 1;
#X obj 455 468 spigot;
#X msg 477 438 0;
#X msg 522 438 1;
#X symbolatom 178 516 10 0 0 0 - - -;
#X symbolatom 330 512 10 0 0 0 - - -;
#X symbolatom 455 512 10 0 0 0 - - -;
#X obj 41 83 bng 15 250 50 0 empty empty empty 17 7 0 10 -262144 -1
-1;
#X obj 41 47 inlet;
#X obj 330 591 outlet;
#X msg 41 187 i v III;
#X floatatom 435 245 5 0 0 0 - - -;
#X obj 435 177 bng 15 250 50 0 empty empty empty 17 7 0 10 -262144
-1 -1;
#X obj 435 315 bng 15 250 50 0 empty empty empty 17 7 0 10 -262144
-1 -1;
#X obj 468 313 bng 15 250 50 0 empty empty empty 17 7 0 10 -262144
-1 -1;
#X obj 435 213 random 2;
#X floatatom 550 244 5 0 0 0 - - -;
#X obj 550 183 bng 15 250 50 0 empty empty empty 17 7 0 10 -262144
-1 -1;
#X obj 550 314 bng 15 250 50 0 empty empty empty 17 7 0 10 -262144
-1 -1;
#X obj 583 313 bng 15 250 50 0 empty empty empty 17 7 0 10 -262144
-1 -1;
#X obj 550 212 random 2;
#X obj 435 274 sel 0 1;
#X obj 550 273 sel 0 1;
#X connect 0 0 1 0;
#X connect 1 0 2 0;
#X connect 1 1 3 0;
#X connect 1 2 4 0;
#X connect 2 0 10 0;
#X connect 3 0 34 0;
#X connect 4 0 39 0;
#X connect 5 0 12 0;
#X connect 6 0 20 0;
#X connect 7 0 23 0;
#X connect 8 0 5 0;
#X connect 8 1 6 0;
#X connect 8 2 7 0;
#X connect 9 0 17 0;
#X connect 10 0 11 0;
#X connect 11 0 9 0;
#X connect 12 0 26 0;
#X connect 13 0 32 0;
#X connect 14 0 19 0;
#X connect 14 0 21 0;
#X connect 14 0 24 0;
#X connect 15 0 22 0;
#X connect 15 0 18 0;
#X connect 15 0 24 0;
#X connect 16 0 25 0;
#X connect 16 0 21 0;
#X connect 16 0 18 0;
#X connect 17 0 14 0;
#X connect 17 1 15 0;
#X connect 17 2 16 0;
#X connect 18 0 12 1;
#X connect 19 0 12 1;
#X connect 20 0 27 0;
#X connect 21 0 20 1;
#X connect 22 0 20 1;
#X connect 23 0 28 0;
#X connect 24 0 23 1;
#X connect 25 0 23 1;
#X connect 26 0 31 0;
#X connect 27 0 31 0;
#X connect 28 0 31 0;
#X connect 29 0 13 0;
#X connect 30 0 29 0;
#X connect 32 0 8 0;
#X connect 33 0 43 0;
#X connect 34 0 37 0;
#X connect 35 0 22 0;
#X connect 35 0 18 0;
#X connect 35 0 24 0;
#X connect 36 0 25 0;
#X connect 36 0 21 0;
#X connect 36 0 18 0;
#X connect 37 0 33 0;
#X connect 38 0 44 0;
#X connect 39 0 42 0;
#X connect 40 0 19 0;
#X connect 40 0 21 0;
#X connect 40 0 24 0;
#X connect 41 0 25 0;
#X connect 41 0 21 0;
#X connect 41 0 18 0;
#X connect 42 0 38 0;
#X connect 43 0 35 0;
#X connect 43 1 36 0;
#X connect 44 0 40 0;
#X connect 44 1 41 0;
#X restore 230 295 pd tres;
#X obj 457 484 prepend set;
#X msg 456 518 VI;
#X msg 314 296 i v III;
#N canvas 60 104 1078 660 quatro 0;
#X symbolatom 241 332 10 0 0 0 - - -;
#X symbolatom 286 304 10 0 0 0 - - -;
#X symbolatom 332 265 10 0 0 0 - - -;
#X floatatom 543 218 5 0 0 0 - - -;
#X obj 543 148 bng 15 250 50 0 empty empty empty 17 7 0 10 -262144
-1 -1;
#X obj 543 186 random 3;
#X obj 336 471 spigot;
#X obj 240 76 t b b;
#X obj 543 328 bng 15 250 50 0 empty empty empty 17 7 0 10 -262144
-1 -1;
#X obj 572 327 bng 15 250 50 0 empty empty empty 17 7 0 10 -262144
-1 -1;
#X obj 601 329 bng 15 250 50 0 empty empty empty 17 7 0 10 -262144
-1 -1;
#X msg 358 441 0;
#X msg 403 441 1;
#X obj 445 471 spigot;
#X msg 467 441 0;
#X msg 512 441 1;
#X obj 567 471 spigot;
#X msg 589 441 0;
#X msg 634 441 1;
#X symbolatom 290 519 10 0 0 0 - - -;
#X symbolatom 442 515 10 0 0 0 - - -;
#X symbolatom 567 515 10 0 0 0 - - -;
#X obj 240 54 bng 15 250 50 0 empty empty empty 17 7 0 10 -262144 -1
-1;
#X obj 239 17 inlet;
#X obj 442 594 outlet;
#X msg 240 158 III iv i VI;
#X obj 240 192 unpack s s s s;
#X symbolatom 377 234 10 0 0 0 - - -;
#X obj 678 466 spigot;
#X msg 700 436 0;
#X msg 745 436 1;
#X symbolatom 678 510 10 0 0 0 - - -;
#X obj 626 330 bng 15 250 50 0 empty empty empty 17 7 0 10 -262144
-1 -1;
#X obj 543 287 sel 0 1 2 3;
#X connect 0 0 6 0;
#X connect 1 0 13 0;
#X connect 2 0 16 0;
#X connect 3 0 33 0;
#X connect 4 0 5 0;
#X connect 5 0 3 0;
#X connect 6 0 19 0;
#X connect 7 0 25 0;
#X connect 7 1 4 0;
#X connect 8 0 12 0;
#X connect 8 0 14 0;
#X connect 8 0 17 0;
#X connect 8 0 29 0;
#X connect 9 0 15 0;
#X connect 9 0 11 0;
#X connect 9 0 17 0;
#X connect 9 0 29 0;
#X connect 10 0 18 0;
#X connect 10 0 14 0;
#X connect 10 0 11 0;
#X connect 10 0 29 0;
#X connect 11 0 6 1;
#X connect 12 0 6 1;
#X connect 13 0 20 0;
#X connect 14 0 13 1;
#X connect 15 0 13 1;
#X connect 16 0 21 0;
#X connect 17 0 16 1;
#X connect 18 0 16 1;
#X connect 19 0 24 0;
#X connect 20 0 24 0;
#X connect 21 0 24 0;
#X connect 22 0 7 0;
#X connect 23 0 22 0;
#X connect 25 0 26 0;
#X connect 26 0 0 0;
#X connect 26 1 1 0;
#X connect 26 2 2 0;
#X connect 26 3 27 0;
#X connect 27 0 28 0;
#X connect 28 0 31 0;
#X connect 29 0 28 1;
#X connect 30 0 28 1;
#X connect 32 0 30 0;
#X connect 32 0 17 0;
#X connect 32 0 14 0;
#X connect 32 0 11 0;
#X connect 33 0 8 0;
#X connect 33 1 9 0;
#X connect 33 2 10 0;
#X connect 33 3 32 0;
#X restore 254 267 pd quatro;
#X msg 358 267 III iv i VI;
#N canvas 608 70 1078 660 cinco 0;
#X symbolatom 240 275 10 0 0 0 - - -;
#X symbolatom 298 250 10 0 0 0 - - -;
#X symbolatom 357 225 10 0 0 0 - - -;
#X obj 240 192 unpack s s s;
#X floatatom 499 217 5 0 0 0 - - -;
#X obj 499 147 bng 15 250 50 0 empty empty empty 17 7 0 10 -262144
-1 -1;
#X obj 499 185 random 3;
#X obj 336 471 spigot;
#X obj 240 76 t b b;
#X obj 499 327 bng 15 250 50 0 empty empty empty 17 7 0 10 -262144
-1 -1;
#X obj 528 326 bng 15 250 50 0 empty empty empty 17 7 0 10 -262144
-1 -1;
#X obj 557 328 bng 15 250 50 0 empty empty empty 17 7 0 10 -262144
-1 -1;
#X obj 499 286 sel 0 1 2;
#X msg 358 441 0;
#X msg 403 441 1;
#X obj 445 471 spigot;
#X msg 467 441 0;
#X msg 512 441 1;
#X obj 567 471 spigot;
#X msg 589 441 0;
#X msg 634 441 1;
#X symbolatom 290 520 10 0 0 0 - - -;
#X symbolatom 442 515 10 0 0 0 - - -;
#X symbolatom 567 515 10 0 0 0 - - -;
#X obj 240 54 bng 15 250 50 0 empty empty empty 17 7 0 10 -262144 -1
-1;
#X obj 239 17 inlet;
#X obj 442 594 outlet;
#X msg 240 158 ii VII iv6;
#X obj 656 601 send cinco;
#X connect 0 0 7 0;
#X connect 1 0 15 0;
#X connect 2 0 18 0;
#X connect 3 0 0 0;
#X connect 3 1 1 0;
#X connect 3 2 2 0;
#X connect 4 0 12 0;
#X connect 5 0 6 0;
#X connect 6 0 4 0;
#X connect 7 0 21 0;
#X connect 8 0 27 0;
#X connect 8 1 5 0;
#X connect 9 0 14 0;
#X connect 9 0 16 0;
#X connect 9 0 19 0;
#X connect 10 0 17 0;
#X connect 10 0 13 0;
#X connect 10 0 19 0;
#X connect 11 0 20 0;
#X connect 11 0 16 0;
#X connect 11 0 13 0;
#X connect 12 0 9 0;
#X connect 12 1 10 0;
#X connect 12 2 11 0;
#X connect 13 0 7 1;
#X connect 14 0 7 1;
#X connect 15 0 22 0;
#X connect 16 0 15 1;
#X connect 17 0 15 1;
#X connect 18 0 23 0;
#X connect 19 0 18 1;
#X connect 20 0 18 1;
#X connect 21 0 26 0;
#X connect 21 0 28 0;
#X connect 22 0 26 0;
#X connect 22 0 28 0;
#X connect 23 0 26 0;
#X connect 23 0 28 0;
#X connect 24 0 8 0;
#X connect 25 0 24 0;
#X connect 27 0 3 0;
#X restore 277 233 pd cinco;
#X msg 365 232 ii VII iv6;
#N canvas 30 121 869 643 seis 0;
#X obj 400 148 bng 15 250 50 0 empty empty empty 17 7 0 10 -262144
-1 -1;
#X obj 445 146 bng 15 250 50 0 empty empty empty 17 7 0 10 -262144
-1 -1;
#X obj 491 146 bng 15 250 50 0 empty empty empty 17 7 0 10 -262144
-1 -1;
#X symbolatom 51 314 10 0 0 0 - - -;
#X symbolatom 109 289 10 0 0 0 - - -;
#X symbolatom 168 264 10 0 0 0 - - -;
#X obj 51 231 unpack s s s;
#X floatatom 295 238 5 0 0 0 - - -;
#X obj 295 183 bng 15 250 50 0 empty empty empty 17 7 0 10 -262144
-1 -1;
#X obj 295 206 random 3;
#X obj 234 478 spigot;
#X obj 51 115 t b b;
#X obj 295 308 bng 15 250 50 0 empty empty empty 17 7 0 10 -262144
-1 -1;
#X obj 324 307 bng 15 250 50 0 empty empty empty 17 7 0 10 -262144
-1 -1;
#X obj 353 309 bng 15 250 50 0 empty empty empty 17 7 0 10 -262144
-1 -1;
#X obj 295 267 sel 0 1 2;
#X msg 256 448 0;
#X msg 301 448 1;
#X obj 343 478 spigot;
#X msg 365 448 0;
#X msg 410 448 1;
#X obj 465 478 spigot;
#X msg 487 448 0;
#X msg 532 448 1;
#X symbolatom 188 526 10 0 0 0 - - -;
#X symbolatom 340 522 10 0 0 0 - - -;
#X symbolatom 465 522 10 0 0 0 - - -;
#X obj 51 93 bng 15 250 50 0 empty empty empty 17 7 0 10 -262144 -1
-1;
#X obj 51 57 inlet;
#X obj 340 601 outlet;
#X floatatom 445 255 5 0 0 0 - - -;
#X obj 445 187 bng 15 250 50 0 empty empty empty 17 7 0 10 -262144
-1 -1;
#X obj 445 325 bng 15 250 50 0 empty empty empty 17 7 0 10 -262144
-1 -1;
#X obj 474 323 bng 15 250 50 0 empty empty empty 17 7 0 10 -262144
-1 -1;
#X floatatom 560 254 5 0 0 0 - - -;
#X obj 560 193 bng 15 250 50 0 empty empty empty 17 7 0 10 -262144
-1 -1;
#X obj 560 324 bng 15 250 50 0 empty empty empty 17 7 0 10 -262144
-1 -1;
#X obj 593 323 bng 15 250 50 0 empty empty empty 17 7 0 10 -262144
-1 -1;
#X obj 560 222 random 2;
#X obj 560 283 sel 0 1;
#X obj 400 55 receive cinco;
#X obj 400 106 sel ii VII iv6;
#X msg 51 197 V bII vii;
#X obj 445 223 random 3;
#X obj 445 284 sel 0 1 2;
#X obj 504 324 bng 15 250 50 0 empty empty empty 17 7 0 10 -262144
-1 -1;
#X obj 521 593 send seis;
#X connect 0 0 8 0;
#X connect 1 0 31 0;
#X connect 2 0 35 0;
#X connect 3 0 10 0;
#X connect 4 0 18 0;
#X connect 5 0 21 0;
#X connect 6 0 3 0;
#X connect 6 1 4 0;
#X connect 6 2 5 0;
#X connect 7 0 15 0;
#X connect 8 0 9 0;
#X connect 9 0 7 0;
#X connect 10 0 24 0;
#X connect 11 0 42 0;
#X connect 12 0 17 0;
#X connect 12 0 19 0;
#X connect 12 0 22 0;
#X connect 13 0 20 0;
#X connect 13 0 16 0;
#X connect 13 0 22 0;
#X connect 14 0 23 0;
#X connect 14 0 19 0;
#X connect 14 0 16 0;
#X connect 15 0 12 0;
#X connect 15 1 13 0;
#X connect 15 2 14 0;
#X connect 16 0 10 1;
#X connect 17 0 10 1;
#X connect 18 0 25 0;
#X connect 19 0 18 1;
#X connect 20 0 18 1;
#X connect 21 0 26 0;
#X connect 22 0 21 1;
#X connect 23 0 21 1;
#X connect 24 0 29 0;
#X connect 24 0 46 0;
#X connect 25 0 29 0;
#X connect 25 0 46 0;
#X connect 26 0 29 0;
#X connect 26 0 46 0;
#X connect 27 0 11 0;
#X connect 28 0 27 0;
#X connect 30 0 44 0;
#X connect 31 0 43 0;
#X connect 32 0 20 0;
#X connect 32 0 16 0;
#X connect 32 0 22 0;
#X connect 33 0 23 0;
#X connect 33 0 19 0;
#X connect 33 0 16 0;
#X connect 34 0 39 0;
#X connect 35 0 38 0;
#X connect 36 0 17 0;
#X connect 36 0 19 0;
#X connect 36 0 22 0;
#X connect 37 0 23 0;
#X connect 37 0 19 0;
#X connect 37 0 16 0;
#X connect 38 0 34 0;
#X connect 39 0 36 0;
#X connect 39 1 37 0;
#X connect 40 0 41 0;
#X connect 41 0 0 0;
#X connect 41 1 1 0;
#X connect 41 2 2 0;
#X connect 42 0 6 0;
#X connect 43 0 30 0;
#X connect 44 0 32 0;
#X connect 44 1 33 0;
#X connect 44 2 45 0;
#X connect 45 0 17 0;
#X connect 45 0 19 0;
#X connect 45 0 22 0;
#X restore 300 199 pd seis;
#X msg 381 200 V bII vii;
#N canvas 36 121 869 643 sete 0;
#X obj 400 148 bng 15 250 50 0 empty empty empty 17 7 0 10 -262144
-1 -1;
#X obj 442 146 bng 15 250 50 0 empty empty empty 17 7 0 10 -262144
-1 -1;
#X obj 484 148 bng 15 250 50 0 empty empty empty 17 7 0 10 -262144
-1 -1;
#X symbolatom 51 314 10 0 0 0 - - -;
#X symbolatom 109 289 10 0 0 0 - - -;
#X symbolatom 168 264 10 0 0 0 - - -;
#X obj 51 231 unpack s s s;
#X floatatom 295 238 5 0 0 0 - - -;
#X obj 295 183 bng 15 250 50 0 empty empty empty 17 7 0 10 -262144
-1 -1;
#X obj 234 478 spigot;
#X obj 51 115 t b b;
#X obj 295 308 bng 15 250 50 0 empty empty empty 17 7 0 10 -262144
-1 -1;
#X obj 328 307 bng 15 250 50 0 empty empty empty 17 7 0 10 -262144
-1 -1;
#X msg 256 448 0;
#X msg 301 448 1;
#X obj 343 478 spigot;
#X msg 365 448 0;
#X msg 410 448 1;
#X obj 465 478 spigot;
#X msg 487 448 0;
#X msg 532 448 1;
#X symbolatom 188 526 10 0 0 0 - - -;
#X symbolatom 340 522 10 0 0 0 - - -;
#X symbolatom 465 522 10 0 0 0 - - -;
#X obj 51 93 bng 15 250 50 0 empty empty empty 17 7 0 10 -262144 -1
-1;
#X obj 51 57 inlet;
#X obj 340 601 outlet;
#X floatatom 560 254 5 0 0 0 - - -;
#X obj 560 193 bng 15 250 50 0 empty empty empty 17 7 0 10 -262144
-1 -1;
#X obj 560 315 bng 15 250 50 0 empty empty empty 17 7 0 10 -262144
-1 -1;
#X obj 593 323 bng 15 250 50 0 empty empty empty 17 7 0 10 -262144
-1 -1;
#X obj 560 222 random 2;
#X obj 560 283 sel 0 1;
#X obj 400 55 receive seis;
#X obj 400 106 sel V bII vii;
#X msg 51 197 i VI III;
#X obj 442 270 t b b b;
#X obj 295 267 sel 0 1;
#X obj 295 206 random 2;
#X connect 0 0 8 0;
#X connect 1 0 36 0;
#X connect 2 0 28 0;
#X connect 3 0 9 0;
#X connect 4 0 15 0;
#X connect 5 0 18 0;
#X connect 6 0 3 0;
#X connect 6 1 4 0;
#X connect 6 2 5 0;
#X connect 7 0 37 0;
#X connect 8 0 38 0;
#X connect 9 0 21 0;
#X connect 10 0 35 0;
#X connect 11 0 14 0;
#X connect 11 0 16 0;
#X connect 11 0 19 0;
#X connect 12 0 17 0;
#X connect 12 0 13 0;
#X connect 12 0 19 0;
#X connect 13 0 9 1;
#X connect 14 0 9 1;
#X connect 15 0 22 0;
#X connect 16 0 15 1;
#X connect 17 0 15 1;
#X connect 18 0 23 0;
#X connect 19 0 18 1;
#X connect 20 0 18 1;
#X connect 21 0 26 0;
#X connect 22 0 26 0;
#X connect 23 0 26 0;
#X connect 24 0 10 0;
#X connect 25 0 24 0;
#X connect 27 0 32 0;
#X connect 28 0 31 0;
#X connect 29 0 14 0;
#X connect 29 0 16 0;
#X connect 29 0 19 0;
#X connect 30 0 20 0;
#X connect 30 0 16 0;
#X connect 30 0 13 0;
#X connect 31 0 27 0;
#X connect 32 0 29 0;
#X connect 32 1 30 0;
#X connect 33 0 34 0;
#X connect 34 0 0 0;
#X connect 34 1 1 0;
#X connect 34 2 2 0;
#X connect 35 0 6 0;
#X connect 36 0 14 0;
#X connect 36 1 16 0;
#X connect 36 2 19 0;
#X connect 37 0 11 0;
#X connect 37 1 12 0;
#X connect 38 0 7 0;
#X restore 324 167 pd sete;
#X msg 405 168 i VI III;
#X msg 429 135 I7 iii# V;
#N canvas 72 104 1078 660 oito 0;
#X symbolatom 240 275 10 0 0 0 - - -;
#X symbolatom 298 250 10 0 0 0 - - -;
#X symbolatom 357 225 10 0 0 0 - - -;
#X obj 240 192 unpack s s s;
#X floatatom 499 217 5 0 0 0 - - -;
#X obj 499 147 bng 15 250 50 0 empty empty empty 17 7 0 10 -262144
-1 -1;
#X obj 499 185 random 3;
#X obj 336 471 spigot;
#X obj 240 76 t b b;
#X obj 499 327 bng 15 250 50 0 empty empty empty 17 7 0 10 -262144
-1 -1;
#X obj 528 326 bng 15 250 50 0 empty empty empty 17 7 0 10 -262144
-1 -1;
#X obj 557 328 bng 15 250 50 0 empty empty empty 17 7 0 10 -262144
-1 -1;
#X obj 499 286 sel 0 1 2;
#X msg 358 441 0;
#X msg 403 441 1;
#X obj 445 471 spigot;
#X msg 467 441 0;
#X msg 512 441 1;
#X obj 567 471 spigot;
#X msg 589 441 0;
#X msg 634 441 1;
#X symbolatom 290 519 10 0 0 0 - - -;
#X symbolatom 442 515 10 0 0 0 - - -;
#X symbolatom 567 515 10 0 0 0 - - -;
#X obj 240 54 bng 15 250 50 0 empty empty empty 17 7 0 10 -262144 -1
-1;
#X obj 239 17 inlet;
#X obj 442 594 outlet;
#X msg 240 158 I7 iii# V;
#X obj 630 584 send oito;
#X connect 0 0 7 0;
#X connect 1 0 15 0;
#X connect 2 0 18 0;
#X connect 3 0 0 0;
#X connect 3 1 1 0;
#X connect 3 2 2 0;
#X connect 4 0 12 0;
#X connect 5 0 6 0;
#X connect 6 0 4 0;
#X connect 7 0 21 0;
#X connect 8 0 27 0;
#X connect 8 1 5 0;
#X connect 9 0 14 0;
#X connect 9 0 16 0;
#X connect 9 0 19 0;
#X connect 10 0 17 0;
#X connect 10 0 13 0;
#X connect 10 0 19 0;
#X connect 11 0 20 0;
#X connect 11 0 16 0;
#X connect 11 0 13 0;
#X connect 12 0 9 0;
#X connect 12 1 10 0;
#X connect 12 2 11 0;
#X connect 13 0 7 1;
#X connect 14 0 7 1;
#X connect 15 0 22 0;
#X connect 16 0 15 1;
#X connect 17 0 15 1;
#X connect 18 0 23 0;
#X connect 19 0 18 1;
#X connect 20 0 18 1;
#X connect 21 0 26 0;
#X connect 21 0 28 0;
#X connect 22 0 26 0;
#X connect 22 0 28 0;
#X connect 23 0 26 0;
#X connect 23 0 28 0;
#X connect 24 0 8 0;
#X connect 25 0 24 0;
#X connect 27 0 3 0;
#X restore 347 135 pd oito;
#N canvas 120 97 1095 667 chords 0;
#X msg 34 155 III iv i VI;
#X msg 37 121 ii VII iv6;
#X msg 32 89 V bII vii;
#X msg 31 59 i VI III;
#X msg 32 28 I7 iii# V;
#X msg 38 215 iv6 ii VII;
#X msg 40 247 i VI iv;
#X msg 36 185 i v III;
#X obj 295 15 inlet;
#X obj 295 53 sel i I7 ii bII III iii# iv v V VI VII vii;
#X obj 26 346 receive tom;
#X obj 22 424 loadbang;
#X obj 22 454 random 127;
#X obj 22 486 send tom;
#X floatatom 26 377 5 0 0 0 - - -;
#X obj 139 404 bng 15 250 50 0 empty empty empty 17 7 0 10 -262144
-1 -1;
#X text 565 421 i;
#X text 608 395 I7;
#X text 637 365 ii;
#X text 675 330 bII;
#X text 708 299 III;
#X text 739 270 iii#;
#X text 765 235 iv;
#X text 810 208 v;
#X text 843 175 V;
#X text 872 141 VI;
#X text 910 110 VII;
#X obj 677 83 abs-musical-chord 11 2 5 8;
#X text 946 84 vii;
#X obj 295 524 abs-sampler-chordosc;
#X obj 295 473 unpack f f f f;
#X obj 329 394 abs-musical-chord 0 5 7 10;
#X obj 295 423 abs-musical-chord 0 4 7 10;
#X obj 364 364 abs-musical-chord 2 5 8 12;
#X obj 399 332 abs-musical-chord 1 5 7 11;
#X obj 434 299 abs-musical-chord 3 7 10 2;
#X obj 468 268 abs-musical-chord 4 7 10 1;
#X obj 503 235 abs-musical-chord 5 8 0 3;
#X obj 538 204 abs-musical-chord 7 10 2 5;
#X obj 573 174 abs-musical-chord 7 11 2 8;
#X obj 607 141 abs-musical-chord 8 0 3 7;
#X obj 642 111 abs-musical-chord 10 2 5 8;
#X obj 296 559 outlet~;
#X connect 8 0 9 0;
#X connect 9 0 32 0;
#X connect 9 1 31 0;
#X connect 9 2 33 0;
#X connect 9 3 34 0;
#X connect 9 4 35 0;
#X connect 9 5 36 0;
#X connect 9 6 37 0;
#X connect 9 7 38 0;
#X connect 9 8 39 0;
#X connect 9 9 40 0;
#X connect 9 10 41 0;
#X connect 9 11 27 0;
#X connect 10 0 14 0;
#X connect 11 0 12 0;
#X connect 12 0 13 0;
#X connect 15 0 12 0;
#X connect 27 0 30 0;
#X connect 29 0 42 0;
#X connect 30 0 29 0;
#X connect 30 1 29 1;
#X connect 30 2 29 2;
#X connect 30 3 29 3;
#X connect 31 0 30 0;
#X connect 32 0 30 0;
#X connect 33 0 30 0;
#X connect 34 0 30 0;
#X connect 35 0 30 0;
#X connect 36 0 30 0;
#X connect 37 0 30 0;
#X connect 38 0 30 0;
#X connect 39 0 30 0;
#X connect 40 0 30 0;
#X connect 41 0 30 0;
#X restore 269 452 pd chords;
#X obj 269 492 outlet~;
#X obj 430 47 cnv 15 100 60 empty empty empty 20 12 0 14 -233017 -66577
0;
#X obj 164 522 ezdac~;
#X connect 0 0 7 0;
#X connect 0 0 20 0;
#X connect 1 0 7 0;
#X connect 1 0 20 0;
#X connect 4 0 5 0;
#X connect 5 0 0 0;
#X connect 5 1 1 0;
#X connect 5 2 6 0;
#X connect 5 3 10 0;
#X connect 5 4 12 0;
#X connect 5 5 14 0;
#X connect 5 6 16 0;
#X connect 5 7 19 0;
#X connect 6 0 7 0;
#X connect 6 0 20 0;
#X connect 7 0 8 0;
#X connect 10 0 7 0;
#X connect 10 0 20 0;
#X connect 12 0 7 0;
#X connect 12 0 20 0;
#X connect 14 0 7 0;
#X connect 14 0 20 0;
#X connect 16 0 7 0;
#X connect 16 0 20 0;
#X connect 19 0 7 0;
#X connect 19 0 20 0;
#X connect 20 0 21 0;
#X connect 20 0 23 0;
#X connect 20 0 23 1;
#X coords 0 -1 1 1 350 70 1 160 40;
