#N canvas 48 123 606 379 10;
#X obj 90 83 + 48;
#X obj 90 118 mtof;
#X obj 90 145 osc~;
#X obj 91 228 dac~;
#N canvas 30 155 450 300 volumono 0;
#X msg 221 20 set \$1;
#X obj 195 76 line~;
#X msg 175 48 0.1;
#X obj 175 -29 t b b f;
#X msg 222 48 100;
#X obj 175 -58 inlet;
#X obj 146 103 *~;
#X obj 84 47 inlet~;
#X obj 147 152 outlet~;
#X obj 221 -2 / 10;
#X connect 0 0 2 0;
#X connect 1 0 6 1;
#X connect 2 0 1 0;
#X connect 3 0 2 0;
#X connect 3 1 4 0;
#X connect 3 2 9 0;
#X connect 4 0 1 1;
#X connect 5 0 3 0;
#X connect 6 0 8 0;
#X connect 7 0 6 0;
#X connect 9 0 0 0;
#X restore 90 191 pd volumono;
#X obj 130 118 mtof;
#X obj 130 145 osc~;
#X obj 243 118 mtof;
#X obj 243 145 osc~;
#X obj 130 84 + 48;
#X obj 243 87 + 48;
#X obj 319 109 delay 500;
#X msg 288 145 1;
#X msg 319 144 0;
#X obj 288 81 bng 15 250 50 0 empty empty empty 17 7 0 10 -262144 -1
-1;
#X obj 90 30 inlet;
#X obj 130 30 inlet;
#X obj 243 30 inlet;
#X obj 188 118 mtof;
#X obj 188 145 osc~;
#X obj 188 87 + 48;
#X obj 188 30 inlet;
#X obj 56 265 outlet~;
#X obj 405 244 * 12;
#X obj 405 170 inlet;
#X text 442 241 oitava;
#X connect 0 0 1 0;
#X connect 1 0 2 0;
#X connect 2 0 4 0;
#X connect 4 0 3 0;
#X connect 4 0 3 1;
#X connect 4 0 22 0;
#X connect 5 0 6 0;
#X connect 6 0 4 0;
#X connect 7 0 8 0;
#X connect 8 0 4 0;
#X connect 9 0 5 0;
#X connect 10 0 7 0;
#X connect 11 0 13 0;
#X connect 12 0 4 1;
#X connect 13 0 4 1;
#X connect 14 0 11 0;
#X connect 14 0 12 0;
#X connect 15 0 0 0;
#X connect 16 0 9 0;
#X connect 17 0 10 0;
#X connect 17 0 14 0;
#X connect 18 0 19 0;
#X connect 19 0 4 0;
#X connect 20 0 18 0;
#X connect 21 0 20 0;
#X connect 23 0 0 1;
#X connect 23 0 9 1;
#X connect 23 0 20 1;
#X connect 23 0 10 1;
#X connect 24 0 23 0;
