#N canvas 12 52 669 528 10;
#X msg 89 378 0;
#X msg 138 378 0.5;
#X obj 124 475 dac~;
#X obj 52 410 *~ 0.5;
#X obj 50 69 bng 25 250 50 0 empty empty empty 0 -6 0 10 -258699 -1
-1;
#X obj 50 292 line~;
#X obj 50 265 pack 0 0;
#X obj 121 228 / 44.1;
#X obj 50 228 f;
#X obj 94 195 t f f;
#X obj 50 102 t b b;
#X msg 138 156 0;
#X obj 51 319 +~ 1;
#X obj 343 219 snapshot~;
#X floatatom 343 243 20 0 0 0 - - -;
#X obj 187 33 inlet;
#X obj 117 28 inlet;
#X obj 343 288 /;
#X msg 154 196 48;
#X floatatom 343 322 5 0 0 0 - - -;
#X obj 346 354 hsl 128 15 0 1 0 0 empty empty empty -2 -8 0 10 -262144
-1 -1 0 1;
#X obj 51 474 outlet~;
#X obj 343 170 receive bonk;
#X obj 343 194 bng 15 250 50 0 empty empty empty 17 7 0 10 -262144
-1 -1;
#X obj 51 348 tabread4~ \$1;
#X obj 320 45 inlet;
#X text 373 46 a saida de abs-sampler-tableid;
#X text 376 60 entra aqui;
#X obj 303 430 outlet;
#X obj 388 423 outlet;
#X obj 220 448 outlet;
#X obj 347 501 send \$0-tamanhosamp;
#X obj 383 479 send \$0-samppos;
#X obj 398 456 send \$0-posicao;
#X obj 499 99 inlet;
#X connect 0 0 3 1;
#X connect 1 0 3 1;
#X connect 3 0 2 0;
#X connect 3 0 2 1;
#X connect 3 0 21 0;
#X connect 4 0 10 0;
#X connect 5 0 12 0;
#X connect 5 0 13 0;
#X connect 6 0 5 0;
#X connect 7 0 6 1;
#X connect 8 0 6 0;
#X connect 9 0 8 1;
#X connect 9 1 7 0;
#X connect 10 0 8 0;
#X connect 10 1 11 0;
#X connect 11 0 5 0;
#X connect 12 0 24 0;
#X connect 13 0 14 0;
#X connect 14 0 17 0;
#X connect 14 0 28 0;
#X connect 14 0 32 0;
#X connect 15 0 4 0;
#X connect 16 0 9 0;
#X connect 16 0 17 1;
#X connect 16 0 30 0;
#X connect 16 0 31 0;
#X connect 17 0 19 0;
#X connect 18 0 7 1;
#X connect 19 0 20 0;
#X connect 20 0 29 0;
#X connect 20 0 33 0;
#X connect 22 0 23 0;
#X connect 23 0 13 0;
#X connect 24 0 3 0;
#X connect 25 0 24 0;
#X connect 34 0 14 0;
