#N canvas 317 180 874 325 10;
#X obj 69 38 abs-sampler-sf2;
#X obj 600 209 unpack f f;
#X floatatom 600 255 5 0 0 0 - - -;
#X floatatom 657 256 5 0 0 0 - - -;
#X msg 345 236 D;
#X obj 70 230 ezdac~;
#X text 664 56 objeto que transforma seu teclado \; alfa-numerico em
um controlador \; usando soundfonts.;
#X connect 0 0 5 0;
#X connect 0 0 5 1;
#X connect 0 1 4 0;
#X connect 0 2 1 0;
#X connect 1 0 2 0;
#X connect 1 1 3 0;
