#N canvas 824 168 450 300 10;
#X obj -31 28 inlet;
#X obj 11 48 receive tom;
#X obj -31 56 bng 15 250 50 0 empty empty empty 17 7 0 10 -262144 -1
-1;
#X obj -27 223 pack f f f f;
#X obj -27 260 outlet;
#X obj -36 134 + \$1;
#X obj -4 135 + \$2;
#X obj 27 134 + \$3;
#X obj -4 90 f;
#X obj 62 135 + \$4;
#X obj -27 173 bng 15 250 50 0 empty empty empty 17 7 0 10 -262144
-1 -1;
#X connect 0 0 2 0;
#X connect 1 0 8 1;
#X connect 2 0 8 0;
#X connect 3 0 4 0;
#X connect 5 0 3 0;
#X connect 6 0 3 1;
#X connect 6 0 10 0;
#X connect 7 0 3 2;
#X connect 7 0 10 0;
#X connect 8 0 5 0;
#X connect 8 0 6 0;
#X connect 8 0 7 0;
#X connect 8 0 9 0;
#X connect 9 0 3 3;
#X connect 9 0 10 0;
#X connect 10 0 3 0;
