#N canvas 682 164 450 300 10;
#X obj 167 35 keyboard;
#X obj 167 64 unpack f f;
#X obj 167 91 mtof;
#X obj 167 118 osc~;
#X obj 168 201 dac~;
#N canvas 24 129 450 300 volumono 0;
#X msg 214 15 set \$1;
#X obj 195 76 line~;
#X msg 175 48 0;
#X obj 175 -29 t b b f;
#X msg 222 48 100;
#X obj 175 -58 inlet;
#X obj 146 103 *~;
#X obj 84 47 inlet~;
#X obj 147 152 outlet~;
#X floatatom 286 1 5 0 0 0 - - -;
#X obj 214 -7 / 10;
#X connect 0 0 2 0;
#X connect 1 0 6 1;
#X connect 2 0 1 0;
#X connect 3 0 2 0;
#X connect 3 1 4 0;
#X connect 3 2 9 0;
#X connect 3 2 10 0;
#X connect 4 0 1 1;
#X connect 5 0 3 0;
#X connect 6 0 8 0;
#X connect 7 0 6 0;
#X connect 10 0 0 0;
#X restore 167 164 pd volumono;
#X connect 0 0 1 0;
#X connect 1 0 2 0;
#X connect 1 1 5 1;
#X connect 2 0 3 0;
#X connect 3 0 5 0;
#X connect 5 0 4 0;
#X connect 5 0 4 1;
