#N canvas 21 51 1171 689 10;
#X obj 124 -92 openpanel;
#X obj 193 -100 f \$0;
#X obj 124 -40 pack s s;
#X obj 124 -128 t b b;
#X msg 325 -10 \; \$1 normalize 1;
#X obj 124 25 soundfiler;
#X obj 258 -6 symbol;
#X obj 124 64 bang;
#X msg 124 -7 read -resize \$1 \$2;
#X obj 124 -155 inlet;
#X obj 291 -51 makefilename %d-table;
#X obj 447 81 tabplay~;
#X obj 446 106 outlet~;
#X obj 447 -151 inlet;
#X msg 353 52 set \$1;
#X obj 198 32 file.path.split;
#X obj 239 86 s \$0-filename;
#X msg 285 57 label \$1;
#X obj 627 78 bng 15 250 50 0 empty empty abrir_wav 17 7 0 10 -262144
-1 -1;
#X msg 238 -91 color \$1 \$2;
#X obj 238 -111 pack f f;
#X obj 238 -165 inlet;
#X obj 283 -155 inlet;
#X obj 249 -130 b;
#N canvas 0 0 450 300 (subpatch) 0;
#X array \$0-table 1 float 2;
#X coords 0 1 1 -1 500 70 1;
#X restore 555 118 graph;
#X obj 558 191 hsl 495 20 0 1 0 0 empty \$0-posicao empty -2 -8 0 10
-257985 -1 -1 0 1;
#X obj 535 0 cnv 1 1 93 from_K1 to_K empty 1 13 2 14 -1 -123526 0;
#X obj 563 78 bng 15 250 50 0 empty empty toca 17 7 0 10 -262144 -1
-1;
#N canvas 133 77 1041 578 audioin 0;
#X obj 29 23 inlet~;
#X obj 128 22 inlet;
#X text 537 45 1- entrada de audio;
#X text 542 78 2 - volume do audio;
#X text 560 109 de entrada;
#X floatatom 28 243 5 0 0 0 - - -;
#X floatatom 305 279 5 0 0 0 - - -;
#X text 95 265 pitch;
#X text 321 248 envelope;
#X obj 28 210 sigmund~ -hop 4096 pitch env;
#X obj 156 89 hsl 128 15 0 0.5 0 0 empty empty empty -2 -8 0 10 -262144
-1 -1 0 1;
#X obj 28 273 int;
#X floatatom 28 306 5 0 0 0 - - -;
#X obj 27 352 moses 0;
#X floatatom 27 399 5 0 0 0 - - -;
#X floatatom 94 400 5 0 0 0 - - -;
#X floatatom 304 384 5 0 0 0 - - -;
#X floatatom 382 390 5 0 0 0 - - -;
#X obj 305 330 moses 42;
#X floatatom 381 286 5 0 0 0 - - -;
#X text 411 354 com o volume de entrada;
#X text 403 329 3 - calibrar o moses de acordo;
#X obj 713 392 timer;
#X obj 713 311 b;
#X floatatom 713 418 5 0 0 0 - - -;
#X obj 713 371 bng 15 250 50 0 empty empty empty 17 7 0 10 -262144
-1 -1;
#X obj 760 371 bng 15 250 50 0 empty empty empty 17 7 0 10 -262144
-1 -1;
#X obj 713 341 alternate;
#X obj 713 255 bonk~;
#X obj 713 284 bng 15 250 50 0 empty empty empty 17 7 0 10 -262144
-1 -1;
#X obj 60 471 outlet;
#X obj 343 458 outlet;
#X obj 670 492 outlet;
#X obj 829 499 outlet;
#X obj 833 454 send bonk;
#X obj 28 167 *~ 0.29;
#X obj 119 519 send \$0-nota;
#X obj 349 515 send \$0-vol;
#X obj 577 523 send \$0-tempo;
#X text 83 225 refazer usando note;
#X connect 0 0 35 0;
#X connect 1 0 35 1;
#X connect 5 0 11 0;
#X connect 6 0 18 0;
#X connect 9 0 5 0;
#X connect 9 1 6 0;
#X connect 10 0 35 1;
#X connect 11 0 12 0;
#X connect 12 0 13 0;
#X connect 13 0 14 0;
#X connect 13 1 15 0;
#X connect 15 0 30 0;
#X connect 15 0 36 0;
#X connect 17 0 37 0;
#X connect 17 0 31 0;
#X connect 18 0 16 0;
#X connect 18 1 17 0;
#X connect 19 0 18 1;
#X connect 22 0 24 0;
#X connect 23 0 27 0;
#X connect 24 0 32 0;
#X connect 24 0 38 0;
#X connect 25 0 22 0;
#X connect 26 0 22 1;
#X connect 27 0 25 0;
#X connect 27 1 26 0;
#X connect 28 0 29 0;
#X connect 28 0 33 0;
#X connect 28 0 34 0;
#X connect 29 0 23 0;
#X connect 35 0 9 0;
#X connect 35 0 28 0;
#X restore 179 355 pd audioin;
#X text 955 318 uma lista pra cada onset;
#X obj 483 288 pack f f f f;
#X obj 441 368 print;
#X obj 483 335 list;
#X text 954 336 tempo pitch amp timbre?;
#N canvas 285 82 882 682 textfile 0;
#X obj -73 389 textfile;
#X msg 277 47 bang;
#X msg 358 164 clear;
#X msg 277 159 print;
#X obj -73 461 prepend set;
#X msg -72 496 8514.96 51 65.3637 0;
#X obj -183 141 prepend set;
#X msg -183 174 8514.96 135 44.5813 0;
#X text -360 184 pra entrar----->;
#X text -361 167 bang aqui;
#X msg -165 252 add \$1 \$2 \$3 \$4;
#X obj -182 106 inlet;
#X msg -67 53 write textfile.txt cr;
#X msg 32 91 read textfile.txt cr;
#X obj -314 49 r bonk;
#X obj -310 86 bng 15 250 50 0 empty empty empty 17 7 0 10 -262144
-1 -1;
#X obj -140 532 outlet;
#X msg 176 49 rewind;
#X text 338 42 index por index;
#X obj -71 17 inlet;
#X obj 32 20 inlet;
#X obj 173 12 inlet;
#X obj 276 13 inlet;
#X connect 0 0 4 0;
#X connect 0 0 16 0;
#X connect 1 0 0 0;
#X connect 2 0 0 0;
#X connect 3 0 0 0;
#X connect 4 0 5 0;
#X connect 6 0 7 0;
#X connect 7 0 10 0;
#X connect 10 0 0 0;
#X connect 11 0 6 0;
#X connect 12 0 0 0;
#X connect 13 0 0 0;
#X connect 14 0 15 0;
#X connect 15 0 7 0;
#X connect 17 0 0 0;
#X connect 19 0 12 0;
#X connect 20 0 13 0;
#X connect 21 0 17 0;
#X connect 22 0 1 0;
#X restore 483 366 pd textfile;
#N canvas 0 114 732 425 textfile 0;
#X obj 243 36 inlet;
#X obj 243 86 unpack f f f f;
#X obj 243 247 /;
#X floatatom 243 291 5 0 0 0 - - posicao;
#X text 273 331 esse n vai;
#X text 275 351 pro slider;
#X obj 402 161 pitch;
#X symbolatom 413 290 10 0 0 0 - - #0-cifra;
#X floatatom 585 185 5 0 0 0 - - amplitude;
#X obj 3 169 list;
#X obj 3 204 prepend add2;
#X floatatom 118 292 10 0 0 0 - - time;
#X obj 409 38 inlet;
#X obj 19 319 outlet;
#X obj 579 225 outlet;
#X connect 0 0 1 0;
#X connect 1 0 2 0;
#X connect 1 0 9 0;
#X connect 1 0 11 0;
#X connect 1 0 13 0;
#X connect 1 1 6 0;
#X connect 1 2 8 0;
#X connect 1 2 14 0;
#X connect 2 0 3 0;
#X connect 6 1 7 0;
#X connect 9 0 10 0;
#X connect 12 0 2 1;
#X restore 483 398 pd textfile recupera dados;
#X obj 564 50 bng 15 250 50 0 empty empty grava_txt 17 7 0 10 -262144
-1 -1;
#X obj 662 50 bng 15 250 50 0 empty empty le_txt 17 7 0 10 -262144
-1 -1;
#X obj 738 49 bng 15 250 50 0 empty empty rewind_txt 17 7 0 10 -262144
-1 -1;
#X obj 729 76 bng 15 250 50 0 empty empty linha_linha 17 7 0 10 -262144
-1 -1;
#X obj 178 254 abs-sampler-table;
#X obj 964 55 nbx 10 15 -1e+37 1e+37 0 0 empty \$0-tempo sample_n 0
-15 0 10 -262144 -1 -1 0 256;
#X obj 964 95 nbx 5 15 -1e+37 1e+37 0 0 empty empty amplitude 0 -15
0 10 -262144 -1 -1 0 256;
#X obj 845 52 cnv 15 100 60 empty cifra D\$3 20 12 0 40 -233017 -66577
0;
#X text 904 345 nota;
#N canvas 152 147 954 617 index 0;
#X obj -107 -485 cnv 15 300 400 empty empty empty 20 12 0 14 -233017
-66577 0;
#X obj 3 -204 prepend set;
#X obj 111 -395 t b f;
#X obj 75 -511 inlet;
#X obj 3 -118 outlet;
#X text 195 -453 1) lista com todos index;
#X text 196 -430 2) cursor do slider;
#X text -33 -61 3) ver qual a posicao (linha) do index;
#X obj 1 -233 list-apply == \$1;
#X obj 111 -424 *;
#X floatatom 273 -383 20 0 0 0 - - -;
#X text 146 -510 aqui entra o slider;
#X msg 3 -170 0 0 0 0 0 0 0 0 0 0 0 0 0 0 0 0 0 0 0 0 0 0 0 0 0 0 0
0 0 0 0 0 0 0 0 0 0 0 0 0 0 0 0 0 0 0 0 0 0 0 0 0 0 0 0 0 0 0 0 0 0
0 0 0 0 0 0 0 0 0 0 0;
#X obj 448 -435 receive \$0-index;
#X msg 449 -316 539071 726335 727103 728639 731839 741439 765375 776383
825919 826559 827583 6975.01 14527 65727 183871 285119 398783 399935
464191 510911 539071 726335 6975.01 14527 65727 183871 285119 398783
399935 464191 510911 6975.01 14527 65727 183871 285119 398783 399935
464191 510911 539071 726335 727103 728639 731839 741439 765375 776383
825919 826559 827583 914111 925503 926399 1.0311e+06 1.16435e+06 1.20275e+06
1.29184e+06 1.31974e+06 1.32077e+06 1.3776e+06 1.47322e+06 1.57434e+06
1.67584e+06 1.81818e+06 6975.01 14527 65727 183871 285119 398783 399935
;
#X obj 316 -505 inlet;
#X connect 1 0 12 0;
#X connect 2 0 14 0;
#X connect 2 1 8 2;
#X connect 3 0 9 0;
#X connect 8 0 1 0;
#X connect 9 0 2 0;
#X connect 9 0 10 0;
#X connect 12 0 4 0;
#X connect 13 0 14 0;
#X connect 14 0 8 0;
#X connect 15 0 9 1;
#X restore 489 -73 pd index;
#N canvas 189 170 734 619 canvas 0;
#X obj 84 241 f;
#X msg 33 200 bang;
#X floatatom 183 221 3 0 1000 0 - - -;
#X obj 84 277 pack 0 0;
#X text 174 177 x-position;
#X text 216 228 y-position;
#X floatatom 430 183 4 0 0 0 - - -;
#X floatatom 487 183 4 0 0 0 - - -;
#X text 441 199 x;
#X text 498 199 y;
#X obj 430 139 unpack;
#X obj 407 251 metro 100;
#X obj 407 229 tgl 15 1 empty empty empty 20 8 0 10 -262144 -1 -1 1
1;
#X msg 84 310 \; to_K pos \$1 \$2;
#X floatatom 127 140 5 378 877 0 - - -;
#X obj 430 105 r from_K1;
#X msg 331 223 150;
#X text 86 369 x range: 378 871;
#X obj 127 82 bng 15 250 50 0 empty empty empty 17 7 0 10 -262144 -1
-1;
#X msg 406 283 \; to_K get_pos;
#X obj 127 30 inlet;
#X floatatom 25 102 5 0 0 0 - - -;
#X obj 127 106 counter 378 877;
#X text 83 396 tamanho do range: 499;
#X text 75 422 (exatamente o tamanho do array);
#X connect 0 0 3 0;
#X connect 1 0 0 0;
#X connect 2 0 3 1;
#X connect 2 0 1 0;
#X connect 3 0 13 0;
#X connect 10 0 6 0;
#X connect 10 1 7 0;
#X connect 11 0 19 0;
#X connect 12 0 11 0;
#X connect 14 0 0 1;
#X connect 14 0 1 0;
#X connect 15 0 10 0;
#X connect 16 0 3 1;
#X connect 18 0 22 0;
#X connect 20 0 18 0;
#X connect 21 0 1 0;
#X connect 21 0 0 1;
#X connect 22 0 14 0;
#X restore 610 -65 pd canvas;
#X obj 211 321 send \$0-tamanhosamp;
#X obj 244 298 send \$0-samppos;
#X obj 277 277 send \$0-posicao;
#X obj 483 262 r \$0-samppos;
#X obj 179 425 send \$0-nota;
#X obj 198 405 send \$0-vol;
#X obj 217 384 send \$0-tempo;
#X obj 636 351 r \$0-tamanhosamp;
#X symbolatom 702 -123 10 0 0 0 - - -;
#X obj 702 -66 wchars2any;
#X obj 702 -93 any2wchars;
#X obj 702 -152 r \$0-cifra;
#X obj 483 432 send \$0-index;
#X obj 536 -109 r \$0-tamanhosamp;
#X msg 702 -42 \; cifra label \$1;
#X obj 277 228 r \$0-index;
#X obj 839 -149 loadbang;
#X msg 858 -35 \; \$1 resize 1;
#X obj 923 -104 f \$0;
#X obj 923 -83 makefilename %d-table;
#X obj 858 -60 symbol;
#X obj 839 -103 t b b b;
#X obj 802 -128 bng 15 250 50 0 empty empty empty 17 7 0 10 -262144
-1 -1;
#X obj 855 -127 closebang;
#X obj 156 459 outlet;
#X text 885 276 a fazer: 1) zerar o txt;
#X connect 0 0 2 0;
#X connect 0 0 15 0;
#X connect 1 0 10 0;
#X connect 2 0 8 0;
#X connect 3 0 0 0;
#X connect 3 1 1 0;
#X connect 5 0 7 0;
#X connect 5 0 40 0;
#X connect 6 0 4 0;
#X connect 6 0 14 0;
#X connect 7 0 6 0;
#X connect 8 0 5 0;
#X connect 9 0 3 0;
#X connect 10 0 2 1;
#X connect 10 0 6 1;
#X connect 11 0 12 0;
#X connect 13 0 11 0;
#X connect 14 0 11 0;
#X connect 14 0 40 2;
#X connect 15 1 17 0;
#X connect 17 0 16 0;
#X connect 18 0 3 0;
#X connect 19 0 16 0;
#X connect 20 0 19 0;
#X connect 21 0 20 0;
#X connect 22 0 20 1;
#X connect 22 0 23 0;
#X connect 23 0 20 0;
#X connect 27 0 40 1;
#X connect 28 0 30 1;
#X connect 28 0 51 0;
#X connect 28 0 71 0;
#X connect 28 1 30 2;
#X connect 28 1 52 0;
#X connect 28 2 53 0;
#X connect 30 0 32 0;
#X connect 32 0 31 0;
#X connect 32 0 34 0;
#X connect 34 0 35 0;
#X connect 35 0 59 0;
#X connect 35 0 41 0;
#X connect 35 1 42 0;
#X connect 36 0 34 1;
#X connect 37 0 34 2;
#X connect 38 0 34 3;
#X connect 39 0 34 4;
#X connect 40 0 28 0;
#X connect 40 1 47 0;
#X connect 40 2 48 0;
#X connect 40 3 49 0;
#X connect 50 0 30 0;
#X connect 54 0 35 1;
#X connect 55 0 57 0;
#X connect 56 0 61 0;
#X connect 57 0 56 0;
#X connect 58 0 55 0;
#X connect 60 0 45 1;
#X connect 62 0 40 3;
#X connect 63 0 68 0;
#X connect 65 0 66 0;
#X connect 66 0 67 1;
#X connect 67 0 64 0;
#X connect 68 1 67 0;
#X connect 68 2 65 0;
#X connect 69 0 68 0;
#X connect 70 0 68 0;
#X coords 0 -1 1 1 550 210 1 550 10;
