#N canvas 383 257 450 300 10;
#X msg 44 66 load /usr/share/sounds/sf2/FluidR3_GM.sf2;
#X obj 67 159 fluid~;
#X msg 67 131 note 1 \$1 \$2;
#X obj 26 14 loadbang;
#X obj 67 103 keyboard;
#X obj 67 262 outlet~;
#X obj 124 221 *~;
#X obj 242 149 hsl 128 15 0 1 0 0 empty empty empty -2 -8 0 10 -262144
-1 -1 0 1;
#X obj 239 117 inlet;
#X obj 124 249 dac~;
#X connect 0 0 1 0;
#X connect 1 0 5 0;
#X connect 1 0 6 0;
#X connect 1 1 6 0;
#X connect 2 0 1 0;
#X connect 4 0 2 0;
#X connect 6 0 9 0;
#X connect 6 0 9 1;
#X connect 7 0 6 1;
#X connect 8 0 7 0;
