#N canvas 621 122 450 300 10;
#X obj 291 58 \$1;
#X obj 343 60 \$2;
#X floatatom 296 97 5 0 0 0 - - -;
#X floatatom 347 95 5 0 0 0 - - -;
#X obj 307 17 loadbang;
#X obj 296 206 outlet;
#X obj 298 134 pack f f;
#X obj 321 116 bng 15 250 50 0 empty empty empty 17 7 0 10 -262144
-1 -1;
#X connect 0 0 2 0;
#X connect 1 0 3 0;
#X connect 2 0 6 0;
#X connect 3 0 6 1;
#X connect 3 0 7 0;
#X connect 4 0 0 0;
#X connect 4 0 1 0;
#X connect 6 0 5 0;
#X connect 7 0 6 0;
