#N canvas 292 147 614 489 10;
#X text 9 93 ON;
#X text 118 93 OFF;
#X obj 27 276 +~;
#X obj 27 208 +~;
#X obj 119 212 +~;
#X obj 260 200 +~;
#X obj 28 245 +~;
#X obj 359 250 line~;
#X obj 29 319 *~;
#X msg 369 114 0.6 \, 0 100;
#X obj 29 350 *~ 0.05;
#X obj 88 116 osc~ 660;
#X obj 88 151 osc~ 660.33;
#X obj -19 118 osc~ 498;
#X obj -21 164 osc~ 498.2;
#X obj 198 109 osc~ 789;
#X obj 207 146 osc~ 789.25;
#X obj 29 390 outlet~;
#X floatatom 4 15 5 0 0 0 - - -;
#X floatatom 3 35 5 0 0 0 - - -;
#X floatatom 53 14 5 0 0 0 - - -;
#X floatatom 53 34 5 0 0 0 - - -;
#X floatatom 103 14 5 0 0 0 - - -;
#X floatatom 102 33 5 0 0 0 - - -;
#X obj 155 19 inlet;
#N canvas 0 22 450 300 (subpatch) 0;
#X coords 0 1 100 -1 200 60 1;
#X restore -1 0 graph;
#X connect 2 0 8 0;
#X connect 3 0 6 0;
#X connect 4 0 6 1;
#X connect 5 0 2 1;
#X connect 6 0 2 0;
#X connect 7 0 8 1;
#X connect 8 0 10 0;
#X connect 9 0 7 0;
#X connect 10 0 17 0;
#X connect 11 0 4 0;
#X connect 12 0 4 1;
#X connect 13 0 3 0;
#X connect 14 0 3 1;
#X connect 15 0 5 0;
#X connect 16 0 5 1;
#X connect 18 0 13 0;
#X connect 19 0 14 0;
#X connect 20 0 11 0;
#X connect 21 0 12 0;
#X connect 22 0 15 0;
#X connect 23 0 16 0;
#X connect 24 0 7 0;
#X coords 0 1 100 -1 200 60 1 0 0;
