#N canvas 0 24 1280 690 10;
#X obj 64 411 unpack 0 0 0 0;
#X obj 65 392 route 0;
#X obj 38 229 adc~;
#X obj 47 270 *~ 5;
#X obj 105 143 hsl 300 15 -1 1 0 0 empty cursor_tuner empty -2 -8 0
10 -262144 -1 -1 0 1;
#N canvas 0 0 561 343 Elow 0;
#X obj 243 120 / 2;
#X obj 371 121 / 4;
#X obj 116 205 ftom;
#X obj 116 233 - 40;
#X obj 116 184 max 0;
#X obj 116 125 change;
#X obj 243 147 change;
#X obj 371 147 change;
#X obj 116 14 inlet;
#X obj 116 270 outlet;
#X obj 116 63 expr if(77.7817<$f1 & $f1<87.3071 \, $f1 \, 0) \; if(155.563<$f1
& $f1<174.614 \, $f1 \, 0) \; if(311.127<$f1 & $f1<349.228 \, $f1 \,
0);
#X obj 194 235 pitch;
#X symbolatom 200 261 10 0 0 0 - - -;
#X floatatom 345 228 5 0 0 0 - - -;
#X obj 345 250 int;
#X obj 345 278 sel 40;
#X obj 345 304 bng 15 250 50 0 empty empty empty 17 7 0 10 -262144
-1 -1;
#X connect 0 0 6 0;
#X connect 1 0 7 0;
#X connect 2 0 3 0;
#X connect 2 0 11 0;
#X connect 2 0 13 0;
#X connect 3 0 9 0;
#X connect 4 0 2 0;
#X connect 5 0 4 0;
#X connect 6 0 4 0;
#X connect 7 0 4 0;
#X connect 8 0 10 0;
#X connect 10 0 5 0;
#X connect 10 1 0 0;
#X connect 10 2 1 0;
#X connect 11 1 12 0;
#X connect 13 0 14 0;
#X connect 14 0 15 0;
#X connect 15 0 16 0;
#X restore 12 483 pd Elow;
#N canvas 226 87 668 541 A 0;
#X obj 230 128 / 2;
#X obj 352 129 / 4;
#X obj 126 215 ftom;
#X obj 126 194 max 0;
#X obj 126 135 change;
#X obj 177 161 change;
#X obj 320 172 change;
#X obj 127 24 inlet;
#X obj 122 280 outlet;
#X obj 126 243 - 45;
#X obj 122 73 expr if(103.826<$f1 & $f1<116.541 \, $f1 \, 0) \; if(207.652<$f1
& $f1<233.082 \, $f1 \, 0) \; if(415.305<$f1 & $f1<466.164 \, $f1 \,
0);
#X connect 0 0 5 0;
#X connect 1 0 6 0;
#X connect 2 0 9 0;
#X connect 3 0 2 0;
#X connect 4 0 3 0;
#X connect 5 0 3 0;
#X connect 6 0 3 0;
#X connect 7 0 10 0;
#X connect 9 0 8 0;
#X connect 10 0 4 0;
#X connect 10 1 0 0;
#X connect 10 2 1 0;
#X restore 176 475 pd A;
#N canvas 0 0 660 373 D 0;
#X obj 240 138 / 2;
#X obj 362 139 / 4;
#X obj 136 225 ftom;
#X obj 136 204 max 0;
#X obj 136 145 change;
#X obj 187 171 change;
#X obj 330 182 change;
#X obj 137 34 inlet;
#X obj 132 290 outlet;
#X obj 136 253 - 50;
#X obj 132 83 expr if(138.591<$f1 & $f1<155.563 \, $f1 \, 0) \; if(277.183<$f1
& $f1<311.127 \, $f1 \, 0) \; if(554.365<$f1 & $f1<622.254 \, $f1 \,
0);
#X connect 0 0 5 0;
#X connect 1 0 6 0;
#X connect 2 0 9 0;
#X connect 3 0 2 0;
#X connect 4 0 3 0;
#X connect 5 0 3 0;
#X connect 6 0 3 0;
#X connect 7 0 10 0;
#X connect 9 0 8 0;
#X connect 10 0 4 0;
#X connect 10 1 0 0;
#X connect 10 2 1 0;
#X restore 233 476 pd D;
#N canvas 115 116 450 300 G 0;
#X obj 250 148 / 2;
#X obj 372 149 / 4;
#X obj 146 235 ftom;
#X obj 146 214 max 0;
#X obj 146 155 change;
#X obj 197 181 change;
#X obj 340 192 change;
#X obj 147 44 inlet;
#X obj 142 300 outlet;
#X obj 142 93 expr if(184.997<$f1 & $f1<207.652 \, $f1 \, 0) \; if(369.994<$f1
& $f1<415.305 \, $f1 \, 0) \; if(739.989<$f1 & $f1<830.609 \, $f1 \,
0);
#X obj 146 263 - 55;
#X connect 0 0 5 0;
#X connect 1 0 6 0;
#X connect 2 0 10 0;
#X connect 3 0 2 0;
#X connect 4 0 3 0;
#X connect 5 0 3 0;
#X connect 6 0 3 0;
#X connect 7 0 9 0;
#X connect 9 0 4 0;
#X connect 9 1 0 0;
#X connect 9 2 1 0;
#X connect 10 0 8 0;
#X restore 281 477 pd G;
#N canvas 0 0 450 300 B 0;
#X obj 260 158 / 2;
#X obj 382 159 / 4;
#X obj 156 245 ftom;
#X obj 156 224 max 0;
#X obj 156 165 change;
#X obj 207 191 change;
#X obj 350 202 change;
#X obj 157 54 inlet;
#X obj 152 310 outlet;
#X obj 156 273 - 59;
#X obj 152 103 expr if(233.082<$f1 & $f1<261.626 \, $f1 \, 0) \; if(466.164<$f1
& $f1<523.251 \, $f1 \, 0) \; if(932.328<$f1 & $f1<1046.5 \, $f1 \,
0);
#X connect 0 0 5 0;
#X connect 1 0 6 0;
#X connect 2 0 9 0;
#X connect 3 0 2 0;
#X connect 4 0 3 0;
#X connect 5 0 3 0;
#X connect 6 0 3 0;
#X connect 7 0 10 0;
#X connect 9 0 8 0;
#X connect 10 0 4 0;
#X connect 10 1 0 0;
#X connect 10 2 1 0;
#X restore 330 479 pd B;
#N canvas 0 0 450 300 E 0;
#X obj 270 168 / 2;
#X obj 392 169 / 4;
#X obj 166 255 ftom;
#X obj 166 234 max 0;
#X obj 166 175 change;
#X obj 217 201 change;
#X obj 360 212 change;
#X obj 167 64 inlet;
#X obj 162 320 outlet;
#X obj 166 283 - 64;
#X obj 162 113 expr if(311.127<$f1 & $f1<349.228 \, $f1 \, 0) \; if(622.254<$f1
& $f1<698.456 \, $f1 \, 0) \; if(1244.51<$f1 & $f1<1396.91 \, $f1 \,
0);
#X connect 0 0 5 0;
#X connect 1 0 6 0;
#X connect 2 0 9 0;
#X connect 3 0 2 0;
#X connect 4 0 3 0;
#X connect 5 0 3 0;
#X connect 6 0 3 0;
#X connect 7 0 10 0;
#X connect 9 0 8 0;
#X connect 10 0 4 0;
#X connect 10 1 0 0;
#X connect 10 2 1 0;
#X restore 388 480 pd E;
#X obj 64 565 s cursor_tuner;
#N canvas 178 24 804 492 (subpatch) 0;
#X array Tuner_ticks 12 float 3;
#A 0 0 0 0 0 0 0 0 0 0 0 0 0;
#X coords 0 1 12 0 300 10 1;
#X restore 105 131 graph;
#X msg 84 347 npts 8192;
#X floatatom 237 158 7 0 0 0 - - -;
#X obj 166 291 loadbang;
#X msg 166 312 \; Tuner_ticks xticks 6 1 1;
#X obj 373 101 tgl 30 0 empty empty empty 17 7 0 10 -262144 -1 -1 1
1;
#X obj 475 220 switch~;
#X obj 402 17 loadbang;
#X msg 395 61 0;
#X text 250 110 |;
#X floatatom 433 425 5 0 0 0 - - -;
#X floatatom 346 434 5 0 0 0 - - -;
#N canvas 0 0 450 300 (subpatch) 0;
#X array sample 271101 float 2;
#X coords 0 1 271101 -1 200 140 1;
#X restore 634 362 graph;
#X obj 509 570 soundfiler;
#X msg 509 531 read -resize /home/livre/pesquisa/SINCOPA/samples/guit2.wav
sample;
#X floatatom 11 455 5 0 0 0 - - -;
#X obj 427 309 tabplay~ sample;
#X obj 427 284 bng 15 250 50 0 empty empty empty 17 7 0 10 -262144
-1 -1;
#X obj 443 354 ezdac~;
#X msg 458 277 bang;
#X obj 432 447 int;
#X obj 434 475 pitch;
#X symbolatom 438 501 10 0 0 0 - - -;
#N canvas 0 0 561 343 Flow 1;
#X obj 243 120 / 2;
#X obj 371 121 / 4;
#X obj 116 205 ftom;
#X obj 116 233 - 40;
#X obj 116 184 max 0;
#X obj 116 125 change;
#X obj 243 147 change;
#X obj 371 147 change;
#X obj 116 14 inlet;
#X obj 116 270 outlet;
#X obj 194 235 pitch;
#X symbolatom 200 261 10 0 0 0 - - -;
#X floatatom 345 228 5 0 0 0 - - -;
#X obj 345 250 int;
#X obj 345 278 sel 40;
#X obj 345 304 bng 15 250 50 0 empty empty empty 17 7 0 10 -262144
-1 -1;
#X obj 116 63 expr if(82.4068<$f1 & $f1<87.3071 \, $f1 \, 0) \; if(164.8137<$f1
& $f1<174.614 \, $f1 \, 0) \; if(329.6275<$f1 & $f1<349.228 \, $f1
\, 0);
#X connect 0 0 6 0;
#X connect 1 0 7 0;
#X connect 2 0 3 0;
#X connect 2 0 10 0;
#X connect 2 0 12 0;
#X connect 3 0 9 0;
#X connect 4 0 2 0;
#X connect 5 0 4 0;
#X connect 6 0 4 0;
#X connect 7 0 4 0;
#X connect 8 0 16 0;
#X connect 10 1 11 0;
#X connect 12 0 13 0;
#X connect 13 0 14 0;
#X connect 14 0 15 0;
#X connect 16 0 5 0;
#X connect 16 1 0 0;
#X connect 16 2 1 0;
#X restore 62 483 pd Flow;
#X obj 423 539 bng 15 250 50 0 empty empty empty 17 7 0 10 -262144
-1 -1;
#X obj 408 565 counter;
#X floatatom 409 589 5 0 0 0 - - -;
#X obj 646 61 counter 8;
#X floatatom 359 527 5 0 0 0 - - -;
#X obj 344 557 s nota;
#X obj 562 19 r nota;
#X obj 564 43 t f b;
#N canvas 0 0 450 300 (subpatch) 0;
#X array nota 8 float 3;
#A 0 60 54 50 52 53 55 57 59;
#X coords 0 127 8 0 200 140 1;
#X restore 627 155 graph;
#X obj 570 89 tabwrite nota;
#X obj 667 28 bng 15 250 50 0 empty empty empty 17 7 0 10 -262144 -1
-1;
#X text 689 27 reset;
#X obj 926 87 probalizer 200 200 127 30 1 0 0 1 0 2 0 3 0 4 0 5 0 6
0 7 0 8 0 9 0 10 0 11 0 12 0 13 0 14 0 15 0 16 0 17 0 18 0 19 0 20
0 21 0 22 0 23 0 24 0 25 0 26 0 27 0 28 0 29 0 30 0 31 0 32 0 33 0
34 0 35 0 36 0 37 0 38 0 39 0 40 0 41 0 42 0 43 0 44 0 45 0 46 0 47
3 48 0 49 3 50 0 51 3 52 3 53 3 54 3 55 0 56 3 57 0 58 4 59 3 60 2
61 0 62 0 63 0 64 0 65 0 66 0 67 0 68 0 69 0 70 0 71 0 72 0 73 0 74
0 75 0 76 0 77 0 78 0 79 0 80 0 81 0 82 0 83 0 84 0 85 0 86 0 87 0
88 0 89 0 90 0 91 0 92 0 93 0 94 0 95 0 96 0 97 0 98 0 99 0 100 0 101
0 102 0 103 0 104 0 105 0 106 0 107 0 108 0 109 0 110 0 111 0 112 0
113 0 114 0 115 0 116 0 117 0 118 0 119 0 120 0 121 0 122 0 123 0 124
0 125 0 126 0;
#X msg 979 47 zero;
#X obj 906 30 r nota;
#X obj 881 59 bng 15 250 50 0 empty empty empty 17 7 0 10 -262144 -1
-1;
#X floatatom 924 308 5 0 0 0 - - -;
#X obj 65 372 sigmund~ -npeak 4 peaks notes;
#X msg 588 569 \; sample normalize 0.3;
#N canvas 0 0 450 300 gerador 1;
#X restore 913 374 pd gerador probabilidade;
#N canvas 0 0 450 300 gerador 1;
#X restore 911 411 pd gerador manipula pitch;
#N canvas 0 0 450 300 harmonizador 1;
#X obj 85 133;
#X restore 911 449 pd harmonizador;
#N canvas 0 0 450 300 transforma 0;
#X restore 914 482 pd transforma audio;
#X connect 0 0 5 0;
#X connect 0 0 6 0;
#X connect 0 0 7 0;
#X connect 0 0 8 0;
#X connect 0 0 9 0;
#X connect 0 0 10 0;
#X connect 0 0 23 0;
#X connect 0 0 27 0;
#X connect 0 0 35 0;
#X connect 1 0 0 0;
#X connect 2 0 3 0;
#X connect 4 0 14 0;
#X connect 5 0 11 0;
#X connect 6 0 11 0;
#X connect 7 0 11 0;
#X connect 8 0 11 0;
#X connect 9 0 11 0;
#X connect 10 0 11 0;
#X connect 13 0 53 0;
#X connect 15 0 16 0;
#X connect 15 0 13 0;
#X connect 17 0 18 0;
#X connect 19 0 20 0;
#X connect 20 0 17 0;
#X connect 22 0 32 0;
#X connect 26 0 25 0;
#X connect 28 0 30 0;
#X connect 28 0 30 1;
#X connect 28 0 53 0;
#X connect 29 0 28 0;
#X connect 31 0 28 0;
#X connect 32 0 33 0;
#X connect 33 0 40 0;
#X connect 33 1 34 0;
#X connect 34 0 36 0;
#X connect 36 0 37 0;
#X connect 37 0 38 0;
#X connect 39 0 45 1;
#X connect 40 0 41 0;
#X connect 42 0 43 0;
#X connect 43 0 45 0;
#X connect 43 1 39 0;
#X connect 46 0 39 2;
#X connect 48 0 52 0;
#X connect 49 0 48 0;
#X connect 50 0 48 0;
#X connect 51 0 48 0;
#X connect 53 0 1 0;
#X connect 53 1 22 0;
#X coords 0 -1 1 1 310 75 1 100 100;
