#N canvas 143 25 1077 692 10;
#X obj 45 160 outlet;
#X text 443 190 chosen ED;
#X text 221 160 row index;
#X floatatom 183 160 0 0 0 0 - - -;
#X floatatom 444 169 0 0 0 0 - - -;
#X obj 45 63 inlet;
#X obj 45 97 tgl 15 0 empty empty empty 0 -6 0 8 -262144 -1 -1 0 1
;
#X floatatom 473 84 0 0 0 0 - - -;
#X floatatom 574 85 0 0 0 0 - - -;
#X floatatom 203 93 0 0 0 0 - - -;
#X floatatom 116 91 0 0 0 0 - - -;
#X text 201 68 max. ED;
#X text 115 68 min. ED;
#X text 573 62 brownian factor;
#X text 470 61 ED-values;
#X text 292 213 max. ED;
#X text 182 215 min. ED;
#X obj 186 196 hsl 128 15 0 127 0 0 empty empty empty -2 -6 0 8 -262144
-1 -1 0 1;
#X obj 45 126 brown-rhythm 75 1000 24 0.07;
#X obj 22 225 bng 15 250 50 0 empty empty empty 17 7 0 10 -262144 -1
-1;
#X text 159 25 ED = Entry Delays;
#X text 702 29 problema:;
#X text 697 53 * como alimentar as entradas desse objeto com parametros
extraidos da performance musical;
#N canvas 0 0 1031 504 (subpatch) 0;
#X array ritmos 8 float 1;
#A 0 1785.03 413.605 267.029 1330.79 883.81 1304.67 1779.23 251.066
;
#X coords 0 5000 7 50 200 140 1 0 0;
#X restore 785 347 graph;
#X obj 9 380 timer;
#X obj 9 349 t b b;
#X obj 9 273 key;
#X obj 9 309 select 32;
#X obj 48 513 list prepend 0;
#X obj 9 486 t a a a;
#X msg 242 434 resize \$1;
#X floatatom 242 408 5 0 0 0 - - -;
#X msg 242 382 8;
#X msg 279 381 16;
#N canvas 0 0 778 583 last-x 0;
#X obj 153 175 cnv 15 150 80 empty empty empty 20 12 0 14 -233017 -66577
0;
#X floatatom 370 79 5 0 0 2 change-size - -;
#X obj 326 112 t f b;
#X text 378 110 first reset (b) \, then set new length (f).;
#X text 311 195 Right outlet is responsible to first fill the list
;
#X text 312 211 Left outlet then only lets the smaller list pass.;
#X obj 180 183 list;
#X obj 326 54 inlet;
#X obj 180 149 inlet;
#X obj 180 302 outlet;
#X obj 180 228 list split \$1;
#X obj 326 78 f \$1;
#X connect 1 0 2 0;
#X connect 2 0 10 1;
#X connect 2 1 6 1;
#X connect 6 0 10 0;
#X connect 7 0 11 0;
#X connect 8 0 6 0;
#X connect 10 0 6 1;
#X connect 10 0 9 0;
#X connect 10 2 6 1;
#X connect 11 0 2 0;
#X restore 9 452 pd last-x;
#X obj 242 357 loadbang;
#N canvas 112 376 872 310 tamanho-filtro 0;
#X obj 200 256 outlet;
#X obj 297 223 outlet;
#X obj 297 189 b;
#X obj 200 120 moses 2000;
#X text 305 122 filter viable range \, reset else (Handel \, 1989)
;
#X obj 123 64 inlet;
#X obj 123 90 moses 50;
#X text 368 218 reset timer from here;
#X connect 2 0 1 0;
#X connect 3 0 0 0;
#X connect 3 1 2 0;
#X connect 5 0 6 0;
#X connect 6 0 2 0;
#X connect 6 1 3 0;
#X restore 9 418 pd tamanho-filtro;
#X obj 106 451 r buffer-size;
#X obj 354 460 s buffer-size;
#X obj 242 477 s ritmos;
#X obj 48 543 s ritmos;
#X obj 176 537 prepend set;
#X msg 176 573 1785.03 413.605 267.029 1330.79 883.81 1304.67 1779.23
251.066;
#X text 705 99 1) descobrir menor e maior valor (min ED max ED);
#X text 709 127 2) ED-values seria o tamanho de "ritmos" ?;
#X text 705 149 3) brownian factor estaria ligado a alguma razao;
#X text 722 169 entre os valores de ritmos;
#X obj 565 341 tabletool ritmos;
#X msg 565 255 min;
#X msg 579 275 max;
#X floatatom 562 406 5 0 0 0 - - -;
#X msg 632 275 mean;
#X msg 644 303 geomean;
#X text 673 272 media aritmetica;
#X text 704 303 media geometrica;
#X text 536 451 o brownian factor aqui e uma subtracao;
#X text 536 489 geometrica;
#X text 536 470 entre a media aritmetica e a media;
#X floatatom 660 382 5 0 0 0 - - -;
#X connect 3 0 17 0;
#X connect 5 0 6 0;
#X connect 6 0 18 0;
#X connect 7 0 18 3;
#X connect 8 0 18 4;
#X connect 9 0 18 2;
#X connect 10 0 18 1;
#X connect 18 0 0 0;
#X connect 18 0 19 0;
#X connect 18 1 3 0;
#X connect 18 2 4 0;
#X connect 24 0 36 0;
#X connect 25 0 24 0;
#X connect 25 1 24 1;
#X connect 26 0 27 0;
#X connect 27 0 25 0;
#X connect 28 0 40 0;
#X connect 29 2 28 0;
#X connect 29 2 41 0;
#X connect 30 0 39 0;
#X connect 31 0 30 0;
#X connect 31 0 38 0;
#X connect 32 0 31 0;
#X connect 33 0 31 0;
#X connect 34 0 29 0;
#X connect 35 0 32 0;
#X connect 36 0 34 0;
#X connect 36 1 24 0;
#X connect 37 0 34 1;
#X connect 41 0 42 0;
#X connect 47 0 50 0;
#X connect 47 1 58 0;
#X connect 48 0 47 0;
#X connect 49 0 47 0;
#X connect 51 0 47 0;
#X connect 52 0 47 0;
