#N canvas 0 0 450 300 10;
#X obj 191 64 adc~;
#X obj 106 117 mono-delayfb /key;
#X obj 65 263 ezdac~;
#X obj 372 188 mono-wetfilter /key;
#X obj 295 303 ezdac~;
#X obj 207 414 mono-vcf /key;
#X obj 208 483 ezdac~;
#X obj 412 356 mono-pureverb4 /key;
#X obj 411 433 ezdac~;
#X connect 0 1 1 0;
#X connect 0 1 3 0;
#X connect 0 1 5 0;
#X connect 0 1 7 0;
#X connect 1 0 2 1;
#X connect 1 0 2 0;
#X connect 3 0 4 1;
#X connect 3 0 4 0;
#X connect 5 0 6 0;
#X connect 5 0 6 1;
#X connect 7 0 8 0;
#X connect 7 0 8 1;
