#N canvas 133 25 891 681 16;
#N canvas 519 25 635 608 output 0;
#X floatatom 202 384 0 0 0 0 - - -;
#X obj 85 440 pitch2note 4;
#X obj 85 273 permutate;
#X obj 309 330 hradio 15 1 0 3 empty empty empty 0 -6 0 8 -262144 -1
-1 0;
#X obj 85 304 t a a;
#X obj 202 411 + 0;
#X floatatom 281 412 5 0 0 1 oitava - -;
#X obj 89 87 tabdump notas;
#X obj 89 119 prepend set;
#X msg 89 150 5 5 5 4;
#X obj 67 60 bng 15 250 50 0 empty empty empty 17 7 0 10 -262144 -1
-1;
#X obj 281 389 hradio 15 1 0 8 empty empty empty 0 -8 0 10 -262144
-1 -1 0;
#X text 364 323 distribuicao dos registros;
#X obj 242 410 - 2;
#X obj 67 27 inlet;
#X obj 85 485 play2 60 500 1 1;
#N canvas 63 44 340 273 registro 0;
#X floatatom 131 141 0 0 0 0 - - -;
#X obj 38 207 outlet;
#X obj 38 171 brownian 3 8 0.3;
#X text 179 142 brown factor;
#X msg 131 107 0.3;
#X msg 163 107 0;
#X msg 194 107 1;
#X obj 131 76 sel 0 1;
#X obj 131 46 inlet;
#X obj 38 46 inlet;
#X connect 0 0 2 3;
#X connect 2 0 1 0;
#X connect 4 0 0 0;
#X connect 5 0 0 0;
#X connect 6 0 0 0;
#X connect 7 0 4 0;
#X connect 7 1 5 0;
#X connect 7 2 6 0;
#X connect 8 0 7 0;
#X connect 9 0 2 0;
#X restore 202 356 pd registro;
#X msg 322 540 prog 1 \$1;
#X obj 322 489 hradio 15 1 0 8 empty empty program_change 0 -6 0 8
-262144 -1 -1 0;
#X obj 322 508 + 1;
#X obj 287 36 inlet;
#X obj 487 369 inlet;
#X floatatom 283 133 5 0 0 0 - - -;
#X obj 283 169 pitch;
#X symbolatom 294 224 10 0 0 0 - - -;
#X msg 430 220 label \$1;
#X obj 430 254 s nota_saida;
#X connect 0 0 5 0;
#X connect 1 0 15 0;
#X connect 1 0 22 0;
#X connect 2 0 4 0;
#X connect 3 0 16 1;
#X connect 4 0 1 0;
#X connect 4 1 16 0;
#X connect 5 0 1 1;
#X connect 6 0 13 0;
#X connect 7 0 8 0;
#X connect 8 0 9 0;
#X connect 9 0 2 1;
#X connect 10 0 7 0;
#X connect 10 0 9 0;
#X connect 11 0 6 0;
#X connect 13 0 5 1;
#X connect 14 0 10 0;
#X connect 16 0 0 0;
#X connect 17 0 15 4;
#X connect 18 0 19 0;
#X connect 19 0 17 0;
#X connect 20 0 2 0;
#X connect 21 0 15 1;
#X connect 22 0 23 0;
#X connect 23 1 24 0;
#X connect 24 0 25 0;
#X connect 25 0 26 0;
#X restore 31 634 pd output;
#X obj 31 604 bng 15 250 50 0 empty empty empty 17 7 0 10 -262144 -1
-1;
#X text 594 45 1) entrada de;
#X text 623 62 audio;
#N canvas 95 25 1041 578 audioin 0;
#X obj 29 23 inlet~;
#X obj 128 22 inlet;
#X text 537 45 1- entrada de audio;
#X text 542 78 2 - volume do audio;
#X text 560 109 de entrada;
#X floatatom 28 243 5 0 0 0 - - -;
#X floatatom 305 279 5 0 0 0 - - -;
#X text 95 265 pitch;
#X text 321 248 envelope;
#X obj 28 210 sigmund~ -hop 4096 pitch env;
#X obj 156 89 hsl 128 15 0 0.5 0 0 empty empty empty -2 -8 0 10 -262144
-1 -1 0 1;
#X obj 28 273 int;
#X floatatom 28 306 5 0 0 0 - - -;
#X obj 27 352 moses 0;
#X floatatom 27 399 5 0 0 0 - - -;
#X floatatom 94 400 5 0 0 0 - - -;
#X obj 28 167 *~ 0.015;
#X floatatom 304 384 5 0 0 0 - - -;
#X floatatom 382 390 5 0 0 0 - - -;
#X obj 305 330 moses 42;
#X floatatom 381 286 5 0 0 0 - - -;
#X text 411 354 com o volume de entrada;
#X text 403 329 3 - calibrar o moses de acordo;
#X obj 713 392 timer;
#X obj 713 311 b;
#X floatatom 713 418 5 0 0 0 - - -;
#X obj 713 371 bng 15 250 50 0 empty empty empty 17 7 0 10 -262144
-1 -1;
#X obj 760 371 bng 15 250 50 0 empty empty empty 17 7 0 10 -262144
-1 -1;
#X obj 713 341 alternate;
#X obj 713 255 bonk~;
#X obj 713 284 bng 15 250 50 0 empty empty empty 17 7 0 10 -262144
-1 -1;
#X obj 94 452 outlet;
#X obj 259 454 outlet;
#X obj 712 493 outlet;
#X obj 809 494 outlet;
#X obj 259 421 int;
#X floatatom 355 451 5 0 0 0 - - -;
#X obj 833 449 s bong;
#X obj 878 190 counter;
#X floatatom 878 221 5 0 0 0 - - -;
#X obj 911 137 bng 15 250 50 0 empty empty empty 17 7 0 10 -262144
-1 -1;
#X obj 878 139 tgl 15 0 empty empty empty 17 7 0 10 -262144 -1 -1 1
1;
#X obj 878 162 metro 100;
#X floatatom 878 276 5 0 0 0 - - -;
#X text 890 333 silencio pra \; parar;
#X obj 878 311 s stop;
#X obj 911 101 r bong;
#X obj 878 60 loadbang;
#X obj 878 249 > 100;
#X obj 732 196 hsl 128 15 0 0.5 0 0 empty empty empty -2 -8 0 10 -262144
-1 -1 0 1;
#X obj 713 224 *~ 0.1;
#X floatatom 780 256 5 0 0 0 - - -;
#X obj 355 491 s vol_in;
#X text 450 493 0 - 26;
#X connect 0 0 16 0;
#X connect 0 0 50 0;
#X connect 1 0 16 1;
#X connect 5 0 11 0;
#X connect 6 0 19 0;
#X connect 6 0 35 0;
#X connect 9 0 5 0;
#X connect 9 1 6 0;
#X connect 10 0 16 1;
#X connect 11 0 12 0;
#X connect 12 0 13 0;
#X connect 13 0 14 0;
#X connect 13 1 15 0;
#X connect 15 0 31 0;
#X connect 16 0 9 0;
#X connect 19 0 17 0;
#X connect 19 1 18 0;
#X connect 20 0 19 1;
#X connect 23 0 25 0;
#X connect 24 0 28 0;
#X connect 25 0 33 0;
#X connect 26 0 23 0;
#X connect 27 0 23 1;
#X connect 28 0 26 0;
#X connect 28 1 27 0;
#X connect 29 0 30 0;
#X connect 29 0 34 0;
#X connect 29 0 37 0;
#X connect 30 0 24 0;
#X connect 35 0 32 0;
#X connect 35 0 36 0;
#X connect 36 0 52 0;
#X connect 38 0 39 0;
#X connect 39 0 48 0;
#X connect 40 0 38 2;
#X connect 41 0 42 0;
#X connect 42 0 38 0;
#X connect 43 0 45 0;
#X connect 46 0 40 0;
#X connect 47 0 41 0;
#X connect 48 0 43 0;
#X connect 49 0 50 1;
#X connect 49 0 51 0;
#X connect 50 0 29 0;
#X restore 31 209 pd audioin;
#X text 143 204 2) analise de;
#X text 174 221 audio;
#N canvas 81 35 845 687 grava_notas 0;
#X floatatom 36 207 5 0 0 0 - - -;
#X obj 36 245 int;
#X floatatom 36 295 5 0 0 0 - - -;
#X obj 36 331 pitch;
#X floatatom 36 413 5 0 0 0 - - -;
#X symbolatom 47 386 10 0 0 0 - - -;
#X floatatom 59 360 5 0 0 0 - - -;
#N canvas 0 0 450 300 (subpatch) 0;
#X array notas 4 float 3;
#A 0 5 5 7 4;
#X coords 0 127 4 0 200 140 1;
#X restore 578 414 graph;
#X obj 36 476 s nota;
#X obj 156 234 tabwrite notas;
#X floatatom 307 208 5 0 0 0 - - -;
#X obj 156 191 spigot;
#X obj 253 137 tgl 15 0 empty empty gravar_sequencia_de_4_notas 17
-10 0 20 -258113 -1 -1 0 1;
#X obj 292 148 bng 15 250 50 0 empty empty empty 17 7 0 10 -262144
-1 -1;
#X obj 293 171 counter 3;
#X obj 329 299 tabdump notas;
#X obj 329 331 prepend set;
#X msg 329 362 5 5 5 4;
#X obj 307 272 bng 15 250 50 0 empty empty empty 17 7 0 10 -262144
-1 -1;
#X obj 172 589 colecao_vs_pitch;
#X obj 172 629 bng 15 250 50 0 empty empty empty 17 7 0 10 -262144
-1 -1;
#X obj 156 137 t f f;
#X obj 329 629 bng 15 250 50 0 empty empty empty 17 7 0 10 -262144
-1 -1;
#X obj 307 245 sel 3;
#X text 354 623 -------> como decidir se a nova nota entra \; na lista
ou nao;
#X text 133 622 sim;
#X text 292 622 nao;
#N canvas 396 206 628 521 contador_pitchs 0;
#X obj 63 19 inlet;
#X obj 63 68 sel 0 1 2 3 4 5 6 7 8 9 10 11;
#X obj 63 265 counter;
#X obj 86 213 counter;
#X obj 110 161 counter;
#X obj 134 108 counter;
#X obj 63 321 bng 15 250 50 0 empty empty empty 17 7 0 10 -262144 -1
-1;
#X obj 88 321 bng 15 250 50 0 empty empty empty 17 7 0 10 -262144 -1
-1;
#X obj 110 322 bng 15 250 50 0 empty empty empty 17 7 0 10 -262144
-1 -1;
#X obj 135 322 bng 15 250 50 0 empty empty empty 17 7 0 10 -262144
-1 -1;
#X obj 159 265 counter;
#X obj 182 213 counter;
#X obj 206 161 counter;
#X obj 230 108 counter;
#X obj 159 321 bng 15 250 50 0 empty empty empty 17 7 0 10 -262144
-1 -1;
#X obj 184 321 bng 15 250 50 0 empty empty empty 17 7 0 10 -262144
-1 -1;
#X obj 206 322 bng 15 250 50 0 empty empty empty 17 7 0 10 -262144
-1 -1;
#X obj 231 322 bng 15 250 50 0 empty empty empty 17 7 0 10 -262144
-1 -1;
#X obj 255 265 counter;
#X obj 278 213 counter;
#X obj 302 161 counter;
#X obj 326 108 counter;
#X obj 255 321 bng 15 250 50 0 empty empty empty 17 7 0 10 -262144
-1 -1;
#X obj 280 321 bng 15 250 50 0 empty empty empty 17 7 0 10 -262144
-1 -1;
#X obj 302 322 bng 15 250 50 0 empty empty empty 17 7 0 10 -262144
-1 -1;
#X obj 327 322 bng 15 250 50 0 empty empty empty 17 7 0 10 -262144
-1 -1;
#X obj 63 291 sel 3;
#X obj 86 239 sel 3;
#X obj 110 188 sel 3;
#X obj 134 134 sel 3;
#X obj 230 134 sel 3;
#X obj 206 188 sel 3;
#X obj 182 239 sel 3;
#X obj 159 291 sel 3;
#X obj 255 291 sel 3;
#X obj 278 239 sel 3;
#X obj 302 188 sel 3;
#X obj 326 134 sel 3;
#X msg 63 343 0;
#X msg 88 373 1;
#X msg 110 342 2;
#X msg 135 374 3;
#X msg 159 344 4;
#X msg 184 374 5;
#X msg 206 346 6;
#X msg 231 375 7;
#X msg 255 347 8;
#X msg 280 374 9;
#X msg 302 348 10;
#X msg 327 375 11;
#X obj 192 457 outlet;
#X obj 438 51 bng 15 250 50 0 empty empty empty 17 7 0 10 -262144 -1
-1;
#X text 457 42 reset;
#X text 458 58 geral;
#X obj 436 201 f;
#X msg 463 162 2;
#X obj 436 165 bng 15 250 50 0 empty empty empty 17 7 0 10 -262144
-1 -1;
#X text 476 201 permeabilidade;
#X text 545 182 grau de;
#X text 405 247 (quantas vezes \; precisa aparecer \; uma nota pra
ela \; fazer parte do campo \; harmonico);
#X text 460 219 de modulacao ou:;
#X obj 462 101 loadbang;
#X obj 462 129 t b b;
#X connect 0 0 1 0;
#X connect 1 0 2 0;
#X connect 1 1 3 0;
#X connect 1 2 4 0;
#X connect 1 3 5 0;
#X connect 1 4 10 0;
#X connect 1 5 11 0;
#X connect 1 6 12 0;
#X connect 1 7 13 0;
#X connect 1 8 18 0;
#X connect 1 9 19 0;
#X connect 1 10 20 0;
#X connect 1 11 21 0;
#X connect 2 0 26 0;
#X connect 3 0 27 0;
#X connect 4 0 28 0;
#X connect 5 0 29 0;
#X connect 6 0 2 2;
#X connect 6 0 38 0;
#X connect 7 0 3 2;
#X connect 7 0 39 0;
#X connect 8 0 4 2;
#X connect 8 0 40 0;
#X connect 9 0 5 2;
#X connect 9 0 41 0;
#X connect 10 0 33 0;
#X connect 11 0 32 0;
#X connect 12 0 31 0;
#X connect 13 0 30 0;
#X connect 14 0 10 2;
#X connect 14 0 42 0;
#X connect 15 0 11 2;
#X connect 15 0 43 0;
#X connect 16 0 12 2;
#X connect 16 0 44 0;
#X connect 17 0 13 2;
#X connect 17 0 45 0;
#X connect 18 0 34 0;
#X connect 19 0 35 0;
#X connect 20 0 36 0;
#X connect 21 0 37 0;
#X connect 22 0 18 2;
#X connect 22 0 46 0;
#X connect 23 0 19 2;
#X connect 23 0 47 0;
#X connect 24 0 20 2;
#X connect 24 0 48 0;
#X connect 25 0 21 2;
#X connect 25 0 49 0;
#X connect 26 0 6 0;
#X connect 27 0 7 0;
#X connect 28 0 8 0;
#X connect 29 0 9 0;
#X connect 30 0 17 0;
#X connect 31 0 16 0;
#X connect 32 0 15 0;
#X connect 33 0 14 0;
#X connect 34 0 22 0;
#X connect 35 0 23 0;
#X connect 36 0 24 0;
#X connect 37 0 25 0;
#X connect 38 0 50 0;
#X connect 39 0 50 0;
#X connect 40 0 50 0;
#X connect 41 0 50 0;
#X connect 42 0 50 0;
#X connect 43 0 50 0;
#X connect 44 0 50 0;
#X connect 45 0 50 0;
#X connect 46 0 50 0;
#X connect 47 0 50 0;
#X connect 48 0 50 0;
#X connect 49 0 50 0;
#X connect 51 0 2 2;
#X connect 51 0 10 2;
#X connect 51 0 18 2;
#X connect 51 0 3 2;
#X connect 51 0 11 2;
#X connect 51 0 19 2;
#X connect 51 0 4 2;
#X connect 51 0 12 2;
#X connect 51 0 20 2;
#X connect 51 0 5 2;
#X connect 51 0 13 2;
#X connect 51 0 21 2;
#X connect 54 0 29 1;
#X connect 54 0 30 1;
#X connect 54 0 37 1;
#X connect 54 0 36 1;
#X connect 54 0 31 1;
#X connect 54 0 28 1;
#X connect 54 0 35 1;
#X connect 54 0 32 1;
#X connect 54 0 27 1;
#X connect 54 0 34 1;
#X connect 54 0 33 1;
#X connect 54 0 26 1;
#X connect 55 0 54 1;
#X connect 56 0 54 0;
#X connect 61 0 62 0;
#X connect 62 0 56 0;
#X connect 62 1 55 0;
#X restore 253 18 pd contador_pitchs;
#X obj 36 171 change;
#X obj 253 47 t b f b;
#X msg 356 79 1;
#X floatatom 297 79 5 0 0 0 - - -;
#X msg 253 77 0;
#X obj 383 465 outlet;
#X obj 36 53 inlet;
#X text 451 15 a nota so entra se aparecer x vezes;
#X text 451 40 x = grau de permeabilidade;
#X obj 183 416 s nota_atual;
#X msg 183 382 label \$1;
#X connect 0 0 1 0;
#X connect 1 0 2 0;
#X connect 2 0 3 0;
#X connect 3 0 4 0;
#X connect 3 1 5 0;
#X connect 3 2 6 0;
#X connect 4 0 8 0;
#X connect 4 0 19 0;
#X connect 5 0 38 0;
#X connect 6 0 21 0;
#X connect 6 0 27 0;
#X connect 10 0 23 0;
#X connect 11 0 9 0;
#X connect 12 0 11 1;
#X connect 13 0 14 0;
#X connect 14 0 9 1;
#X connect 14 0 10 0;
#X connect 15 0 16 0;
#X connect 16 0 17 0;
#X connect 17 0 19 1;
#X connect 18 0 15 0;
#X connect 18 0 17 0;
#X connect 18 0 33 0;
#X connect 19 0 20 0;
#X connect 19 2 22 0;
#X connect 21 0 11 0;
#X connect 21 1 14 0;
#X connect 23 0 18 0;
#X connect 27 0 29 0;
#X connect 28 0 0 0;
#X connect 29 0 32 0;
#X connect 29 1 31 0;
#X connect 29 2 30 0;
#X connect 30 0 12 0;
#X connect 31 0 21 0;
#X connect 32 0 12 0;
#X connect 34 0 28 0;
#X connect 38 0 37 0;
#X restore 31 281 pd grava_notas;
#X text 180 280 3) determina colecao de notas \; e grau de permeabilidade
dessa \; colecao \;;
#X obj 118 514 bng 15 50 50 0 empty empty empty 0 -6 0 8 -262144 -1
-1;
#X obj 118 454 hradio 15 1 0 4 empty empty empty 0 -6 0 8 -262144 -1
-1 0;
#X obj 593 213 cnv 15 100 60 empty \$0-quality instavel 10 35 0 30
-191407 -1 0;
#N canvas 0 34 1012 668 calcula 0;
#X obj 149 130 timer;
#X obj 149 99 t b b;
#X obj 149 23 key;
#X obj 149 59 select 32;
#X obj 149 364 /;
#X floatatom 170 391 5 0 0 0 - - -;
#X obj 554 275 list prepend 0;
#N canvas 0 0 450 300 (subpatch) 0;
#X array \$0-taps 8 float 0;
#X coords 0 1000 7 50 200 140 1 0 0;
#X restore 742 372 graph;
#X obj 947 374 vsl 15 135 50 1000 0 0 empty \$0-gmean gm 0 -9 0 10
-262144 -1 -1 0 1;
#X obj 963 374 vsl 15 135 50 1000 0 0 empty \$0-mean mean 0 -9 0 10
-262144 -1 -1 0 1;
#X obj 749 543 cnv 15 100 60 empty \$0-quality instavel 10 35 0 30
-191407 -1 0;
#X obj 32 492 s \$0-quality;
#X obj 149 440 moses 0.99;
#X obj 348 321 s \$0-mean;
#X obj 158 322 s \$0-gmean;
#X obj 149 236 t a a a;
#X obj 173 419 hsl 128 15 0 1 0 0 empty empty empty -2 -8 0 10 -262144
-1 -1 0 1;
#X obj 554 305 s \$0-taps;
#N canvas 534 229 450 300 show-bpm 0;
#X floatatom 107 144 5 0 0 1 IOI_in_bpm - -;
#X floatatom 107 126 5 0 0 1 IOI - -;
#N canvas 0 0 450 300 ms2bpm 0;
#X obj 93 50 inlet;
#X obj 93 102 swap 60000;
#X obj 93 131 /;
#X obj 93 182 outlet;
#X connect 0 0 1 0;
#X connect 1 0 2 0;
#X connect 1 1 2 1;
#X connect 2 0 3 0;
#X restore 248 99 pd ms2bpm;
#X obj 248 37 inlet;
#X connect 2 0 0 0;
#X connect 3 0 1 0;
#X connect 3 0 2 0;
#X coords 0 -1 1 1 125 60 1 100 100;
#X restore 468 388 pd show-bpm;
#N canvas 534 229 450 300 show-bpm 0;
#X floatatom 107 144 5 0 0 1 IOI_in_bpm - -;
#X floatatom 107 126 5 0 0 1 IOI - -;
#N canvas 0 0 450 300 ms2bpm 0;
#X obj 93 50 inlet;
#X obj 93 102 swap 60000;
#X obj 93 131 /;
#X obj 93 182 outlet;
#X connect 0 0 1 0;
#X connect 1 0 2 0;
#X connect 1 1 2 1;
#X connect 2 0 3 0;
#X restore 248 99 pd ms2bpm;
#X obj 248 37 inlet;
#X connect 2 0 0 0;
#X connect 3 0 1 0;
#X connect 3 0 2 0;
#X coords 0 -1 1 1 125 60 1 100 100;
#X restore 604 388 pd show-bpm;
#X obj 604 362 r \$0-mean;
#X obj 468 362 r \$0-gmean;
#X obj 40 201 s \$0-last;
#N canvas 534 229 450 300 show-bpm 0;
#X floatatom 107 144 5 0 0 1 IOI_in_bpm - -;
#X floatatom 107 126 5 0 0 1 IOI - -;
#N canvas 0 0 450 300 ms2bpm 0;
#X obj 93 50 inlet;
#X obj 93 102 swap 60000;
#X obj 93 131 /;
#X obj 93 182 outlet;
#X connect 0 0 1 0;
#X connect 1 0 2 0;
#X connect 1 1 2 1;
#X connect 2 0 3 0;
#X restore 248 99 pd ms2bpm;
#X obj 248 37 inlet;
#X connect 2 0 0 0;
#X connect 3 0 1 0;
#X connect 3 0 2 0;
#X coords 0 -1 1 1 125 60 1 100 100;
#X restore 442 182 pd show-bpm;
#X obj 442 152 r \$0-last;
#X obj 638 173 s \$0-taps;
#X msg 638 130 resize \$1;
#X obj 257 202 r \$0-buffer-size;
#X obj 750 156 s \$0-buffer-size;
#X floatatom 638 104 5 0 0 0 - - -;
#X msg 638 78 8;
#X msg 675 77 16;
#X msg 702 302 258.322 269.932 278.639 548.571 284.444 653.061 214.785
388.934;
#N canvas 0 0 778 583 last-x 0;
#X obj 153 175 cnv 15 150 80 empty empty empty 20 12 0 14 -233017 -66577
0;
#X floatatom 370 79 5 0 0 2 change-size - -;
#X obj 326 112 t f b;
#X text 378 110 first reset (b) \, then set new length (f).;
#X text 311 195 Right outlet is responsible to first fill the list
;
#X text 312 211 Left outlet then only lets the smaller list pass.;
#X obj 180 183 list;
#X obj 326 54 inlet;
#X obj 180 149 inlet;
#X obj 180 302 outlet;
#X obj 180 228 list split \$1;
#X obj 326 78 f \$1;
#X connect 1 0 2 0;
#X connect 2 0 10 1;
#X connect 2 1 6 1;
#X connect 6 0 10 0;
#X connect 7 0 11 0;
#X connect 8 0 6 0;
#X connect 10 0 6 1;
#X connect 10 0 9 0;
#X connect 10 2 6 1;
#X connect 11 0 2 0;
#X restore 149 202 pd last-x;
#X obj 638 53 loadbang;
#X obj 437 538 hsl 128 15 0 1 0 0 empty empty empty -2 -8 0 10 -262144
-1 -1 0 1;
#X floatatom 434 575 5 0 0 0 - - -;
#X msg 117 579 label instavel;
#X msg 271 578 label estavel;
#X text 190 28 para testar;
#X obj 278 68 r bong;
#X text 572 531 <= sensibilidade;
#X msg 117 611 0;
#X msg 271 611 1;
#X obj 150 656 outlet;
#X obj 278 112 bng 15 250 50 0 empty empty empty 17 7 0 10 -262144
-1 -1;
#N canvas 112 376 872 310 tamanho-filtro 0;
#X obj 200 256 outlet;
#X obj 297 223 outlet;
#X obj 297 189 b;
#X obj 200 120 moses 2000;
#X text 305 122 filter viable range \, reset else (Handel \, 1989)
;
#X obj 123 64 inlet;
#X obj 123 90 moses 50;
#X text 368 218 reset timer from here;
#X connect 2 0 1 0;
#X connect 3 0 0 0;
#X connect 3 1 2 0;
#X connect 5 0 6 0;
#X connect 6 0 2 0;
#X connect 6 1 3 0;
#X restore 149 168 pd tamanho-filtro;
#N canvas 0 0 566 431 media-geometrica 0;
#X obj 127 69 inlet;
#X obj 127 337 outlet;
#X obj 154 144 list-drip;
#X obj 154 170 route float;
#X obj 127 274 f;
#X obj 291 176 pow -1;
#X obj 154 199 pow;
#N canvas 370 313 450 300 product 0;
#X obj 135 79 inlet;
#X obj 205 77 inlet;
#X obj 135 169 outlet;
#X obj 210 139 f;
#X obj 135 137 *;
#X obj 205 100 1;
#X connect 0 0 4 0;
#X connect 1 0 5 0;
#X connect 3 0 4 1;
#X connect 4 0 2 0;
#X connect 4 0 3 0;
#X connect 5 0 4 1;
#X restore 154 231 pd product;
#X obj 127 105 t b a b a;
#X obj 291 148 list length;
#X connect 0 0 8 0;
#X connect 2 0 3 0;
#X connect 3 0 6 0;
#X connect 4 0 1 0;
#X connect 5 0 6 1;
#X connect 6 0 7 0;
#X connect 7 0 4 1;
#X connect 8 0 4 0;
#X connect 8 1 2 0;
#X connect 8 2 7 1;
#X connect 8 3 9 0;
#X connect 9 0 5 0;
#X restore 149 280 pd media-geometrica;
#N canvas 0 0 566 431 media-aritmetica 0;
#X obj 127 69 inlet;
#X obj 127 337 outlet;
#X obj 147 138 list-drip;
#X obj 147 164 route float;
#X obj 127 274 f;
#N canvas 370 313 450 300 product 0;
#X obj 135 79 inlet;
#X obj 182 79 inlet;
#X obj 135 169 outlet;
#X obj 168 138 f;
#X obj 182 102 0;
#X obj 135 137 +;
#X connect 0 0 5 0;
#X connect 1 0 4 0;
#X connect 3 0 5 1;
#X connect 4 0 5 1;
#X connect 5 0 2 0;
#X connect 5 0 3 0;
#X restore 147 225 pd product;
#X obj 127 105 t b a b a;
#X obj 254 222 list length;
#X obj 127 306 /;
#X connect 0 0 6 0;
#X connect 2 0 3 0;
#X connect 3 0 5 0;
#X connect 4 0 8 0;
#X connect 5 0 4 1;
#X connect 6 0 4 0;
#X connect 6 1 2 0;
#X connect 6 2 5 1;
#X connect 6 3 7 0;
#X connect 7 0 8 1;
#X connect 8 0 1 0;
#X restore 348 279 pd media-aritmetica;
#N canvas 0 0 450 300 mostra 0;
#X obj 41 39 inlet;
#X obj 186 36 inlet;
#X obj 41 124 outlet;
#X msg 186 76 set;
#X obj 41 59 list prepend set;
#X obj 41 83 list trim;
#X obj 186 57 b;
#X connect 0 0 4 0;
#X connect 1 0 6 0;
#X connect 3 0 2 0;
#X connect 4 0 5 0;
#X connect 5 0 2 0;
#X connect 6 0 3 0;
#X restore 702 273 pd mostra buffer;
#X connect 0 0 46 0;
#X connect 1 0 0 0;
#X connect 1 1 0 1;
#X connect 2 0 3 0;
#X connect 3 0 1 0;
#X connect 4 0 5 0;
#X connect 4 0 12 0;
#X connect 5 0 16 0;
#X connect 6 0 17 0;
#X connect 12 0 37 0;
#X connect 12 1 38 0;
#X connect 15 0 47 0;
#X connect 15 1 48 0;
#X connect 15 2 6 0;
#X connect 15 2 49 0;
#X connect 20 0 19 0;
#X connect 21 0 18 0;
#X connect 24 0 23 0;
#X connect 26 0 25 0;
#X connect 27 0 33 1;
#X connect 29 0 26 0;
#X connect 29 0 28 0;
#X connect 30 0 29 0;
#X connect 31 0 29 0;
#X connect 33 0 15 0;
#X connect 34 0 30 0;
#X connect 35 0 36 0;
#X connect 35 0 12 1;
#X connect 37 0 11 0;
#X connect 37 0 42 0;
#X connect 38 0 11 0;
#X connect 38 0 43 0;
#X connect 40 0 1 0;
#X connect 40 0 45 0;
#X connect 42 0 44 0;
#X connect 43 0 44 0;
#X connect 46 0 22 0;
#X connect 46 0 33 0;
#X connect 46 1 0 0;
#X connect 47 0 14 0;
#X connect 47 0 4 0;
#X connect 48 0 13 0;
#X connect 48 0 4 1;
#X connect 49 0 32 0;
#X restore 118 357 pd calcula ritmo entrada;
#X obj 247 483 r \$0-mean;
#X text 213 447 seleciona comportamento ritmico;
#N canvas 96 70 380 315 seleciona 0;
#X obj 67 68 sel 1 0;
#X msg 67 114 1;
#X obj 117 112 random 2;
#X obj 117 143 sel 0 1;
#X msg 117 170 2;
#X msg 160 170 3;
#X obj 67 27 inlet;
#X obj 67 234 outlet;
#X obj 230 109 r stop;
#X msg 230 176 0;
#X obj 230 144 sel 1;
#X connect 0 0 1 0;
#X connect 0 1 2 0;
#X connect 1 0 7 0;
#X connect 2 0 3 0;
#X connect 3 0 4 0;
#X connect 3 1 5 0;
#X connect 4 0 7 0;
#X connect 5 0 7 0;
#X connect 6 0 0 0;
#X connect 8 0 10 0;
#X connect 9 0 7 0;
#X connect 10 0 9 0;
#X restore 118 420 pd seleciona ritmo;
#X floatatom 247 520 5 0 0 0 - - -;
#N canvas 685 66 506 367 ritmo 0;
#X obj 196 235 tgl 15 0 empty empty empty 0 -6 0 8 -262144 -1 -1 0
1;
#N canvas 469 325 670 308 rubato 0;
#X obj 35 150 outlet;
#X text 433 180 chosen ED;
#X text 211 150 row index;
#X floatatom 173 150 0 0 0 0 - - -;
#X floatatom 434 159 0 0 0 0 - - -;
#X obj 35 53 inlet;
#X obj 35 87 tgl 15 0 empty empty empty 0 -6 0 8 -262144 -1 -1 0 1
;
#X floatatom 276 84 0 0 0 0 - - -;
#X floatatom 377 85 0 0 0 0 - - -;
#X floatatom 193 83 0 0 0 0 - - -;
#X floatatom 106 81 0 0 0 0 - - -;
#X text 191 58 max. ED;
#X text 105 58 min. ED;
#X text 376 62 brownian factor;
#X text 273 61 ED-values;
#X text 282 203 max. ED;
#X text 172 205 min. ED;
#X obj 176 186 hsl 128 15 0 127 0 0 empty empty empty -2 -6 0 8 -262144
-1 -1 0 1;
#X obj 35 116 brown-rhythm 75 1000 24 0.07;
#X connect 3 0 17 0;
#X connect 5 0 6 0;
#X connect 6 0 18 0;
#X connect 7 0 18 3;
#X connect 8 0 18 4;
#X connect 9 0 18 2;
#X connect 10 0 18 1;
#X connect 18 0 0 0;
#X connect 18 1 3 0;
#X connect 18 2 4 0;
#X restore 196 266 pd rubato;
#X obj 38 245 tgl 15 0 empty empty empty 0 -6 0 8 -262144 -1 -1 0 1
;
#X obj 38 324 outlet;
#X obj 62 15 inlet;
#X obj 330 237 tgl 15 0 empty empty empty 0 -6 0 8 -262144 -1 -1 0
1;
#X obj 213 201 unpack 0 0 0;
#X msg 213 87 1 0 0;
#X msg 236 141 0 0 1;
#X msg 226 114 0 1 0;
#X msg 242 169 0 0 0;
#X obj 62 43 select 1 2 3;
#N canvas 300 54 409 345 estavel 0;
#X obj 39 133 inlet;
#X obj 39 227 outlet;
#X obj 39 192 metro 250;
#X floatatom 126 161 0 0 0 0 - - -;
#X obj 39 165 tgl 15 0 empty empty empty 0 -6 0 8 -262144 -1 -1 0 1
;
#X obj 126 132 r \$0-mean;
#X connect 0 0 4 0;
#X connect 2 0 1 0;
#X connect 3 0 2 1;
#X connect 4 0 2 0;
#X connect 5 0 3 0;
#X restore 38 271 pd estavel;
#N canvas 203 143 578 209 acordes 0;
#X obj 23 95 repchord-rhythm 100 1000 12 6 0.8 0.2;
#X obj 23 37 inlet;
#X obj 23 131 outlet;
#X floatatom 458 68 0 0 0 0 - - -;
#X floatatom 385 68 0 0 0 0 - - -;
#X floatatom 313 68 0 0 0 0 - - -;
#X floatatom 240 68 0 0 0 0 - - -;
#X floatatom 168 68 0 0 0 0 - - -;
#X floatatom 95 68 0 0 0 0 - - -;
#X obj 23 68 tgl 15 0 empty empty empty 0 -6 0 8 -262144 -1 -1 0 1
;
#X text 95 52 min.ED;
#X text 168 52 max.ED;
#X text 239 52 ED-values;
#X text 451 39 periodicity of max.ED;
#X text 379 39 periodicity of min.ED;
#X text 306 39 max. chord size;
#X connect 0 0 2 0;
#X connect 1 0 9 0;
#X connect 3 0 0 6;
#X connect 4 0 0 5;
#X connect 5 0 0 4;
#X connect 6 0 0 3;
#X connect 7 0 0 2;
#X connect 8 0 0 1;
#X connect 9 0 0 0;
#X restore 330 265 pd acordes;
#X connect 0 0 1 0;
#X connect 1 0 3 0;
#X connect 2 0 12 0;
#X connect 4 0 11 0;
#X connect 5 0 13 0;
#X connect 6 0 2 0;
#X connect 6 1 0 0;
#X connect 6 2 5 0;
#X connect 7 0 6 0;
#X connect 8 0 6 0;
#X connect 9 0 6 0;
#X connect 10 0 6 0;
#X connect 11 0 7 0;
#X connect 11 1 9 0;
#X connect 11 2 8 0;
#X connect 11 3 10 0;
#X connect 12 0 3 0;
#X connect 13 0 3 0;
#X restore 118 485 pd ritmo;
#X text 349 476 aqui se recebe a media \; aritmetica das ultimas 8
\; duracoes que alimenta o \; ritmo estavel \;;
#X text 203 483 <---;
#X text 179 383 4) analise ritmica;
#X text 187 447 5);
#N canvas 280 56 450 300 mixer 0;
#X obj 80 40 r vol_in;
#X floatatom 80 98 5 0 0 0 - - -;
#X floatatom 80 187 5 0 0 0 - - -;
#X obj 80 234 outlet;
#X text 162 235 velocity do acompanhamento;
#X obj 80 151 scale.linear 0 26 60 10;
#X connect 0 0 1 0;
#X connect 1 0 5 0;
#X connect 2 0 3 0;
#X connect 5 0 2 0;
#X restore 118 592 pd mixer;
#X text 211 590 6) recebe volume de entrada e ajusta o volume do;
#X text 244 612 acompanhamento \;;
#X text 587 185 comportamento ritmico;
#X obj 593 313 cnv 15 100 60 empty nota_atual G5 10 35 0 30 -191407
-1 0;
#X text 593 290 atual nota de entrada;
#X obj 596 417 cnv 15 100 60 empty nota_saida F6 10 35 0 30 -191407
-1 0;
#X text 594 391 atual nota do acompanhamento;
#X obj 32 11 abs-sampler-sf2;
#X connect 1 0 0 0;
#X connect 4 0 7 0;
#X connect 7 0 1 0;
#X connect 9 0 0 1;
#X connect 10 0 17 0;
#X connect 12 0 15 0;
#X connect 13 0 16 0;
#X connect 15 0 10 0;
#X connect 17 0 9 0;
#X connect 22 0 0 2;
#X connect 30 0 4 0;
#X coords 0 0 1 1 85 60 0;
