#N canvas 300 25 891 681 16;
#N canvas 519 25 635 608 output 0;
#X floatatom 202 384 0 0 0 0 - - -;
#X obj 85 440 pitch2note 4;
#X obj 309 330 hradio 15 1 0 3 empty empty empty 0 -6 0 8 -262144 -1
-1 0;
#X obj 85 304 t a a;
#X obj 202 411 + 0;
#X floatatom 281 412 5 0 0 1 oitava - -;
#X obj 281 389 hradio 15 1 0 8 empty empty empty 0 -8 0 10 -262144
-1 -1 0;
#X text 364 323 distribuicao dos registros;
#X obj 242 410 - 2;
#X obj 87 41 inlet;
#X obj 85 485 play2 60 500 1 1;
#N canvas 63 44 340 273 registro 0;
#X floatatom 131 141 0 0 0 0 - - -;
#X obj 38 207 outlet;
#X obj 38 171 brownian 3 8 0.3;
#X text 179 142 brown factor;
#X msg 131 107 0.3;
#X msg 163 107 0;
#X msg 194 107 1;
#X obj 131 76 sel 0 1;
#X obj 131 46 inlet;
#X obj 38 46 inlet;
#X connect 0 0 2 3;
#X connect 2 0 1 0;
#X connect 4 0 0 0;
#X connect 5 0 0 0;
#X connect 6 0 0 0;
#X connect 7 0 4 0;
#X connect 7 1 5 0;
#X connect 7 2 6 0;
#X connect 8 0 7 0;
#X connect 9 0 2 0;
#X restore 202 356 pd registro;
#X msg 322 540 prog 1 \$1;
#X obj 322 489 hradio 15 1 0 8 empty empty program_change 0 -6 0 8
-262144 -1 -1 0;
#X obj 322 508 + 1;
#X obj 487 369 inlet;
#X floatatom 283 133 5 0 0 0 - - -;
#X obj 283 169 pitch;
#X symbolatom 294 224 10 0 0 0 - - -;
#X msg 430 220 label \$1;
#X obj 430 254 s nota_saida;
#X connect 0 0 4 0;
#X connect 1 0 10 0;
#X connect 1 0 16 0;
#X connect 2 0 11 1;
#X connect 3 0 1 0;
#X connect 3 1 11 0;
#X connect 4 0 1 1;
#X connect 5 0 8 0;
#X connect 6 0 5 0;
#X connect 8 0 4 1;
#X connect 9 0 3 0;
#X connect 11 0 0 0;
#X connect 12 0 10 4;
#X connect 13 0 14 0;
#X connect 14 0 12 0;
#X connect 15 0 10 1;
#X connect 16 0 17 0;
#X connect 17 1 18 0;
#X connect 18 0 19 0;
#X connect 19 0 20 0;
#X restore 31 634 pd output;
#X text 594 45 1) entrada de;
#X text 623 62 audio;
#N canvas 95 25 1041 578 audioin 0;
#X obj 29 23 inlet~;
#X obj 128 22 inlet;
#X text 537 45 1- entrada de audio;
#X text 542 78 2 - volume do audio;
#X text 560 109 de entrada;
#X floatatom 28 243 5 0 0 0 - - -;
#X floatatom 305 279 5 0 0 0 - - -;
#X text 95 265 pitch;
#X text 321 248 envelope;
#X obj 28 210 sigmund~ -hop 4096 pitch env;
#X obj 156 89 hsl 128 15 0 0.5 0 0 empty empty empty -2 -8 0 10 -262144
-1 -1 0 1;
#X obj 28 273 int;
#X floatatom 28 306 5 0 0 0 - - -;
#X obj 27 352 moses 0;
#X floatatom 27 399 5 0 0 0 - - -;
#X floatatom 94 400 5 0 0 0 - - -;
#X obj 28 167 *~ 0.015;
#X floatatom 304 384 5 0 0 0 - - -;
#X floatatom 382 390 5 0 0 0 - - -;
#X obj 305 330 moses 42;
#X floatatom 381 286 5 0 0 0 - - -;
#X text 411 354 com o volume de entrada;
#X text 403 329 3 - calibrar o moses de acordo;
#X obj 713 392 timer;
#X obj 713 311 b;
#X floatatom 713 418 5 0 0 0 - - -;
#X obj 713 371 bng 15 250 50 0 empty empty empty 17 7 0 10 -262144
-1 -1;
#X obj 760 371 bng 15 250 50 0 empty empty empty 17 7 0 10 -262144
-1 -1;
#X obj 713 341 alternate;
#X obj 713 255 bonk~;
#X obj 713 284 bng 15 250 50 0 empty empty empty 17 7 0 10 -262144
-1 -1;
#X obj 94 452 outlet;
#X obj 259 454 outlet;
#X obj 712 493 outlet;
#X obj 809 494 outlet;
#X obj 259 421 int;
#X floatatom 355 451 5 0 0 0 - - -;
#X obj 833 449 s bong;
#X obj 878 190 counter;
#X floatatom 878 221 5 0 0 0 - - -;
#X obj 911 137 bng 15 250 50 0 empty empty empty 17 7 0 10 -262144
-1 -1;
#X obj 878 139 tgl 15 0 empty empty empty 17 7 0 10 -262144 -1 -1 1
1;
#X obj 878 162 metro 100;
#X floatatom 878 276 5 0 0 0 - - -;
#X text 890 333 silencio pra \; parar;
#X obj 878 311 s stop;
#X obj 911 101 r bong;
#X obj 878 60 loadbang;
#X obj 878 249 > 100;
#X obj 732 196 hsl 128 15 0 0.5 0 0 empty empty empty -2 -8 0 10 -262144
-1 -1 0 1;
#X obj 713 224 *~ 0.1;
#X floatatom 780 256 5 0 0 0 - - -;
#X obj 355 491 s vol_in;
#X text 450 493 0 - 26;
#X connect 0 0 16 0;
#X connect 0 0 50 0;
#X connect 1 0 16 1;
#X connect 5 0 11 0;
#X connect 6 0 19 0;
#X connect 6 0 35 0;
#X connect 9 0 5 0;
#X connect 9 1 6 0;
#X connect 10 0 16 1;
#X connect 11 0 12 0;
#X connect 12 0 13 0;
#X connect 13 0 14 0;
#X connect 13 1 15 0;
#X connect 15 0 31 0;
#X connect 16 0 9 0;
#X connect 19 0 17 0;
#X connect 19 1 18 0;
#X connect 20 0 19 1;
#X connect 23 0 25 0;
#X connect 24 0 28 0;
#X connect 25 0 33 0;
#X connect 26 0 23 0;
#X connect 27 0 23 1;
#X connect 28 0 26 0;
#X connect 28 1 27 0;
#X connect 29 0 30 0;
#X connect 29 0 34 0;
#X connect 29 0 37 0;
#X connect 30 0 24 0;
#X connect 35 0 32 0;
#X connect 35 0 36 0;
#X connect 36 0 52 0;
#X connect 38 0 39 0;
#X connect 39 0 48 0;
#X connect 40 0 38 2;
#X connect 41 0 42 0;
#X connect 42 0 38 0;
#X connect 43 0 45 0;
#X connect 46 0 40 0;
#X connect 47 0 41 0;
#X connect 48 0 43 0;
#X connect 49 0 50 1;
#X connect 49 0 51 0;
#X connect 50 0 29 0;
#X restore 31 209 pd audioin;
#X text 143 204 2) analise de;
#X text 174 221 audio;
#X text 180 280 3) determina colecao de notas \; e grau de permeabilidade
dessa \; colecao \;;
#X obj 118 514 bng 15 50 50 0 empty empty empty 0 -6 0 8 -262144 -1
-1;
#X obj 118 454 hradio 15 1 0 4 empty empty empty 0 -6 0 8 -262144 -1
-1 0;
#X obj 593 213 cnv 15 100 60 empty \$0-quality instavel 10 35 0 30
-191407 -1 0;
#N canvas 35 25 1012 668 calcula 0;
#X obj 149 130 timer;
#X obj 149 99 t b b;
#X obj 149 23 key;
#X obj 149 59 select 32;
#X obj 149 364 /;
#X floatatom 170 391 5 0 0 0 - - -;
#X obj 554 275 list prepend 0;
#N canvas 0 0 450 300 (subpatch) 0;
#X array \$0-taps 8 float 0;
#X coords 0 1000 7 50 200 140 1 0 0;
#X restore 742 372 graph;
#X obj 947 374 vsl 15 135 50 1000 0 0 empty \$0-gmean gm 0 -9 0 10
-262144 -1 -1 2800 1;
#X obj 963 374 vsl 15 135 50 1000 0 0 empty \$0-mean mean 0 -9 0 10
-262144 -1 -1 3256 1;
#X obj 749 543 cnv 15 100 60 empty \$0-quality instavel 10 35 0 30
-191407 -1 0;
#X obj 32 492 s \$0-quality;
#X obj 149 440 moses 0.99;
#X obj 348 321 s \$0-mean;
#X obj 158 322 s \$0-gmean;
#X obj 149 236 t a a a;
#X obj 173 419 hsl 128 15 0 1 0 0 empty empty empty -2 -8 0 10 -262144
-1 -1 11238 1;
#X obj 554 305 s \$0-taps;
#N canvas 534 229 450 300 show-bpm 0;
#X floatatom 107 144 5 0 0 1 IOI_in_bpm - -;
#X floatatom 107 126 5 0 0 1 IOI - -;
#N canvas 0 0 450 300 ms2bpm 0;
#X obj 93 50 inlet;
#X obj 93 102 swap 60000;
#X obj 93 131 /;
#X obj 93 182 outlet;
#X connect 0 0 1 0;
#X connect 1 0 2 0;
#X connect 1 1 2 1;
#X connect 2 0 3 0;
#X restore 248 99 pd ms2bpm;
#X obj 248 37 inlet;
#X connect 2 0 0 0;
#X connect 3 0 1 0;
#X connect 3 0 2 0;
#X coords 0 -1 1 1 125 60 1 100 100;
#X restore 468 388 pd show-bpm;
#N canvas 534 229 450 300 show-bpm 0;
#X floatatom 107 144 5 0 0 1 IOI_in_bpm - -;
#X floatatom 107 126 5 0 0 1 IOI - -;
#N canvas 0 0 450 300 ms2bpm 0;
#X obj 93 50 inlet;
#X obj 93 102 swap 60000;
#X obj 93 131 /;
#X obj 93 182 outlet;
#X connect 0 0 1 0;
#X connect 1 0 2 0;
#X connect 1 1 2 1;
#X connect 2 0 3 0;
#X restore 248 99 pd ms2bpm;
#X obj 248 37 inlet;
#X connect 2 0 0 0;
#X connect 3 0 1 0;
#X connect 3 0 2 0;
#X coords 0 -1 1 1 125 60 1 100 100;
#X restore 604 388 pd show-bpm;
#X obj 604 362 r \$0-mean;
#X obj 468 362 r \$0-gmean;
#X obj 40 201 s \$0-last;
#N canvas 534 229 450 300 show-bpm 0;
#X floatatom 107 144 5 0 0 1 IOI_in_bpm - -;
#X floatatom 107 126 5 0 0 1 IOI - -;
#N canvas 0 0 450 300 ms2bpm 0;
#X obj 93 50 inlet;
#X obj 93 102 swap 60000;
#X obj 93 131 /;
#X obj 93 182 outlet;
#X connect 0 0 1 0;
#X connect 1 0 2 0;
#X connect 1 1 2 1;
#X connect 2 0 3 0;
#X restore 248 99 pd ms2bpm;
#X obj 248 37 inlet;
#X connect 2 0 0 0;
#X connect 3 0 1 0;
#X connect 3 0 2 0;
#X coords 0 -1 1 1 125 60 1 100 100;
#X restore 442 182 pd show-bpm;
#X obj 442 152 r \$0-last;
#X obj 638 173 s \$0-taps;
#X msg 638 130 resize \$1;
#X obj 257 202 r \$0-buffer-size;
#X obj 750 156 s \$0-buffer-size;
#X floatatom 638 104 5 0 0 0 - - -;
#X msg 638 78 8;
#X msg 675 77 16;
#X msg 702 302 174.15 452.789 155.283 129.161 226.395 195.918 422.313
490.522;
#N canvas 0 0 778 583 last-x 0;
#X obj 153 175 cnv 15 150 80 empty empty empty 20 12 0 14 -233017 -66577
0;
#X floatatom 370 79 5 0 0 2 change-size - -;
#X obj 326 112 t f b;
#X text 378 110 first reset (b) \, then set new length (f).;
#X text 311 195 Right outlet is responsible to first fill the list
;
#X text 312 211 Left outlet then only lets the smaller list pass.;
#X obj 180 183 list;
#X obj 326 54 inlet;
#X obj 180 149 inlet;
#X obj 180 302 outlet;
#X obj 180 228 list split \$1;
#X obj 326 78 f \$1;
#X connect 1 0 2 0;
#X connect 2 0 10 1;
#X connect 2 1 6 1;
#X connect 6 0 10 0;
#X connect 7 0 11 0;
#X connect 8 0 6 0;
#X connect 10 0 6 1;
#X connect 10 0 9 0;
#X connect 10 2 6 1;
#X connect 11 0 2 0;
#X restore 149 202 pd last-x;
#X obj 638 53 loadbang;
#X obj 437 538 hsl 128 15 0 1 0 0 empty empty empty -2 -8 0 10 -262144
-1 -1 0 1;
#X floatatom 434 575 5 0 0 0 - - -;
#X msg 117 579 label instavel;
#X msg 271 578 label estavel;
#X text 190 28 para testar;
#X obj 278 68 r bong;
#X text 572 531 <= sensibilidade;
#X msg 117 611 0;
#X msg 271 611 1;
#X obj 150 656 outlet;
#X obj 278 112 bng 15 250 50 0 empty empty empty 17 7 0 10 -262144
-1 -1;
#N canvas 112 376 872 310 tamanho-filtro 0;
#X obj 200 256 outlet;
#X obj 297 223 outlet;
#X obj 297 189 b;
#X obj 200 120 moses 2000;
#X text 305 122 filter viable range \, reset else (Handel \, 1989)
;
#X obj 123 64 inlet;
#X obj 123 90 moses 50;
#X text 368 218 reset timer from here;
#X connect 2 0 1 0;
#X connect 3 0 0 0;
#X connect 3 1 2 0;
#X connect 5 0 6 0;
#X connect 6 0 2 0;
#X connect 6 1 3 0;
#X restore 149 168 pd tamanho-filtro;
#N canvas 0 0 566 431 media-geometrica 0;
#X obj 127 69 inlet;
#X obj 127 337 outlet;
#X obj 154 144 list-drip;
#X obj 154 170 route float;
#X obj 127 274 f;
#X obj 291 176 pow -1;
#X obj 154 199 pow;
#N canvas 370 313 450 300 product 0;
#X obj 135 79 inlet;
#X obj 205 77 inlet;
#X obj 135 169 outlet;
#X obj 210 139 f;
#X obj 135 137 *;
#X obj 205 100 1;
#X connect 0 0 4 0;
#X connect 1 0 5 0;
#X connect 3 0 4 1;
#X connect 4 0 2 0;
#X connect 4 0 3 0;
#X connect 5 0 4 1;
#X restore 154 231 pd product;
#X obj 127 105 t b a b a;
#X obj 291 148 list length;
#X connect 0 0 8 0;
#X connect 2 0 3 0;
#X connect 3 0 6 0;
#X connect 4 0 1 0;
#X connect 5 0 6 1;
#X connect 6 0 7 0;
#X connect 7 0 4 1;
#X connect 8 0 4 0;
#X connect 8 1 2 0;
#X connect 8 2 7 1;
#X connect 8 3 9 0;
#X connect 9 0 5 0;
#X restore 149 280 pd media-geometrica;
#N canvas 0 0 566 431 media-aritmetica 0;
#X obj 127 69 inlet;
#X obj 127 337 outlet;
#X obj 147 138 list-drip;
#X obj 147 164 route float;
#X obj 127 274 f;
#N canvas 370 313 450 300 product 0;
#X obj 135 79 inlet;
#X obj 182 79 inlet;
#X obj 135 169 outlet;
#X obj 168 138 f;
#X obj 182 102 0;
#X obj 135 137 +;
#X connect 0 0 5 0;
#X connect 1 0 4 0;
#X connect 3 0 5 1;
#X connect 4 0 5 1;
#X connect 5 0 2 0;
#X connect 5 0 3 0;
#X restore 147 225 pd product;
#X obj 127 105 t b a b a;
#X obj 254 222 list length;
#X obj 127 306 /;
#X connect 0 0 6 0;
#X connect 2 0 3 0;
#X connect 3 0 5 0;
#X connect 4 0 8 0;
#X connect 5 0 4 1;
#X connect 6 0 4 0;
#X connect 6 1 2 0;
#X connect 6 2 5 1;
#X connect 6 3 7 0;
#X connect 7 0 8 1;
#X connect 8 0 1 0;
#X restore 348 279 pd media-aritmetica;
#N canvas 0 0 450 300 mostra 0;
#X obj 41 39 inlet;
#X obj 186 36 inlet;
#X obj 41 124 outlet;
#X msg 186 76 set;
#X obj 41 59 list prepend set;
#X obj 41 83 list trim;
#X obj 186 57 b;
#X connect 0 0 4 0;
#X connect 1 0 6 0;
#X connect 3 0 2 0;
#X connect 4 0 5 0;
#X connect 5 0 2 0;
#X connect 6 0 3 0;
#X restore 702 273 pd mostra buffer;
#X connect 0 0 46 0;
#X connect 1 0 0 0;
#X connect 1 1 0 1;
#X connect 2 0 3 0;
#X connect 3 0 1 0;
#X connect 4 0 5 0;
#X connect 4 0 12 0;
#X connect 5 0 16 0;
#X connect 6 0 17 0;
#X connect 12 0 37 0;
#X connect 12 1 38 0;
#X connect 15 0 47 0;
#X connect 15 1 48 0;
#X connect 15 2 6 0;
#X connect 15 2 49 0;
#X connect 20 0 19 0;
#X connect 21 0 18 0;
#X connect 24 0 23 0;
#X connect 26 0 25 0;
#X connect 27 0 33 1;
#X connect 29 0 26 0;
#X connect 29 0 28 0;
#X connect 30 0 29 0;
#X connect 31 0 29 0;
#X connect 33 0 15 0;
#X connect 34 0 30 0;
#X connect 35 0 36 0;
#X connect 35 0 12 1;
#X connect 37 0 11 0;
#X connect 37 0 42 0;
#X connect 38 0 11 0;
#X connect 38 0 43 0;
#X connect 40 0 1 0;
#X connect 40 0 45 0;
#X connect 42 0 44 0;
#X connect 43 0 44 0;
#X connect 46 0 22 0;
#X connect 46 0 33 0;
#X connect 46 1 0 0;
#X connect 47 0 14 0;
#X connect 47 0 4 0;
#X connect 48 0 13 0;
#X connect 48 0 4 1;
#X connect 49 0 32 0;
#X restore 118 357 pd calcula ritmo entrada;
#X obj 247 483 r \$0-mean;
#X text 213 447 seleciona comportamento ritmico;
#N canvas 96 70 380 315 seleciona 0;
#X obj 67 68 sel 1 0;
#X msg 67 114 1;
#X obj 117 112 random 2;
#X obj 117 143 sel 0 1;
#X msg 117 170 2;
#X msg 160 170 3;
#X obj 67 27 inlet;
#X obj 67 234 outlet;
#X obj 230 109 r stop;
#X msg 230 176 0;
#X obj 230 144 sel 1;
#X connect 0 0 1 0;
#X connect 0 1 2 0;
#X connect 1 0 7 0;
#X connect 2 0 3 0;
#X connect 3 0 4 0;
#X connect 3 1 5 0;
#X connect 4 0 7 0;
#X connect 5 0 7 0;
#X connect 6 0 0 0;
#X connect 8 0 10 0;
#X connect 9 0 7 0;
#X connect 10 0 9 0;
#X restore 118 420 pd seleciona ritmo;
#X floatatom 247 520 5 0 0 0 - - -;
#N canvas 685 66 506 367 ritmo 0;
#X obj 196 235 tgl 15 0 empty empty empty 0 -6 0 8 -262144 -1 -1 0
1;
#N canvas 469 325 670 308 rubato 0;
#X obj 35 150 outlet;
#X text 433 180 chosen ED;
#X text 211 150 row index;
#X floatatom 173 150 0 0 0 0 - - -;
#X floatatom 434 159 0 0 0 0 - - -;
#X obj 35 53 inlet;
#X obj 35 87 tgl 15 0 empty empty empty 0 -6 0 8 -262144 -1 -1 0 1
;
#X floatatom 463 74 0 0 0 0 - - -;
#X floatatom 564 75 0 0 0 0 - - -;
#X floatatom 193 83 0 0 0 0 - - -;
#X floatatom 106 81 0 0 0 0 - - -;
#X text 191 58 max. ED;
#X text 105 58 min. ED;
#X text 563 52 brownian factor;
#X text 460 51 ED-values;
#X text 282 203 max. ED;
#X text 172 205 min. ED;
#X obj 176 186 hsl 128 15 0 127 0 0 empty empty empty -2 -6 0 8 -262144
-1 -1 600 1;
#X obj 35 116 brown-rhythm 75 1000 24 0.07;
#X text 100 21 explorar essas primeiras 2 entradas;
#X connect 3 0 17 0;
#X connect 5 0 6 0;
#X connect 6 0 18 0;
#X connect 7 0 18 3;
#X connect 8 0 18 4;
#X connect 9 0 18 2;
#X connect 10 0 18 1;
#X connect 18 0 0 0;
#X connect 18 1 3 0;
#X connect 18 2 4 0;
#X restore 196 266 pd rubato;
#X obj 38 245 tgl 15 0 empty empty empty 0 -6 0 8 -262144 -1 -1 0 1
;
#X obj 38 324 outlet;
#X obj 62 15 inlet;
#X obj 330 237 tgl 15 0 empty empty empty 0 -6 0 8 -262144 -1 -1 0
1;
#X obj 213 201 unpack 0 0 0;
#X msg 213 87 1 0 0;
#X msg 236 141 0 0 1;
#X msg 226 114 0 1 0;
#X msg 242 169 0 0 0;
#X obj 62 43 select 1 2 3;
#N canvas 300 54 409 345 estavel 0;
#X obj 39 133 inlet;
#X obj 39 227 outlet;
#X obj 39 192 metro 250;
#X floatatom 126 161 0 0 0 0 - - -;
#X obj 39 165 tgl 15 0 empty empty empty 0 -6 0 8 -262144 -1 -1 0 1
;
#X obj 126 132 r \$0-mean;
#X connect 0 0 4 0;
#X connect 2 0 1 0;
#X connect 3 0 2 1;
#X connect 4 0 2 0;
#X connect 5 0 3 0;
#X restore 38 271 pd estavel;
#N canvas 216 319 828 247 acordes 0;
#X obj 23 95 repchord-rhythm 100 1000 12 6 0.8 0.2;
#X obj 23 37 inlet;
#X obj 23 131 outlet;
#X floatatom 458 68 0 0 0 0 - - -;
#X floatatom 385 68 0 0 0 0 - - -;
#X floatatom 313 68 0 0 0 0 - - -;
#X floatatom 240 68 0 0 0 0 - - -;
#X floatatom 168 68 0 0 0 0 - - -;
#X floatatom 95 68 0 0 0 0 - - -;
#X obj 23 68 tgl 15 0 empty empty empty 0 -6 0 8 -262144 -1 -1 0 1
;
#X text 95 52 min.ED;
#X text 168 52 max.ED;
#X text 239 52 ED-values;
#X text 525 70 periodicity of max.ED;
#X text 408 16 periodicity of min.ED;
#X text 306 39 max. chord size;
#X connect 0 0 2 0;
#X connect 1 0 9 0;
#X connect 3 0 0 6;
#X connect 4 0 0 5;
#X connect 5 0 0 4;
#X connect 6 0 0 3;
#X connect 7 0 0 2;
#X connect 8 0 0 1;
#X connect 9 0 0 0;
#X restore 330 265 pd acordes;
#X connect 0 0 1 0;
#X connect 1 0 3 0;
#X connect 2 0 12 0;
#X connect 4 0 11 0;
#X connect 5 0 13 0;
#X connect 6 0 2 0;
#X connect 6 1 0 0;
#X connect 6 2 5 0;
#X connect 7 0 6 0;
#X connect 8 0 6 0;
#X connect 9 0 6 0;
#X connect 10 0 6 0;
#X connect 11 0 7 0;
#X connect 11 1 9 0;
#X connect 11 2 8 0;
#X connect 11 3 10 0;
#X connect 12 0 3 0;
#X connect 13 0 3 0;
#X restore 118 485 pd ritmo;
#X text 349 476 aqui se recebe a media \; aritmetica das ultimas 8
\; duracoes que alimenta o \; ritmo estavel \;;
#X text 203 483 <---;
#X text 179 383 4) analise ritmica;
#X text 187 447 5);
#N canvas 280 56 450 300 mixer 0;
#X obj 80 40 r vol_in;
#X floatatom 80 98 5 0 0 0 - - -;
#X floatatom 80 187 5 0 0 0 - - -;
#X obj 80 234 outlet;
#X text 162 235 velocity do acompanhamento;
#X obj 80 151 scale.linear 0 26 60 10;
#X connect 0 0 1 0;
#X connect 1 0 5 0;
#X connect 2 0 3 0;
#X connect 5 0 2 0;
#X restore 118 592 pd mixer;
#X text 211 590 6) recebe volume de entrada e ajusta o volume do;
#X text 244 612 acompanhamento \;;
#X text 587 185 comportamento ritmico;
#X obj 593 313 cnv 15 100 60 empty nota_atual Eb3 10 35 0 30 -191407
-1 0;
#X text 593 290 atual nota de entrada;
#X obj 596 417 cnv 15 100 60 empty nota_saida G3 10 35 0 30 -191407
-1 0;
#X text 594 391 atual nota do acompanhamento;
#X obj 32 11 abs-sampler-sf2;
#N canvas 77 132 657 495 entra_notas 1;
#X obj 362 145 probalizer 200 200 12 50 1 0 4 1 1 2 3 3 1 4 3 5 7 6
37 7 1 8 6 9 1 10 1 11 1;
#X obj 362 71 bng 15 250 50 0 empty empty empty 17 7 0 10 -262144 -1
-1;
#X floatatom 362 392 5 0 0 0 - - -;
#X floatatom 42 130 5 0 0 0 - - -;
#X obj 42 168 int;
#X floatatom 42 218 5 0 0 0 - - -;
#X obj 42 254 pitch;
#X floatatom 42 346 5 0 0 0 - - -;
#X symbolatom 53 315 10 0 0 0 - - -;
#X floatatom 65 283 5 0 0 0 - - -;
#X obj 42 399 s nota;
#X obj 42 46 inlet;
#X msg 159 392 equi;
#X obj 42 87 change;
#X obj 211 47 inlet;
#X obj 211 83 bng 15 250 50 0 empty empty empty 17 7 0 10 -262144 -1
-1;
#X text 221 16 note on;
#X obj 211 119 del 50;
#X obj 362 33 inlet;
#X text 438 25 pede nota;
#X obj 362 446 outlet;
#N canvas 0 0 835 400 pitch 0;
#X obj 84 35 inlet;
#X obj 73 78 sel 0 1 2 3 4 5 6 7 8 9 10 11;
#X obj 43 221 counter 10;
#X obj 58 191 counter 10;
#X obj 83 161 counter 10;
#X obj 104 130 counter 10;
#X obj 154 224 counter 10;
#X obj 169 194 counter 10;
#X obj 194 164 counter 10;
#X obj 209 134 counter 10;
#X obj 268 222 counter 10;
#X obj 283 192 counter 10;
#X obj 308 162 counter 10;
#X obj 323 132 counter 10;
#X obj 158 316 sel 9;
#X obj 161 365 outlet;
#X obj 468 29 inlet;
#X text 543 28 quantas ocorrencias;
#X text 540 46 do mesmo pitch pra resetar;
#X text 538 65 probabilidades;
#X connect 0 0 1 0;
#X connect 1 0 2 0;
#X connect 1 1 3 0;
#X connect 1 2 4 0;
#X connect 1 3 5 0;
#X connect 1 4 6 0;
#X connect 1 5 7 0;
#X connect 1 6 8 0;
#X connect 1 7 9 0;
#X connect 1 8 10 0;
#X connect 1 9 11 0;
#X connect 1 10 12 0;
#X connect 1 11 13 0;
#X connect 2 0 14 0;
#X connect 3 0 14 0;
#X connect 4 0 14 0;
#X connect 5 0 14 0;
#X connect 6 0 14 0;
#X connect 7 0 14 0;
#X connect 8 0 14 0;
#X connect 9 0 14 0;
#X connect 10 0 14 0;
#X connect 11 0 14 0;
#X connect 12 0 14 0;
#X connect 13 0 14 0;
#X connect 14 0 15 0;
#X connect 16 0 13 4;
#X connect 16 0 12 4;
#X connect 16 0 11 4;
#X connect 16 0 10 4;
#X connect 16 0 9 4;
#X connect 16 0 8 4;
#X connect 16 0 7 4;
#X connect 16 0 6 4;
#X connect 16 0 5 4;
#X connect 16 0 4 4;
#X connect 16 0 3 4;
#X connect 16 0 2 4;
#X restore 159 359 pd pitch counter;
#X obj 154 458 s nota_atual;
#X msg 154 427 label \$1;
#X msg 207 274 30;
#X msg 279 269 10;
#X msg 237 236 50;
#X obj 519 57 loadbang;
#X msg 519 88 zero;
#X text 426 394 nota de saida;
#X connect 0 0 2 0;
#X connect 1 0 0 0;
#X connect 2 0 20 0;
#X connect 3 0 4 0;
#X connect 4 0 5 0;
#X connect 5 0 6 0;
#X connect 6 0 7 0;
#X connect 6 1 8 0;
#X connect 6 2 9 0;
#X connect 7 0 10 0;
#X connect 8 0 23 0;
#X connect 9 0 0 0;
#X connect 9 0 21 0;
#X connect 11 0 13 0;
#X connect 12 0 0 0;
#X connect 13 0 3 0;
#X connect 14 0 15 0;
#X connect 15 0 17 0;
#X connect 17 0 9 0;
#X connect 18 0 1 0;
#X connect 21 0 12 0;
#X connect 23 0 22 0;
#X connect 24 0 21 1;
#X connect 25 0 21 1;
#X connect 26 0 21 1;
#X connect 27 0 28 0;
#X connect 28 0 0 0;
#X restore 25 321 pd entra_notas;
#X connect 3 0 29 0;
#X connect 3 3 29 1;
#X connect 7 0 29 2;
#X connect 8 0 15 0;
#X connect 10 0 13 0;
#X connect 11 0 14 0;
#X connect 13 0 8 0;
#X connect 15 0 7 0;
#X connect 20 0 0 1;
#X connect 28 0 3 0;
#X connect 29 0 0 0;
#X coords 0 0 1 1 85 60 0;
