#N canvas 647 25 519 664 10;
#X obj 112 311 gemwin;
#X msg 112 255 create \, 1;
#X msg 125 281 0 \, destroy;
#X obj 10 -230 gemhead;
#X obj 10 113 pix_texture;
#X obj 136 49 bng 25 250 50 0 empty empty empty 0 -6 0 8 -262144 -1
-1;
#X obj 35 32 unpack 0 0 0;
#X floatatom 25 55 5 0 0 3 length - -;
#X floatatom 74 55 5 0 0 3 width - -;
#X obj 79 13 bng 15 250 50 0 empty empty end_reached 20 7 0 10 -262144
-1 -1;
#X floatatom 61 -22 5 0 10000 1 frame# - -;
#X obj 136 78 openpanel;
#X msg 136 98 open \$1;
#X obj 10 -4 pix_film;
#X msg 142 141 auto \$1;
#X obj 142 123 tgl 15 0 empty empty empty 0 -6 0 8 -262144 -1 -1 1
1;
#X msg 153 165 colorspace Grey;
#N canvas 563 209 635 398 translate 0;
#X obj 72 23 inlet;
#X obj 73 257 outlet;
#X obj 72 62 translateXYZ;
#X obj 241 59 hsl 128 15 -8 8 0 0 empty empty translate_x 130 5 0 10
-262144 -1 -1 6300 1;
#X obj 244 84 hsl 128 15 -8 8 0 0 empty empty translate_y 130 5 0 10
-262144 -1 -1 6100 1;
#X obj 242 107 hsl 128 15 -10 10 0 0 empty empty translate_z 130 5
0 10 -262144 -1 -1 7400 1;
#X obj 73 212 rotateXYZ;
#X obj 244 133 hsl 128 15 0 360 0 0 empty empty rotate_x 130 5 0 10
-262144 -1 -1 0 1;
#X obj 245 155 hsl 128 15 0 360 0 0 empty empty rotate_y 130 5 0 10
-262144 -1 -1 1200 1;
#X obj 243 177 hsl 128 15 0 360 0 0 empty empty rotate_z 130 5 0 10
-262144 -1 -1 0 1;
#X obj 216 253 pack f f f f f f;
#X obj 225 229 bng 15 250 50 0 empty empty empty 17 7 0 10 -262144
-1 -1;
#X obj 216 283 prepend set;
#X msg 216 314 -0.0629921 -0.314961 1.65354 0 34.0157 0;
#X obj 230 25 unpack \$1 \$2 \$3 \$4 \$5 \$6;
#X obj 229 2 loadbang;
#X connect 0 0 2 0;
#X connect 2 0 6 0;
#X connect 3 0 2 1;
#X connect 3 0 10 0;
#X connect 3 0 11 0;
#X connect 4 0 2 2;
#X connect 4 0 10 1;
#X connect 4 0 11 0;
#X connect 5 0 2 3;
#X connect 5 0 10 2;
#X connect 5 0 11 0;
#X connect 6 0 1 0;
#X connect 7 0 6 1;
#X connect 7 0 10 3;
#X connect 7 0 11 0;
#X connect 8 0 6 2;
#X connect 8 0 10 4;
#X connect 8 0 11 0;
#X connect 9 0 6 3;
#X connect 9 0 10 5;
#X connect 9 0 11 0;
#X connect 10 0 12 0;
#X connect 11 0 10 0;
#X connect 12 0 13 0;
#X connect 14 0 3 0;
#X connect 14 1 4 0;
#X connect 14 2 5 0;
#X connect 14 3 7 0;
#X connect 14 4 8 0;
#X connect 14 5 9 0;
#X connect 15 0 14 0;
#X coords 0 -1 1 1 240 170 2 230 50;
#X restore 10 -206 pd translate;
#X obj 259 -237 gemhead;
#X obj 259 106 pix_texture;
#X obj 385 42 bng 25 250 50 0 empty empty empty 0 -6 0 8 -262144 -1
-1;
#X obj 284 25 unpack 0 0 0;
#X floatatom 274 48 5 0 0 3 length - -;
#X floatatom 323 48 5 0 0 3 width - -;
#X obj 328 6 bng 15 250 50 0 empty empty end_reached 20 7 0 10 -262144
-1 -1;
#X floatatom 310 -29 5 0 10000 1 frame# - -;
#X obj 385 71 openpanel;
#X msg 385 91 open \$1;
#X obj 259 -11 pix_film;
#X msg 391 134 auto \$1;
#X obj 391 116 tgl 15 0 empty empty empty 0 -6 0 8 -262144 -1 -1 1
1;
#X msg 402 158 colorspace Grey;
#N canvas 546 25 635 398 translate 0;
#X obj 72 23 inlet;
#X obj 73 257 outlet;
#X obj 72 62 translateXYZ;
#X obj 243 63 hsl 128 15 -8 8 0 0 empty empty translate_x 130 5 0 10
-262144 -1 -1 7500 1;
#X obj 244 84 hsl 128 15 -8 8 0 0 empty empty translate_y 130 5 0 10
-262144 -1 -1 6200 1;
#X obj 242 107 hsl 128 15 -10 10 0 0 empty empty translate_z 130 5
0 10 -262144 -1 -1 7200 1;
#X obj 73 212 rotateXYZ;
#X obj 244 133 hsl 128 15 0 360 0 0 empty empty rotate_x 130 5 0 10
-262144 -1 -1 0 1;
#X obj 245 155 hsl 128 15 0 360 0 0 empty empty rotate_y 130 5 0 10
-262144 -1 -1 3900 1;
#X obj 243 177 hsl 128 15 0 360 0 0 empty empty rotate_z 130 5 0 10
-262144 -1 -1 0 1;
#X connect 0 0 2 0;
#X connect 2 0 6 0;
#X connect 3 0 2 1;
#X connect 4 0 2 2;
#X connect 5 0 2 3;
#X connect 6 0 1 0;
#X connect 7 0 6 1;
#X connect 8 0 6 2;
#X connect 9 0 6 3;
#X coords 0 -1 1 1 240 170 2 230 50;
#X restore 259 -200 pd translate;
#X obj 10 231 rectangle;
#X obj 258 224 rectangle;
#X msg 114 212 draw line;
#X msg 92 186 draw fill;
#X connect 1 0 0 0;
#X connect 2 0 0 0;
#X connect 3 0 17 0;
#X connect 4 0 33 0;
#X connect 5 0 11 0;
#X connect 6 0 7 0;
#X connect 6 1 8 0;
#X connect 10 0 13 1;
#X connect 11 0 12 0;
#X connect 12 0 13 0;
#X connect 13 0 4 0;
#X connect 13 1 6 0;
#X connect 13 2 9 0;
#X connect 14 0 13 0;
#X connect 15 0 14 0;
#X connect 16 0 13 0;
#X connect 17 0 13 0;
#X connect 18 0 32 0;
#X connect 19 0 34 0;
#X connect 20 0 26 0;
#X connect 21 0 22 0;
#X connect 21 1 23 0;
#X connect 25 0 28 1;
#X connect 26 0 27 0;
#X connect 27 0 28 0;
#X connect 28 0 19 0;
#X connect 28 1 21 0;
#X connect 28 2 24 0;
#X connect 29 0 28 0;
#X connect 30 0 29 0;
#X connect 31 0 28 0;
#X connect 32 0 28 0;
#X connect 35 0 33 0;
#X connect 35 0 34 0;
#X connect 36 0 33 0;
#X connect 36 0 34 0;
