#N canvas 155 28 913 685 10;
#X obj 66 -571 adc~;
#X obj 67 -493 fiddle~ 1024;
#X obj 68 -464 int;
#X floatatom 68 -427 5 0 0 0 - - -;
#X obj 314 -565 tgl 15 0 empty empty empty 17 7 0 10 -262144 -1 -1
0 1;
#X obj 68 -365 tabwrite teste;
#N canvas 5 22 450 300 (subpatch) 0;
#X array teste 25 float 3;
#A 0 73 57.8571 51 57.8571 47 58.2857 58.4285 51 58.5714 58.4285 47
48 51 52 55 54 55 88 59 60 48 49 48 48 47;
#X coords 0 70 25 50 200 140 1;
#X restore 534 -467 graph;
#X obj 314 -421 tabread teste;
#X floatatom 314 -361 5 0 0 0 - - -;
#X obj 314 -505 f;
#X obj 366 -505 + 1;
#X obj 314 -471 % 5;
#X text 77 -323 grava no teste;
#X obj 161 -429 f;
#X obj 210 -428 + 1;
#X text 313 -337 le do teste;
#X obj 161 -465 bng 15 250 50 0 empty empty empty 17 7 0 10 -262144
-1 -1;
#X obj 314 -537 metro 1000;
#X obj 314 -393 int;
#X obj 161 -395 % 25;
#X obj 161 -526 key;
#X obj 161 -501 select 97;
#X floatatom 182 -237 5 0 0 0 nota_dada - -;
#X obj 182 -176 random 4;
#X floatatom 182 -147 5 0 0 0 - - -;
#X obj 182 -203 bng 15 250 50 0 empty empty empty 17 7 0 10 -262144
-1 -1;
#X obj 182 -122 select 0 1 2 3 4;
#N canvas 399 118 607 478 tonica 0;
#X obj 127 297 osc~;
#X obj 178 294 osc~;
#X obj 232 297 osc~;
#X msg 127 182 \$1;
#X obj 179 217 + \$1;
#X obj 230 217 + \$1;
#X msg 190 153 4;
#X msg 253 188 7;
#X obj 127 260 mtof;
#X obj 178 259 mtof;
#X obj 231 261 mtof;
#X msg 222 153 3;
#X obj 153 415 dac~;
#X obj 161 377 *~;
#X obj 127 23 inlet;
#X obj 366 318 vline~;
#X obj 190 72 bng 15 250 50 0 empty empty empty 17 7 0 10 -262144 -1
-1;
#X obj 190 96 random 2;
#X obj 190 123 select 0 1;
#X obj 80 133 receive nota;
#X msg 317 193 0;
#X obj 312 48 inlet;
#X msg 366 277 0.1 1000 0 \, 0 1000 1000;
#X connect 0 0 13 0;
#X connect 1 0 13 0;
#X connect 2 0 13 0;
#X connect 3 0 4 0;
#X connect 3 0 5 0;
#X connect 3 0 8 0;
#X connect 4 0 9 0;
#X connect 5 0 10 0;
#X connect 6 0 4 1;
#X connect 7 0 5 1;
#X connect 8 0 0 0;
#X connect 9 0 1 0;
#X connect 10 0 2 0;
#X connect 11 0 4 1;
#X connect 13 0 12 0;
#X connect 14 0 22 0;
#X connect 14 0 16 0;
#X connect 14 0 7 0;
#X connect 15 0 13 1;
#X connect 16 0 17 0;
#X connect 17 0 18 0;
#X connect 18 0 6 0;
#X connect 18 1 11 0;
#X connect 19 0 3 0;
#X connect 20 0 15 0;
#X connect 21 0 20 0;
#X connect 22 0 15 0;
#X restore 182 25 pd tonica;
#N canvas 239 62 577 487 terca 0;
#X obj 90 295 osc~;
#X obj 141 292 osc~;
#X obj 195 295 osc~;
#X msg 90 180 \$1;
#X obj 90 258 mtof;
#X obj 141 257 mtof;
#X obj 194 259 mtof;
#X obj 116 413 dac~;
#X obj 124 375 *~;
#X obj 90 26 inlet;
#X obj 310 326 vline~;
#X obj 141 222 - 3;
#X obj 194 224 + 4;
#X obj 90 147 receive nota;
#X msg 310 297 0.1 1000 0 \, 0 1000 1000;
#X msg 317 193 0;
#X obj 312 48 inlet;
#X connect 0 0 8 0;
#X connect 1 0 8 0;
#X connect 2 0 8 0;
#X connect 3 0 4 0;
#X connect 3 0 11 0;
#X connect 3 0 12 0;
#X connect 4 0 0 0;
#X connect 5 0 1 0;
#X connect 6 0 2 0;
#X connect 8 0 7 0;
#X connect 9 0 14 0;
#X connect 10 0 8 1;
#X connect 11 0 5 0;
#X connect 12 0 6 0;
#X connect 13 0 3 0;
#X connect 14 0 10 0;
#X connect 15 0 10 0;
#X connect 16 0 15 0;
#X restore 203 0 pd terca menor;
#N canvas 0 0 527 543 terca 0;
#X obj 90 295 osc~;
#X obj 141 292 osc~;
#X obj 195 295 osc~;
#X msg 90 180 \$1;
#X obj 90 258 mtof;
#X obj 141 257 mtof;
#X obj 194 259 mtof;
#X obj 116 413 dac~;
#X obj 124 375 *~;
#X obj 90 26 inlet;
#X obj 310 326 vline~;
#X obj 90 147 receive nota;
#X obj 141 222 - 4;
#X obj 194 224 + 3;
#X msg 310 297 0.1 1000 0 \, 0 1000 1000;
#X msg 317 193 0;
#X obj 312 48 inlet;
#X connect 0 0 8 0;
#X connect 1 0 8 0;
#X connect 2 0 8 0;
#X connect 3 0 4 0;
#X connect 3 0 12 0;
#X connect 3 0 13 0;
#X connect 4 0 0 0;
#X connect 5 0 1 0;
#X connect 6 0 2 0;
#X connect 8 0 7 1;
#X connect 9 0 14 0;
#X connect 10 0 8 1;
#X connect 11 0 3 0;
#X connect 12 0 5 0;
#X connect 13 0 6 0;
#X connect 14 0 10 0;
#X connect 15 0 10 0;
#X connect 16 0 15 0;
#X restore 224 -27 pd terca maior;
#N canvas 0 0 505 494 quinta 0;
#X obj 90 295 osc~;
#X obj 141 292 osc~;
#X obj 195 295 osc~;
#X msg 90 180 \$1;
#X obj 90 258 mtof;
#X obj 141 257 mtof;
#X obj 194 259 mtof;
#X obj 116 413 dac~;
#X obj 124 375 *~;
#X obj 90 26 inlet;
#X obj 310 326 vline~;
#X obj 90 101 receive nota;
#X obj 141 222 - 7;
#X msg 190 193 4;
#X msg 222 193 3;
#X obj 190 112 bng 15 250 50 0 empty empty empty 17 7 0 10 -262144
-1 -1;
#X obj 190 136 random 2;
#X obj 190 163 select 0 1;
#X obj 194 231 - \$1;
#X msg 310 297 0.1 1000 0 \, 0 1000 1000;
#X msg 317 193 0;
#X obj 312 48 inlet;
#X connect 0 0 8 0;
#X connect 1 0 8 0;
#X connect 2 0 8 0;
#X connect 3 0 4 0;
#X connect 3 0 12 0;
#X connect 3 0 18 0;
#X connect 4 0 0 0;
#X connect 5 0 1 0;
#X connect 6 0 2 0;
#X connect 8 0 7 1;
#X connect 9 0 19 0;
#X connect 9 0 15 0;
#X connect 10 0 8 1;
#X connect 11 0 3 0;
#X connect 12 0 5 0;
#X connect 13 0 18 1;
#X connect 14 0 18 1;
#X connect 15 0 16 0;
#X connect 16 0 17 0;
#X connect 17 0 13 0;
#X connect 17 1 14 0;
#X connect 18 0 6 0;
#X connect 19 0 10 0;
#X connect 20 0 10 0;
#X connect 21 0 20 0;
#X restore 246 -55 pd quinta;
#X obj 182 -90 bng 15 250 50 0 empty empty empty 17 7 0 10 -262144
-1 -1;
#X obj 203 -90 bng 15 250 50 0 empty empty empty 17 7 0 10 -262144
-1 -1;
#X obj 224 -88 bng 15 250 50 0 empty empty empty 17 7 0 10 -262144
-1 -1;
#X obj 246 -87 bng 15 250 50 0 empty empty empty 17 7 0 10 -262144
-1 -1;
#X obj 329 -128 receive desligaharmonia1;
#X obj 28 -294 send nota;
#X connect 0 0 1 0;
#X connect 0 1 1 0;
#X connect 1 0 2 0;
#X connect 2 0 3 0;
#X connect 3 0 5 0;
#X connect 3 0 36 0;
#X connect 3 0 22 0;
#X connect 4 0 17 0;
#X connect 7 0 18 0;
#X connect 9 0 10 0;
#X connect 9 0 11 0;
#X connect 10 0 9 1;
#X connect 11 0 7 0;
#X connect 13 0 14 0;
#X connect 13 0 19 0;
#X connect 14 0 13 1;
#X connect 16 0 13 0;
#X connect 17 0 9 0;
#X connect 18 0 8 0;
#X connect 19 0 5 1;
#X connect 20 0 21 0;
#X connect 21 0 16 0;
#X connect 22 0 25 0;
#X connect 23 0 24 0;
#X connect 24 0 26 0;
#X connect 25 0 23 0;
#X connect 26 0 31 0;
#X connect 26 1 32 0;
#X connect 26 2 33 0;
#X connect 26 3 34 0;
#X connect 31 0 27 0;
#X connect 32 0 28 0;
#X connect 33 0 29 0;
#X connect 34 0 30 0;
#X connect 35 0 30 1;
#X connect 35 0 29 1;
#X connect 35 0 28 1;
#X connect 35 0 27 1;
