#N canvas 413 49 867 650 10;
#X obj 266 -271 prepend 0;
#X msg 202 -333 3 5 6 1 0 80 300 25;
#X msg 345 -233 resize \$1;
#X obj 315 -162 table array_\$0;
#X obj 266 -209 s array_\$0;
#X obj 293 21 f;
#X obj 293 -9 expr if ($f1 < $f2 \, $f1 \, $f2);
#X obj 293 -50 expr abs(array_\$0[$f1] - $f2);
#X msg 491 -50 9e+10;
#X obj 464 -81 t f b;
#X floatatom 464 -337 5 0 0 0 - - -;
#X obj 293 50 change;
#X obj 282 134 f;
#X obj 293 -116 - 1;
#X obj 293 78 b;
#X obj 282 157 pack f f;
#X obj 282 217 tabdump array_\$0;
#X obj 387 217 s array_\$0;
#X obj 282 254 print lista;
#X obj 268 -166 f;
#X obj 293 104 float;
#X obj 293 -78 trigger float float;
#X obj 282 184 trigger bang list;
#X obj 202 -304 trigger bang list list;
#X obj 331 -271 list length;
#X obj 125 -232;
#X obj 26 -346 cnv 15 160 500 empty empty empty 20 12 0 14 -233017
-66577 0;
#X text 41 -351 entendendo;
#X obj 95 -283 prepend set;
#X obj 100 -146 prepend add;
#X text 23 -119 valores de;
#X text 24 -105 distancia da;
#X text 25 -89 nota de entrada;
#X text 28 -73 em relacao a;
#X text 27 -56 cada elemento da;
#X text 31 -40 lista;
#X obj 110 14 prepend add;
#X text 31 50 aqui escolhe;
#X text 32 70 quem e o menor;
#X msg 132 -117 259 \; 257 \; 256 \; 261 \; 262 \; 182 \; 38 \; 237
\;;
#X msg 142 43 38 \; 38 \; 38 \; 38 \; 38 \; 38 \; 38 \; 38 \;;
#X obj 665 -222;
#X obj 566 -336 cnv 15 160 500 empty empty empty 20 12 0 14 -233017
-66577 0;
#X obj 651 -95 prepend add;
#X text 563 -109 valores de;
#X text 564 -95 distancia da;
#X text 565 -79 nota de entrada;
#X text 568 -63 em relacao a;
#X text 567 -46 cada elemento da;
#X text 571 -30 lista;
#X obj 650 24 prepend add;
#X text 571 60 aqui escolhe;
#X text 572 80 quem e o menor;
#X msg 683 -66 6 \;;
#X msg 682 53;
#X text 581 -341 comment;
#X obj 589 -263 prepend add;
#X obj 629 -233 prepend add;
#X msg 95 -261 8;
#X msg 589 -241 \;;
#X msg 629 -211 1 \; 2 \; 3 \; 4 \; 5 \; 6 \; 7 \; 8 \;;
#X obj 276 -140 Uzi;
#X text 408 185 uma lista aqui nesse caso;
#X text 455 202 significa: posicao e valor;
#X connect 0 0 4 0;
#X connect 1 0 23 0;
#X connect 2 0 4 0;
#X connect 5 0 6 1;
#X connect 5 0 11 0;
#X connect 6 0 5 0;
#X connect 6 0 36 0;
#X connect 7 0 6 0;
#X connect 7 0 29 0;
#X connect 8 0 6 1;
#X connect 9 0 7 1;
#X connect 9 0 15 1;
#X connect 9 1 8 0;
#X connect 10 0 9 0;
#X connect 11 0 14 0;
#X connect 12 0 15 0;
#X connect 12 0 43 0;
#X connect 13 0 21 0;
#X connect 14 0 20 0;
#X connect 15 0 22 0;
#X connect 16 0 18 0;
#X connect 19 0 61 0;
#X connect 20 0 12 1;
#X connect 21 0 7 0;
#X connect 21 1 20 1;
#X connect 22 0 16 0;
#X connect 22 1 17 0;
#X connect 23 0 19 0;
#X connect 23 1 0 0;
#X connect 23 2 24 0;
#X connect 24 0 2 0;
#X connect 24 0 19 1;
#X connect 24 0 28 0;
#X connect 28 0 58 0;
#X connect 29 0 39 0;
#X connect 36 0 40 0;
#X connect 43 0 53 0;
#X connect 50 0 54 0;
#X connect 56 0 59 0;
#X connect 57 0 60 0;
#X connect 61 1 12 0;
#X connect 61 1 56 0;
#X connect 61 2 13 0;
#X connect 61 2 57 0;
