#N canvas 388 44 800 694 16;
#N canvas 0 26 1250 699 input 0;
#X obj 36 140 env~;
#X obj 542 146 fiddle~;
#X floatatom 36 175 5 0 0 0 - - -;
#X obj 36 207 changemorethan 5;
#X floatatom 36 244 5 0 0 0 - - -;
#X text 144 303 de acordo com o nível de ruído;
#X text 145 330 do ambiente.;
#X floatatom 36 429 5 0 0 0 - - -;
#X floatatom 113 360 5 0 0 0 - - -;
#X text 172 377 aqui saem só as amplitudes;
#X text 100 440 a partir desse valor é considerado;
#X text 137 281 esse valor deve ser calibrado;
#X text 176 402 do áudio de entrada.;
#X text 103 467 silêncio/pausa.;
#X obj 36 467 b;
#X obj 113 395 b;
#X obj 36 505 bng 45 250 50 0 empty empty empty 17 7 0 10 -262144 -1
-1;
#X obj 113 508 bng 45 250 50 0 empty empty empty 17 7 0 10 -262144
-1 -1;
#X floatatom 542 216 5 0 0 0 - - -;
#X obj 542 254 int;
#X floatatom 543 288 5 0 0 0 - - -;
#X obj 543 324 pitch;
#X floatatom 543 406 5 0 0 0 - - -;
#X symbolatom 554 379 10 0 0 0 - - -;
#X floatatom 566 353 5 0 0 0 - - -;
#N canvas 0 0 450 300 (subpatch) 0;
#X array notas 4 float 3;
#A 0 60 62 64 67;
#X coords 0 127 4 0 200 140 1;
#X restore 785 228 graph;
#X obj 543 469 s nota;
#X obj 335 46 receive~ input;
#X obj 542 182 changemorethan 1;
#X text 281 326 +- 80 - 85 amb ruidoso;
#X text 280 343 +- 70 - 80 instr virtual;
#X obj 784 160 tabwrite notas;
#X obj 784 31 r nota;
#X obj 784 63 t f b;
#X floatatom 935 134 5 0 0 0 - - -;
#X obj 784 117 spigot;
#X obj 841 67 tgl 15 0 empty empty gravar_sequencia_de_4_notas 17 -10
0 20 -258113 -1 -1 0 1;
#X obj 920 74 bng 15 250 50 0 empty empty empty 17 7 0 10 -262144 -1
-1;
#X obj 921 97 counter 3;
#X obj 790 409 tabdump notas;
#X obj 790 441 prepend set;
#X msg 790 472 60 62 64 67;
#X obj 771 384 bng 15 250 50 0 empty empty empty 17 7 0 10 -262144
-1 -1;
#X obj 567 545 colecao_vs_pitch;
#X obj 724 582 bng 15 250 50 0 empty empty empty 17 7 0 10 -262144
-1 -1;
#X obj 36 286 moses 70;
#X obj 567 585 bng 15 250 50 0 empty empty empty 17 7 0 10 -262144
-1 -1;
#N canvas 165 42 335 422 nota 0;
#X obj 21 15 cnv 15 300 400 empty empty empty 20 12 0 14 -233017 -66577
0;
#X obj 28 191 list-apply == 50;
#X obj 30 220 prepend set;
#X msg 30 254 0 0 0 0;
#X msg 28 53 60 30 40 50;
#X msg 169 70 60;
#X msg 223 70 30;
#X msg 279 70 40;
#X msg 281 117 10;
#X obj 155 152 t b f;
#X obj 28 19 inlet;
#X obj 155 19 inlet;
#X obj 30 286 outlet;
#X text 30 321 confere se a nota que entra;
#X text 23 343 no inlet 2 \, esta na lista que;
#X text 23 367 atualiza no inlet 1;
#X connect 1 0 2 0;
#X connect 2 0 3 0;
#X connect 3 0 12 0;
#X connect 4 0 1 0;
#X connect 5 0 9 0;
#X connect 6 0 9 0;
#X connect 7 0 9 0;
#X connect 8 0 9 0;
#X connect 9 0 4 0;
#X connect 9 1 1 2;
#X connect 10 0 4 0;
#X connect 11 0 9 0;
#X restore 910 542 pd nota mais proxima;
#X connect 0 0 2 0;
#X connect 1 0 28 0;
#X connect 2 0 3 0;
#X connect 3 0 4 0;
#X connect 4 0 45 0;
#X connect 7 0 14 0;
#X connect 8 0 15 0;
#X connect 14 0 16 0;
#X connect 15 0 17 0;
#X connect 18 0 19 0;
#X connect 19 0 20 0;
#X connect 20 0 21 0;
#X connect 21 0 22 0;
#X connect 21 1 23 0;
#X connect 21 2 24 0;
#X connect 22 0 26 0;
#X connect 22 0 43 0;
#X connect 27 0 0 0;
#X connect 27 0 1 0;
#X connect 28 0 18 0;
#X connect 32 0 33 0;
#X connect 33 0 35 0;
#X connect 33 1 38 0;
#X connect 35 0 31 0;
#X connect 36 0 35 1;
#X connect 37 0 38 0;
#X connect 38 0 31 1;
#X connect 38 0 34 0;
#X connect 39 0 40 0;
#X connect 40 0 41 0;
#X connect 41 0 43 1;
#X connect 42 0 39 0;
#X connect 42 0 41 0;
#X connect 43 0 46 0;
#X connect 43 1 44 0;
#X connect 45 0 7 0;
#X connect 45 1 8 0;
#X restore 73 124 pd input;
#X text 126 29 protótipo1 - Dueto melódico;
#X obj 18 645 send~ input;
#N canvas 0 0 450 300 output 0;
#X restore 78 301 pd output;
#X text 497 27 objetivo do patch;
#X text 487 57 1) vc liga e ele grava 4;
#X text 484 115 2) ele cria harmonias e;
#X text 460 144 jogos de contorno com essas;
#X text 442 168 notas \;;
#X text 472 81 notas \;;
#X text 478 216 3) compara notas de entrada;
#X text 414 244 com as notas que estao no buffer;
#X text 376 277 e decide se inclui a nota no grupo;
#X text 331 301 ou nao \;;
#X obj 17 480 abs-sampler-sf2;
#X connect 14 0 2 0;
#X coords 0 0 1 1 85 60 0;
