#N canvas 468 25 800 694 16;
#N canvas 72 40 845 687 input 0;
#X floatatom 35 223 5 0 0 0 - - -;
#X obj 35 261 int;
#X floatatom 36 295 5 0 0 0 - - -;
#X obj 36 331 pitch;
#X floatatom 36 413 5 0 0 0 - - -;
#X symbolatom 47 386 10 0 0 0 - - -;
#X floatatom 59 360 5 0 0 0 - - -;
#N canvas 0 0 450 300 (subpatch) 0;
#X array notas 4 float 3;
#A 0 9 0 1 11;
#X coords 0 127 4 0 200 140 1;
#X restore 578 414 graph;
#X obj 36 476 s nota;
#X obj 35 106 receive~ input;
#X obj 156 234 tabwrite notas;
#X floatatom 307 208 5 0 0 0 - - -;
#X obj 156 191 spigot;
#X obj 253 137 tgl 15 0 empty empty gravar_sequencia_de_4_notas 17
-10 0 20 -258113 -1 -1 0 1;
#X obj 292 148 bng 15 250 50 0 empty empty empty 17 7 0 10 -262144
-1 -1;
#X obj 293 171 counter 3;
#X obj 329 299 tabdump notas;
#X obj 329 331 prepend set;
#X msg 329 362 0 0 1 11;
#X obj 307 272 bng 15 250 50 0 empty empty empty 17 7 0 10 -262144
-1 -1;
#X obj 172 589 colecao_vs_pitch;
#X obj 172 629 bng 15 250 50 0 empty empty empty 17 7 0 10 -262144
-1 -1;
#N canvas 95 25 1041 578 audioin 0;
#X obj 29 23 inlet~;
#X obj 128 22 inlet;
#X text 537 45 1- entrada de audio;
#X text 542 78 2 - volume do audio;
#X text 560 109 de entrada;
#X floatatom 28 243 5 0 0 0 - - -;
#X floatatom 305 279 5 0 0 0 - - -;
#X text 95 265 pitch;
#X text 321 248 envelope;
#X obj 28 210 sigmund~ -hop 4096 pitch env;
#X obj 156 89 hsl 128 15 0 0.5 0 0 empty empty empty -2 -8 0 10 -262144
-1 -1 0 1;
#X obj 28 273 int;
#X floatatom 28 306 5 0 0 0 - - -;
#X obj 27 352 moses 0;
#X floatatom 27 399 5 0 0 0 - - -;
#X floatatom 94 400 5 0 0 0 - - -;
#X obj 28 167 *~ 0.015;
#X floatatom 304 384 5 0 0 0 - - -;
#X floatatom 382 390 5 0 0 0 - - -;
#X obj 305 330 moses 42;
#X floatatom 381 286 5 0 0 0 - - -;
#X text 411 354 com o volume de entrada;
#X text 403 329 3 - calibrar o moses de acordo;
#X obj 713 392 timer;
#X obj 713 311 b;
#X floatatom 713 418 5 0 0 0 - - -;
#X obj 713 371 bng 15 250 50 0 empty empty empty 17 7 0 10 -262144
-1 -1;
#X obj 760 371 bng 15 250 50 0 empty empty empty 17 7 0 10 -262144
-1 -1;
#X obj 713 341 alternate;
#X obj 713 255 bonk~;
#X obj 713 284 bng 15 250 50 0 empty empty empty 17 7 0 10 -262144
-1 -1;
#X obj 94 452 outlet;
#X obj 259 454 outlet;
#X obj 712 493 outlet;
#X obj 809 494 outlet;
#X obj 259 421 int;
#X floatatom 355 451 5 0 0 0 - - -;
#X connect 0 0 16 0;
#X connect 1 0 16 1;
#X connect 5 0 11 0;
#X connect 6 0 19 0;
#X connect 6 0 35 0;
#X connect 9 0 5 0;
#X connect 9 1 6 0;
#X connect 10 0 16 1;
#X connect 11 0 12 0;
#X connect 12 0 13 0;
#X connect 13 0 14 0;
#X connect 13 1 15 0;
#X connect 15 0 31 0;
#X connect 16 0 9 0;
#X connect 16 0 29 0;
#X connect 19 0 17 0;
#X connect 19 1 18 0;
#X connect 20 0 19 1;
#X connect 23 0 25 0;
#X connect 24 0 28 0;
#X connect 25 0 33 0;
#X connect 26 0 23 0;
#X connect 27 0 23 1;
#X connect 28 0 26 0;
#X connect 28 1 27 0;
#X connect 29 0 30 0;
#X connect 29 0 34 0;
#X connect 30 0 24 0;
#X connect 35 0 32 0;
#X connect 35 0 36 0;
#X restore 35 146 pd audioin;
#X obj 156 137 t f f;
#X obj 329 629 bng 15 250 50 0 empty empty empty 17 7 0 10 -262144
-1 -1;
#X obj 307 245 sel 3;
#X text 354 623 -------> como decidir se a nova nota entra \; na lista
ou nao;
#X text 133 622 sim;
#X text 292 622 nao;
#N canvas 542 214 628 521 contador_pitchs 1;
#X obj 63 19 inlet;
#X obj 63 68 sel 0 1 2 3 4 5 6 7 8 9 10 11;
#X obj 63 265 counter;
#X obj 86 213 counter;
#X obj 110 161 counter;
#X obj 134 108 counter;
#X obj 63 321 bng 15 250 50 0 empty empty empty 17 7 0 10 -262144 -1
-1;
#X obj 88 321 bng 15 250 50 0 empty empty empty 17 7 0 10 -262144 -1
-1;
#X obj 110 322 bng 15 250 50 0 empty empty empty 17 7 0 10 -262144
-1 -1;
#X obj 135 322 bng 15 250 50 0 empty empty empty 17 7 0 10 -262144
-1 -1;
#X obj 159 265 counter;
#X obj 182 213 counter;
#X obj 206 161 counter;
#X obj 230 108 counter;
#X obj 159 321 bng 15 250 50 0 empty empty empty 17 7 0 10 -262144
-1 -1;
#X obj 184 321 bng 15 250 50 0 empty empty empty 17 7 0 10 -262144
-1 -1;
#X obj 206 322 bng 15 250 50 0 empty empty empty 17 7 0 10 -262144
-1 -1;
#X obj 231 322 bng 15 250 50 0 empty empty empty 17 7 0 10 -262144
-1 -1;
#X obj 255 265 counter;
#X obj 278 213 counter;
#X obj 302 161 counter;
#X obj 326 108 counter;
#X obj 255 321 bng 15 250 50 0 empty empty empty 17 7 0 10 -262144
-1 -1;
#X obj 280 321 bng 15 250 50 0 empty empty empty 17 7 0 10 -262144
-1 -1;
#X obj 302 322 bng 15 250 50 0 empty empty empty 17 7 0 10 -262144
-1 -1;
#X obj 327 322 bng 15 250 50 0 empty empty empty 17 7 0 10 -262144
-1 -1;
#X obj 63 291 sel 3;
#X obj 86 239 sel 3;
#X obj 110 188 sel 3;
#X obj 134 134 sel 3;
#X obj 230 134 sel 3;
#X obj 206 188 sel 3;
#X obj 182 239 sel 3;
#X obj 159 291 sel 3;
#X obj 255 291 sel 3;
#X obj 278 239 sel 3;
#X obj 302 188 sel 3;
#X obj 326 134 sel 3;
#X msg 63 343 0;
#X msg 88 373 1;
#X msg 110 342 2;
#X msg 135 374 3;
#X msg 159 344 4;
#X msg 184 374 5;
#X msg 206 346 6;
#X msg 231 375 7;
#X msg 255 347 8;
#X msg 280 374 9;
#X msg 302 348 10;
#X msg 327 375 11;
#X obj 192 457 outlet;
#X obj 469 93 bng 15 250 50 0 empty empty empty 17 7 0 10 -262144 -1
-1;
#X text 488 84 reset;
#X text 489 100 geral;
#X obj 436 201 f;
#X msg 463 162 2;
#X obj 436 165 bng 15 250 50 0 empty empty empty 17 7 0 10 -262144
-1 -1;
#X text 476 201 permeabilidade;
#X text 471 219 de modulacao;
#X text 498 182 grau de;
#X connect 0 0 1 0;
#X connect 1 0 2 0;
#X connect 1 1 3 0;
#X connect 1 2 4 0;
#X connect 1 3 5 0;
#X connect 1 4 10 0;
#X connect 1 5 11 0;
#X connect 1 6 12 0;
#X connect 1 7 13 0;
#X connect 1 8 18 0;
#X connect 1 9 19 0;
#X connect 1 10 20 0;
#X connect 1 11 21 0;
#X connect 2 0 26 0;
#X connect 3 0 27 0;
#X connect 4 0 28 0;
#X connect 5 0 29 0;
#X connect 6 0 2 2;
#X connect 6 0 38 0;
#X connect 7 0 3 2;
#X connect 7 0 39 0;
#X connect 8 0 4 2;
#X connect 8 0 40 0;
#X connect 9 0 5 2;
#X connect 9 0 41 0;
#X connect 10 0 33 0;
#X connect 11 0 32 0;
#X connect 12 0 31 0;
#X connect 13 0 30 0;
#X connect 14 0 10 2;
#X connect 14 0 42 0;
#X connect 15 0 11 2;
#X connect 15 0 43 0;
#X connect 16 0 12 2;
#X connect 16 0 44 0;
#X connect 17 0 13 2;
#X connect 17 0 45 0;
#X connect 18 0 34 0;
#X connect 19 0 35 0;
#X connect 20 0 36 0;
#X connect 21 0 37 0;
#X connect 22 0 18 2;
#X connect 22 0 46 0;
#X connect 23 0 19 2;
#X connect 23 0 47 0;
#X connect 24 0 20 2;
#X connect 24 0 48 0;
#X connect 25 0 21 2;
#X connect 25 0 49 0;
#X connect 26 0 6 0;
#X connect 27 0 7 0;
#X connect 28 0 8 0;
#X connect 29 0 9 0;
#X connect 30 0 17 0;
#X connect 31 0 16 0;
#X connect 32 0 15 0;
#X connect 33 0 14 0;
#X connect 34 0 22 0;
#X connect 35 0 23 0;
#X connect 36 0 24 0;
#X connect 37 0 25 0;
#X connect 38 0 50 0;
#X connect 39 0 50 0;
#X connect 40 0 50 0;
#X connect 41 0 50 0;
#X connect 42 0 50 0;
#X connect 43 0 50 0;
#X connect 44 0 50 0;
#X connect 45 0 50 0;
#X connect 46 0 50 0;
#X connect 47 0 50 0;
#X connect 48 0 50 0;
#X connect 49 0 50 0;
#X connect 51 0 2 2;
#X connect 51 0 10 2;
#X connect 51 0 18 2;
#X connect 51 0 3 2;
#X connect 51 0 11 2;
#X connect 51 0 19 2;
#X connect 51 0 4 2;
#X connect 51 0 12 2;
#X connect 51 0 20 2;
#X connect 51 0 5 2;
#X connect 51 0 13 2;
#X connect 51 0 21 2;
#X connect 54 0 29 1;
#X connect 54 0 30 1;
#X connect 54 0 37 1;
#X connect 54 0 36 1;
#X connect 54 0 31 1;
#X connect 54 0 28 1;
#X connect 54 0 35 1;
#X connect 54 0 32 1;
#X connect 54 0 27 1;
#X connect 54 0 34 1;
#X connect 54 0 33 1;
#X connect 54 0 26 1;
#X connect 55 0 54 1;
#X connect 56 0 54 0;
#X restore 253 18 pd contador_pitchs;
#X obj 35 187 change;
#X obj 253 47 t b f b;
#X msg 356 79 1;
#X floatatom 297 79 5 0 0 0 - - -;
#X msg 253 77 0;
#X text 451 15 a nota so entra se aparecer 4 vezes;
#X obj 383 465 outlet;
#X connect 0 0 1 0;
#X connect 1 0 2 0;
#X connect 2 0 3 0;
#X connect 3 0 4 0;
#X connect 3 1 5 0;
#X connect 3 2 6 0;
#X connect 4 0 8 0;
#X connect 4 0 20 0;
#X connect 6 0 23 0;
#X connect 6 0 29 0;
#X connect 9 0 22 0;
#X connect 11 0 25 0;
#X connect 12 0 10 0;
#X connect 13 0 12 1;
#X connect 14 0 15 0;
#X connect 15 0 10 1;
#X connect 15 0 11 0;
#X connect 16 0 17 0;
#X connect 17 0 18 0;
#X connect 18 0 20 1;
#X connect 19 0 16 0;
#X connect 19 0 18 0;
#X connect 19 0 36 0;
#X connect 20 0 21 0;
#X connect 20 2 24 0;
#X connect 22 0 30 0;
#X connect 23 0 12 0;
#X connect 23 1 15 0;
#X connect 25 0 19 0;
#X connect 29 0 31 0;
#X connect 30 0 0 0;
#X connect 31 0 34 0;
#X connect 31 1 33 0;
#X connect 31 2 32 0;
#X connect 32 0 13 0;
#X connect 33 0 23 0;
#X connect 34 0 13 0;
#X restore 78 124 pd input;
#X text 126 29 protótipo1 - Dueto melódico;
#X obj 18 645 send~ input;
#N canvas 22 102 636 559 output 1;
#X text 63 169 select rhythm;
#N canvas 63 44 340 273 register 0;
#X floatatom 131 141 0 0 0 0 - - -;
#X obj 38 207 outlet;
#X obj 38 171 brownian 3 8 0.3;
#X text 179 142 brown factor;
#X msg 131 107 0.3;
#X msg 163 107 0;
#X msg 194 107 1;
#X obj 131 76 sel 0 1;
#X obj 131 46 inlet;
#X obj 38 46 inlet;
#X connect 0 0 2 3;
#X connect 2 0 1 0;
#X connect 4 0 0 0;
#X connect 5 0 0 0;
#X connect 6 0 0 0;
#X connect 7 0 4 0;
#X connect 7 1 5 0;
#X connect 7 2 6 0;
#X connect 8 0 7 0;
#X connect 9 0 2 0;
#X restore 202 356 pd register;
#X floatatom 202 384 0 0 0 0 - - -;
#X obj 85 444 pitch2note 4;
#X obj 85 273 permutate;
#X obj 85 244 bng 15 50 50 0 empty empty empty 0 -6 0 8 -262144 -1
-1;
#N canvas 101 87 506 367 rhythm 0;
#N canvas 203 143 578 209 chords 0;
#X obj 23 95 repchord-rhythm 100 1000 12 6 0.8 0.2;
#X obj 23 37 inlet;
#X obj 23 131 outlet;
#X floatatom 458 68 0 0 0 0 - - -;
#X floatatom 385 68 0 0 0 0 - - -;
#X floatatom 313 68 0 0 0 0 - - -;
#X floatatom 240 68 0 0 0 0 - - -;
#X floatatom 168 68 0 0 0 0 - - -;
#X floatatom 95 68 0 0 0 0 - - -;
#X obj 23 68 tgl 15 0 empty empty empty 0 -6 0 8 -262144 -1 -1 0 1
;
#X text 95 52 min.ED;
#X text 168 52 max.ED;
#X text 239 52 ED-values;
#X text 451 39 periodicity of max.ED;
#X text 379 39 periodicity of min.ED;
#X text 306 39 max. chord size;
#X connect 0 0 2 0;
#X connect 1 0 9 0;
#X connect 3 0 0 6;
#X connect 4 0 0 5;
#X connect 5 0 0 4;
#X connect 6 0 0 3;
#X connect 7 0 0 2;
#X connect 8 0 0 1;
#X connect 9 0 0 0;
#X restore 265 136 pd chords;
#X obj 151 108 tgl 15 0 empty empty empty 0 -6 0 8 -262144 -1 -1 0
1;
#N canvas 106 198 524 257 rubato 0;
#X obj 35 150 outlet;
#X text 406 150 chosen ED;
#X text 234 150 row index;
#X floatatom 196 150 0 0 0 0 - - -;
#X floatatom 358 150 0 0 0 0 - - -;
#X obj 35 53 inlet;
#X obj 35 87 tgl 15 0 empty empty empty 0 -6 0 8 -262144 -1 -1 0 1
;
#X floatatom 275 91 0 0 0 0 - - -;
#X floatatom 355 91 0 0 0 0 - - -;
#X floatatom 195 91 0 0 0 0 - - -;
#X floatatom 115 91 0 0 0 0 - - -;
#X text 194 76 max. ED;
#X text 115 76 min. ED;
#X text 355 76 brownian factor;
#X text 275 76 ED-values;
#X text 325 201 max. ED;
#X text 193 201 min. ED;
#X obj 196 180 hsl 128 15 0 127 0 0 empty empty empty -2 -6 0 8 -262144
-1 -1 0 1;
#X obj 35 116 brown-rhythm 75 1000 24 0.07;
#X connect 3 0 17 0;
#X connect 5 0 6 0;
#X connect 6 0 18 0;
#X connect 7 0 18 3;
#X connect 8 0 18 4;
#X connect 9 0 18 2;
#X connect 10 0 18 1;
#X connect 18 0 0 0;
#X connect 18 1 3 0;
#X connect 18 2 4 0;
#X restore 151 136 pd rubato;
#X obj 38 108 tgl 15 0 empty empty empty 0 -6 0 8 -262144 -1 -1 0 1
;
#N canvas 63 44 278 222 pulsation 0;
#X obj 39 53 inlet;
#X text 158 86 speed;
#X obj 39 147 outlet;
#X obj 39 112 metro 250;
#X floatatom 109 85 0 0 0 0 - - -;
#X obj 39 85 tgl 15 0 empty empty empty 0 -6 0 8 -262144 -1 -1 0 1
;
#X connect 0 0 5 0;
#X connect 3 0 2 0;
#X connect 4 0 3 1;
#X connect 5 0 3 0;
#X restore 38 136 pd pulsation;
#X obj 38 178 outlet;
#X obj 38 42 inlet;
#X obj 265 108 tgl 15 0 empty empty empty 0 -6 0 8 -262144 -1 -1 0
1;
#X obj 135 88 unpack 0 0 0;
#X msg 145 23 1 0 0;
#X msg 146 64 0 0 1;
#X msg 146 43 0 1 0;
#X msg 195 65 0 0 0;
#X obj 38 70 select 1 2 3;
#X connect 0 0 5 0;
#X connect 1 0 2 0;
#X connect 2 0 5 0;
#X connect 3 0 4 0;
#X connect 4 0 5 0;
#X connect 6 0 13 0;
#X connect 7 0 0 0;
#X connect 8 0 3 0;
#X connect 8 1 1 0;
#X connect 8 2 7 0;
#X connect 9 0 8 0;
#X connect 10 0 8 0;
#X connect 11 0 8 0;
#X connect 12 0 8 0;
#X connect 13 0 9 0;
#X connect 13 1 11 0;
#X connect 13 2 10 0;
#X connect 13 3 12 0;
#X restore 85 215 pd rhythm;
#X obj 85 189 hradio 15 1 0 4 empty empty empty 0 -6 0 8 -262144 -1
-1 0;
#X obj 309 330 hradio 15 1 0 3 empty empty empty 0 -6 0 8 -262144 -1
-1 1;
#X obj 85 485 play2 127 500 1 1;
#X obj 85 304 t a a;
#X obj 202 411 + 0;
#X floatatom 281 412 5 0 0 1 octave - -;
#X msg 285 182 0 2 4 5 7 9 10;
#X msg 282 221 0 3 6 5 7 9 10;
#X obj 32 337 prepend set;
#X msg 33 362 4;
#X obj 288 78 tabdump notas;
#X obj 288 110 prepend set;
#X msg 288 141 4 9 4 4;
#X obj 266 51 bng 15 250 50 0 empty empty empty 17 7 0 10 -262144 -1
-1;
#X obj 281 389 hradio 15 1 0 8 empty empty empty 0 -8 0 10 -262144
-1 -1 0;
#X text 356 327 distribuicao dos registros;
#X obj 242 410 - 2;
#X obj 266 18 inlet;
#X connect 1 0 2 0;
#X connect 2 0 11 0;
#X connect 3 0 9 0;
#X connect 4 0 10 0;
#X connect 5 0 4 0;
#X connect 6 0 5 0;
#X connect 7 0 6 0;
#X connect 8 0 1 1;
#X connect 10 0 3 0;
#X connect 10 0 15 0;
#X connect 10 1 1 0;
#X connect 11 0 3 1;
#X connect 12 0 23 0;
#X connect 13 0 4 1;
#X connect 14 0 4 1;
#X connect 15 0 16 0;
#X connect 17 0 18 0;
#X connect 18 0 19 0;
#X connect 19 0 4 1;
#X connect 20 0 17 0;
#X connect 20 0 19 0;
#X connect 21 0 12 0;
#X connect 23 0 11 1;
#X connect 24 0 20 0;
#X restore 78 301 pd output;
#X text 497 27 objetivo do patch;
#X text 487 57 1) vc liga e ele grava 4;
#X text 484 115 2) ele cria harmonias e;
#X text 460 144 jogos de contorno com essas;
#X text 442 168 notas \;;
#X text 472 81 notas \;;
#X text 478 216 3) compara notas de entrada;
#X text 414 244 com as notas que estao no buffer;
#X text 376 277 e decide se inclui a nota no grupo;
#X text 331 301 ou nao \;;
#X obj 17 480 abs-sampler-sf2;
#X obj 78 271 bng 15 250 50 0 empty empty empty 17 7 0 10 -262144 -1
-1;
#X connect 0 0 15 0;
#X connect 14 0 2 0;
#X connect 15 0 3 0;
#X coords 0 0 1 1 85 60 0;
