#N canvas 479 97 913 604 16;
#X obj 185 90 gemhead;
#X msg 246 255 font \$1;
#X obj 246 226 openpanel;
#X obj 246 205 bng 15 250 50 0 empty empty empty 0 -6 0 8 -262144 -1
-1;
#X obj 185 471 text2d;
#X floatatom 407 184 5 0 0 0 - - -;
#X obj 242 439 r size;
#X obj 407 147 inlet;
#X floatatom 525 204 5 0 0 0 - - -;
#X symbolatom 507 123 10 0 0 0 - - -;
#X text 614 122 notas;
#X text 506 160 posicao;
#X msg 460 438 0.015;
#X msg 487 412 0.11;
#X msg 515 386 0.236;
#X msg 542 360 0.33;
#X obj 460 291 sel e f g a b c;
#X msg 626 491 text \$1;
#X symbolatom 625 340 10 0 0 0 - - -;
#X msg 676 371 q;
#X msg 694 403 e;
#X obj 645 446 l2s;
#X obj 762 312 loadbang;
#X obj 97 323 r fonte;
#X obj 510 149 hsl 128 15 -4 4 0 0 empty empty empty -2 -8 0 10 -262144
-1 -1 4400 1;
#X obj 184 165 translateXYZ;
#X obj 347 46 hsl 128 15 -8 8 0 0 empty empty X 12 8 1 12 -233017 -1
-1 0 1;
#X obj 347 66 hsl 128 15 -6 6 0 0 empty empty Y 12 8 1 12 -233017 -1
-1 5600 1;
#X obj 347 86 hsl 128 15 -6 6 0 0 empty empty Z 12 8 1 12 -233017 -1
-1 0 1;
#X text 345 27 translate;
#X text 342 99 rotate;
#X obj 517 28 pack f f f;
#X obj 648 23 prepend set;
#X msg 649 54 -8 -0.708661 -6;
#X obj 517 5 bng 15 250 50 0 empty empty empty 17 7 0 10 -262144 -1
-1;
#X connect 0 0 25 0;
#X connect 1 0 4 0;
#X connect 2 0 1 0;
#X connect 3 0 2 0;
#X connect 6 0 4 1;
#X connect 7 0 5 0;
#X connect 9 0 16 0;
#X connect 9 0 19 0;
#X connect 12 0 5 0;
#X connect 13 0 5 0;
#X connect 14 0 5 0;
#X connect 15 0 5 0;
#X connect 16 0 12 0;
#X connect 16 1 13 0;
#X connect 16 2 14 0;
#X connect 16 3 15 0;
#X connect 17 0 4 0;
#X connect 18 0 17 0;
#X connect 19 0 21 0;
#X connect 20 0 21 0;
#X connect 21 0 17 0;
#X connect 22 0 19 0;
#X connect 23 0 4 0;
#X connect 24 0 8 0;
#X connect 25 0 4 0;
#X connect 26 0 25 1;
#X connect 26 0 31 0;
#X connect 27 0 25 2;
#X connect 27 0 31 1;
#X connect 27 0 34 0;
#X connect 28 0 25 3;
#X connect 28 0 31 2;
#X connect 28 0 34 0;
#X connect 31 0 32 0;
#X connect 32 0 33 0;
#X connect 34 0 31 0;
#X coords 0 -1 1 1 200 80 1 500 100;
