#N canvas 13 0 1242 691 12;
#X obj 85 256 image sinfoniagrafo.gif;
#X floatatom 663 69 5 0 0 0 - - -;
#X symbolatom 663 90 7 0 0 0 - - -;
#X text 729 65 pitch class;
#X obj 636 40 pitch;
#X floatatom 629 12 5 0 0 0 - nota -;
#X obj 218 17 tgl 40 0 empty empty empty 17 7 0 10 -262144 -1 -1 0
1;
#X obj 218 62 metro 1000;
#X floatatom 304 24 5 0 0 0 - - -;
#X obj 223 547 ezdac~;
#X obj 221 316 + 48;
#X obj 547 268 tgl 15 0 empty empty empty 17 7 0 10 -262144 -1 -1 0
1;
#X obj 49 415 cnv 15 15 15 empty r5 empty 20 12 0 14 -262144 -262144
0;
#X obj 0 466 cnv 15 15 15 empty r3 empty 20 12 0 14 -262144 -262144
0;
#X obj 66 485 cnv 15 15 15 empty r8 empty 20 12 0 14 -262144 -262144
0;
#N canvas 110 66 792 592 Bb_C#_G_E 0;
#X obj 157 49 inlet;
#X obj 34 205 outlet;
#X obj 16 40 inlet;
#X msg 229 98 4 1 10 7;
#X obj 144 252 == 4;
#X obj 242 254 == 1;
#X obj 340 252 == 10;
#X obj 441 253 == 7;
#X msg 419 293 \; r7 color \$1;
#X msg 319 292 \; r10 color \$1;
#X msg 221 294 \; r1 color \$1;
#X msg 124 290 \; r4 color \$1;
#X obj 59 91 spigot;
#X obj 59 121 sequence;
#X obj 232 68 loadbang;
#X obj 20 392 s chance;
#X obj 95 405 s chance;
#X obj 88 336 sel 10;
#X obj 92 368 random 4;
#X obj 13 305 sel 4;
#X obj 11 337 random 2;
#X obj 22 364 + 3;
#X connect 0 0 12 1;
#X connect 2 0 12 0;
#X connect 3 0 13 1;
#X connect 4 0 11 0;
#X connect 5 0 10 0;
#X connect 6 0 9 0;
#X connect 7 0 8 0;
#X connect 12 0 13 0;
#X connect 13 0 4 0;
#X connect 13 0 5 0;
#X connect 13 0 6 0;
#X connect 13 0 7 0;
#X connect 13 0 1 0;
#X connect 13 0 17 0;
#X connect 13 0 19 0;
#X connect 14 0 3 0;
#X connect 17 0 18 0;
#X connect 18 0 16 0;
#X connect 19 0 20 0;
#X connect 20 0 21 0;
#X connect 21 0 15 0;
#X restore 388 198 pd Bb_C#_G_E;
#X obj 566 200 tgl 15 0 empty empty empty 17 7 0 10 -262144 -1 -1 0
1;
#X obj 91 275 cnv 15 15 15 empty r4 empty 20 12 0 14 -262144 -262144
0;
#X obj 120 154 cnv 15 15 15 empty r10 empty 20 12 0 14 -166441 -262144
0;
#X obj 122 223 cnv 15 15 15 empty r7 empty 20 12 0 14 -262144 -262144
0;
#X obj 61 203 cnv 15 15 15 empty r1 empty 20 12 0 14 -262144 -262144
0;
#N canvas 0 0 450 300 decide_oitava 0;
#X obj 23 40 decide;
#X obj 22 67 sel 0 1;
#X msg 16 94 60;
#X obj 22 3 inlet;
#X obj 21 129 outlet;
#X msg 46 91 24;
#X connect 0 0 1 0;
#X connect 1 0 2 0;
#X connect 1 1 5 0;
#X connect 2 0 4 0;
#X connect 3 0 0 0;
#X connect 5 0 4 0;
#X restore 281 312 pd decide_oitava;
#N canvas 256 35 699 547 F_B 0;
#X obj 28 59 random 2;
#X obj 27 82 sel 0 1;
#X msg 22 109 11;
#X msg 52 112 5;
#X obj 29 31 spigot;
#X obj 28 -11 inlet;
#X obj 76 -11 inlet;
#X msg 93 189 \; r5 color \$1;
#X obj 112 149 == 5;
#X obj 211 151 == 11;
#X msg 189 190 \; r11 color \$1;
#X obj 13 347 s chance;
#X obj 3 291 random 2;
#X obj 5 260 sel 11;
#X obj 13 319 + 4;
#X obj 40 149 int;
#X obj 83 266 outlet;
#X obj 159 346 s chance;
#X obj 149 290 random 2;
#X obj 160 319 + 5;
#X obj 152 259 sel 5;
#X connect 0 0 1 0;
#X connect 1 0 2 0;
#X connect 1 1 3 0;
#X connect 2 0 8 0;
#X connect 2 0 9 0;
#X connect 2 0 15 0;
#X connect 3 0 8 0;
#X connect 3 0 9 0;
#X connect 3 0 15 0;
#X connect 4 0 0 0;
#X connect 5 0 4 0;
#X connect 6 0 4 1;
#X connect 8 0 7 0;
#X connect 9 0 10 0;
#X connect 12 0 14 0;
#X connect 13 0 12 0;
#X connect 14 0 11 0;
#X connect 15 0 13 0;
#X connect 15 0 16 0;
#X connect 15 0 20 0;
#X connect 18 0 19 0;
#X connect 19 0 17 0;
#X connect 20 0 18 0;
#X restore 398 247 pd F_B;
#X obj 540 247 tgl 15 0 empty empty empty 17 7 0 10 -262144 -1 -1 0
1;
#X obj 74 347 cnv 15 15 15 empty r11 empty 20 12 0 14 -262144 -262144
0;
#X obj 539 223 tgl 15 0 empty empty empty 17 7 0 10 -262144 -1 -1 0
1;
#N canvas 131 124 699 547 E_B 0;
#X obj 28 59 random 2;
#X obj 27 82 sel 0 1;
#X msg 22 109 11;
#X obj 29 31 spigot;
#X obj 28 -11 inlet;
#X obj 76 -11 inlet;
#X obj 211 151 == 11;
#X msg 189 190 \; r11 color \$1;
#X msg 52 112 4;
#X obj 112 149 == 4;
#X msg 93 189 \; r4 color \$1;
#X obj 22 348 s chance;
#X obj 15 261 sel 4;
#X obj 13 292 random 2;
#X obj 23 320 + 3;
#X obj 28 153 int;
#X obj 87 255 outlet;
#X obj 168 345 s chance;
#X obj 159 289 random 2;
#X obj 161 257 sel 11;
#X obj 170 317 + 4;
#X connect 0 0 1 0;
#X connect 1 0 2 0;
#X connect 1 1 8 0;
#X connect 2 0 6 0;
#X connect 2 0 9 0;
#X connect 2 0 15 0;
#X connect 3 0 0 0;
#X connect 4 0 3 0;
#X connect 5 0 3 1;
#X connect 6 0 7 0;
#X connect 8 0 6 0;
#X connect 8 0 9 0;
#X connect 8 0 15 0;
#X connect 9 0 10 0;
#X connect 12 0 13 0;
#X connect 13 0 14 0;
#X connect 14 0 11 0;
#X connect 15 0 16 0;
#X connect 15 0 12 0;
#X connect 15 0 19 0;
#X connect 18 0 20 0;
#X connect 19 0 18 0;
#X connect 20 0 17 0;
#X restore 398 223 pd E_B;
#X obj 239 504 fluid~;
#X msg 470 324 load /home/glerm/soundfonts/Unison.sf2;
#X msg 361 474 \$3 \$1 \$2;
#X obj 351 423 makenote 127 100;
#X obj 361 450 pack 0 0 1;
#X msg 532 478 \$3 \$1 \$2;
#X obj 347 391 moses 60;
#X obj 207 271 int;
#X obj 532 454 pack 0 0 2;
#X obj 534 172 tgl 15 0 empty empty empty 17 7 0 10 -262144 -1 -1 0
1;
#N canvas 0 0 699 547 Bb_Eb 0;
#X obj 28 59 random 2;
#X obj 27 82 sel 0 1;
#X obj 29 31 spigot;
#X obj 28 -11 inlet;
#X obj 76 -11 inlet;
#X msg 52 112 3;
#X msg 22 109 10;
#X obj 97 165 == 3;
#X obj 201 165 == 10;
#X msg 95 190 \; r3 color \$1;
#X msg 189 190 \; r10 color \$1;
#X obj 23 271 sel 3;
#X obj 28 303 random 3;
#X obj 31 340 s chance;
#X obj 106 339 s chance;
#X obj 99 269 sel 10;
#X obj 103 301 random 4;
#X obj 23 167 int;
#X obj 204 274 outlet;
#X connect 0 0 1 0;
#X connect 1 0 6 0;
#X connect 1 1 5 0;
#X connect 2 0 0 0;
#X connect 3 0 2 0;
#X connect 4 0 2 1;
#X connect 5 0 7 0;
#X connect 5 0 8 0;
#X connect 5 0 17 0;
#X connect 6 0 7 0;
#X connect 6 0 8 0;
#X connect 6 0 17 0;
#X connect 7 0 9 0;
#X connect 8 0 10 0;
#X connect 11 0 12 0;
#X connect 12 0 13 0;
#X connect 15 0 16 0;
#X connect 16 0 14 0;
#X connect 17 0 11 0;
#X connect 17 0 15 0;
#X connect 17 0 18 0;
#X restore 391 175 pd Bb_Eb;
#X obj 79 78 cnv 15 15 15 empty r3 empty 20 12 0 14 -262144 -262144
0;
#X obj 536 138 tgl 15 0 empty empty empty 17 7 0 10 -262144 -1 -1 0
1;
#N canvas 170 176 792 592 Eb_F#_A_Bb 0;
#X obj 157 49 inlet;
#X obj 34 205 outlet;
#X obj 16 40 inlet;
#X obj 340 252 == 10;
#X msg 319 292 \; r10 color \$1;
#X obj 59 91 spigot;
#X obj 59 121 sequence;
#X obj 232 68 loadbang;
#X msg 229 98 3 6 9 10;
#X obj 144 252 == 3;
#X obj 241 254 == 6;
#X obj 441 253 == 9;
#X msg 419 293 \; r9 color \$1;
#X msg 221 294 \; r6 color \$1;
#X msg 124 290 \; r3 color \$1;
#X obj 59 340 sel 3;
#X obj 63 373 random 3;
#X obj 67 409 s chance;
#X obj 141 409 s chance;
#X obj 134 338 sel 10;
#X obj 139 371 random 4;
#X connect 0 0 5 1;
#X connect 2 0 5 0;
#X connect 3 0 4 0;
#X connect 5 0 6 0;
#X connect 6 0 3 0;
#X connect 6 0 1 0;
#X connect 6 0 9 0;
#X connect 6 0 10 0;
#X connect 6 0 11 0;
#X connect 6 0 15 0;
#X connect 6 0 19 0;
#X connect 7 0 8 0;
#X connect 8 0 6 1;
#X connect 9 0 14 0;
#X connect 10 0 13 0;
#X connect 11 0 12 0;
#X connect 15 0 16 0;
#X connect 16 0 17 0;
#X connect 19 0 20 0;
#X connect 20 0 18 0;
#X restore 386 141 pd Eb_F#_A_Bb;
#X obj 133 86 cnv 15 15 15 empty r9 empty 20 12 0 14 -262144 -262144
0;
#X obj 188 35 cnv 15 15 15 empty r6 empty 20 12 0 14 -262144 -262144
0;
#X obj 547 102 tgl 15 0 empty empty empty 17 7 0 10 -262144 -1 -1 0
1;
#N canvas 0 35 1009 627 Eb_C_A_Bb 0;
#X obj 157 49 inlet;
#X obj 34 205 outlet;
#X obj 16 40 inlet;
#X obj 340 252 == 10;
#X msg 319 292 \; r10 color \$1;
#X obj 59 91 spigot;
#X obj 59 121 sequence;
#X obj 232 68 loadbang;
#X obj 144 252 == 3;
#X obj 441 253 == 9;
#X msg 419 293 \; r9 color \$1;
#X msg 124 290 \; r3 color \$1;
#X obj 240 254 == 0;
#X msg 220 294 \; r0 color \$1;
#X msg 229 98 3 0 9 10;
#X obj 59 340 sel 3;
#X obj 63 373 random 3;
#X obj 67 409 s chance;
#X obj 141 409 s chance;
#X obj 134 338 sel 10;
#X obj 139 371 random 4;
#X connect 0 0 5 1;
#X connect 2 0 5 0;
#X connect 3 0 4 0;
#X connect 5 0 6 0;
#X connect 6 0 3 0;
#X connect 6 0 1 0;
#X connect 6 0 8 0;
#X connect 6 0 9 0;
#X connect 6 0 12 0;
#X connect 6 0 15 0;
#X connect 6 0 19 0;
#X connect 7 0 14 0;
#X connect 8 0 11 0;
#X connect 9 0 10 0;
#X connect 12 0 13 0;
#X connect 14 0 6 1;
#X connect 15 0 16 0;
#X connect 16 0 17 0;
#X connect 19 0 20 0;
#X connect 20 0 18 0;
#X restore 386 117 pd Eb_C_A_Bb;
#X obj 137 228 s nota;
#X obj 75 17 cnv 15 15 15 empty r0 empty 20 12 0 14 -262144 -262144
0;
#N canvas 209 101 792 592 F_D_Ab 0;
#X obj 157 49 inlet;
#X obj 16 40 inlet;
#X msg 124 291 \; r5 color \$1;
#X msg 319 292 \; r8 color \$1;
#X obj 144 252 == 5;
#X obj 340 252 == 8;
#X obj 63 94 spigot;
#X msg 272 103 0;
#X obj 59 121 sequence;
#X obj 265 27 loadbang;
#X msg 266 53 5 8 2;
#X obj 242 254 == 2;
#X msg 221 293 \; r2 color \$1;
#X obj 41 395 s chance;
#X obj 31 339 random 2;
#X obj 42 367 + 5;
#X obj 34 308 sel 5;
#X obj 38 231 int;
#X obj 56 265 outlet;
#X connect 0 0 6 1;
#X connect 1 0 6 0;
#X connect 4 0 2 0;
#X connect 5 0 3 0;
#X connect 6 0 8 0;
#X connect 7 0 3 0;
#X connect 7 0 12 0;
#X connect 7 0 2 0;
#X connect 8 0 4 0;
#X connect 8 0 5 0;
#X connect 8 0 11 0;
#X connect 8 0 17 0;
#X connect 9 0 10 0;
#X connect 10 0 8 1;
#X connect 11 0 12 0;
#X connect 14 0 15 0;
#X connect 15 0 13 0;
#X connect 16 0 14 0;
#X connect 17 0 18 0;
#X connect 17 0 16 0;
#X restore 398 271 pd F_D_Ab;
#X obj -22 466 cnv 15 15 15 empty r2 empty 20 12 0 14 -262144 -262144
0;
#X msg 157 475 p 2 16;
#X msg 126 450 p 1 32;
#X obj 703 132 r chance;
#X floatatom 704 169 5 0 0 0 - - -;
#X obj 637 125 == 0;
#X obj 637 149 == 1;
#X obj 642 177 == 2;
#X obj 642 201 == 3;
#X obj 642 225 == 4;
#X obj 642 249 == 5;
#X obj 642 273 == 6;
#X obj 473 291 loadbang;
#X obj 523 430 makenote 67 100;
#X obj 466 369 + 48;
#X msg 111 415 \$3 \$1 \$2;
#X obj 29 341 makenote 127 100;
#X obj 111 391 pack 0 0 3;
#X msg 241 417 p 3 1;
#X obj 871 416 chord;
#X obj 124 286 + 24;
#X connect 4 1 2 0;
#X connect 4 2 1 0;
#X connect 5 0 4 0;
#X connect 6 0 7 0;
#X connect 7 0 47 0;
#X connect 7 0 15 0;
#X connect 7 0 21 0;
#X connect 7 0 22 0;
#X connect 7 0 26 0;
#X connect 7 0 37 0;
#X connect 7 0 40 0;
#X connect 7 0 44 0;
#X connect 8 0 7 1;
#X connect 10 0 33 0;
#X connect 10 0 45 0;
#X connect 11 0 47 1;
#X connect 15 0 34 0;
#X connect 16 0 15 1;
#X connect 21 0 10 1;
#X connect 22 0 34 0;
#X connect 23 0 22 1;
#X connect 25 0 26 1;
#X connect 26 0 34 0;
#X connect 27 0 9 0;
#X connect 27 1 9 1;
#X connect 28 0 27 0;
#X connect 29 0 27 0;
#X connect 30 0 31 0;
#X connect 30 1 31 1;
#X connect 31 0 29 0;
#X connect 32 0 27 0;
#X connect 33 0 30 0;
#X connect 33 0 62 0;
#X connect 33 1 61 0;
#X connect 33 1 68 0;
#X connect 34 0 10 0;
#X connect 35 0 32 0;
#X connect 36 0 37 1;
#X connect 37 0 34 0;
#X connect 39 0 40 1;
#X connect 40 0 34 0;
#X connect 43 0 44 1;
#X connect 44 0 34 0;
#X connect 47 0 34 0;
#X connect 49 0 27 0;
#X connect 50 0 27 0;
#X connect 51 0 52 0;
#X connect 51 0 53 0;
#X connect 51 0 54 0;
#X connect 51 0 55 0;
#X connect 51 0 56 0;
#X connect 51 0 57 0;
#X connect 51 0 58 0;
#X connect 51 0 59 0;
#X connect 53 0 43 0;
#X connect 54 0 39 0;
#X connect 55 0 36 0;
#X connect 56 0 16 0;
#X connect 57 0 25 0;
#X connect 58 0 23 0;
#X connect 59 0 11 0;
#X connect 60 0 28 0;
#X connect 61 0 35 0;
#X connect 61 1 35 1;
#X connect 62 0 61 0;
#X connect 63 0 27 0;
#X connect 64 0 65 0;
#X connect 64 1 65 1;
#X connect 65 0 63 0;
#X connect 66 0 9 0;
