#N canvas 0 0 833 455 10;
#X obj 269 236 ear --------------;
#X obj 67 159 tabplay~ sample;
#X msg 67 138 bang;
#X obj 188 163 s end;
#X obj 252 22 r end;
#X obj 279 74 s reset;
#X msg 29 135 stop;
#X obj 252 50 t b b;
#X obj 252 94 s play;
#X obj 111 117 r play;
#X obj 30 20 key;
#X obj 29 41 sel 32;
#X obj 29 63 alternate;
#X obj 19 171 s stop;
#X obj 134 90 s reset;
#X obj 80 88 t b b b;
#X obj 133 65 s audio_on;
#X obj 61 213 env~;
#X floatatom 61 239 5 0 0 0 - - -;
#X obj 61 264 - 100;
#X obj 62 295 vu 30 120 empty empty -1 -8 0 10 -66577 -1 1 0;
#X obj 129 296 vsl 30 120 0 127 0 0 empty empty empty 0 -9 0 10 -262144
-1 -1 7329 1;
#X obj 129 432 s amp_attack;
#X floatatom 269 279 5 0 0 0 - - -;
#X floatatom 304 281 5 0 0 0 - - -;
#N canvas 0 0 450 300 (subpatch) 0;
#X array sample 271101 float 2;
#X coords 0 1 271101 -1 200 140 1;
#X restore 544 132 graph;
#X obj 419 340 soundfiler;
#X msg 419 301 read -resize /home/livre/pesquisa/SINCOPA/samples/guit2.wav
sample;
#X msg 498 339 \; sample normalize 0.3;
#X floatatom 419 363 10 0 0 0 - - -;
#X msg 419 386 \; amps resize \$1;
#X obj 126 229 ezdac~;
#X obj 339 303 bng 15 250 50 0 empty empty ataque 17 7 0 10 -262144
-1 -1;
#X obj 374 272 bng 15 250 50 0 empty empty silencio 17 7 0 10 -262144
-1 -1;
#X connect 0 0 23 0;
#X connect 0 1 24 0;
#X connect 0 2 32 0;
#X connect 0 3 33 0;
#X connect 1 0 17 0;
#X connect 1 0 0 0;
#X connect 1 0 31 0;
#X connect 1 0 31 1;
#X connect 1 1 3 0;
#X connect 2 0 1 0;
#X connect 4 0 7 0;
#X connect 6 0 1 0;
#X connect 6 0 13 0;
#X connect 7 0 8 0;
#X connect 7 1 5 0;
#X connect 9 0 2 0;
#X connect 10 0 11 0;
#X connect 11 0 12 0;
#X connect 12 0 6 0;
#X connect 12 1 15 0;
#X connect 15 0 2 0;
#X connect 15 1 16 0;
#X connect 15 2 14 0;
#X connect 17 0 18 0;
#X connect 18 0 19 0;
#X connect 18 0 21 0;
#X connect 19 0 20 0;
#X connect 21 0 22 0;
#X connect 26 0 29 0;
#X connect 27 0 26 0;
#X connect 29 0 30 0;
