#N canvas 180 63 810 681 16;
#X obj 464 110 coll;
#C restore;
#X obj 417 24 hradio 15 1 0 12 empty empty empty 0 -8 0 10 -262144
-1 -1 11;
#N canvas 0 0 504 297 padroes 0;
#X obj 71 214 outlet;
#X msg 112 30 1 0 0 0 0;
#X msg 112 60 2 0 0 0 1;
#X msg 111 89 3 0 0 1 1;
#X msg 111 117 4 0 1 1 1;
#X obj 270 -20 bng 15 250 50 0 empty empty empty 17 7 0 10 -262144
-1 -1;
#X msg 224 28 4 1 1 1 1;
#X msg 224 58 5 1 1 1 0;
#X msg 223 87 6 1 1 0 0;
#X msg 223 115 7 1 0 0 0;
#X msg 348 28 8 0 1 1 0;
#X msg 348 58 9 1 0 0 1;
#X msg 347 87 10 1 0 1 0;
#X msg 347 115 11 0 1 0 1;
#X obj 75 -8 loadbang;
#X connect 1 0 0 0;
#X connect 2 0 0 0;
#X connect 3 0 0 0;
#X connect 4 0 0 0;
#X connect 5 0 1 0;
#X connect 5 0 2 0;
#X connect 5 0 3 0;
#X connect 5 0 4 0;
#X connect 5 0 6 0;
#X connect 5 0 7 0;
#X connect 5 0 8 0;
#X connect 5 0 9 0;
#X connect 5 0 10 0;
#X connect 5 0 11 0;
#X connect 5 0 12 0;
#X connect 5 0 13 0;
#X connect 6 0 0 0;
#X connect 7 0 0 0;
#X connect 8 0 0 0;
#X connect 9 0 0 0;
#X connect 10 0 0 0;
#X connect 11 0 0 0;
#X connect 12 0 0 0;
#X connect 13 0 0 0;
#X connect 14 0 5 0;
#X restore 494 72 pd padroes;
#X obj 283 126 list-group 4;
#X msg 216 -32 0;
#X msg 281 -33 1;
#X obj 464 149 prepend set;
#X msg 464 181 0 1 0 1;
#X obj 283 158 prepend set;
#X msg 283 190 0 0 1 1;
#X obj 167 220 list-compare;
#X obj 167 261 tgl 15 0 empty empty empty 17 7 0 10 -262144 -1 -1 0
1;
#X text 163 141 agrupados \; em 4;
#X text 37 218 compara com \; um banco de \; padroes;
#X obj 167 367 spigot;
#X obj 167 331 f;
#X obj 167 287 t b f;
#X floatatom 167 406 5 0 0 0 - - -;
#X obj 417 49 t b f f;
#X text -41 381 diz qual o numero \; do padrao que entrou;
#X obj 216 18 t b b f;
#X obj 417 -8 count 12;
#X obj 417 -39 uzi 12;
#X obj 417 -63 bng 15 250 50 0 empty empty empty 17 7 0 10 -262144
-1 -1;
#X obj 216 50 count 4;
#X obj 216 82 sel 3;
#N canvas 128 25 801 637 ocorrencia_padroes 0;
#X obj 247 120 sel 1 2 3 4 5 6 7 8 9 10 11;
#X obj 131 20 inlet;
#X obj 21 226 tabwrite padroes;
#X obj 131 56 t f f;
#X obj 247 486 s ocor;
#X obj 21 160 r ocor;
#X text 271 15 reset;
#X obj 249 20 bng 15 250 50 0 empty empty empty 17 7 0 10 -262144 -1
-1;
#X msg 348 482 \; padroes 0 10 9 8 11 9 10 8 10 9 10 11 12;
#X text 351 454 instavel;
#X msg 346 573 \; padroes 0 10 9 8 11 9 40 8 10 9 20 11 12;
#X text 348 541 estavel;
#X obj 249 -11 loadbang;
#X msg 249 47 \; padroes 0 0 0 0 0 0 0 0 0 0 0 0 0;
#X obj 247 435 count 10;
#X obj 270 404 count 10;
#X obj 295 380 count 10;
#X obj 319 352 count 10;
#X obj 344 327 count 10;
#X obj 368 299 count 10;
#X obj 392 273 count 10;
#X obj 417 244 count 10;
#X obj 441 217 count 10;
#X obj 465 190 count 10;
#X obj 489 161 count 10;
#X obj 402 0 r reset_padroes;
#X floatatom 181 492 5 0 0 0 - - -;
#N canvas 185 54 556 460 (subpatch) 0;
#X array padroes 12 float 1;
#A 0 0 2 4 4 3 3 2 5 0 4 2 0;
#X coords 0 15 11 1 200 140 1 0 0;
#X restore 554 286 graph;
#X connect 0 0 14 0;
#X connect 0 1 15 0;
#X connect 0 2 16 0;
#X connect 0 3 17 0;
#X connect 0 4 18 0;
#X connect 0 5 19 0;
#X connect 0 6 20 0;
#X connect 0 7 21 0;
#X connect 0 8 22 0;
#X connect 0 9 23 0;
#X connect 0 10 24 0;
#X connect 1 0 3 0;
#X connect 3 0 0 0;
#X connect 3 1 2 1;
#X connect 5 0 2 0;
#X connect 7 0 13 0;
#X connect 12 0 7 0;
#X connect 14 0 4 0;
#X connect 14 0 26 0;
#X connect 15 0 4 0;
#X connect 16 0 4 0;
#X connect 17 0 4 0;
#X connect 18 0 4 0;
#X connect 19 0 4 0;
#X connect 20 0 4 0;
#X connect 21 0 4 0;
#X connect 22 0 4 0;
#X connect 23 0 4 0;
#X connect 24 0 4 0;
#X connect 25 0 7 0;
#X restore -19 561 pd ocorrencia_padroes;
#X obj 579 248 metro 100;
#X obj 579 225 tgl 15 0 empty empty empty 17 7 0 10 -262144 -1 -1 0
1;
#X obj 485 -95 comment 0 16 helvetica ? 0 0 0 0 indice de estabilidade
ritmica;
#N canvas 31 47 873 659 medias 0;
#X obj 188 50 tabdump padroes;
#X obj 188 19 bng 15 250 50 0 empty empty empty 17 7 0 10 -262144 -1
-1;
#X obj 188 83 prepend set;
#X msg 188 118 10 0 7 6 8 8 8 6 6 0 0 6;
#X obj 59 36 r clock;
#X obj 188 216 list-mean;
#X floatatom 188 249 5 0 0 0 - - -;
#X obj 81 487 list-drip;
#X obj 81 308 list-math -;
#X obj 81 337 prepend set;
#X msg 81 366 4.58333 -5.41667 1.58333 0.583333 2.58333 2.58333 2.58333
0.583333 0.583333 -5.41667 -5.41667 0.583333;
#X obj 30 37 bng 15 250 50 0 empty empty empty 17 7 0 10 -262144 -1
-1;
#X obj 81 527 moses 15;
#X obj 158 563 bng 15 250 50 0 empty empty empty 17 7 0 10 -262144
-1 -1;
#X text 180 558 estavel;
#X obj 81 598 bng 15 250 50 0 empty empty empty 17 7 0 10 -262144 -1
-1;
#X text 105 594 instavel;
#X obj 59 69 t b b b b b;
#X obj 308 460 f;
#X obj 308 487 + 1;
#X msg 335 431 0;
#X floatatom 308 515 5 0 0 0 - - -;
#X obj 308 547 sel 1 2;
#X floatatom 225 596 5 0 0 0 - - -;
#X text 281 598 puxar aqui uma lista e fazer uma media que seria \;
o indice de instabilidade;
#X msg 493 423 0;
#X msg 437 423 1;
#X obj 504 214 tgl 30 0 empty empty empty 17 7 0 10 -4034 -1 -1 0 1
;
#X text 535 205 on: instavel;
#X text 536 224 off: estavel;
#X obj 705 308 vsl 15 128 0 30 0 0 empty empty empty 0 -9 0 10 -262144
-1 -1 0 1;
#X text 691 443 sensibilidade \; de instabilidade;
#X floatatom 673 499 5 0 0 0 - - -;
#X connect 0 0 2 0;
#X connect 1 0 0 0;
#X connect 2 0 3 0;
#X connect 3 0 5 0;
#X connect 3 0 8 0;
#X connect 4 0 17 0;
#X connect 5 0 6 0;
#X connect 6 0 8 1;
#X connect 7 0 12 0;
#X connect 8 0 9 0;
#X connect 9 0 10 0;
#X connect 10 0 7 0;
#X connect 11 0 17 0;
#X connect 12 0 15 0;
#X connect 12 1 13 0;
#X connect 12 1 23 0;
#X connect 13 0 18 0;
#X connect 17 0 10 0;
#X connect 17 1 3 0;
#X connect 17 2 1 0;
#X connect 17 3 18 0;
#X connect 17 4 20 0;
#X connect 18 0 19 0;
#X connect 19 0 18 1;
#X connect 19 0 21 0;
#X connect 20 0 18 1;
#X connect 21 0 22 0;
#X connect 22 0 26 0;
#X connect 22 1 25 0;
#X connect 25 0 27 0;
#X connect 26 0 27 0;
#X connect 30 0 12 1;
#X connect 30 0 32 0;
#X coords 0 -1 1 1 160 60 2 500 200;
#X restore 579 361 pd medias;
#X obj 579 279 send clock;
#X msg 635 211 100;
#X msg 689 211 1000;
#N canvas 96 86 803 641 audio 0;
#X obj 28 94 adc~;
#X obj 28 167 *~ 0.015;
#X obj 28 353 timer;
#X obj 28 272 b;
#X floatatom 28 379 10 0 0 0 - - -;
#X obj 28 332 bng 15 250 50 0 empty empty empty 17 7 0 10 -262144 -1
-1;
#X obj 75 332 bng 15 250 50 0 empty empty empty 17 7 0 10 -262144 -1
-1;
#X obj 28 302 alternate;
#X obj 28 203 bonk~;
#X obj 28 245 bng 15 250 50 0 empty empty empty 17 7 0 10 -262144 -1
-1;
#X obj 125 51 vsl 15 128 0 0.6 0 0 empty empty empty 0 -9 0 10 -262144
-1 -1 0 1;
#X obj 516 352 -;
#X floatatom 516 404 10 0 0 0 - - -;
#X obj 516 433 moses 0;
#X obj 516 467 bng 15 250 50 0 empty empty empty 17 7 0 10 -262144
-1 -1;
#X obj 583 465 bng 15 250 50 0 empty empty empty 17 7 0 10 -262144
-1 -1;
#N canvas 0 0 450 300 (subpatch) 0;
#X array tempos 10 float 3;
#A 0 156.735 127.71 507736 165.442 596393 142.568 34.8299 356.853 153.832
150.93;
#X coords 0 5000 10 0 200 140 1 0 0;
#X restore 457 101 graph;
#X obj 223 191 tabwrite tempos;
#X obj 316 166 hradio 8 1 0 10 empty empty empty 0 -8 0 10 -262144
-1 -1 2;
#X obj 316 126 count 10;
#X obj 316 94 bng 15 250 50 0 empty empty empty 17 7 0 10 -262144 -1
-1;
#X obj 69 248 t b b b;
#X obj 543 320 r mediatempo;
#X obj 223 133 r tempo;
#X obj 231 317 tabdump tempos;
#X obj 231 360 list-mean;
#X obj 231 395 s mediatempo;
#X floatatom 204 521 5 0 0 0 - - -;
#X obj 28 415 t f f;
#X obj 28 486 s tempo_calc;
#X text 262 520 duracao media \; dos ultimos 10 eventos;
#X obj 516 292 r tempo_calc;
#X obj 50 457 s tempo;
#X obj 516 527 outlet;
#X obj 583 498 outlet;
#X text 621 463 longo;
#X text 455 466 curto;
#X connect 0 0 1 0;
#X connect 0 1 1 0;
#X connect 1 0 8 0;
#X connect 2 0 4 0;
#X connect 3 0 7 0;
#X connect 4 0 28 0;
#X connect 5 0 2 0;
#X connect 6 0 2 1;
#X connect 7 0 5 0;
#X connect 7 1 6 0;
#X connect 8 0 9 0;
#X connect 8 0 21 0;
#X connect 9 0 3 0;
#X connect 10 0 1 1;
#X connect 11 0 12 0;
#X connect 12 0 13 0;
#X connect 13 0 14 0;
#X connect 13 1 15 0;
#X connect 14 0 33 0;
#X connect 15 0 34 0;
#X connect 18 0 17 1;
#X connect 19 0 18 0;
#X connect 20 0 19 0;
#X connect 21 0 24 0;
#X connect 21 2 20 0;
#X connect 22 0 11 1;
#X connect 23 0 17 0;
#X connect 24 0 25 0;
#X connect 25 0 26 0;
#X connect 25 0 27 0;
#X connect 28 0 29 0;
#X connect 28 1 32 0;
#X connect 31 0 11 0;
#X restore 216 -67 pd audio;
#X obj -11 89 count 4;
#X obj -11 121 sel 3;
#X obj -11 152 s reset_padroes;
#X obj 6 -46 metro 100;
#X obj 6 -75 tgl 15 0 empty empty empty 17 7 0 10 -262144 -1 -1 0 1
;
#X obj 6 -13 random 2;
#X obj 283 328 probalizer 200 200 12 100 1 0 1 1 3 2 5 3 5 4 4 5 4
6 3 7 6 8 1 9 5 10 3 11 1;
#X obj 166 452 + 1;
#X msg 303 268 zero;
#X connect 0 0 6 0;
#X connect 1 0 18 0;
#X connect 2 0 0 0;
#X connect 3 0 8 0;
#X connect 4 0 20 0;
#X connect 5 0 20 0;
#X connect 6 0 7 0;
#X connect 7 0 10 0;
#X connect 8 0 9 0;
#X connect 9 0 10 1;
#X connect 10 0 11 0;
#X connect 11 0 16 0;
#X connect 14 0 17 0;
#X connect 15 0 14 0;
#X connect 16 0 15 0;
#X connect 16 1 14 1;
#X connect 17 0 26 0;
#X connect 17 0 42 0;
#X connect 18 0 7 0;
#X connect 18 1 0 0;
#X connect 18 2 15 1;
#X connect 20 0 24 0;
#X connect 20 1 9 0;
#X connect 20 2 3 0;
#X connect 21 0 1 0;
#X connect 22 0 21 0;
#X connect 23 0 22 0;
#X connect 24 0 25 0;
#X connect 25 0 23 0;
#X connect 27 0 31 0;
#X connect 28 0 27 0;
#X connect 32 0 27 1;
#X connect 33 0 27 1;
#X connect 34 0 4 0;
#X connect 34 1 5 0;
#X connect 35 0 36 0;
#X connect 36 0 37 0;
#X connect 38 0 40 0;
#X connect 39 0 38 0;
#X connect 40 0 20 0;
#X connect 42 0 41 0;
#X connect 43 0 41 0;
