#N canvas 514 25 738 676 16;
#X obj 313 383 gemwin;
#X msg 313 280 create;
#X msg 324 309 destroy;
#X msg 241 319 1;
#X msg 355 340 0;
#X obj 590 100 hsl 128 15 -2.001 2.001 0 0 empty empty empty -2 -8
0 10 -262144 -1 -1 5344 1;
#X msg 603 11 0.015;
#X msg 601 44 0.11;
#X msg 667 45 0.236;
#X msg 671 13 0.33;
#X text 431 5 na partitura;
#N canvas 570 69 618 538 gemmouse 0;
#X obj 219 -58 gemmouse 1 2;
#X floatatom 219 26 5 0 0 0 - - -;
#X floatatom 248 -5 5 0 0 0 - - -;
#X obj 281 24 sel 1;
#X msg 281 66 1;
#X msg 327 63 0;
#X obj 236 99 spigot;
#X obj 236 131 maxlib/scale 0 2 0 0.99;
#X floatatom 236 158 5 0 0 0 - - -;
#X obj 236 215 * -1;
#X floatatom 236 245 5 0 0 0 - - -;
#X obj 236 186 - 0.58;
#X obj 238 280 outlet;
#X connect 0 0 1 0;
#X connect 0 1 2 0;
#X connect 0 2 3 0;
#X connect 2 0 6 0;
#X connect 3 0 4 0;
#X connect 3 1 5 0;
#X connect 4 0 6 1;
#X connect 5 0 6 1;
#X connect 6 0 7 0;
#X connect 7 0 8 0;
#X connect 8 0 11 0;
#X connect 9 0 10 0;
#X connect 10 0 12 0;
#X connect 11 0 9 0;
#X restore 452 34 pd gemmouse;
#X obj 513 181 nota g 2.5;
#X text 363 6 clica;
#X text 575 -20 escolhe nota;
#X obj 163 50 sinc-pauta1;
#X obj 148 226 r nota;
#X floatatom 146 258 5 0 0 0 - - -;
#X connect 1 0 0 0;
#X connect 1 0 3 0;
#X connect 2 0 0 0;
#X connect 3 0 0 0;
#X connect 4 0 0 0;
#X connect 5 0 12 0;
#X connect 6 0 5 0;
#X connect 7 0 5 0;
#X connect 8 0 5 0;
#X connect 9 0 5 0;
#X connect 11 0 5 0;
#X connect 16 0 17 0;
