#N canvas 175 101 995 484 10;
#N canvas 0 0 450 300 (subpatch) 0;
#X array \$0-table 5000 float 2;
#X coords 0 1 5000 -1 500 70 1 0 0;
#X restore 300 -34 graph;
#N canvas 142 63 1041 578 audioin 0;
#X floatatom 28 243 5 0 0 0 - - -;
#X floatatom 237 262 5 0 0 0 - - -;
#X text 94 410 pitch;
#X obj 28 210 sigmund~ -hop 4096 pitch env;
#X obj 156 89 hsl 128 15 0 0.1 0 0 empty empty empty -2 -8 0 10 -262144
-1 -1 0 1;
#X obj 28 273 int;
#X floatatom 28 306 5 0 0 0 - - -;
#X obj 28 332 moses 0;
#X floatatom 28 359 5 0 0 0 - - -;
#X floatatom 95 360 5 0 0 0 - - -;
#X floatatom 237 312 5 0 0 0 - - -;
#X floatatom 282 316 5 0 0 0 - - -;
#X floatatom 281 261 5 0 0 0 - - -;
#X obj 514 340 timer;
#X obj 514 259 b;
#X floatatom 514 366 5 0 0 0 - - -;
#X obj 514 319 bng 15 250 50 0 empty empty empty 17 7 0 10 -262144
-1 -1;
#X obj 565 318 bng 15 250 50 0 empty empty empty 17 7 0 10 -262144
-1 -1;
#X obj 514 289 alternate;
#X obj 514 203 bonk~;
#X obj 514 232 bng 15 250 50 0 empty empty empty 17 7 0 10 -262144
-1 -1;
#X obj 95 391 outlet;
#X obj 514 432 outlet;
#X obj 637 437 outlet;
#X obj 28 167 *~ 0.29;
#X obj 28 62 adc~;
#X obj 193 371 spigot;
#X msg 248 346 1;
#X floatatom 193 403 5 0 0 0 - - -;
#X msg 285 360 0;
#X obj 236 287 moses 51;
#X obj 383 260 bng 15 250 50 0 empty empty empty 17 7 0 10 -262144
-1 -1;
#X obj 353 350 bng 15 250 50 0 empty empty empty 17 7 0 10 -262144
-1 -1;
#X msg 404 350 clear;
#X obj 353 424 bng 15 250 50 0 empty empty empty 17 7 0 10 -262144
-1 -1;
#X obj 353 305 alternate;
#X obj 404 330 bng 15 250 50 0 empty empty empty 17 7 0 10 -262144
-1 -1;
#X text 193 468 envelope;
#X text 380 424 bang de silencio;
#X obj 353 382 pipe 800;
#X obj 153 44 inlet;
#X text 197 47 0 - 0.1;
#X obj 332 54 inlet;
#X text 393 49 45 - 53;
#X text 393 65 depende do;
#X text 395 80 nivel que esta chegando;
#X text 509 452 tempo entre;
#X text 512 469 onsets;
#X text 636 461 bonk;
#X text 155 108 volume de entrada;
#X text 357 23 sensibilidade do onset de nota;
#X obj 193 450 outlet;
#X obj 353 455 outlet;
#X connect 0 0 5 0;
#X connect 1 0 30 0;
#X connect 3 0 0 0;
#X connect 3 1 1 0;
#X connect 3 1 26 0;
#X connect 4 0 24 1;
#X connect 5 0 6 0;
#X connect 6 0 7 0;
#X connect 7 0 8 0;
#X connect 7 1 9 0;
#X connect 9 0 21 0;
#X connect 10 0 29 0;
#X connect 11 0 27 0;
#X connect 12 0 30 1;
#X connect 13 0 15 0;
#X connect 14 0 18 0;
#X connect 15 0 22 0;
#X connect 16 0 13 0;
#X connect 17 0 13 1;
#X connect 18 0 16 0;
#X connect 18 1 17 0;
#X connect 19 0 20 0;
#X connect 19 0 23 0;
#X connect 20 0 14 0;
#X connect 20 0 31 0;
#X connect 24 0 3 0;
#X connect 24 0 19 0;
#X connect 25 0 24 0;
#X connect 25 1 24 0;
#X connect 26 0 28 0;
#X connect 27 0 26 1;
#X connect 28 0 51 0;
#X connect 29 0 26 1;
#X connect 30 0 10 0;
#X connect 30 1 11 0;
#X connect 31 0 35 0;
#X connect 31 0 39 0;
#X connect 32 0 39 0;
#X connect 33 0 39 0;
#X connect 34 0 52 0;
#X connect 35 0 32 0;
#X connect 35 1 36 0;
#X connect 36 0 33 0;
#X connect 39 0 34 0;
#X connect 40 0 4 0;
#X connect 42 0 12 0;
#X restore 45 48 pd audioin;
#X obj 45 170 outlet;
#X obj 294 276 tabwrite~;
#X obj 434 186 f \$0;
#X obj 382 188 t b b;
#X obj 382 213 symbol;
#X obj 434 208 makefilename %d-table;
#X msg 382 238 set \$1;
#X obj 382 164 loadbang;
#X obj 362 166 bng 15 250 50 0 empty empty empty 17 7 0 10 -262144
-1 -1;
#X obj 294 156 adc~;
#X obj 312 -98 hsl 128 15 0 0.1 0 0 empty empty empty -2 -8 0 10 -73679
-1 -1 0 1;
#X obj 333 -74 hsl 128 15 40 53 0 0 empty empty empty -2 -8 0 10 -122584
-1 -1 0 1;
#X text 449 -104 volume de entrada;
#X text 561 -103 (0 - 0.1);
#X text 466 -76 sensibilidade do onset (40 - 53);
#X text 119 145 envelope;
#X text 125 125 bang de silencio;
#X text 135 99 tempo entre;
#X text 208 99 onsets;
#X obj 59 147 outlet;
#X obj 73 122 outlet;
#X obj 87 99 outlet;
#X obj 102 76 outlet;
#X text 95 172 pitch;
#X text 152 77 bonk;
#X obj 293 235 *~;
#X obj 377 116 tgl 15 0 empty empty empty 17 7 0 10 -262144 -1 -1 0
1;
#X obj 643 -106 tgl 30 0 empty empty liga_audioin 30 7 0 10 -204786
-1 -1 0 1;
#X obj 214 167 tgl 15 0 empty empty empty 17 7 0 10 -262144 -1 -1 0
1;
#X obj 212 197 metro 150;
#X floatatom 791 -59 8 0 0 0 - - -;
#X floatatom 771 -88 8 0 0 0 - - -;
#X obj 830 -93 comment 0 10 helvetica ? 0 0 0 0 tempo entre;
#X obj 831 -82 comment 0 10 helvetica ? 0 0 0 0 onsets;
#X obj 807 -40 comment 0 10 helvetica ? 0 0 0 0 tempo decay;
#X connect 1 0 2 0;
#X connect 1 1 21 0;
#X connect 1 2 22 0;
#X connect 1 3 23 0;
#X connect 1 4 24 0;
#X connect 4 0 7 0;
#X connect 5 0 6 0;
#X connect 5 1 4 0;
#X connect 6 0 8 0;
#X connect 7 0 6 1;
#X connect 8 0 3 0;
#X connect 9 0 5 0;
#X connect 10 0 5 0;
#X connect 11 0 27 0;
#X connect 11 1 27 0;
#X connect 12 0 1 0;
#X connect 13 0 1 1;
#X connect 27 0 3 0;
#X connect 28 0 27 1;
#X connect 29 0 28 0;
#X connect 29 0 30 0;
#X connect 30 0 31 0;
#X connect 31 0 3 0;
#X coords 0 -1 1 1 600 150 2 300 -110;
