#N canvas 107 73 958 485 10;
#X obj 451 105 cnv 15 220 110 empty empty sinc-gera_dinamica 20 6 0
14 -262130 -66577 0;
#X obj 236 235 tgl 15 0 empty empty empty 17 7 0 10 -262144 -1 -1 0
1;
#X obj 347 279 nbx 5 14 -1e+37 1e+37 0 0 empty empty empty 0 -8 0 10
-262144 -1 -1 0 256;
#X obj 360 153 tgl 15 0 empty empty empty 17 7 0 10 -262144 -1 -1 0
1;
#X obj 239 198 nbx 5 14 -1e+37 1e+37 0 0 empty empty empty 0 -8 0 10
-262144 -1 -1 0 256;
#X obj 717 268 tgl 15 0 empty empty empty 17 7 0 10 -262144 -1 -1 0
1;
#X obj 828 313 nbx 5 14 -1e+37 1e+37 0 0 empty empty empty 0 -8 0 10
-262144 -1 -1 0 256;
#X obj 718 186 tgl 15 0 empty empty empty 17 7 0 10 -262144 -1 -1 0
1;
#X obj 829 235 nbx 5 14 -1e+37 1e+37 0 0 empty empty empty 0 -8 0 10
-262144 -1 -1 0 256;
#X obj 718 238 bng 15 250 50 0 empty empty empty 17 7 0 10 -262144
-1 -1;
#X obj 236 280 bng 15 250 50 0 empty empty empty 17 7 0 10 -262144
-1 -1;
#X obj 452 129 tgl 30 0 empty empty normal 5 -6 0 10 -262144 -1 -1
0 1;
#X obj 485 130 tgl 30 0 empty empty empty 5 -6 0 10 -204786 -1 -1 0
1;
#X obj 518 131 tgl 30 0 empty empty empty 5 -6 0 10 -262130 -1 -1 0
1;
#X obj 551 131 tgl 30 0 empty empty empty 5 -6 0 10 -261234 -1 -1 0
1;
#X obj 416 345 bng 50 250 50 0 empty empty empty 17 7 0 10 -228856
-1 -1;
#X obj 516 185 nbx 4 30 -1e+37 1e+37 0 0 empty empty empty 0 -8 0 40
-262144 -1 -1 0 256;
#X obj 452 -5 select 0 1 2 3;
#X obj 452 -24 hradio 15 1 0 8 empty empty empty 0 -8 0 10 -262144
-1 -1 0;
#X msg 475 46 0;
#X msg 514 49 0;
#X msg 547 47 0;
#X msg 585 48 0;
#X obj 452 -47 inlet;
#X obj 716 312 bng 15 250 50 0 empty empty empty 17 7 0 10 -262144
-1 -1;
#N canvas 810 134 329 438 gerador 1;
#X obj 90 32 inlet;
#X floatatom 78 316 5 0 0 0 - - -;
#X obj 78 217 bng 15 250 50 0 empty empty empty 17 7 0 10 -262144 -1
-1;
#X obj 78 193 spigot;
#X msg 91 165 0;
#X msg 121 165 1;
#X obj 90 63 tgl 15 0 empty empty empty 17 7 0 10 -262144 -1 -1 0 1
;
#X obj 91 112 sel 0 1;
#X obj 78 369 outlet;
#X obj 78 247 counter 8;
#X obj 35 32 inlet;
#X obj 52 106 bng 15 250 50 0 empty empty empty 17 7 0 10 -262144 -1
-1;
#X obj 78 278 tabread \$0-amp_attack;
#X connect 0 0 6 0;
#X connect 1 0 8 0;
#X connect 2 0 9 0;
#X connect 3 0 2 0;
#X connect 4 0 3 1;
#X connect 5 0 3 1;
#X connect 6 0 7 0;
#X connect 7 0 4 0;
#X connect 7 1 5 0;
#X connect 9 0 12 0;
#X connect 10 0 11 0;
#X connect 11 0 3 0;
#X connect 12 0 1 0;
#X restore 239 173 pd gerador amplitude0;
#X obj 516 364 scale.linear 0 100 0 127;
#X obj 121 251 counter 8;
#X obj 10 252 spigot;
#X msg 20 228 0;
#X msg 51 227 1;
#X obj 20 206 delay 100;
#X obj 121 180 t b b b;
#N canvas 0 0 450 300 (subpatch) 0;
#X array \$0-amp_attack 8 float 3;
#A 0 48.26 53.7633 53.7633 55.788 50.9841 30.4064 51.3338 49.7141;
#X coords 0 100 8 0 90 50 1;
#X restore 582 132 graph;
#X obj 146 224 bng 15 250 50 0 empty empty empty 17 7 0 10 -262144
-1 -1;
#X text 171 224 reset;
#X obj 10 280 tabwrite \$0-amp_attack;
#X obj 0 331 f \$0;
#X obj -33 378 symbol;
#X obj 0 307 loadbang;
#X obj 0 355 makefilename %d-amp_attack;
#X obj -60 60 t f b;
#X obj -60 37 inlet nota;
#X obj 10 36 inlet amp_attack;
#X obj 146 34 inlet reset;
#X obj -33 402 outlet array \$0-amp_attack;
#X obj 239 35 inlet pede amp;
#N canvas 62 32 559 652 gerador 0;
#X obj 51 26 inlet;
#X obj 78 458 tabread ritmo_manipula;
#X obj 78 427 counter 8;
#X obj 78 128 delay;
#X floatatom 78 496 5 0 0 0 - - -;
#X obj 78 217 bng 15 250 50 0 empty empty empty 17 7 0 10 -262144 -1
-1;
#X obj 78 193 spigot;
#X msg 91 165 0;
#X msg 121 165 1;
#X obj 51 57 tgl 15 0 empty empty empty 17 7 0 10 -262144 -1 -1 0 1
;
#X obj 51 79 sel 0 1;
#X obj 78 105 t b b;
#X obj 118 524 s tag;
#X text 158 522 tag: tempo atual gerador;
#X obj 126 106 r tag;
#X obj 252 430 random 8;
#X obj 90 403 bng 15 250 50 0 empty empty empty 17 7 0 10 -262144 -1
-1;
#X text 108 402 muda direção de leitura;
#X obj 90 272 random 2;
#X obj 90 298 sel 0 1;
#X obj 252 382 spigot;
#X msg 300 357 0;
#X msg 270 354 1;
#X obj 78 369 spigot;
#X msg 110 343 0;
#X msg 151 341 1;
#X obj 157 378 bng 15 250 50 0 empty empty empty 17 7 0 10 -262144
-1 -1;
#X obj 183 380 bng 15 250 50 0 empty empty empty 17 7 0 10 -262144
-1 -1;
#X text 240 202 Esse patch tem as seguintes funções:;
#X text 246 225 1) fazer uma cópia do array de durações;
#X text 246 242 2) ler esse array respeitando as durações com 3 \;
possibilidades:;
#X text 283 276 *)na ordem normal;
#X text 283 298 *)randomico;
#X text 283 287 *)ao contrário;
#X obj 78 549 outlet;
#X obj 25 551 outlet;
#X obj 25 524 delay;
#X obj 25 500 int;
#X connect 0 0 9 0;
#X connect 1 0 4 0;
#X connect 2 0 1 0;
#X connect 3 0 6 0;
#X connect 4 0 12 0;
#X connect 4 0 34 0;
#X connect 4 0 37 0;
#X connect 5 0 18 0;
#X connect 5 0 20 0;
#X connect 5 0 23 0;
#X connect 6 0 5 0;
#X connect 7 0 6 1;
#X connect 8 0 6 1;
#X connect 9 0 10 0;
#X connect 10 0 7 0;
#X connect 10 1 11 0;
#X connect 11 0 3 0;
#X connect 11 1 8 0;
#X connect 14 0 3 0;
#X connect 15 0 1 0;
#X connect 16 0 2 1;
#X connect 18 0 19 0;
#X connect 19 0 16 0;
#X connect 19 0 25 0;
#X connect 19 0 21 0;
#X connect 19 0 26 0;
#X connect 19 1 22 0;
#X connect 19 1 24 0;
#X connect 19 1 27 0;
#X connect 20 0 15 0;
#X connect 21 0 20 1;
#X connect 22 0 20 1;
#X connect 23 0 2 0;
#X connect 24 0 23 1;
#X connect 25 0 23 1;
#X connect 36 0 35 0;
#X connect 37 0 36 0;
#X restore 236 255 pd gerador amplitude1;
#N canvas 319 129 598 498 gerador 0;
#X obj 128 330 brown-rhythm;
#X floatatom 145 178 4 0 0 2 min_ED - -;
#X floatatom 168 199 6 0 0 2 max_ED - -;
#X floatatom 215 156 4 0 100 2 brownian_factor - -;
#X floatatom 191 231 4 0 0 2 ED-values - -;
#X obj 145 266 pack f f f f;
#X obj 145 291 unpack f f f f;
#X obj 152 248 bng 15 250 50 0 empty empty empty 17 7 0 10 -262144
-1 -1;
#X floatatom 197 367 5 0 0 0 - - -;
#X obj 215 176 / 100;
#X obj 128 5 inlet;
#X obj 128 369 outlet;
#X obj 145 35 r min_ritmo;
#X obj 168 57 r max_ritmo;
#X obj 191 81 loadbang;
#X msg 191 110 10;
#X msg 243 109 50;
#X msg 359 221 min;
#X msg 406 224 max;
#X obj 351 95 bng 15 250 50 0 empty empty empty 17 7 0 10 -262144 -1
-1;
#X obj 332 368 s min_ritmo;
#X obj 435 369 s max_ritmo;
#X obj 332 346 spigot;
#X msg 363 318 0;
#X msg 394 318 1;
#X obj 435 345 spigot;
#X msg 466 317 0;
#X msg 497 317 1;
#X obj 351 124 t b b b b b b;
#X text 173 5 manda tocar;
#X obj 351 9 inlet;
#X text 390 8 atualiza;
#X obj 128 81 tgl 15 0 empty empty empty 17 7 0 10 -262144 -1 -1 0
1;
#X obj 197 396 outlet;
#X obj 389 48 r end;
#X obj 359 268 tabletool \$0-ritmo_manip;
#X connect 0 0 11 0;
#X connect 0 2 8 0;
#X connect 1 0 5 0;
#X connect 1 0 7 0;
#X connect 2 0 5 1;
#X connect 2 0 7 0;
#X connect 3 0 7 0;
#X connect 3 0 9 0;
#X connect 4 0 5 2;
#X connect 4 0 7 0;
#X connect 5 0 6 0;
#X connect 6 0 0 1;
#X connect 6 1 0 2;
#X connect 6 2 0 3;
#X connect 6 3 0 4;
#X connect 7 0 5 0;
#X connect 8 0 33 0;
#X connect 9 0 5 3;
#X connect 10 0 32 0;
#X connect 12 0 1 0;
#X connect 13 0 2 0;
#X connect 14 0 15 0;
#X connect 14 0 16 0;
#X connect 15 0 4 0;
#X connect 16 0 3 0;
#X connect 17 0 35 0;
#X connect 18 0 35 0;
#X connect 19 0 28 0;
#X connect 22 0 20 0;
#X connect 23 0 22 1;
#X connect 24 0 22 1;
#X connect 25 0 21 0;
#X connect 26 0 25 1;
#X connect 27 0 25 1;
#X connect 28 0 26 0;
#X connect 28 1 18 0;
#X connect 28 2 27 0;
#X connect 28 3 23 0;
#X connect 28 4 17 0;
#X connect 28 5 24 0;
#X connect 30 0 19 0;
#X connect 32 0 0 0;
#X connect 34 0 19 0;
#X connect 35 0 22 0;
#X connect 35 0 25 0;
#X restore 718 209 pd gerador amplitude2;
#N canvas 20 38 559 652 gerador 0;
#X obj 8 310 tgl 15 0 empty empty start/stop 0 -6 0 8 -262144 -1 -1
0 1;
#X text 183 294 periodicity of min.ED;
#X text 219 316 periodicity of max.ED;
#X floatatom 221 348 4 0 0 0 - - -;
#X floatatom 186 320 4 0 0 0 - - -;
#X floatatom 151 214 4 0 0 2 max_chord_size - -;
#X floatatom 115 311 4 0 0 2 ED-values - -;
#X floatatom 79 337 4 0 0 2 max_ED - -;
#X floatatom 43 327 4 0 0 2 min_ED - -;
#X floatatom 69 417 4 0 0 3 chord_size - -;
#X obj 131 412 bng 15 250 50 0 empty empty empty 0 -6 0 8 -262144 -1
-1;
#X floatatom 193 417 5 0 0 3 ED - -;
#X floatatom 255 417 4 0 0 3 ED_index - -;
#X obj 8 376 repchord-rhythm 50 2000 12 6 0.8 0.2;
#X obj 29 424 bng 15 250 50 0 empty empty empty 17 7 0 10 -262144 -1
-1;
#X obj 29 499 outlet;
#X obj 193 496 outlet;
#X obj 8 70 inlet;
#X obj 43 240 r min_ritmo;
#X obj 79 265 r max_ritmo;
#X text 255 200 esse parametro recebera a analise de densidade;
#X connect 0 0 13 0;
#X connect 3 0 13 6;
#X connect 4 0 13 5;
#X connect 5 0 13 4;
#X connect 6 0 13 3;
#X connect 7 0 13 2;
#X connect 8 0 13 1;
#X connect 11 0 16 0;
#X connect 13 0 14 0;
#X connect 13 1 9 0;
#X connect 13 2 10 0;
#X connect 13 3 11 0;
#X connect 13 4 12 0;
#X connect 14 0 15 0;
#X connect 17 0 0 0;
#X connect 18 0 8 0;
#X connect 19 0 7 0;
#X restore 717 288 pd gerador amplitude3;
#X obj 416 402 outlet ataque;
#X obj 516 401 outlet amp;
#X connect 1 0 47 0;
#X connect 3 0 25 1;
#X connect 4 0 16 0;
#X connect 5 0 49 0;
#X connect 7 0 48 0;
#X connect 9 0 15 0;
#X connect 10 0 15 0;
#X connect 11 0 3 0;
#X connect 12 0 1 0;
#X connect 13 0 7 0;
#X connect 14 0 5 0;
#X connect 15 0 50 0;
#X connect 16 0 26 0;
#X connect 17 0 11 0;
#X connect 17 0 19 0;
#X connect 17 1 12 0;
#X connect 17 1 20 0;
#X connect 17 2 13 0;
#X connect 17 2 21 0;
#X connect 17 3 14 0;
#X connect 17 3 22 0;
#X connect 18 0 17 0;
#X connect 19 0 12 0;
#X connect 19 0 13 0;
#X connect 19 0 14 0;
#X connect 20 0 11 0;
#X connect 20 0 13 0;
#X connect 20 0 14 0;
#X connect 21 0 11 0;
#X connect 21 0 12 0;
#X connect 21 0 14 0;
#X connect 22 0 11 0;
#X connect 22 0 12 0;
#X connect 22 0 13 0;
#X connect 23 0 18 0;
#X connect 24 0 15 0;
#X connect 25 0 4 0;
#X connect 26 0 51 0;
#X connect 27 0 36 1;
#X connect 28 0 36 0;
#X connect 29 0 28 1;
#X connect 30 0 28 1;
#X connect 31 0 29 0;
#X connect 32 0 27 0;
#X connect 32 1 31 0;
#X connect 32 2 30 0;
#X connect 34 0 27 2;
#X connect 37 0 40 0;
#X connect 38 0 45 0;
#X connect 39 0 37 0;
#X connect 40 0 38 1;
#X connect 41 0 32 0;
#X connect 41 1 38 0;
#X connect 42 0 41 0;
#X connect 43 0 28 0;
#X connect 44 0 34 0;
#X connect 46 0 25 0;
#X connect 47 0 10 0;
#X connect 47 1 2 0;
#X connect 48 0 9 0;
#X connect 48 1 8 0;
#X connect 49 0 24 0;
#X connect 49 1 6 0;
#X coords 0 -1 1 1 225 120 2 450 100;
