#N canvas 0 24 724 411 10;
#X obj 30 129 osc~;
#X obj 186 77 breakpoints;
#X msg 229 38 duration 500;
#X obj 184 42 bng 15 250 50 0 empty empty empty 17 7 0 10 -262144 -1
-1;
#X obj 184 17 inlet;
#X obj 229 15 loadbang;
#X obj 30 34 inlet;
#X floatatom 184 237 5 0 0 0 - - -;
#X obj 29 383 dac~;
#N canvas 24 129 450 300 volumono 0;
#X msg 214 15 set \$1;
#X obj 195 76 line~;
#X msg 175 48 0;
#X obj 175 -29 t b b f;
#X msg 222 48 100;
#X obj 175 -58 inlet;
#X obj 146 103 *~;
#X obj 84 47 inlet~;
#X obj 147 152 outlet~;
#X floatatom 286 1 5 0 0 0 - - -;
#X obj 214 -7 / 10;
#X connect 0 0 2 0;
#X connect 1 0 6 1;
#X connect 2 0 1 0;
#X connect 3 0 2 0;
#X connect 3 1 4 0;
#X connect 3 2 9 0;
#X connect 3 2 10 0;
#X connect 4 0 1 1;
#X connect 5 0 3 0;
#X connect 6 0 8 0;
#X connect 7 0 6 0;
#X connect 10 0 0 0;
#X restore 29 301 pd volumono;
#X obj 28 345 *~ 5;
#X obj 172 325 hsl 128 15 0 5 0 0 empty empty empty -2 -8 0 10 -262144
-1 -1 1000 1;
#X obj 30 92 mtof;
#X obj 334 15 closebang;
#X msg 334 39 dump;
#X obj 399 14 prepend set;
#X msg 399 44 0 42.5 0.95 75 0.407143 137.5 0.292857 245 0;
#X obj 481 15 loadbang;
#X floatatom -15 163 5 0 0 0 - - -;
#X obj 90 19 inlet;
#X msg 90 43 duration \$1;
#X obj 446 329 vline~;
#X text 494 328 refazer com vline~;
#X msg 169 300 1;
#X obj 169 275 loadbang;
#X connect 0 0 9 0;
#X connect 1 0 7 0;
#X connect 1 1 15 0;
#X connect 2 0 1 0;
#X connect 3 0 1 0;
#X connect 4 0 3 0;
#X connect 5 0 2 0;
#X connect 6 0 12 0;
#X connect 7 0 9 1;
#X connect 9 0 10 0;
#X connect 10 0 8 0;
#X connect 10 0 8 1;
#X connect 11 0 10 1;
#X connect 12 0 0 0;
#X connect 12 0 18 0;
#X connect 13 0 14 0;
#X connect 14 0 1 0;
#X connect 15 0 16 0;
#X connect 16 0 1 0;
#X connect 17 0 16 0;
#X connect 19 0 20 0;
#X connect 20 0 1 0;
#X connect 23 0 11 0;
#X connect 24 0 23 0;
