#N canvas 288 52 497 571 10;
#X obj 45 225 sinc-mixer;
#X obj 44 108 osc~;
#X obj 44 77 mtof;
#X obj 47 51 hsl 128 15 0 127 0 0 empty empty empty -2 -8 0 10 -262144
-1 -1 0 1;
#X obj 125 151 osc~;
#X obj 125 122 mtof;
#X obj 128 96 hsl 128 15 0 127 0 0 empty empty empty -2 -8 0 10 -262144
-1 -1 0 1;
#X obj 206 191 osc~;
#X obj 206 162 mtof;
#X obj 209 138 hsl 128 15 0 127 0 0 empty empty empty -2 -8 0 10 -262144
-1 -1 0 1;
#X connect 1 0 0 0;
#X connect 2 0 1 0;
#X connect 3 0 2 0;
#X connect 4 0 0 1;
#X connect 5 0 4 0;
#X connect 6 0 5 0;
#X connect 7 0 0 2;
#X connect 8 0 7 0;
#X connect 9 0 8 0;
