#N canvas 10 139 1121 602 12;
#X obj 468 -20 key;
#X floatatom 468 24 5 0 0 0 - - -;
#X obj 699 182 timer;
#X floatatom 699 209 5 0 0 0 - - -;
#X obj 468 144 alternate;
#X obj 699 266 * 48000;
#X floatatom 699 293 10 0 0 0 - - -;
#X msg 421 197 bang;
#X msg 481 198 stop;
#X msg 699 358 3000 \$1;
#X obj 401 164 bng 15 250 50 0 empty empty empty 17 7 0 10 -262144
-1 -1;
#X obj 465 174 bng 15 250 50 0 empty empty empty 17 7 0 10 -262144
-1 -1;
#X obj 887 408 bng 15 250 50 0 empty empty empty 17 7 0 10 -262144
-1 -1;
#X obj 906 282 prepend set;
#X msg 906 310 3000 6.94393e+06;
#X obj 699 240 / 1000;
#X obj 698 471 *~;
#X obj 851 466 line~;
#X obj 909 435 delay 10;
#X msg 909 460 0.6 100;
#X msg 851 438 0 50;
#X obj 468 111 spigot;
#X obj 602 118 tgl 15 0 empty empty habilita_canal 17 7 0 10 -262144
-1 -1 0 1;
#X obj 698 530 outlet~;
#X obj 699 399 tabplay~ \$0-array1;
#X obj 421 236 tabwrite~ \$0-array1;
#X obj 138 143 table \$0-array1;
#X obj 218 361 f \$0;
#X obj 179 415 symbol;
#X obj 156 326 t b b b;
#X obj 119 301 bng 15 250 50 0 empty empty empty 17 7 0 10 -262144
-1 -1;
#X obj 172 292 closebang;
#X obj 156 254 loadbang;
#X msg 194 450 \; \$1 const 0;
#X msg 179 497 \; \$1 resize 4.41e+06;
#X symbolatom 323 452 15 0 0 0 - - -;
#X obj 218 388 makefilename %d-array1;
#X obj 699 321 - 5000;
#X obj 323 184 inlet~;
#X obj 468 47 sel 32;
#X obj 602 -12 inlet;
#X connect 0 0 1 0;
#X connect 1 0 39 0;
#X connect 2 0 3 0;
#X connect 3 0 15 0;
#X connect 4 0 2 0;
#X connect 4 0 7 0;
#X connect 4 0 10 0;
#X connect 4 1 2 1;
#X connect 4 1 8 0;
#X connect 4 1 11 0;
#X connect 5 0 6 0;
#X connect 6 0 37 0;
#X connect 7 0 25 0;
#X connect 8 0 25 0;
#X connect 9 0 13 0;
#X connect 9 0 24 0;
#X connect 12 0 14 0;
#X connect 12 0 20 0;
#X connect 12 0 18 0;
#X connect 13 0 14 0;
#X connect 14 0 24 0;
#X connect 15 0 5 0;
#X connect 16 0 23 0;
#X connect 17 0 16 1;
#X connect 18 0 19 0;
#X connect 19 0 17 0;
#X connect 20 0 17 0;
#X connect 21 0 4 0;
#X connect 22 0 21 1;
#X connect 24 0 16 0;
#X connect 24 1 12 0;
#X connect 27 0 36 0;
#X connect 28 0 33 0;
#X connect 28 0 34 0;
#X connect 28 0 35 0;
#X connect 29 1 28 0;
#X connect 29 2 27 0;
#X connect 30 0 29 0;
#X connect 31 0 29 0;
#X connect 32 0 29 0;
#X connect 36 0 28 1;
#X connect 37 0 9 0;
#X connect 38 0 25 0;
#X connect 39 0 21 0;
#X connect 40 0 22 0;
#X coords 0 -1 1 1 120 35 1 600 100;
