#N canvas 0 0 777 468 10;
#X obj 159 140 timer;
#X obj 159 374 /;
#X floatatom 180 401 5 0 0 0 - - -;
#X obj 504 292 list prepend 0;
#N canvas 0 0 450 300 (subpatch) 0;
#X array \$0-taps 8 float 0;
#X coords 0 1000 7 50 200 140 1;
#X restore 378 8 graph;
#X obj 583 10 vsl 15 135 50 1000 0 0 empty \$0-gmean gm 0 -9 0 10 -262144
-1 -1 0 1;
#X obj 599 10 vsl 15 135 50 1000 0 0 empty \$0-mean mean 0 -9 0 10
-262144 -1 -1 0 1;
#X obj 515 547 cnv 15 100 60 empty \$0-quality instavel 10 35 0 30
-191407 -1 0;
#X obj 42 502 s \$0-quality;
#X obj 159 450 moses 0.99;
#X obj 358 331 s \$0-mean;
#X obj 168 332 s \$0-gmean;
#X obj 159 246 t a a a;
#X obj 183 429 hsl 128 15 0 1 0 0 empty empty empty -2 -8 0 10 -262144
-1 -1 0 1;
#X obj 504 322 s \$0-taps;
#N canvas 534 229 450 300 show-bpm 0;
#X floatatom 107 144 5 0 0 1 IOI_in_bpm - -;
#X floatatom 107 126 5 0 0 1 IOI - -;
#N canvas 0 0 450 300 ms2bpm 0;
#X obj 93 50 inlet;
#X obj 93 102 swap 60000;
#X obj 93 131 /;
#X obj 93 182 outlet;
#X connect 0 0 1 0;
#X connect 1 0 2 0;
#X connect 1 1 2 1;
#X connect 2 0 3 0;
#X restore 248 99 pd ms2bpm;
#X obj 248 37 inlet;
#X connect 2 0 0 0;
#X connect 3 0 1 0;
#X connect 3 0 2 0;
#X coords 0 -1 1 1 125 60 1 100 100;
#X restore 478 398 pd show-bpm;
#N canvas 534 229 450 300 show-bpm 0;
#X floatatom 107 144 5 0 0 1 IOI_in_bpm - -;
#X floatatom 107 126 5 0 0 1 IOI - -;
#N canvas 0 0 450 300 ms2bpm 0;
#X obj 93 50 inlet;
#X obj 93 102 swap 60000;
#X obj 93 131 /;
#X obj 93 182 outlet;
#X connect 0 0 1 0;
#X connect 1 0 2 0;
#X connect 1 1 2 1;
#X connect 2 0 3 0;
#X restore 248 99 pd ms2bpm;
#X obj 248 37 inlet;
#X connect 2 0 0 0;
#X connect 3 0 1 0;
#X connect 3 0 2 0;
#X coords 0 -1 1 1 125 60 1 100 100;
#X restore 614 398 pd show-bpm;
#X obj 614 372 r \$0-mean;
#X obj 478 372 r \$0-gmean;
#X obj 50 211 s \$0-last;
#N canvas 534 229 450 300 show-bpm 0;
#X floatatom 107 144 5 0 0 1 IOI_in_bpm - -;
#X floatatom 107 126 5 0 0 1 IOI - -;
#N canvas 0 0 450 300 ms2bpm 0;
#X obj 93 50 inlet;
#X obj 93 102 swap 60000;
#X obj 93 131 /;
#X obj 93 182 outlet;
#X connect 0 0 1 0;
#X connect 1 0 2 0;
#X connect 1 1 2 1;
#X connect 2 0 3 0;
#X restore 248 99 pd ms2bpm;
#X obj 248 37 inlet;
#X connect 2 0 0 0;
#X connect 3 0 1 0;
#X connect 3 0 2 0;
#X coords 0 -1 1 1 125 60 1 100 100;
#X restore 452 192 pd show-bpm;
#X obj 452 162 r \$0-last;
#X obj 648 183 s \$0-taps;
#X msg 648 140 resize \$1;
#X obj 267 212 r \$0-buffer-size;
#X obj 760 166 s \$0-buffer-size;
#X floatatom 648 114 5 0 0 0 - - -;
#X msg 648 88 8;
#X msg 685 87 16;
#X msg 605 318 1021.68 371.519;
#N canvas 76 136 778 583 last-x 0;
#X obj 153 175 cnv 15 150 80 empty empty empty 20 12 0 14 -233017 -66577
0;
#X floatatom 370 79 5 0 0 2 change-size - -;
#X obj 326 112 t f b;
#X text 311 195 Right outlet is responsible to first fill the list
;
#X text 312 211 Left outlet then only lets the smaller list pass.;
#X obj 180 183 list;
#X obj 326 54 inlet;
#X obj 180 149 inlet;
#X obj 180 302 outlet;
#X obj 180 228 list split \$1;
#X obj 326 78 f \$1;
#X floatatom 86 202 5 0 0 0 - - -;
#X text 378 110 primeiro reseta (b) \, depois delimita novo tamanho
da lista(f).;
#X connect 1 0 2 0;
#X connect 2 0 9 1;
#X connect 2 1 5 1;
#X connect 5 0 9 0;
#X connect 6 0 10 0;
#X connect 7 0 5 0;
#X connect 7 0 11 0;
#X connect 9 0 5 1;
#X connect 9 0 8 0;
#X connect 9 2 5 1;
#X connect 10 0 2 0;
#X restore 159 212 pd last-x;
#X obj 648 63 loadbang;
#X obj 518 527 hsl 128 15 0 1 0 0 empty empty empty -2 -8 0 10 -262144
-1 -1 0 1;
#X floatatom 444 585 5 0 0 0 - - -;
#X msg 127 589 label instavel;
#X msg 281 588 label estavel;
#X msg 127 621 0;
#X msg 281 621 1;
#X obj 160 666 outlet;
#X obj 160 78 bng 15 250 50 0 empty empty empty 17 7 0 10 -262144 -1
-1;
#N canvas 109 370 872 310 tamanho-filtro 0;
#X obj 200 256 outlet;
#X obj 297 223 outlet;
#X obj 297 189 b;
#X obj 200 120 moses 2000;
#X obj 123 64 inlet;
#X obj 123 90 moses 50;
#X text 305 122 filtro de registor musicalmente viavel (Handel \, 1989)
;
#X text 368 218 reset timer daqui;
#X connect 2 0 1 0;
#X connect 3 0 0 0;
#X connect 3 1 2 0;
#X connect 4 0 5 0;
#X connect 5 0 2 0;
#X connect 5 1 3 0;
#X restore 159 178 pd tamanho-filtro;
#N canvas 0 0 566 431 media-geometrica 0;
#X obj 127 69 inlet;
#X obj 127 337 outlet;
#X obj 154 144 list-drip;
#X obj 154 170 route float;
#X obj 127 274 f;
#X obj 291 176 pow -1;
#X obj 154 199 pow;
#N canvas 370 313 450 300 product 0;
#X obj 135 79 inlet;
#X obj 205 77 inlet;
#X obj 135 169 outlet;
#X obj 210 139 f;
#X obj 135 137 *;
#X obj 205 100 1;
#X connect 0 0 4 0;
#X connect 1 0 5 0;
#X connect 3 0 4 1;
#X connect 4 0 2 0;
#X connect 4 0 3 0;
#X connect 5 0 4 1;
#X restore 154 231 pd product;
#X obj 127 105 t b a b a;
#X obj 291 148 list length;
#X connect 0 0 8 0;
#X connect 2 0 3 0;
#X connect 3 0 6 0;
#X connect 4 0 1 0;
#X connect 5 0 6 1;
#X connect 6 0 7 0;
#X connect 7 0 4 1;
#X connect 8 0 4 0;
#X connect 8 1 2 0;
#X connect 8 2 7 1;
#X connect 8 3 9 0;
#X connect 9 0 5 0;
#X restore 159 290 pd media-geometrica;
#N canvas 0 0 566 431 media-aritmetica 0;
#X obj 127 69 inlet;
#X obj 127 337 outlet;
#X obj 147 138 list-drip;
#X obj 147 164 route float;
#X obj 127 274 f;
#N canvas 370 313 450 300 product 0;
#X obj 135 79 inlet;
#X obj 182 79 inlet;
#X obj 135 169 outlet;
#X obj 168 138 f;
#X obj 182 102 0;
#X obj 135 137 +;
#X connect 0 0 5 0;
#X connect 1 0 4 0;
#X connect 3 0 5 1;
#X connect 4 0 5 1;
#X connect 5 0 2 0;
#X connect 5 0 3 0;
#X restore 147 225 pd product;
#X obj 127 105 t b a b a;
#X obj 254 222 list length;
#X obj 127 306 /;
#X connect 0 0 6 0;
#X connect 2 0 3 0;
#X connect 3 0 5 0;
#X connect 4 0 8 0;
#X connect 5 0 4 1;
#X connect 6 0 4 0;
#X connect 6 1 2 0;
#X connect 6 2 5 1;
#X connect 6 3 7 0;
#X connect 7 0 8 1;
#X connect 8 0 1 0;
#X restore 358 289 pd media-aritmetica;
#N canvas 0 0 450 300 mostra 0;
#X obj 41 39 inlet;
#X obj 186 36 inlet;
#X obj 41 124 outlet;
#X msg 186 76 set;
#X obj 41 59 list prepend set;
#X obj 41 83 list trim;
#X obj 186 57 b;
#X connect 0 0 4 0;
#X connect 1 0 6 0;
#X connect 3 0 2 0;
#X connect 4 0 5 0;
#X connect 5 0 2 0;
#X connect 6 0 3 0;
#X restore 605 289 pd mostra buffer;
#X obj 160 45 r nota;
#X obj 159 109 t b b;
#X floatatom 261 140 5 0 0 0 - - -;
#X obj 260 70 metro 45;
#X obj 257 44 tgl 15 0 empty empty empty 17 7 0 10 -262144 -1 -1 0
1;
#X obj 278 93 random 2000;
#X text 513 511 sensibilidade;
#X obj 825 459 vradio 17 1 0 5 empty empty tamanho_buffer -60 -4 0
10 -262144 -1 -1 0;
#X obj 729 560 select 0 1 2 3 4 5;
#X msg 728 588 2;
#X msg 762 601 4;
#X msg 807 603 8;
#X msg 843 605 16;
#X obj 749 638 s \$0-buf;
#X obj 752 90 r \$0-buf;
#X text 810 459 2;
#X text 811 475 4;
#X text 805 508 16;
#X text 810 492 8;
#X obj 755 231 f \$0;
#X obj 721 278 symbol;
#X obj 756 209 loadbang;
#X obj 717 220 inlet;
#X obj 723 307 outlet;
#X obj 754 255 makefilename %d-taps;
#X connect 0 0 40 0;
#X connect 0 0 46 0;
#X connect 1 0 2 0;
#X connect 1 0 9 0;
#X connect 2 0 13 0;
#X connect 3 0 14 0;
#X connect 9 0 34 0;
#X connect 9 1 35 0;
#X connect 12 0 41 0;
#X connect 12 1 42 0;
#X connect 12 2 3 0;
#X connect 12 2 43 0;
#X connect 17 0 16 0;
#X connect 18 0 15 0;
#X connect 21 0 20 0;
#X connect 23 0 22 0;
#X connect 24 0 30 1;
#X connect 26 0 23 0;
#X connect 26 0 25 0;
#X connect 27 0 26 0;
#X connect 28 0 26 0;
#X connect 30 0 12 0;
#X connect 31 0 27 0;
#X connect 32 0 33 0;
#X connect 32 0 9 1;
#X connect 34 0 8 0;
#X connect 34 0 36 0;
#X connect 35 0 8 0;
#X connect 35 0 37 0;
#X connect 36 0 38 0;
#X connect 37 0 38 0;
#X connect 39 0 45 0;
#X connect 40 0 19 0;
#X connect 40 0 30 0;
#X connect 40 1 0 0;
#X connect 41 0 11 0;
#X connect 41 0 1 0;
#X connect 42 0 10 0;
#X connect 42 0 1 1;
#X connect 43 0 29 0;
#X connect 44 0 39 0;
#X connect 45 0 0 0;
#X connect 45 1 0 1;
#X connect 47 0 49 0;
#X connect 47 0 39 0;
#X connect 48 0 47 0;
#X connect 49 0 47 1;
#X connect 51 0 52 0;
#X connect 52 0 53 0;
#X connect 52 1 54 0;
#X connect 52 2 55 0;
#X connect 52 3 56 0;
#X connect 53 0 57 0;
#X connect 54 0 57 0;
#X connect 55 0 57 0;
#X connect 56 0 57 0;
#X connect 58 0 26 0;
#X connect 63 0 68 0;
#X connect 64 0 67 0;
#X connect 65 0 63 0;
#X connect 66 0 64 0;
#X connect 68 0 64 1;
#X coords 0 -1 1 1 200 100 2 500 500;
