#N canvas 363 57 595 512 10;
#X declare -stdpath extra/tof;
#X obj -106 4 cnv 15 230 170 empty empty sinc-sample 20 12 0 14 -262130
-66577 0;
#X obj 9 345 readsf~;
#X msg 9 232 start;
#X msg 24 277 stop;
#X msg -106 320 open \$1;
#X obj -106 353 prepend set;
#X obj -85 -56 loadbang;
#X obj -70 235 delay 10;
#X obj -31 293 bng 15 250 50 0 empty empty empty 17 7 0 10 -262144
-1 -1;
#X obj -51 293 bng 15 250 50 0 empty empty empty 17 7 0 10 -262144
-1 -1;
#X obj -71 215 bng 15 250 50 0 empty empty empty 17 7 0 10 -262144
-1 -1;
#X obj 9 383 outlet~;
#X msg 135 235 open \$1;
#X obj 135 211 openpanel;
#X obj 16 14 bng 15 250 50 0 empty empty abrir_arquivo -6 -5 0 7 -262144
-1 -1;
#X obj 135 263 prepend set;
#X msg 135 289 open /home/livre/pd-externals/a_caetano/img/0001.wav
;
#X obj 178 -37 inlet;
#X obj 93 303 bng 15 250 50 0 empty empty empty 17 7 0 10 -262144 -1
-1;
#X obj 93 336 spigot;
#X obj 298 398 outlet;
#X obj -107 38 file.browser_;
#X msg -104 179 /home/livre/pesquisa/SINCOPA/samples/;
#X obj -70 262 t b b b;
#X obj -71 292 bng 15 250 50 0 empty empty empty 17 7 0 10 -262144
-1 -1;
#X obj 78 13 tgl 15 0 empty empty loop 17 7 0 10 -262144 -1 -1 0 1
;
#X msg -106 410 open /home/livre/pesquisa/SINCOPA/samples//guit1.wav
;
#X obj 92 360 t b b;
#X obj 95 41 bng 15 250 50 0 empty empty stop 5 -5 0 10 -262144 -1
-1;
#X connect 1 0 11 0;
#X connect 1 1 18 0;
#X connect 1 1 20 0;
#X connect 2 0 1 0;
#X connect 3 0 1 0;
#X connect 4 0 5 0;
#X connect 5 0 26 0;
#X connect 6 0 22 0;
#X connect 7 0 23 0;
#X connect 8 0 26 0;
#X connect 9 0 2 0;
#X connect 10 0 7 0;
#X connect 12 0 1 0;
#X connect 12 0 15 0;
#X connect 13 0 12 0;
#X connect 14 0 13 0;
#X connect 15 0 16 0;
#X connect 17 0 21 0;
#X connect 18 0 19 0;
#X connect 19 0 27 0;
#X connect 21 0 10 0;
#X connect 21 0 4 0;
#X connect 22 0 21 1;
#X connect 23 0 24 0;
#X connect 23 1 9 0;
#X connect 23 2 8 0;
#X connect 24 0 22 0;
#X connect 25 0 19 1;
#X connect 26 0 1 0;
#X connect 27 0 2 0;
#X connect 27 1 26 0;
#X connect 28 0 3 0;
#X coords 0 -1 1 1 235 180 2 -110 0;
