#N canvas 228 228 1022 657 10;
#X obj 504 106 cnv 15 210 75 empty empty sinc-buffer_temp 20 6 0 14
-262130 -66577 0;
#X obj 198 264 counter 8;
#X obj 223 240 bng 15 250 50 0 empty empty empty 17 7 0 10 -262144
-1 -1;
#X text 241 239 reset;
#X obj 392 262 counter 8;
#X obj 281 263 spigot;
#X msg 291 239 0;
#X msg 322 238 1;
#X obj 291 217 delay 100;
#X obj 392 191 t b b b;
#N canvas 0 0 450 300 (subpatch) 0;
#X array \$0-nota 8 float 3;
#A 0 54 57 59 61 62 23 50 54;
#X coords 0 127 8 0 90 50 1;
#X restore 507 133 graph;
#N canvas 0 0 450 300 (subpatch) 0;
#X array \$0-amp_attack 8 float 3;
#A 0 48.26 53.7633 53.7633 55.788 50.9841 30.4064 51.3338 49.7141;
#X coords 0 100 8 0 90 50 1;
#X restore 620 133 graph;
#X obj 417 235 bng 15 250 50 0 empty empty empty 17 7 0 10 -262144
-1 -1;
#X text 442 235 reset;
#X obj 281 291 tabwrite \$0-amp_attack;
#X obj 123 287 tabwrite \$0-nota;
#X obj 505 318 f \$0;
#X obj 472 365 symbol;
#X obj 505 294 loadbang;
#X obj 472 388 outlet;
#X obj 505 342 makefilename %d-amp_attack;
#X obj -9 245 f \$0;
#X obj -42 292 symbol;
#X obj -9 221 loadbang;
#X obj -42 315 outlet;
#X obj -9 269 makefilename %d-nota;
#X obj 123 231 t f b;
#X text -12 333 nota;
#X text 519 393 amp;
#X obj 174 55 t f b;
#X obj 174 32 inlet nota;
#X obj 279 36 inlet amp_attack;
#X obj 417 45 inlet reset;
#X connect 1 0 15 1;
#X connect 2 0 1 2;
#X connect 4 0 14 1;
#X connect 5 0 14 0;
#X connect 6 0 5 1;
#X connect 7 0 5 1;
#X connect 8 0 6 0;
#X connect 9 0 4 0;
#X connect 9 1 8 0;
#X connect 9 2 7 0;
#X connect 12 0 4 2;
#X connect 16 0 20 0;
#X connect 17 0 19 0;
#X connect 18 0 16 0;
#X connect 20 0 17 1;
#X connect 21 0 25 0;
#X connect 22 0 24 0;
#X connect 23 0 21 0;
#X connect 25 0 22 1;
#X connect 26 0 15 0;
#X connect 26 1 1 0;
#X connect 29 0 9 0;
#X connect 29 0 26 0;
#X connect 29 1 22 0;
#X connect 29 1 17 0;
#X connect 30 0 29 0;
#X connect 31 0 5 0;
#X connect 32 0 12 0;
#X connect 32 0 2 0;
#X coords 0 -1 1 1 220 85 2 500 100;
