#N canvas 99 24 193 233 10;
#X obj 21 15 bng 50 250 50 0 empty empty BANG!! 17 7 0 10 -258113 -1
-1;
#X obj 20 106 random 127;
#X obj 20 172 sinc-midi_osc1;
#X obj 21 74 t b b b;
#X obj 60 130 random 2000;
#X connect 0 0 3 0;
#X connect 1 0 2 0;
#X connect 3 0 2 2;
#X connect 3 1 1 0;
#X connect 3 2 4 0;
#X connect 4 0 2 1;
