#N canvas 580 98 674 579 16;
#X obj 467 91 gemwin;
#X msg 467 7 create \, 1;
#X msg 483 48 0 \, destroy;
#N canvas 0 0 1105 631 pauta 0;
#X obj 185 90 gemhead;
#X obj 184 499 text2d;
#X obj 184 165 translateXYZ;
#X obj 347 46 hsl 128 15 -8 8 0 0 empty empty X 12 8 1 12 -233017 -1
-1 5800 1;
#X obj 347 66 hsl 128 15 -6 6 0 0 empty empty Y 12 8 1 12 -233017 -1
-1 5800 1;
#X obj 347 86 hsl 128 15 -6 6 0 0 empty empty Z 12 8 1 12 -233017 -1
-1 9200 1;
#X text 342 99 rotate;
#X obj 344 199 pack f f f;
#X obj 344 230 prepend set;
#X obj 344 176 bng 15 250 50 0 empty empty empty 17 7 0 10 -262144
-1 -1;
#X msg 202 373 font pgjazz.ttf;
#X obj 202 340 loadbang;
#X floatatom 303 503 5 0 0 0 - - -;
#X msg 290 411 text ================================;
#X msg 344 260 -0.692913 -0.519685 2.69291;
#X obj 635 63 unpack f f f;
#X text 345 27 translate;
#X msg 636 36 -0.692913 -0.519685 2.69291;
#X msg 299 453 41;
#X text 346 281 usar essa msg para guardar preset de posição;
#X connect 0 0 2 0;
#X connect 2 0 1 0;
#X connect 3 0 2 1;
#X connect 3 0 7 0;
#X connect 4 0 2 2;
#X connect 4 0 7 1;
#X connect 4 0 9 0;
#X connect 5 0 2 3;
#X connect 5 0 7 2;
#X connect 5 0 9 0;
#X connect 7 0 8 0;
#X connect 8 0 14 0;
#X connect 9 0 7 0;
#X connect 10 0 1 0;
#X connect 11 0 10 0;
#X connect 11 0 17 0;
#X connect 11 0 18 0;
#X connect 11 0 13 0;
#X connect 12 0 1 1;
#X connect 13 0 1 0;
#X connect 15 0 3 0;
#X connect 15 1 4 0;
#X connect 15 2 5 0;
#X connect 17 0 15 0;
#X connect 18 0 1 1;
#X restore 17 206 pd pauta inferior;
#N canvas 366 49 1105 631 pauta 0;
#X obj 185 90 gemhead;
#X obj 185 471 text2d;
#X obj 184 165 translateXYZ;
#X obj 347 46 hsl 128 15 -8 8 0 0 empty empty X 12 8 1 12 -233017 -1
-1 5800 1;
#X obj 347 66 hsl 128 15 -6 6 0 0 empty empty Y 12 8 1 12 -233017 -1
-1 7200 1;
#X obj 347 86 hsl 128 15 -6 6 0 0 empty empty Z 12 8 1 12 -233017 -1
-1 9200 1;
#X text 342 99 rotate;
#X obj 378 231 pack f f f;
#X obj 378 262 prepend set;
#X obj 378 208 bng 15 250 50 0 empty empty empty 17 7 0 10 -262144
-1 -1;
#X msg 225 375 font pgjazz.ttf;
#X obj 225 342 loadbang;
#X floatatom 303 503 5 0 0 0 - - -;
#X msg 240 411 text ================================;
#X msg 378 292 -0.692913 0.80315 2.69291;
#X msg 636 36 -0.692913 0.80315 2.69291;
#X obj 635 63 unpack f f f;
#X text 345 27 translate;
#X msg 301 441 41;
#X text 376 313 usar essa msg para guardar preset de posição;
#X connect 0 0 2 0;
#X connect 2 0 1 0;
#X connect 3 0 2 1;
#X connect 3 0 7 0;
#X connect 4 0 2 2;
#X connect 4 0 7 1;
#X connect 4 0 9 0;
#X connect 5 0 2 3;
#X connect 5 0 7 2;
#X connect 5 0 9 0;
#X connect 7 0 8 0;
#X connect 8 0 14 0;
#X connect 9 0 7 0;
#X connect 10 0 1 0;
#X connect 11 0 10 0;
#X connect 11 0 18 0;
#X connect 11 0 13 0;
#X connect 11 0 15 0;
#X connect 12 0 1 1;
#X connect 13 0 1 0;
#X connect 15 0 16 0;
#X connect 16 0 3 0;
#X connect 16 1 4 0;
#X connect 16 2 5 0;
#X connect 18 0 1 1;
#X restore 17 166 pd pauta superior;
#N canvas 146 39 1105 631 clave 0;
#X obj 185 90 gemhead;
#X obj 185 471 text2d;
#X obj 97 323 r fonte;
#X obj 184 165 translateXYZ;
#X obj 347 46 hsl 128 15 -8 8 0 0 empty empty X 12 8 1 12 -233017 -1
-1 5400 1;
#X obj 347 66 hsl 128 15 -6 6 0 0 empty empty Y 12 8 1 12 -233017 -1
-1 7200 1;
#X obj 347 86 hsl 128 15 -6 6 0 0 empty empty Z 12 8 1 12 -233017 -1
-1 9200 1;
#X text 342 99 rotate;
#X obj 378 231 pack f f f;
#X obj 378 262 prepend set;
#X obj 378 208 bng 15 250 50 0 empty empty empty 17 7 0 10 -262144
-1 -1;
#X msg 225 375 font pgjazz.ttf;
#X obj 225 342 loadbang;
#X floatatom 303 503 5 0 0 0 - - -;
#X msg 378 292 -1.19685 0.80315 2.69291;
#X obj 635 63 unpack f f f;
#X text 345 27 translate;
#X msg 301 441 41;
#X text 376 313 usar essa msg para guardar preset de posição;
#X msg 242 413 text &;
#X msg 636 36 -1.19685 0.80315 2.69291;
#X connect 0 0 3 0;
#X connect 2 0 1 0;
#X connect 3 0 1 0;
#X connect 4 0 3 1;
#X connect 4 0 8 0;
#X connect 5 0 3 2;
#X connect 5 0 8 1;
#X connect 5 0 10 0;
#X connect 6 0 3 3;
#X connect 6 0 8 2;
#X connect 6 0 10 0;
#X connect 8 0 9 0;
#X connect 9 0 14 0;
#X connect 10 0 8 0;
#X connect 11 0 1 0;
#X connect 11 0 19 0;
#X connect 12 0 11 0;
#X connect 12 0 17 0;
#X connect 12 0 20 0;
#X connect 13 0 1 1;
#X connect 15 0 4 0;
#X connect 15 1 5 0;
#X connect 15 2 6 0;
#X connect 17 0 1 1;
#X connect 19 0 1 0;
#X connect 20 0 15 0;
#X restore 213 168 pd clave superior;
#X text 197 167 +;
#X text 197 207 +;
#N canvas 0 0 1105 631 clave 0;
#X obj 185 90 gemhead;
#X obj 184 499 text2d;
#X obj 184 165 translateXYZ;
#X obj 347 46 hsl 128 15 -8 8 0 0 empty empty X 12 8 1 12 -233017 -1
-1 5400 1;
#X obj 347 66 hsl 128 15 -6 6 0 0 empty empty Y 12 8 1 12 -233017 -1
-1 5800 1;
#X obj 347 86 hsl 128 15 -6 6 0 0 empty empty Z 12 8 1 12 -233017 -1
-1 9200 1;
#X text 342 99 rotate;
#X obj 344 199 pack f f f;
#X obj 344 230 prepend set;
#X obj 344 176 bng 15 250 50 0 empty empty empty 17 7 0 10 -262144
-1 -1;
#X msg 202 373 font pgjazz.ttf;
#X obj 202 340 loadbang;
#X floatatom 303 503 5 0 0 0 - - -;
#X msg 344 260 -1.19685 -0.519685 2.69291;
#X obj 635 63 unpack f f f;
#X text 345 27 translate;
#X msg 299 453 41;
#X text 346 281 usar essa msg para guardar preset de posição;
#X msg 290 411 text &;
#X msg 636 36 -1.19685 -0.519685 2.69291;
#X connect 0 0 2 0;
#X connect 2 0 1 0;
#X connect 3 0 2 1;
#X connect 3 0 7 0;
#X connect 4 0 2 2;
#X connect 4 0 7 1;
#X connect 4 0 9 0;
#X connect 5 0 2 3;
#X connect 5 0 7 2;
#X connect 5 0 9 0;
#X connect 7 0 8 0;
#X connect 8 0 13 0;
#X connect 9 0 7 0;
#X connect 10 0 1 0;
#X connect 11 0 10 0;
#X connect 11 0 19 0;
#X connect 11 0 16 0;
#X connect 11 0 18 0;
#X connect 12 0 1 1;
#X connect 14 0 3 0;
#X connect 14 1 4 0;
#X connect 14 2 5 0;
#X connect 16 0 1 1;
#X connect 18 0 1 0;
#X connect 19 0 14 0;
#X restore 214 207 pd clave inferior;
#X text 389 167 +;
#X text 389 207 +;
#N canvas 175 51 1105 631 txt 0;
#X obj 185 90 gemhead;
#X obj 185 471 text2d;
#X obj 184 165 translateXYZ;
#X obj 347 46 hsl 128 15 -8 8 0 0 empty empty X 12 8 1 12 -233017 -1
-1 5800 1;
#X obj 347 66 hsl 128 15 -6 6 0 0 empty empty Y 12 8 1 12 -233017 -1
-1 7600 1;
#X obj 347 86 hsl 128 15 -6 6 0 0 empty empty Z 12 8 1 12 -233017 -1
-1 9200 1;
#X text 342 99 rotate;
#X obj 378 231 pack f f f;
#X obj 378 262 prepend set;
#X obj 378 208 bng 15 250 50 0 empty empty empty 17 7 0 10 -262144
-1 -1;
#X obj 225 342 loadbang;
#X floatatom 303 503 5 0 0 0 - - -;
#X msg 378 292 -0.692913 1.1811 2.69291;
#X obj 635 63 unpack f f f;
#X text 345 27 translate;
#X text 376 313 usar essa msg para guardar preset de posição;
#X msg 242 413 text notas de entrada;
#X msg 301 441 23;
#X msg 636 36 -0.692913 1.1811 2.69291;
#X connect 0 0 2 0;
#X connect 2 0 1 0;
#X connect 3 0 2 1;
#X connect 3 0 7 0;
#X connect 4 0 2 2;
#X connect 4 0 7 1;
#X connect 4 0 9 0;
#X connect 5 0 2 3;
#X connect 5 0 7 2;
#X connect 5 0 9 0;
#X connect 7 0 8 0;
#X connect 8 0 12 0;
#X connect 9 0 7 0;
#X connect 10 0 17 0;
#X connect 10 0 18 0;
#X connect 10 0 16 0;
#X connect 11 0 1 1;
#X connect 13 0 3 0;
#X connect 13 1 4 0;
#X connect 13 2 5 0;
#X connect 16 0 1 0;
#X connect 17 0 1 1;
#X connect 18 0 13 0;
#X restore 405 168 pd txt superior;
#N canvas 175 41 1105 631 txt 0;
#X obj 185 90 gemhead;
#X obj 184 499 text2d;
#X obj 184 165 translateXYZ;
#X obj 347 46 hsl 128 15 -8 8 0 0 empty empty X 12 8 1 12 -233017 -1
-1 6200 1;
#X obj 347 66 hsl 128 15 -6 6 0 0 empty empty Y 12 8 1 12 -233017 -1
-1 6200 1;
#X obj 347 86 hsl 128 15 -6 6 0 0 empty empty Z 12 8 1 12 -233017 -1
-1 9200 1;
#X text 342 99 rotate;
#X obj 344 199 pack f f f;
#X obj 344 230 prepend set;
#X obj 344 176 bng 15 250 50 0 empty empty empty 17 7 0 10 -262144
-1 -1;
#X obj 202 340 loadbang;
#X floatatom 303 503 5 0 0 0 - - -;
#X msg 344 260 -0.188976 -0.141732 2.69291;
#X obj 635 63 unpack f f f;
#X text 345 27 translate;
#X text 346 281 usar essa msg para guardar preset de posição;
#X msg 290 411 text notas de saída geradas pelo sistema;
#X msg 299 453 23;
#X msg 636 36 -0.188976 -0.141732 2.69291;
#X connect 0 0 2 0;
#X connect 2 0 1 0;
#X connect 3 0 2 1;
#X connect 3 0 7 0;
#X connect 4 0 2 2;
#X connect 4 0 7 1;
#X connect 4 0 9 0;
#X connect 5 0 2 3;
#X connect 5 0 7 2;
#X connect 5 0 9 0;
#X connect 7 0 8 0;
#X connect 8 0 12 0;
#X connect 9 0 7 0;
#X connect 10 0 18 0;
#X connect 10 0 17 0;
#X connect 10 0 16 0;
#X connect 11 0 1 1;
#X connect 13 0 3 0;
#X connect 13 1 4 0;
#X connect 13 2 5 0;
#X connect 16 0 1 0;
#X connect 17 0 1 1;
#X connect 18 0 13 0;
#X restore 406 207 pd txt inferior;
#X obj 51 301 hradio 15 1 0 11 empty empty empty 0 -8 0 10 -262144
-1 -1 5;
#N canvas 0 0 450 300 notas 0;
#N canvas 357 45 923 663 nota1 0;
#X obj 195 170 gemhead;
#X obj 195 551 text2d;
#X obj 366 153 hsl 128 15 -8 8 0 0 empty empty X 12 8 1 12 -233017
-1 -1 7144 1;
#X obj 366 173 hsl 200 15 -6 6 0 0 empty empty Y 12 8 1 12 -233017
-1 -1 11282 1;
#X obj 366 193 hsl 128 15 -6 6 0 0 empty empty Z 12 8 1 12 -233017
-1 -1 9200 1;
#X text 361 206 rotate;
#X obj 466 299 pack f f f;
#X obj 466 330 prepend set;
#X obj 466 276 bng 15 250 50 0 empty empty empty 17 7 0 10 -262144
-1 -1;
#X msg 235 455 font pgjazz.ttf;
#X obj 235 422 loadbang;
#X floatatom 313 583 5 0 0 0 - - -;
#X msg 466 360 1.00031 0.803216 2.69291;
#X msg 646 116 -0.692913 0.80315 2.69291;
#X obj 645 143 unpack f f f;
#X msg 311 521 41;
#X text 464 381 usar essa msg para guardar preset de posição;
#N canvas 405 24 875 647 escolhe 0;
#X obj 443 73 sel 0 1 2 3 4 5 6 7 8 9 10 11;
#X text 330 383 d =;
#X text 423 327 e;
#X text 381 354 d# =;
#X text 444 326 =;
#X msg 466 323 0.80315;
#X msg 375 386 0.765;
#X text 597 228 =;
#X text 476 294 f =;
#X text 522 259 f# =;
#X text 576 229 g;
#X msg 621 228 0.859843;
#X msg 521 295 0.83;
#X text 723 141 =;
#X text 619 200 g# =;
#X text 659 172 a =;
#X text 702 141 a#;
#X text 308 423 =;
#X text 727 116 b =;
#X text 229 457 c =;
#X text 280 426 c#;
#X text 6 380 d =;
#X text 10 443 e;
#X text 9 416 d# =;
#X text 31 442 =;
#X text 31 542 =;
#X text 6 480 f =;
#X text 9 516 f# =;
#X text 10 543 g;
#X msg 702 170 0.88;
#X msg 768 115 0.91;
#X msg 272 460 0.94;
#X msg 51 383 0.965;
#X msg 54 443 0.99;
#X msg 54 479 1.02;
#X msg 56 540 1.05;
#X msg 325 425 0.94;
#X msg 140 423 text \$1;
#X obj 139 388 l2s;
#X msg 187 355 # q;
#X msg 139 354 q;
#X msg 421 355 0.765;
#X msg 566 259 0.83;
#X msg 658 198 0.859843;
#X obj 431 565 f;
#X msg 740 145 0.88;
#X obj 443 26 inlet;
#X text 507 23 pitch-class;
#X obj 141 592 outlet;
#X text 148 616 acidente;
#X obj 431 601 outlet;
#X text 513 599 posição Y;
#X connect 0 0 31 0;
#X connect 0 0 40 0;
#X connect 0 1 36 0;
#X connect 0 1 39 0;
#X connect 0 2 6 0;
#X connect 0 2 40 0;
#X connect 0 3 39 0;
#X connect 0 3 41 0;
#X connect 0 4 40 0;
#X connect 0 4 5 0;
#X connect 0 5 40 0;
#X connect 0 5 12 0;
#X connect 0 6 39 0;
#X connect 0 6 42 0;
#X connect 0 7 40 0;
#X connect 0 7 11 0;
#X connect 0 8 39 0;
#X connect 0 8 43 0;
#X connect 0 9 40 0;
#X connect 0 9 29 0;
#X connect 0 10 39 0;
#X connect 0 10 45 0;
#X connect 0 11 40 0;
#X connect 0 11 30 0;
#X connect 5 0 44 0;
#X connect 6 0 44 0;
#X connect 11 0 44 0;
#X connect 12 0 44 0;
#X connect 29 0 44 0;
#X connect 30 0 44 0;
#X connect 31 0 44 0;
#X connect 32 0 44 0;
#X connect 33 0 44 0;
#X connect 34 0 44 0;
#X connect 35 0 44 0;
#X connect 36 0 44 0;
#X connect 37 0 48 0;
#X connect 38 0 37 0;
#X connect 39 0 38 0;
#X connect 40 0 38 0;
#X connect 41 0 44 0;
#X connect 42 0 44 0;
#X connect 43 0 44 0;
#X connect 44 0 50 0;
#X connect 45 0 44 0;
#X connect 46 0 0 0;
#X restore 134 119 pd escolhe nota;
#X text 199 80 pitch class;
#X obj 134 82 inlet;
#X obj 363 70 inlet;
#X obj 194 245 translateXYZ -0.6 0 2.69291;
#N canvas 693 57 444 566 animax 0;
#X msg 328 330 1;
#X msg 51 125 0.7;
#X msg 68 165 0.45;
#X obj 39 504 line;
#X msg 83 202 0.2;
#X msg 96 233 0;
#X msg 39 461 \$1 400;
#X msg 103 268 -0.2;
#X msg 105 315 -0.5;
#X obj 206 12 inlet;
#X obj 206 92 sel 0 1 2 3 4 5 6 7;
#X obj 39 538 outlet;
#X obj 325 12 bng 15 250 50 0 empty empty empty 17 7 0 10 -262144 -1
-1;
#X obj 206 47 counter 7;
#X msg 126 357 -0.8;
#X connect 0 0 3 0;
#X connect 1 0 6 0;
#X connect 2 0 6 0;
#X connect 3 0 11 0;
#X connect 4 0 6 0;
#X connect 5 0 6 0;
#X connect 6 0 3 0;
#X connect 7 0 6 0;
#X connect 8 0 6 0;
#X connect 9 0 13 0;
#X connect 10 0 0 0;
#X connect 10 1 1 0;
#X connect 10 2 2 0;
#X connect 10 3 4 0;
#X connect 10 4 5 0;
#X connect 10 5 7 0;
#X connect 10 6 8 0;
#X connect 10 7 14 0;
#X connect 12 0 13 0;
#X connect 13 0 10 0;
#X connect 14 0 6 0;
#X restore 363 106 pd animax;
#X text 364 134 translate;
#X text 439 71 bang de nota nova;
#X msg 245 498 text q;
#X connect 0 0 21 0;
#X connect 2 0 6 0;
#X connect 2 0 21 1;
#X connect 3 0 6 1;
#X connect 3 0 8 0;
#X connect 3 0 21 2;
#X connect 4 0 6 2;
#X connect 4 0 8 0;
#X connect 4 0 21 3;
#X connect 6 0 7 0;
#X connect 7 0 12 0;
#X connect 8 0 6 0;
#X connect 9 0 1 0;
#X connect 10 0 9 0;
#X connect 10 0 15 0;
#X connect 10 0 13 0;
#X connect 10 0 25 0;
#X connect 11 0 1 1;
#X connect 13 0 14 0;
#X connect 14 0 2 0;
#X connect 14 1 3 0;
#X connect 14 2 4 0;
#X connect 15 0 1 1;
#X connect 17 0 1 0;
#X connect 17 1 21 2;
#X connect 19 0 17 0;
#X connect 20 0 22 0;
#X connect 21 0 1 0;
#X connect 22 0 2 0;
#X connect 25 0 1 0;
#X restore -75 210 pd nota1;
#N canvas 357 24 923 663 nota3 0;
#X obj 195 100 gemhead;
#X obj 357 71 hsl 128 15 -8 8 0 0 empty empty X 12 8 1 12 -233017 -1
-1 7541 1;
#X obj 357 91 hsl 200 15 -6 6 0 0 empty empty Y 12 8 1 12 -233017 -1
-1 11282 1;
#X obj 355 119 hsl 128 15 -6 6 0 0 empty empty Z 12 8 1 12 -233017
-1 -1 9200 1;
#X obj 466 229 pack f f f;
#X obj 466 260 prepend set;
#X obj 466 206 bng 15 250 50 0 empty empty empty 17 7 0 10 -262144
-1 -1;
#X msg 235 385 font pgjazz.ttf;
#X obj 235 352 loadbang;
#X floatatom 313 513 5 0 0 0 - - -;
#X msg 466 290 1.50047 0.803216 2.69291;
#X msg 646 46 -0.692913 0.80315 2.69291;
#X obj 645 73 unpack f f f;
#X text 494 134 translate;
#X msg 311 451 41;
#X text 464 311 usar essa msg para guardar preset de posição;
#X obj 194 175 translateXYZ;
#N canvas 0 0 875 647 escolhe 0;
#X obj 443 73 sel 0 1 2 3 4 5 6 7 8 9 10 11;
#X text 330 383 d =;
#X text 423 327 e;
#X text 381 354 d# =;
#X text 444 326 =;
#X msg 466 323 0.80315;
#X msg 375 386 0.765;
#X text 597 228 =;
#X text 476 294 f =;
#X text 522 259 f# =;
#X text 576 229 g;
#X msg 621 228 0.859843;
#X msg 521 295 0.83;
#X text 723 141 =;
#X text 619 200 g# =;
#X text 659 172 a =;
#X text 702 141 a#;
#X text 308 423 =;
#X text 727 116 b =;
#X text 229 457 c =;
#X text 280 426 c#;
#X text 6 380 d =;
#X text 10 443 e;
#X text 9 416 d# =;
#X text 31 442 =;
#X text 31 542 =;
#X text 6 480 f =;
#X text 9 516 f# =;
#X text 10 543 g;
#X msg 702 170 0.88;
#X msg 768 115 0.91;
#X msg 272 460 0.94;
#X msg 51 383 0.965;
#X msg 54 443 0.99;
#X msg 54 479 1.02;
#X msg 56 540 1.05;
#X msg 325 425 0.94;
#X msg 140 423 text \$1;
#X obj 139 388 l2s;
#X msg 187 355 # q;
#X msg 139 354 q;
#X msg 421 355 0.765;
#X msg 566 259 0.83;
#X msg 658 198 0.859843;
#X obj 431 565 f;
#X msg 740 145 0.88;
#X obj 443 26 inlet;
#X text 507 23 pitch-class;
#X obj 141 592 outlet;
#X text 148 616 acidente;
#X obj 431 601 outlet;
#X text 513 599 posição Y;
#X connect 0 0 31 0;
#X connect 0 0 40 0;
#X connect 0 1 36 0;
#X connect 0 1 39 0;
#X connect 0 2 6 0;
#X connect 0 2 40 0;
#X connect 0 3 39 0;
#X connect 0 3 41 0;
#X connect 0 4 40 0;
#X connect 0 4 5 0;
#X connect 0 5 40 0;
#X connect 0 5 12 0;
#X connect 0 6 39 0;
#X connect 0 6 42 0;
#X connect 0 7 40 0;
#X connect 0 7 11 0;
#X connect 0 8 39 0;
#X connect 0 8 43 0;
#X connect 0 9 40 0;
#X connect 0 9 29 0;
#X connect 0 10 39 0;
#X connect 0 10 45 0;
#X connect 0 11 40 0;
#X connect 0 11 30 0;
#X connect 5 0 44 0;
#X connect 6 0 44 0;
#X connect 11 0 44 0;
#X connect 12 0 44 0;
#X connect 29 0 44 0;
#X connect 30 0 44 0;
#X connect 31 0 44 0;
#X connect 32 0 44 0;
#X connect 33 0 44 0;
#X connect 34 0 44 0;
#X connect 35 0 44 0;
#X connect 36 0 44 0;
#X connect 37 0 48 0;
#X connect 38 0 37 0;
#X connect 39 0 38 0;
#X connect 40 0 38 0;
#X connect 41 0 44 0;
#X connect 42 0 44 0;
#X connect 43 0 44 0;
#X connect 44 0 50 0;
#X connect 45 0 44 0;
#X connect 46 0 0 0;
#X restore 134 49 pd escolhe nota;
#X text 199 10 pitch class;
#X obj 134 10 inlet;
#X obj 65 85 tgl 15 0 empty empty empty 17 7 0 10 -262144 -1 -1 0 1
;
#X obj 356 -20 inlet;
#N canvas 693 57 444 566 animax 0;
#X msg 328 330 1;
#X msg 51 125 0.7;
#X msg 68 165 0.45;
#X obj 39 504 line;
#X msg 83 202 0.2;
#X msg 96 233 0;
#X msg 39 461 \$1 400;
#X msg 103 268 -0.2;
#X msg 105 315 -0.5;
#X obj 206 12 inlet;
#X obj 206 92 sel 0 1 2 3 4 5 6 7;
#X obj 39 538 outlet;
#X obj 325 12 bng 15 250 50 0 empty empty empty 17 7 0 10 -262144 -1
-1;
#X obj 206 47 counter 7;
#X msg 126 357 -0.8;
#X connect 0 0 3 0;
#X connect 1 0 6 0;
#X connect 2 0 6 0;
#X connect 3 0 11 0;
#X connect 4 0 6 0;
#X connect 5 0 6 0;
#X connect 6 0 3 0;
#X connect 7 0 6 0;
#X connect 8 0 6 0;
#X connect 9 0 13 0;
#X connect 10 0 0 0;
#X connect 10 1 1 0;
#X connect 10 2 2 0;
#X connect 10 3 4 0;
#X connect 10 4 5 0;
#X connect 10 5 7 0;
#X connect 10 6 8 0;
#X connect 10 7 14 0;
#X connect 12 0 13 0;
#X connect 13 0 10 0;
#X connect 14 0 6 0;
#X restore 356 9 pd animax;
#X text 432 -19 bang de nota nova;
#X obj 358 39 + 0.5;
#X msg 235 428 text q;
#X obj 195 481 text2d;
#X connect 0 0 16 0;
#X connect 1 0 4 0;
#X connect 1 0 16 1;
#X connect 2 0 4 1;
#X connect 2 0 6 0;
#X connect 2 0 16 2;
#X connect 3 0 4 2;
#X connect 3 0 6 0;
#X connect 3 0 16 3;
#X connect 4 0 5 0;
#X connect 5 0 10 0;
#X connect 6 0 4 0;
#X connect 7 0 26 0;
#X connect 8 0 7 0;
#X connect 8 0 14 0;
#X connect 8 0 11 0;
#X connect 8 0 25 0;
#X connect 9 0 26 1;
#X connect 11 0 12 0;
#X connect 12 0 1 0;
#X connect 12 1 2 0;
#X connect 12 2 3 0;
#X connect 14 0 26 1;
#X connect 16 0 26 0;
#X connect 17 0 26 0;
#X connect 17 1 16 2;
#X connect 19 0 17 0;
#X connect 20 0 0 0;
#X connect 21 0 22 0;
#X connect 22 0 24 0;
#X connect 24 0 1 0;
#X connect 25 0 26 0;
#X restore 115 210 pd nota3;
#N canvas 357 24 923 663 nota6 0;
#X obj 195 100 gemhead;
#X obj 195 481 text2d;
#X obj 357 105 hsl 128 15 -8 8 0 0 empty empty X 12 8 1 12 -233017
-1 -1 8017 1;
#X obj 357 125 hsl 200 15 -6 6 0 0 empty empty Y 12 8 1 12 -233017
-1 -1 11282 1;
#X obj 357 145 hsl 128 15 -6 6 0 0 empty empty Z 12 8 1 12 -233017
-1 -1 9200 1;
#X text 352 158 rotate;
#X obj 466 229 pack f f f;
#X obj 466 260 prepend set;
#X obj 466 206 bng 15 250 50 0 empty empty empty 17 7 0 10 -262144
-1 -1;
#X msg 235 385 font pgjazz.ttf;
#X obj 235 352 loadbang;
#X floatatom 313 513 5 0 0 0 - - -;
#X msg 466 290 2.10016 0.803216 2.69291;
#X msg 646 46 -0.692913 0.80315 2.69291;
#X obj 645 73 unpack f f f;
#X text 355 86 translate;
#X msg 311 451 41;
#X text 464 311 usar essa msg para guardar preset de posição;
#X obj 194 175 translateXYZ;
#N canvas 0 0 875 647 escolhe 0;
#X obj 443 73 sel 0 1 2 3 4 5 6 7 8 9 10 11;
#X text 330 383 d =;
#X text 423 327 e;
#X text 381 354 d# =;
#X text 444 326 =;
#X msg 466 323 0.80315;
#X msg 375 386 0.765;
#X text 597 228 =;
#X text 476 294 f =;
#X text 522 259 f# =;
#X text 576 229 g;
#X msg 621 228 0.859843;
#X msg 521 295 0.83;
#X text 723 141 =;
#X text 619 200 g# =;
#X text 659 172 a =;
#X text 702 141 a#;
#X text 308 423 =;
#X text 727 116 b =;
#X text 229 457 c =;
#X text 280 426 c#;
#X text 6 380 d =;
#X text 10 443 e;
#X text 9 416 d# =;
#X text 31 442 =;
#X text 31 542 =;
#X text 6 480 f =;
#X text 9 516 f# =;
#X text 10 543 g;
#X msg 702 170 0.88;
#X msg 768 115 0.91;
#X msg 272 460 0.94;
#X msg 51 383 0.965;
#X msg 54 443 0.99;
#X msg 54 479 1.02;
#X msg 56 540 1.05;
#X msg 325 425 0.94;
#X msg 140 423 text \$1;
#X obj 139 388 l2s;
#X msg 187 355 # q;
#X msg 139 354 q;
#X msg 421 355 0.765;
#X msg 566 259 0.83;
#X msg 658 198 0.859843;
#X obj 431 565 f;
#X msg 740 145 0.88;
#X obj 443 26 inlet;
#X text 507 23 pitch-class;
#X obj 141 592 outlet;
#X text 148 616 acidente;
#X obj 431 601 outlet;
#X text 513 599 posição Y;
#X connect 0 0 31 0;
#X connect 0 0 40 0;
#X connect 0 1 36 0;
#X connect 0 1 39 0;
#X connect 0 2 6 0;
#X connect 0 2 40 0;
#X connect 0 3 39 0;
#X connect 0 3 41 0;
#X connect 0 4 40 0;
#X connect 0 4 5 0;
#X connect 0 5 40 0;
#X connect 0 5 12 0;
#X connect 0 6 39 0;
#X connect 0 6 42 0;
#X connect 0 7 40 0;
#X connect 0 7 11 0;
#X connect 0 8 39 0;
#X connect 0 8 43 0;
#X connect 0 9 40 0;
#X connect 0 9 29 0;
#X connect 0 10 39 0;
#X connect 0 10 45 0;
#X connect 0 11 40 0;
#X connect 0 11 30 0;
#X connect 5 0 44 0;
#X connect 6 0 44 0;
#X connect 11 0 44 0;
#X connect 12 0 44 0;
#X connect 29 0 44 0;
#X connect 30 0 44 0;
#X connect 31 0 44 0;
#X connect 32 0 44 0;
#X connect 33 0 44 0;
#X connect 34 0 44 0;
#X connect 35 0 44 0;
#X connect 36 0 44 0;
#X connect 37 0 48 0;
#X connect 38 0 37 0;
#X connect 39 0 38 0;
#X connect 40 0 38 0;
#X connect 41 0 44 0;
#X connect 42 0 44 0;
#X connect 43 0 44 0;
#X connect 44 0 50 0;
#X connect 45 0 44 0;
#X connect 46 0 0 0;
#X restore 134 49 pd escolhe nota;
#X text 199 10 pitch class;
#X obj 134 10 inlet;
#X obj 73 54 tgl 15 0 empty empty empty 17 7 0 10 -262144 -1 -1 0 1
;
#X obj 354 -22 inlet;
#N canvas 693 57 444 566 animax 0;
#X msg 328 330 1;
#X msg 51 125 0.7;
#X msg 68 165 0.45;
#X obj 39 504 line;
#X msg 83 202 0.2;
#X msg 96 233 0;
#X msg 39 461 \$1 400;
#X msg 103 268 -0.2;
#X msg 105 315 -0.5;
#X obj 206 12 inlet;
#X obj 206 92 sel 0 1 2 3 4 5 6 7;
#X obj 39 538 outlet;
#X obj 325 12 bng 15 250 50 0 empty empty empty 17 7 0 10 -262144 -1
-1;
#X obj 206 47 counter 7;
#X msg 126 357 -0.8;
#X connect 0 0 3 0;
#X connect 1 0 6 0;
#X connect 2 0 6 0;
#X connect 3 0 11 0;
#X connect 4 0 6 0;
#X connect 5 0 6 0;
#X connect 6 0 3 0;
#X connect 7 0 6 0;
#X connect 8 0 6 0;
#X connect 9 0 13 0;
#X connect 10 0 0 0;
#X connect 10 1 1 0;
#X connect 10 2 2 0;
#X connect 10 3 4 0;
#X connect 10 4 5 0;
#X connect 10 5 7 0;
#X connect 10 6 8 0;
#X connect 10 7 14 0;
#X connect 12 0 13 0;
#X connect 13 0 10 0;
#X connect 14 0 6 0;
#X restore 354 14 pd animax;
#X text 430 -21 bang de nota nova;
#X obj 355 57 + 1.1;
#X msg 235 428 text q;
#X connect 0 0 18 0;
#X connect 2 0 6 0;
#X connect 2 0 18 1;
#X connect 3 0 6 1;
#X connect 3 0 8 0;
#X connect 3 0 18 2;
#X connect 4 0 6 2;
#X connect 4 0 8 0;
#X connect 4 0 18 3;
#X connect 6 0 7 0;
#X connect 7 0 12 0;
#X connect 8 0 6 0;
#X connect 9 0 1 0;
#X connect 10 0 9 0;
#X connect 10 0 16 0;
#X connect 10 0 13 0;
#X connect 10 0 27 0;
#X connect 11 0 1 1;
#X connect 13 0 14 0;
#X connect 14 0 2 0;
#X connect 14 1 3 0;
#X connect 14 2 4 0;
#X connect 16 0 1 1;
#X connect 18 0 1 0;
#X connect 19 0 1 0;
#X connect 19 1 18 2;
#X connect 21 0 19 0;
#X connect 22 0 0 0;
#X connect 23 0 24 0;
#X connect 24 0 26 0;
#X connect 26 0 2 0;
#X connect 27 0 1 0;
#X restore 65 250 pd nota6;
#N canvas 357 24 923 663 nota7 0;
#X obj 195 100 gemhead;
#X obj 195 481 text2d;
#X obj 356 118 hsl 128 15 -8 8 0 0 empty empty X 12 8 1 12 -233017
-1 -1 8176 1;
#X obj 356 138 hsl 200 15 -6 6 0 0 empty empty Y 12 8 1 12 -233017
-1 -1 11282 1;
#X obj 356 158 hsl 128 15 -6 6 0 0 empty empty Z 12 8 1 12 -233017
-1 -1 9200 1;
#X text 351 171 rotate;
#X obj 466 229 pack f f f;
#X obj 466 260 prepend set;
#X obj 466 206 bng 15 250 50 0 empty empty empty 17 7 0 10 -262144
-1 -1;
#X msg 235 385 font pgjazz.ttf;
#X obj 235 352 loadbang;
#X floatatom 313 513 5 0 0 0 - - -;
#X msg 466 290 2.30047 0.803216 2.69291;
#X msg 646 46 -0.692913 0.80315 2.69291;
#X obj 645 73 unpack f f f;
#X msg 311 451 41;
#X text 464 311 usar essa msg para guardar preset de posição;
#X obj 194 175 translateXYZ;
#N canvas 0 0 875 647 escolhe 0;
#X obj 443 73 sel 0 1 2 3 4 5 6 7 8 9 10 11;
#X text 330 383 d =;
#X text 423 327 e;
#X text 381 354 d# =;
#X text 444 326 =;
#X msg 466 323 0.80315;
#X msg 375 386 0.765;
#X text 597 228 =;
#X text 476 294 f =;
#X text 522 259 f# =;
#X text 576 229 g;
#X msg 621 228 0.859843;
#X msg 521 295 0.83;
#X text 723 141 =;
#X text 619 200 g# =;
#X text 659 172 a =;
#X text 702 141 a#;
#X text 308 423 =;
#X text 727 116 b =;
#X text 229 457 c =;
#X text 280 426 c#;
#X text 6 380 d =;
#X text 10 443 e;
#X text 9 416 d# =;
#X text 31 442 =;
#X text 31 542 =;
#X text 6 480 f =;
#X text 9 516 f# =;
#X text 10 543 g;
#X msg 702 170 0.88;
#X msg 768 115 0.91;
#X msg 272 460 0.94;
#X msg 51 383 0.965;
#X msg 54 443 0.99;
#X msg 54 479 1.02;
#X msg 56 540 1.05;
#X msg 325 425 0.94;
#X msg 140 423 text \$1;
#X obj 139 388 l2s;
#X msg 187 355 # q;
#X msg 139 354 q;
#X msg 421 355 0.765;
#X msg 566 259 0.83;
#X msg 658 198 0.859843;
#X obj 431 565 f;
#X msg 740 145 0.88;
#X obj 443 26 inlet;
#X text 507 23 pitch-class;
#X obj 141 592 outlet;
#X text 148 616 acidente;
#X obj 431 601 outlet;
#X text 513 599 posição Y;
#X connect 0 0 31 0;
#X connect 0 0 40 0;
#X connect 0 1 36 0;
#X connect 0 1 39 0;
#X connect 0 2 6 0;
#X connect 0 2 40 0;
#X connect 0 3 39 0;
#X connect 0 3 41 0;
#X connect 0 4 40 0;
#X connect 0 4 5 0;
#X connect 0 5 40 0;
#X connect 0 5 12 0;
#X connect 0 6 39 0;
#X connect 0 6 42 0;
#X connect 0 7 40 0;
#X connect 0 7 11 0;
#X connect 0 8 39 0;
#X connect 0 8 43 0;
#X connect 0 9 40 0;
#X connect 0 9 29 0;
#X connect 0 10 39 0;
#X connect 0 10 45 0;
#X connect 0 11 40 0;
#X connect 0 11 30 0;
#X connect 5 0 44 0;
#X connect 6 0 44 0;
#X connect 11 0 44 0;
#X connect 12 0 44 0;
#X connect 29 0 44 0;
#X connect 30 0 44 0;
#X connect 31 0 44 0;
#X connect 32 0 44 0;
#X connect 33 0 44 0;
#X connect 34 0 44 0;
#X connect 35 0 44 0;
#X connect 36 0 44 0;
#X connect 37 0 48 0;
#X connect 38 0 37 0;
#X connect 39 0 38 0;
#X connect 40 0 38 0;
#X connect 41 0 44 0;
#X connect 42 0 44 0;
#X connect 43 0 44 0;
#X connect 44 0 50 0;
#X connect 45 0 44 0;
#X connect 46 0 0 0;
#X restore 134 49 pd escolhe nota;
#X text 199 10 pitch class;
#X obj 134 10 inlet;
#X obj 76 54 tgl 15 0 empty empty empty 17 7 0 10 -262144 -1 -1 0 1
;
#X obj 355 -20 inlet;
#N canvas 693 57 444 566 animax 0;
#X msg 328 330 1;
#X msg 51 125 0.7;
#X msg 68 165 0.45;
#X obj 39 504 line;
#X msg 83 202 0.2;
#X msg 96 233 0;
#X msg 39 461 \$1 400;
#X msg 103 268 -0.2;
#X msg 105 315 -0.5;
#X obj 206 12 inlet;
#X obj 206 92 sel 0 1 2 3 4 5 6 7;
#X obj 39 538 outlet;
#X obj 325 12 bng 15 250 50 0 empty empty empty 17 7 0 10 -262144 -1
-1;
#X obj 206 47 counter 7;
#X msg 126 357 -0.8;
#X connect 0 0 3 0;
#X connect 1 0 6 0;
#X connect 2 0 6 0;
#X connect 3 0 11 0;
#X connect 4 0 6 0;
#X connect 5 0 6 0;
#X connect 6 0 3 0;
#X connect 7 0 6 0;
#X connect 8 0 6 0;
#X connect 9 0 13 0;
#X connect 10 0 0 0;
#X connect 10 1 1 0;
#X connect 10 2 2 0;
#X connect 10 3 4 0;
#X connect 10 4 5 0;
#X connect 10 5 7 0;
#X connect 10 6 8 0;
#X connect 10 7 14 0;
#X connect 12 0 13 0;
#X connect 13 0 10 0;
#X connect 14 0 6 0;
#X restore 355 16 pd animax;
#X text 431 -19 bang de nota nova;
#X text 354 99 translate;
#X obj 353 65 + 1.3;
#X msg 235 428 text q;
#X connect 0 0 17 0;
#X connect 2 0 6 0;
#X connect 2 0 17 1;
#X connect 3 0 6 1;
#X connect 3 0 8 0;
#X connect 3 0 17 2;
#X connect 4 0 6 2;
#X connect 4 0 8 0;
#X connect 4 0 17 3;
#X connect 6 0 7 0;
#X connect 7 0 12 0;
#X connect 8 0 6 0;
#X connect 9 0 1 0;
#X connect 10 0 9 0;
#X connect 10 0 15 0;
#X connect 10 0 13 0;
#X connect 10 0 27 0;
#X connect 11 0 1 1;
#X connect 13 0 14 0;
#X connect 14 0 2 0;
#X connect 14 1 3 0;
#X connect 14 2 4 0;
#X connect 15 0 1 1;
#X connect 17 0 1 0;
#X connect 18 0 1 0;
#X connect 18 1 17 2;
#X connect 20 0 18 0;
#X connect 21 0 0 0;
#X connect 22 0 23 0;
#X connect 23 0 26 0;
#X connect 26 0 2 0;
#X connect 27 0 1 0;
#X restore 155 250 pd nota7;
#N canvas 357 24 923 663 nota8 0;
#X obj 195 100 gemhead;
#X obj 195 481 text2d;
#X obj 364 93 hsl 128 15 -8 8 0 0 empty empty X 12 8 1 12 -233017 -1
-1 8334 1;
#X obj 364 113 hsl 200 15 -6 6 0 0 empty empty Y 12 8 1 12 -233017
-1 -1 11282 1;
#X obj 364 133 hsl 128 15 -6 6 0 0 empty empty Z 12 8 1 12 -233017
-1 -1 9200 1;
#X text 359 146 rotate;
#X obj 466 229 pack f f f;
#X obj 466 260 prepend set;
#X obj 466 206 bng 15 250 50 0 empty empty empty 17 7 0 10 -262144
-1 -1;
#X msg 235 385 font pgjazz.ttf;
#X obj 235 352 loadbang;
#X floatatom 313 513 5 0 0 0 - - -;
#X msg 466 290 2.49953 0.803216 2.69291;
#X msg 646 46 -0.692913 0.80315 2.69291;
#X obj 645 73 unpack f f f;
#X text 362 74 translate;
#X msg 311 451 41;
#X text 464 311 usar essa msg para guardar preset de posição;
#X obj 194 175 translateXYZ;
#N canvas 0 0 875 647 escolhe 0;
#X obj 443 73 sel 0 1 2 3 4 5 6 7 8 9 10 11;
#X text 330 383 d =;
#X text 423 327 e;
#X text 381 354 d# =;
#X text 444 326 =;
#X msg 466 323 0.80315;
#X msg 375 386 0.765;
#X text 597 228 =;
#X text 476 294 f =;
#X text 522 259 f# =;
#X text 576 229 g;
#X msg 621 228 0.859843;
#X msg 521 295 0.83;
#X text 723 141 =;
#X text 619 200 g# =;
#X text 659 172 a =;
#X text 702 141 a#;
#X text 308 423 =;
#X text 727 116 b =;
#X text 229 457 c =;
#X text 280 426 c#;
#X text 6 380 d =;
#X text 10 443 e;
#X text 9 416 d# =;
#X text 31 442 =;
#X text 31 542 =;
#X text 6 480 f =;
#X text 9 516 f# =;
#X text 10 543 g;
#X msg 702 170 0.88;
#X msg 768 115 0.91;
#X msg 272 460 0.94;
#X msg 51 383 0.965;
#X msg 54 443 0.99;
#X msg 54 479 1.02;
#X msg 56 540 1.05;
#X msg 325 425 0.94;
#X msg 140 423 text \$1;
#X obj 139 388 l2s;
#X msg 187 355 # q;
#X msg 139 354 q;
#X msg 421 355 0.765;
#X msg 566 259 0.83;
#X msg 658 198 0.859843;
#X obj 431 565 f;
#X msg 740 145 0.88;
#X obj 443 26 inlet;
#X text 507 23 pitch-class;
#X obj 141 592 outlet;
#X text 148 616 acidente;
#X obj 431 601 outlet;
#X text 513 599 posição Y;
#X connect 0 0 31 0;
#X connect 0 0 40 0;
#X connect 0 1 36 0;
#X connect 0 1 39 0;
#X connect 0 2 6 0;
#X connect 0 2 40 0;
#X connect 0 3 39 0;
#X connect 0 3 41 0;
#X connect 0 4 40 0;
#X connect 0 4 5 0;
#X connect 0 5 40 0;
#X connect 0 5 12 0;
#X connect 0 6 39 0;
#X connect 0 6 42 0;
#X connect 0 7 40 0;
#X connect 0 7 11 0;
#X connect 0 8 39 0;
#X connect 0 8 43 0;
#X connect 0 9 40 0;
#X connect 0 9 29 0;
#X connect 0 10 39 0;
#X connect 0 10 45 0;
#X connect 0 11 40 0;
#X connect 0 11 30 0;
#X connect 5 0 44 0;
#X connect 6 0 44 0;
#X connect 11 0 44 0;
#X connect 12 0 44 0;
#X connect 29 0 44 0;
#X connect 30 0 44 0;
#X connect 31 0 44 0;
#X connect 32 0 44 0;
#X connect 33 0 44 0;
#X connect 34 0 44 0;
#X connect 35 0 44 0;
#X connect 36 0 44 0;
#X connect 37 0 48 0;
#X connect 38 0 37 0;
#X connect 39 0 38 0;
#X connect 40 0 38 0;
#X connect 41 0 44 0;
#X connect 42 0 44 0;
#X connect 43 0 44 0;
#X connect 44 0 50 0;
#X connect 45 0 44 0;
#X connect 46 0 0 0;
#X restore 134 49 pd escolhe nota;
#X text 199 10 pitch class;
#X obj 134 10 inlet;
#X obj 69 53 tgl 15 0 empty empty empty 17 7 0 10 -262144 -1 -1 0 1
;
#X obj 358 -20 inlet;
#N canvas 693 57 444 566 animax 0;
#X msg 328 330 1;
#X msg 51 125 0.7;
#X msg 68 165 0.45;
#X obj 39 504 line;
#X msg 83 202 0.2;
#X msg 96 233 0;
#X msg 39 461 \$1 400;
#X msg 103 268 -0.2;
#X msg 105 315 -0.5;
#X obj 206 12 inlet;
#X obj 206 92 sel 0 1 2 3 4 5 6 7;
#X obj 39 538 outlet;
#X obj 325 12 bng 15 250 50 0 empty empty empty 17 7 0 10 -262144 -1
-1;
#X obj 206 47 counter 7;
#X msg 126 357 -0.8;
#X connect 0 0 3 0;
#X connect 1 0 6 0;
#X connect 2 0 6 0;
#X connect 3 0 11 0;
#X connect 4 0 6 0;
#X connect 5 0 6 0;
#X connect 6 0 3 0;
#X connect 7 0 6 0;
#X connect 8 0 6 0;
#X connect 9 0 13 0;
#X connect 10 0 0 0;
#X connect 10 1 1 0;
#X connect 10 2 2 0;
#X connect 10 3 4 0;
#X connect 10 4 5 0;
#X connect 10 5 7 0;
#X connect 10 6 8 0;
#X connect 10 7 14 0;
#X connect 12 0 13 0;
#X connect 13 0 10 0;
#X connect 14 0 6 0;
#X restore 357 10 pd animax;
#X text 434 -19 bang de nota nova;
#X obj 355 44 + 1.5;
#X msg 235 418 text q;
#X connect 0 0 18 0;
#X connect 2 0 6 0;
#X connect 2 0 18 1;
#X connect 3 0 6 1;
#X connect 3 0 8 0;
#X connect 3 0 18 2;
#X connect 4 0 6 2;
#X connect 4 0 8 0;
#X connect 4 0 18 3;
#X connect 6 0 7 0;
#X connect 7 0 12 0;
#X connect 8 0 6 0;
#X connect 9 0 1 0;
#X connect 10 0 9 0;
#X connect 10 0 16 0;
#X connect 10 0 13 0;
#X connect 10 0 27 0;
#X connect 11 0 1 1;
#X connect 13 0 14 0;
#X connect 14 0 2 0;
#X connect 14 1 3 0;
#X connect 14 2 4 0;
#X connect 16 0 1 1;
#X connect 18 0 1 0;
#X connect 19 0 1 0;
#X connect 19 1 18 2;
#X connect 21 0 19 0;
#X connect 22 0 0 0;
#X connect 23 0 24 0;
#X connect 24 0 26 0;
#X connect 26 0 2 0;
#X connect 27 0 1 0;
#X restore 255 250 pd nota8;
#N canvas 0 0 1142 447 gate 0;
#X obj 116 43 inlet;
#X obj 116 74 t f b;
#X obj 244 10 counter 8;
#X obj 106 337 spigot;
#X msg 203 295 1;
#X msg 159 296 0;
#X obj 216 337 spigot;
#X msg 313 295 1;
#X msg 269 296 0;
#X msg 423 295 1;
#X msg 379 296 0;
#X obj 436 337 spigot;
#X msg 533 295 1;
#X msg 489 296 0;
#X obj 326 337 spigot;
#X obj 244 37 sel 0 1 2 3;
#X obj 556 347 spigot;
#X msg 653 305 1;
#X msg 609 306 0;
#X obj 666 347 spigot;
#X msg 763 305 1;
#X msg 719 306 0;
#X msg 873 305 1;
#X msg 829 306 0;
#X msg 983 305 1;
#X msg 939 306 0;
#X obj 776 347 spigot;
#X obj 886 347 spigot;
#X obj 694 47 sel 4 5 6 7;
#X obj 107 388 outlet;
#X obj 217 388 outlet;
#X obj 327 388 outlet;
#X obj 437 388 outlet;
#X obj 557 388 outlet;
#X obj 667 388 outlet;
#X obj 777 388 outlet;
#X obj 887 388 outlet;
#X connect 0 0 1 0;
#X connect 1 0 3 0;
#X connect 1 0 6 0;
#X connect 1 0 14 0;
#X connect 1 0 11 0;
#X connect 1 0 16 0;
#X connect 1 0 19 0;
#X connect 1 0 26 0;
#X connect 1 0 27 0;
#X connect 1 1 2 0;
#X connect 2 0 15 0;
#X connect 2 0 28 0;
#X connect 3 0 29 0;
#X connect 4 0 3 1;
#X connect 5 0 3 1;
#X connect 6 0 30 0;
#X connect 7 0 6 1;
#X connect 8 0 6 1;
#X connect 9 0 14 1;
#X connect 10 0 14 1;
#X connect 11 0 32 0;
#X connect 12 0 11 1;
#X connect 13 0 11 1;
#X connect 14 0 31 0;
#X connect 15 0 4 0;
#X connect 15 0 8 0;
#X connect 15 0 10 0;
#X connect 15 0 13 0;
#X connect 15 1 5 0;
#X connect 15 1 7 0;
#X connect 15 1 10 0;
#X connect 15 1 13 0;
#X connect 15 2 5 0;
#X connect 15 2 8 0;
#X connect 15 2 9 0;
#X connect 15 2 13 0;
#X connect 15 3 5 0;
#X connect 15 3 8 0;
#X connect 15 3 10 0;
#X connect 15 3 12 0;
#X connect 15 4 5 0;
#X connect 15 4 8 0;
#X connect 15 4 10 0;
#X connect 15 4 13 0;
#X connect 16 0 33 0;
#X connect 17 0 16 1;
#X connect 18 0 16 1;
#X connect 19 0 34 0;
#X connect 20 0 19 1;
#X connect 21 0 19 1;
#X connect 22 0 26 1;
#X connect 23 0 26 1;
#X connect 24 0 27 1;
#X connect 25 0 27 1;
#X connect 26 0 35 0;
#X connect 27 0 36 0;
#X connect 28 0 17 0;
#X connect 28 0 21 0;
#X connect 28 0 23 0;
#X connect 28 0 25 0;
#X connect 28 1 18 0;
#X connect 28 1 20 0;
#X connect 28 1 23 0;
#X connect 28 1 25 0;
#X connect 28 2 18 0;
#X connect 28 2 21 0;
#X connect 28 2 22 0;
#X connect 28 2 25 0;
#X connect 28 3 18 0;
#X connect 28 3 21 0;
#X connect 28 3 23 0;
#X connect 28 3 24 0;
#X connect 28 4 18 0;
#X connect 28 4 21 0;
#X connect 28 4 23 0;
#X connect 28 4 25 0;
#X restore -27 124 pd gate -------------;
#N canvas 357 24 923 663 nota2 0;
#X obj 195 100 gemhead;
#X obj 357 75 hsl 128 15 -8 8 0 0 empty empty X 12 8 1 12 -233017 -1
-1 7382 1;
#X obj 357 95 hsl 200 15 -6 6 0 0 empty empty Y 12 8 1 12 -233017 -1
-1 11282 1;
#X obj 357 115 hsl 128 15 -6 6 0 0 empty empty Z 12 8 1 12 -233017
-1 -1 9200 1;
#X obj 466 229 pack f f f;
#X obj 466 260 prepend set;
#X obj 466 206 bng 15 250 50 0 empty empty empty 17 7 0 10 -262144
-1 -1;
#X msg 235 385 font pgjazz.ttf;
#X obj 235 352 loadbang;
#X floatatom 313 513 5 0 0 0 - - -;
#X msg 466 290 1.30016 0.803216 2.69291;
#X msg 646 46 -0.692913 0.80315 2.69291;
#X obj 645 73 unpack f f f;
#X text 511 117 translate;
#X msg 311 451 41;
#X text 464 311 usar essa msg para guardar preset de posição;
#X obj 194 175 translateXYZ;
#N canvas 0 0 875 647 escolhe 0;
#X obj 443 73 sel 0 1 2 3 4 5 6 7 8 9 10 11;
#X text 330 383 d =;
#X text 423 327 e;
#X text 381 354 d# =;
#X text 444 326 =;
#X msg 466 323 0.80315;
#X msg 375 386 0.765;
#X text 597 228 =;
#X text 476 294 f =;
#X text 522 259 f# =;
#X text 576 229 g;
#X msg 621 228 0.859843;
#X msg 521 295 0.83;
#X text 723 141 =;
#X text 619 200 g# =;
#X text 659 172 a =;
#X text 702 141 a#;
#X text 308 423 =;
#X text 727 116 b =;
#X text 229 457 c =;
#X text 280 426 c#;
#X text 6 380 d =;
#X text 10 443 e;
#X text 9 416 d# =;
#X text 31 442 =;
#X text 31 542 =;
#X text 6 480 f =;
#X text 9 516 f# =;
#X text 10 543 g;
#X msg 702 170 0.88;
#X msg 768 115 0.91;
#X msg 272 460 0.94;
#X msg 51 383 0.965;
#X msg 54 443 0.99;
#X msg 54 479 1.02;
#X msg 56 540 1.05;
#X msg 325 425 0.94;
#X msg 140 423 text \$1;
#X obj 139 388 l2s;
#X msg 187 355 # q;
#X msg 139 354 q;
#X msg 421 355 0.765;
#X msg 566 259 0.83;
#X msg 658 198 0.859843;
#X obj 431 565 f;
#X msg 740 145 0.88;
#X obj 443 26 inlet;
#X text 507 23 pitch-class;
#X obj 141 592 outlet;
#X text 148 616 acidente;
#X obj 431 601 outlet;
#X text 513 599 posição Y;
#X connect 0 0 31 0;
#X connect 0 0 40 0;
#X connect 0 1 36 0;
#X connect 0 1 39 0;
#X connect 0 2 6 0;
#X connect 0 2 40 0;
#X connect 0 3 39 0;
#X connect 0 3 41 0;
#X connect 0 4 40 0;
#X connect 0 4 5 0;
#X connect 0 5 40 0;
#X connect 0 5 12 0;
#X connect 0 6 39 0;
#X connect 0 6 42 0;
#X connect 0 7 40 0;
#X connect 0 7 11 0;
#X connect 0 8 39 0;
#X connect 0 8 43 0;
#X connect 0 9 40 0;
#X connect 0 9 29 0;
#X connect 0 10 39 0;
#X connect 0 10 45 0;
#X connect 0 11 40 0;
#X connect 0 11 30 0;
#X connect 5 0 44 0;
#X connect 6 0 44 0;
#X connect 11 0 44 0;
#X connect 12 0 44 0;
#X connect 29 0 44 0;
#X connect 30 0 44 0;
#X connect 31 0 44 0;
#X connect 32 0 44 0;
#X connect 33 0 44 0;
#X connect 34 0 44 0;
#X connect 35 0 44 0;
#X connect 36 0 44 0;
#X connect 37 0 48 0;
#X connect 38 0 37 0;
#X connect 39 0 38 0;
#X connect 40 0 38 0;
#X connect 41 0 44 0;
#X connect 42 0 44 0;
#X connect 43 0 44 0;
#X connect 44 0 50 0;
#X connect 45 0 44 0;
#X connect 46 0 0 0;
#X restore 134 49 pd escolhe nota;
#X text 199 10 pitch class;
#X obj 134 10 inlet;
#X obj 68 89 tgl 15 0 empty empty empty 17 7 0 10 -262144 -1 -1 0 1
;
#X obj 353 -20 inlet;
#N canvas 693 57 444 566 animax 0;
#X msg 328 330 1;
#X msg 51 125 0.7;
#X msg 68 165 0.45;
#X obj 39 504 line;
#X msg 83 202 0.2;
#X msg 96 233 0;
#X msg 39 461 \$1 400;
#X msg 103 268 -0.2;
#X msg 105 315 -0.5;
#X obj 206 12 inlet;
#X obj 206 92 sel 0 1 2 3 4 5 6 7;
#X obj 39 538 outlet;
#X obj 325 12 bng 15 250 50 0 empty empty empty 17 7 0 10 -262144 -1
-1;
#X obj 206 47 counter 7;
#X msg 126 357 -0.8;
#X connect 0 0 3 0;
#X connect 1 0 6 0;
#X connect 2 0 6 0;
#X connect 3 0 11 0;
#X connect 4 0 6 0;
#X connect 5 0 6 0;
#X connect 6 0 3 0;
#X connect 7 0 6 0;
#X connect 8 0 6 0;
#X connect 9 0 13 0;
#X connect 10 0 0 0;
#X connect 10 1 1 0;
#X connect 10 2 2 0;
#X connect 10 3 4 0;
#X connect 10 4 5 0;
#X connect 10 5 7 0;
#X connect 10 6 8 0;
#X connect 10 7 14 0;
#X connect 12 0 13 0;
#X connect 13 0 10 0;
#X connect 14 0 6 0;
#X restore 353 16 pd animax;
#X text 429 -19 bang de nota nova;
#X obj 354 46 + 0.3;
#X msg 235 428 text q;
#X obj 195 481 text2d;
#X connect 0 0 16 0;
#X connect 1 0 4 0;
#X connect 1 0 16 1;
#X connect 2 0 4 1;
#X connect 2 0 6 0;
#X connect 2 0 16 2;
#X connect 3 0 4 2;
#X connect 3 0 6 0;
#X connect 3 0 16 3;
#X connect 4 0 5 0;
#X connect 5 0 10 0;
#X connect 6 0 4 0;
#X connect 7 0 26 0;
#X connect 8 0 7 0;
#X connect 8 0 14 0;
#X connect 8 0 11 0;
#X connect 8 0 25 0;
#X connect 9 0 26 1;
#X connect 11 0 12 0;
#X connect 12 0 1 0;
#X connect 12 1 2 0;
#X connect 12 2 3 0;
#X connect 14 0 26 1;
#X connect 16 0 26 0;
#X connect 17 0 26 0;
#X connect 17 1 16 2;
#X connect 19 0 17 0;
#X connect 20 0 0 0;
#X connect 21 0 22 0;
#X connect 22 0 24 0;
#X connect 24 0 1 0;
#X connect 25 0 26 0;
#X restore 25 210 pd nota2;
#N canvas 357 24 923 663 nota5 0;
#X obj 195 100 gemhead;
#X obj 195 481 text2d;
#X obj 357 92 hsl 128 15 -8 8 0 0 empty empty X 12 8 1 12 -233017 -1
-1 7858 1;
#X obj 357 112 hsl 200 15 -6 6 0 0 empty empty Y 12 8 1 12 -233017
-1 -1 11282 1;
#X obj 357 132 hsl 128 15 -6 6 0 0 empty empty Z 12 8 1 12 -233017
-1 -1 9200 1;
#X text 352 145 rotate;
#X obj 466 229 pack f f f;
#X obj 466 260 prepend set;
#X obj 466 206 bng 15 250 50 0 empty empty empty 17 7 0 10 -262144
-1 -1;
#X msg 235 385 font pgjazz.ttf;
#X obj 235 352 loadbang;
#X floatatom 313 513 5 0 0 0 - - -;
#X msg 466 290 1.89984 0.803216 2.69291;
#X msg 646 46 -0.692913 0.80315 2.69291;
#X obj 645 73 unpack f f f;
#X text 355 73 translate;
#X msg 311 451 41;
#X text 464 311 usar essa msg para guardar preset de posição;
#X obj 194 175 translateXYZ;
#N canvas 0 0 875 647 escolhe 0;
#X obj 443 73 sel 0 1 2 3 4 5 6 7 8 9 10 11;
#X text 330 383 d =;
#X text 423 327 e;
#X text 381 354 d# =;
#X text 444 326 =;
#X msg 466 323 0.80315;
#X msg 375 386 0.765;
#X text 597 228 =;
#X text 476 294 f =;
#X text 522 259 f# =;
#X text 576 229 g;
#X msg 621 228 0.859843;
#X msg 521 295 0.83;
#X text 723 141 =;
#X text 619 200 g# =;
#X text 659 172 a =;
#X text 702 141 a#;
#X text 308 423 =;
#X text 727 116 b =;
#X text 229 457 c =;
#X text 280 426 c#;
#X text 6 380 d =;
#X text 10 443 e;
#X text 9 416 d# =;
#X text 31 442 =;
#X text 31 542 =;
#X text 6 480 f =;
#X text 9 516 f# =;
#X text 10 543 g;
#X msg 702 170 0.88;
#X msg 768 115 0.91;
#X msg 272 460 0.94;
#X msg 51 383 0.965;
#X msg 54 443 0.99;
#X msg 54 479 1.02;
#X msg 56 540 1.05;
#X msg 325 425 0.94;
#X msg 140 423 text \$1;
#X obj 139 388 l2s;
#X msg 187 355 # q;
#X msg 139 354 q;
#X msg 421 355 0.765;
#X msg 566 259 0.83;
#X msg 658 198 0.859843;
#X obj 431 565 f;
#X msg 740 145 0.88;
#X obj 443 26 inlet;
#X text 507 23 pitch-class;
#X obj 141 592 outlet;
#X text 148 616 acidente;
#X obj 431 601 outlet;
#X text 513 599 posição Y;
#X connect 0 0 31 0;
#X connect 0 0 40 0;
#X connect 0 1 36 0;
#X connect 0 1 39 0;
#X connect 0 2 6 0;
#X connect 0 2 40 0;
#X connect 0 3 39 0;
#X connect 0 3 41 0;
#X connect 0 4 40 0;
#X connect 0 4 5 0;
#X connect 0 5 40 0;
#X connect 0 5 12 0;
#X connect 0 6 39 0;
#X connect 0 6 42 0;
#X connect 0 7 40 0;
#X connect 0 7 11 0;
#X connect 0 8 39 0;
#X connect 0 8 43 0;
#X connect 0 9 40 0;
#X connect 0 9 29 0;
#X connect 0 10 39 0;
#X connect 0 10 45 0;
#X connect 0 11 40 0;
#X connect 0 11 30 0;
#X connect 5 0 44 0;
#X connect 6 0 44 0;
#X connect 11 0 44 0;
#X connect 12 0 44 0;
#X connect 29 0 44 0;
#X connect 30 0 44 0;
#X connect 31 0 44 0;
#X connect 32 0 44 0;
#X connect 33 0 44 0;
#X connect 34 0 44 0;
#X connect 35 0 44 0;
#X connect 36 0 44 0;
#X connect 37 0 48 0;
#X connect 38 0 37 0;
#X connect 39 0 38 0;
#X connect 40 0 38 0;
#X connect 41 0 44 0;
#X connect 42 0 44 0;
#X connect 43 0 44 0;
#X connect 44 0 50 0;
#X connect 45 0 44 0;
#X connect 46 0 0 0;
#X restore 134 49 pd escolhe nota;
#X text 199 10 pitch class;
#X obj 134 10 inlet;
#X obj 76 69 tgl 15 0 empty empty empty 17 7 0 10 -262144 -1 -1 0 1
;
#X obj 353 -21 inlet;
#N canvas 693 57 444 566 animax 0;
#X msg 328 330 1;
#X msg 51 125 0.7;
#X msg 68 165 0.45;
#X obj 39 504 line;
#X msg 83 202 0.2;
#X msg 96 233 0;
#X msg 39 461 \$1 400;
#X msg 103 268 -0.2;
#X msg 105 315 -0.5;
#X obj 206 12 inlet;
#X obj 206 92 sel 0 1 2 3 4 5 6 7;
#X obj 39 538 outlet;
#X obj 325 12 bng 15 250 50 0 empty empty empty 17 7 0 10 -262144 -1
-1;
#X obj 206 47 counter 7;
#X msg 126 357 -0.8;
#X connect 0 0 3 0;
#X connect 1 0 6 0;
#X connect 2 0 6 0;
#X connect 3 0 11 0;
#X connect 4 0 6 0;
#X connect 5 0 6 0;
#X connect 6 0 3 0;
#X connect 7 0 6 0;
#X connect 8 0 6 0;
#X connect 9 0 13 0;
#X connect 10 0 0 0;
#X connect 10 1 1 0;
#X connect 10 2 2 0;
#X connect 10 3 4 0;
#X connect 10 4 5 0;
#X connect 10 5 7 0;
#X connect 10 6 8 0;
#X connect 10 7 14 0;
#X connect 12 0 13 0;
#X connect 13 0 10 0;
#X connect 14 0 6 0;
#X restore 353 15 pd animax;
#X text 429 -20 bang de nota nova;
#X obj 353 49 + 0.9;
#X msg 235 418 text q;
#X connect 0 0 18 0;
#X connect 2 0 6 0;
#X connect 2 0 18 1;
#X connect 3 0 6 1;
#X connect 3 0 8 0;
#X connect 3 0 18 2;
#X connect 4 0 6 2;
#X connect 4 0 8 0;
#X connect 4 0 18 3;
#X connect 6 0 7 0;
#X connect 7 0 12 0;
#X connect 8 0 6 0;
#X connect 9 0 1 0;
#X connect 10 0 9 0;
#X connect 10 0 16 0;
#X connect 10 0 13 0;
#X connect 10 0 27 0;
#X connect 11 0 1 1;
#X connect 13 0 14 0;
#X connect 14 0 2 0;
#X connect 14 1 3 0;
#X connect 14 2 4 0;
#X connect 16 0 1 1;
#X connect 18 0 1 0;
#X connect 19 0 1 0;
#X connect 19 1 18 2;
#X connect 21 0 19 0;
#X connect 22 0 0 0;
#X connect 23 0 24 0;
#X connect 24 0 26 0;
#X connect 26 0 2 0;
#X connect 27 0 1 0;
#X restore -35 250 pd nota5;
#N canvas 357 24 923 663 nota4 0;
#X obj 195 100 gemhead;
#X obj 195 481 text2d;
#X obj 358 82 hsl 128 15 -8 8 0 0 empty empty X 12 8 1 12 -233017 -1
-1 7699 1;
#X obj 358 102 hsl 200 15 -6 6 0 0 empty empty Y 12 8 1 12 -233017
-1 -1 11282 1;
#X obj 358 122 hsl 128 15 -6 6 0 0 empty empty Z 12 8 1 12 -233017
-1 -1 9200 1;
#X obj 466 229 pack f f f;
#X obj 466 260 prepend set;
#X obj 466 206 bng 15 250 50 0 empty empty empty 17 7 0 10 -262144
-1 -1;
#X msg 235 385 font pgjazz.ttf;
#X obj 235 352 loadbang;
#X floatatom 313 513 5 0 0 0 - - -;
#X msg 466 290 1.69953 0.803216 2.69291;
#X msg 646 46 -0.692913 0.80315 2.69291;
#X obj 645 73 unpack f f f;
#X text 514 128 translate;
#X msg 311 451 41;
#X text 464 311 usar essa msg para guardar preset de posição;
#X obj 194 175 translateXYZ;
#N canvas 0 0 875 647 escolhe 0;
#X obj 443 73 sel 0 1 2 3 4 5 6 7 8 9 10 11;
#X text 330 383 d =;
#X text 423 327 e;
#X text 381 354 d# =;
#X text 444 326 =;
#X msg 466 323 0.80315;
#X msg 375 386 0.765;
#X text 597 228 =;
#X text 476 294 f =;
#X text 522 259 f# =;
#X text 576 229 g;
#X msg 621 228 0.859843;
#X msg 521 295 0.83;
#X text 723 141 =;
#X text 619 200 g# =;
#X text 659 172 a =;
#X text 702 141 a#;
#X text 308 423 =;
#X text 727 116 b =;
#X text 229 457 c =;
#X text 280 426 c#;
#X text 6 380 d =;
#X text 10 443 e;
#X text 9 416 d# =;
#X text 31 442 =;
#X text 31 542 =;
#X text 6 480 f =;
#X text 9 516 f# =;
#X text 10 543 g;
#X msg 702 170 0.88;
#X msg 768 115 0.91;
#X msg 272 460 0.94;
#X msg 51 383 0.965;
#X msg 54 443 0.99;
#X msg 54 479 1.02;
#X msg 56 540 1.05;
#X msg 325 425 0.94;
#X msg 140 423 text \$1;
#X obj 139 388 l2s;
#X msg 187 355 # q;
#X msg 139 354 q;
#X msg 421 355 0.765;
#X msg 566 259 0.83;
#X msg 658 198 0.859843;
#X obj 431 565 f;
#X msg 740 145 0.88;
#X obj 443 26 inlet;
#X text 507 23 pitch-class;
#X obj 141 592 outlet;
#X text 148 616 acidente;
#X obj 431 601 outlet;
#X text 513 599 posição Y;
#X connect 0 0 31 0;
#X connect 0 0 40 0;
#X connect 0 1 36 0;
#X connect 0 1 39 0;
#X connect 0 2 6 0;
#X connect 0 2 40 0;
#X connect 0 3 39 0;
#X connect 0 3 41 0;
#X connect 0 4 40 0;
#X connect 0 4 5 0;
#X connect 0 5 40 0;
#X connect 0 5 12 0;
#X connect 0 6 39 0;
#X connect 0 6 42 0;
#X connect 0 7 40 0;
#X connect 0 7 11 0;
#X connect 0 8 39 0;
#X connect 0 8 43 0;
#X connect 0 9 40 0;
#X connect 0 9 29 0;
#X connect 0 10 39 0;
#X connect 0 10 45 0;
#X connect 0 11 40 0;
#X connect 0 11 30 0;
#X connect 5 0 44 0;
#X connect 6 0 44 0;
#X connect 11 0 44 0;
#X connect 12 0 44 0;
#X connect 29 0 44 0;
#X connect 30 0 44 0;
#X connect 31 0 44 0;
#X connect 32 0 44 0;
#X connect 33 0 44 0;
#X connect 34 0 44 0;
#X connect 35 0 44 0;
#X connect 36 0 44 0;
#X connect 37 0 48 0;
#X connect 38 0 37 0;
#X connect 39 0 38 0;
#X connect 40 0 38 0;
#X connect 41 0 44 0;
#X connect 42 0 44 0;
#X connect 43 0 44 0;
#X connect 44 0 50 0;
#X connect 45 0 44 0;
#X connect 46 0 0 0;
#X restore 134 49 pd escolhe nota;
#X text 199 10 pitch class;
#X obj 134 10 inlet;
#X obj 73 78 tgl 15 0 empty empty empty 17 7 0 10 -262144 -1 -1 0 1
;
#X obj 355 -20 inlet;
#N canvas 693 57 444 566 animax 0;
#X msg 328 330 1;
#X msg 51 125 0.7;
#X msg 68 165 0.45;
#X obj 39 504 line;
#X msg 83 202 0.2;
#X msg 96 233 0;
#X msg 39 461 \$1 400;
#X msg 103 268 -0.2;
#X msg 105 315 -0.5;
#X obj 206 12 inlet;
#X obj 206 92 sel 0 1 2 3 4 5 6 7;
#X obj 39 538 outlet;
#X obj 325 12 bng 15 250 50 0 empty empty empty 17 7 0 10 -262144 -1
-1;
#X obj 206 47 counter 7;
#X msg 126 357 -0.8;
#X connect 0 0 3 0;
#X connect 1 0 6 0;
#X connect 2 0 6 0;
#X connect 3 0 11 0;
#X connect 4 0 6 0;
#X connect 5 0 6 0;
#X connect 6 0 3 0;
#X connect 7 0 6 0;
#X connect 8 0 6 0;
#X connect 9 0 13 0;
#X connect 10 0 0 0;
#X connect 10 1 1 0;
#X connect 10 2 2 0;
#X connect 10 3 4 0;
#X connect 10 4 5 0;
#X connect 10 5 7 0;
#X connect 10 6 8 0;
#X connect 10 7 14 0;
#X connect 12 0 13 0;
#X connect 13 0 10 0;
#X connect 14 0 6 0;
#X restore 355 16 pd animax;
#X text 429 -19 bang de nota nova;
#X obj 357 50 + 0.7;
#X msg 225 438 text q;
#X connect 0 0 17 0;
#X connect 2 0 5 0;
#X connect 2 0 17 1;
#X connect 3 0 5 1;
#X connect 3 0 7 0;
#X connect 3 0 17 2;
#X connect 4 0 5 2;
#X connect 4 0 7 0;
#X connect 4 0 17 3;
#X connect 5 0 6 0;
#X connect 6 0 11 0;
#X connect 7 0 5 0;
#X connect 8 0 1 0;
#X connect 9 0 8 0;
#X connect 9 0 15 0;
#X connect 9 0 12 0;
#X connect 9 0 26 0;
#X connect 10 0 1 1;
#X connect 12 0 13 0;
#X connect 13 0 2 0;
#X connect 13 1 3 0;
#X connect 13 2 4 0;
#X connect 15 0 1 1;
#X connect 17 0 1 0;
#X connect 18 0 1 0;
#X connect 18 1 17 2;
#X connect 20 0 18 0;
#X connect 21 0 0 0;
#X connect 22 0 23 0;
#X connect 23 0 25 0;
#X connect 25 0 2 0;
#X connect 26 0 1 0;
#X restore 215 210 pd nota4;
#X obj 245 73 t f b;
#X obj 219 19 inlet;
#X connect 5 0 0 0;
#X connect 5 1 6 0;
#X connect 5 2 1 0;
#X connect 5 3 8 0;
#X connect 5 4 7 0;
#X connect 5 5 2 0;
#X connect 5 6 3 0;
#X connect 5 7 4 0;
#X connect 9 0 5 0;
#X connect 9 1 0 1;
#X connect 9 1 6 1;
#X connect 9 1 1 1;
#X connect 9 1 7 1;
#X connect 9 1 2 1;
#X connect 9 1 3 1;
#X connect 9 1 4 1;
#X connect 9 1 8 1;
#X connect 10 0 9 0;
#X restore 51 328 pd notas entrada;
#X obj 251 292 hradio 15 1 0 11 empty empty empty 0 -8 0 10 -262144
-1 -1 0;
#N canvas 779 83 450 300 notas 0;
#N canvas 357 41 923 663 nota1 0;
#X obj 195 170 gemhead;
#X obj 195 551 text2d;
#X obj 366 153 hsl 128 15 -8 8 0 0 empty empty X 12 8 1 12 -233017
-1 -1 5800 1;
#X obj 366 173 hsl 200 15 -6 6 0 0 empty empty Y 12 8 1 12 -233017
-1 -1 11282 1;
#X obj 366 193 hsl 128 15 -6 6 0 0 empty empty Z 12 8 1 12 -233017
-1 -1 9200 1;
#X text 361 206 rotate;
#X obj 466 299 pack f f f;
#X obj 466 330 prepend set;
#X obj 466 276 bng 15 250 50 0 empty empty empty 17 7 0 10 -262144
-1 -1;
#X msg 235 455 font pgjazz.ttf;
#X obj 235 422 loadbang;
#X floatatom 313 583 5 0 0 0 - - -;
#X msg 466 360 -0.692913 0.803216 2.69291;
#X msg 646 116 -0.692913 0.80315 2.69291;
#X obj 645 143 unpack f f f;
#X msg 311 521 41;
#X text 464 381 usar essa msg para guardar preset de posição;
#N canvas 405 24 875 647 escolhe 0;
#X obj 443 73 sel 0 1 2 3 4 5 6 7 8 9 10 11;
#X text 330 383 d =;
#X text 423 327 e;
#X text 381 354 d# =;
#X text 444 326 =;
#X text 597 228 =;
#X text 476 294 f =;
#X text 522 259 f# =;
#X text 576 229 g;
#X text 723 141 =;
#X text 619 200 g# =;
#X text 659 172 a =;
#X text 702 141 a#;
#X text 308 423 =;
#X text 727 116 b =;
#X text 229 457 c =;
#X text 280 426 c#;
#X text 6 380 d =;
#X text 10 443 e;
#X text 9 416 d# =;
#X text 31 442 =;
#X text 31 542 =;
#X text 6 480 f =;
#X text 9 516 f# =;
#X text 10 543 g;
#X msg 51 383 0.965;
#X msg 54 443 0.99;
#X msg 54 479 1.02;
#X msg 56 540 1.05;
#X msg 140 423 text \$1;
#X obj 139 388 l2s;
#X msg 187 355 # q;
#X msg 139 354 q;
#X obj 443 26 inlet;
#X text 507 23 pitch-class;
#X obj 141 592 outlet;
#X text 148 616 acidente;
#X obj 431 601 outlet;
#X text 513 599 posição Y;
#X obj 431 565 f;
#X msg 375 386 -0.55;
#X msg 421 355 -0.55;
#X msg 621 228 -0.465;
#X msg 702 170 -0.44;
#X msg 658 198 -0.465;
#X msg 740 145 -0.44;
#X msg 768 115 -0.41;
#X msg 272 460 -0.39;
#X msg 325 425 -0.39;
#X msg 462 328 -0.52;
#X msg 521 295 -0.49;
#X msg 566 259 -0.49;
#X connect 0 0 47 0;
#X connect 0 0 32 0;
#X connect 0 1 48 0;
#X connect 0 1 31 0;
#X connect 0 2 40 0;
#X connect 0 2 32 0;
#X connect 0 3 31 0;
#X connect 0 3 41 0;
#X connect 0 4 32 0;
#X connect 0 4 49 0;
#X connect 0 5 32 0;
#X connect 0 5 50 0;
#X connect 0 6 31 0;
#X connect 0 6 51 0;
#X connect 0 7 32 0;
#X connect 0 7 42 0;
#X connect 0 8 31 0;
#X connect 0 8 44 0;
#X connect 0 9 32 0;
#X connect 0 9 43 0;
#X connect 0 10 31 0;
#X connect 0 10 45 0;
#X connect 0 11 32 0;
#X connect 0 11 46 0;
#X connect 25 0 39 0;
#X connect 26 0 39 0;
#X connect 27 0 39 0;
#X connect 28 0 39 0;
#X connect 29 0 35 0;
#X connect 30 0 29 0;
#X connect 31 0 30 0;
#X connect 32 0 30 0;
#X connect 33 0 0 0;
#X connect 39 0 37 0;
#X connect 40 0 39 0;
#X connect 41 0 39 0;
#X connect 42 0 39 0;
#X connect 43 0 39 0;
#X connect 44 0 39 0;
#X connect 45 0 39 0;
#X connect 46 0 39 0;
#X connect 47 0 39 0;
#X connect 48 0 39 0;
#X connect 49 0 39 0;
#X connect 50 0 39 0;
#X connect 51 0 39 0;
#X restore 134 119 pd escolhe nota;
#X text 199 80 pitch class;
#X obj 134 82 inlet;
#X obj 363 70 inlet;
#X obj 194 245 translateXYZ -0.6 0 2.69291;
#N canvas 693 57 444 566 animax 0;
#X msg 328 330 1;
#X msg 51 125 0.7;
#X msg 68 165 0.45;
#X obj 39 504 line;
#X msg 83 202 0.2;
#X msg 96 233 0;
#X msg 39 461 \$1 400;
#X msg 103 268 -0.2;
#X msg 105 315 -0.5;
#X obj 206 12 inlet;
#X obj 206 92 sel 0 1 2 3 4 5 6 7;
#X obj 39 538 outlet;
#X obj 325 12 bng 15 250 50 0 empty empty empty 17 7 0 10 -262144 -1
-1;
#X obj 206 47 counter 7;
#X msg 126 357 -0.8;
#X connect 0 0 3 0;
#X connect 1 0 6 0;
#X connect 2 0 6 0;
#X connect 3 0 11 0;
#X connect 4 0 6 0;
#X connect 5 0 6 0;
#X connect 6 0 3 0;
#X connect 7 0 6 0;
#X connect 8 0 6 0;
#X connect 9 0 13 0;
#X connect 10 0 0 0;
#X connect 10 1 1 0;
#X connect 10 2 2 0;
#X connect 10 3 4 0;
#X connect 10 4 5 0;
#X connect 10 5 7 0;
#X connect 10 6 8 0;
#X connect 10 7 14 0;
#X connect 12 0 13 0;
#X connect 13 0 10 0;
#X connect 14 0 6 0;
#X restore 363 106 pd animax;
#X text 364 134 translate;
#X text 439 71 bang de nota nova;
#X msg 245 498 text q;
#X connect 0 0 21 0;
#X connect 2 0 6 0;
#X connect 2 0 21 1;
#X connect 3 0 6 1;
#X connect 3 0 8 0;
#X connect 3 0 21 2;
#X connect 4 0 6 2;
#X connect 4 0 8 0;
#X connect 4 0 21 3;
#X connect 6 0 7 0;
#X connect 7 0 12 0;
#X connect 8 0 6 0;
#X connect 9 0 1 0;
#X connect 10 0 9 0;
#X connect 10 0 15 0;
#X connect 10 0 13 0;
#X connect 10 0 25 0;
#X connect 11 0 1 1;
#X connect 13 0 14 0;
#X connect 14 0 2 0;
#X connect 14 1 3 0;
#X connect 14 2 4 0;
#X connect 15 0 1 1;
#X connect 17 0 1 0;
#X connect 17 1 21 2;
#X connect 19 0 17 0;
#X connect 20 0 22 0;
#X connect 21 0 1 0;
#X connect 22 0 2 0;
#X connect 25 0 1 0;
#X restore -75 210 pd nota1;
#N canvas 357 24 923 663 nota3 0;
#X obj 195 100 gemhead;
#X obj 357 71 hsl 128 15 -8 8 0 0 empty empty X 12 8 1 12 -233017 -1
-1 5800 1;
#X obj 357 91 hsl 200 15 -6 6 0 0 empty empty Y 12 8 1 12 -233017 -1
-1 11282 1;
#X obj 355 119 hsl 128 15 -6 6 0 0 empty empty Z 12 8 1 12 -233017
-1 -1 9200 1;
#X obj 466 229 pack f f f;
#X obj 466 260 prepend set;
#X obj 466 206 bng 15 250 50 0 empty empty empty 17 7 0 10 -262144
-1 -1;
#X msg 235 385 font pgjazz.ttf;
#X obj 235 352 loadbang;
#X floatatom 313 513 5 0 0 0 - - -;
#X msg 466 290 -0.692913 0.803216 2.69291;
#X msg 646 46 -0.692913 0.80315 2.69291;
#X obj 645 73 unpack f f f;
#X text 494 134 translate;
#X msg 311 451 41;
#X text 464 311 usar essa msg para guardar preset de posição;
#X obj 194 175 translateXYZ;
#N canvas 0 0 875 647 escolhe 0;
#X obj 463 93 sel 0 1 2 3 4 5 6 7 8 9 10 11;
#X text 350 403 d =;
#X text 443 347 e;
#X text 401 374 d# =;
#X text 464 346 =;
#X text 617 248 =;
#X text 496 314 f =;
#X text 542 279 f# =;
#X text 596 249 g;
#X text 743 161 =;
#X text 639 220 g# =;
#X text 679 192 a =;
#X text 722 161 a#;
#X text 328 443 =;
#X text 747 136 b =;
#X text 249 477 c =;
#X text 300 446 c#;
#X text 26 400 d =;
#X text 30 463 e;
#X text 29 436 d# =;
#X text 51 462 =;
#X text 51 562 =;
#X text 26 500 f =;
#X text 29 536 f# =;
#X text 30 563 g;
#X msg 71 403 0.965;
#X msg 74 463 0.99;
#X msg 74 499 1.02;
#X msg 76 560 1.05;
#X msg 160 443 text \$1;
#X obj 159 408 l2s;
#X msg 207 375 # q;
#X msg 159 374 q;
#X obj 463 46 inlet;
#X text 527 43 pitch-class;
#X obj 161 612 outlet;
#X text 168 636 acidente;
#X obj 451 621 outlet;
#X text 533 619 posição Y;
#X obj 451 585 f;
#X msg 395 406 -0.55;
#X msg 441 375 -0.55;
#X msg 641 248 -0.465;
#X msg 722 190 -0.44;
#X msg 678 218 -0.465;
#X msg 760 165 -0.44;
#X msg 788 135 -0.41;
#X msg 292 480 -0.39;
#X msg 345 445 -0.39;
#X msg 482 348 -0.52;
#X msg 541 315 -0.49;
#X msg 586 279 -0.49;
#X connect 0 0 47 0;
#X connect 0 0 32 0;
#X connect 0 1 48 0;
#X connect 0 1 31 0;
#X connect 0 2 40 0;
#X connect 0 2 32 0;
#X connect 0 3 31 0;
#X connect 0 3 41 0;
#X connect 0 4 32 0;
#X connect 0 4 49 0;
#X connect 0 5 32 0;
#X connect 0 5 50 0;
#X connect 0 6 31 0;
#X connect 0 6 51 0;
#X connect 0 7 32 0;
#X connect 0 7 42 0;
#X connect 0 8 31 0;
#X connect 0 8 44 0;
#X connect 0 9 32 0;
#X connect 0 9 43 0;
#X connect 0 10 31 0;
#X connect 0 10 45 0;
#X connect 0 11 32 0;
#X connect 0 11 46 0;
#X connect 25 0 39 0;
#X connect 26 0 39 0;
#X connect 27 0 39 0;
#X connect 28 0 39 0;
#X connect 29 0 35 0;
#X connect 30 0 29 0;
#X connect 31 0 30 0;
#X connect 32 0 30 0;
#X connect 33 0 0 0;
#X connect 39 0 37 0;
#X connect 40 0 39 0;
#X connect 41 0 39 0;
#X connect 42 0 39 0;
#X connect 43 0 39 0;
#X connect 44 0 39 0;
#X connect 45 0 39 0;
#X connect 46 0 39 0;
#X connect 47 0 39 0;
#X connect 48 0 39 0;
#X connect 49 0 39 0;
#X connect 50 0 39 0;
#X connect 51 0 39 0;
#X restore 134 49 pd escolhe nota;
#X text 199 10 pitch class;
#X obj 134 10 inlet;
#X obj 65 85 tgl 15 0 empty empty empty 17 7 0 10 -262144 -1 -1 0 1
;
#X obj 356 -20 inlet;
#N canvas 693 57 444 566 animax 0;
#X msg 328 330 1;
#X msg 51 125 0.7;
#X msg 68 165 0.45;
#X obj 39 504 line;
#X msg 83 202 0.2;
#X msg 96 233 0;
#X msg 39 461 \$1 400;
#X msg 103 268 -0.2;
#X msg 105 315 -0.5;
#X obj 206 12 inlet;
#X obj 206 92 sel 0 1 2 3 4 5 6 7;
#X obj 39 538 outlet;
#X obj 325 12 bng 15 250 50 0 empty empty empty 17 7 0 10 -262144 -1
-1;
#X obj 206 47 counter 7;
#X msg 126 357 -0.8;
#X connect 0 0 3 0;
#X connect 1 0 6 0;
#X connect 2 0 6 0;
#X connect 3 0 11 0;
#X connect 4 0 6 0;
#X connect 5 0 6 0;
#X connect 6 0 3 0;
#X connect 7 0 6 0;
#X connect 8 0 6 0;
#X connect 9 0 13 0;
#X connect 10 0 0 0;
#X connect 10 1 1 0;
#X connect 10 2 2 0;
#X connect 10 3 4 0;
#X connect 10 4 5 0;
#X connect 10 5 7 0;
#X connect 10 6 8 0;
#X connect 10 7 14 0;
#X connect 12 0 13 0;
#X connect 13 0 10 0;
#X connect 14 0 6 0;
#X restore 356 9 pd animax;
#X text 432 -19 bang de nota nova;
#X obj 358 39 + 0.5;
#X msg 235 428 text q;
#X obj 195 481 text2d;
#X connect 0 0 16 0;
#X connect 1 0 4 0;
#X connect 1 0 16 1;
#X connect 2 0 4 1;
#X connect 2 0 6 0;
#X connect 2 0 16 2;
#X connect 3 0 4 2;
#X connect 3 0 6 0;
#X connect 3 0 16 3;
#X connect 4 0 5 0;
#X connect 5 0 10 0;
#X connect 6 0 4 0;
#X connect 7 0 26 0;
#X connect 8 0 7 0;
#X connect 8 0 14 0;
#X connect 8 0 11 0;
#X connect 8 0 25 0;
#X connect 9 0 26 1;
#X connect 11 0 12 0;
#X connect 12 0 1 0;
#X connect 12 1 2 0;
#X connect 12 2 3 0;
#X connect 14 0 26 1;
#X connect 16 0 26 0;
#X connect 17 0 26 0;
#X connect 17 1 16 2;
#X connect 19 0 17 0;
#X connect 20 0 0 0;
#X connect 21 0 22 0;
#X connect 22 0 24 0;
#X connect 24 0 1 0;
#X connect 25 0 26 0;
#X restore 115 210 pd nota3;
#N canvas 357 24 923 663 nota6 0;
#X obj 195 100 gemhead;
#X obj 357 105 hsl 128 15 -8 8 0 0 empty empty X 12 8 1 12 -233017
-1 -1 5800 1;
#X obj 357 125 hsl 200 15 -6 6 0 0 empty empty Y 12 8 1 12 -233017
-1 -1 11282 1;
#X obj 357 145 hsl 128 15 -6 6 0 0 empty empty Z 12 8 1 12 -233017
-1 -1 9200 1;
#X text 352 158 rotate;
#X obj 466 229 pack f f f;
#X obj 466 260 prepend set;
#X obj 466 206 bng 15 250 50 0 empty empty empty 17 7 0 10 -262144
-1 -1;
#X msg 235 385 font pgjazz.ttf;
#X obj 235 352 loadbang;
#X floatatom 313 513 5 0 0 0 - - -;
#X msg 466 290 -0.692913 0.803216 2.69291;
#X msg 646 46 -0.692913 0.80315 2.69291;
#X obj 645 73 unpack f f f;
#X text 355 86 translate;
#X msg 311 451 41;
#X text 464 311 usar essa msg para guardar preset de posição;
#X obj 194 175 translateXYZ;
#N canvas 0 0 875 647 escolhe 0;
#X obj 493 123 sel 0 1 2 3 4 5 6 7 8 9 10 11;
#X text 380 433 d =;
#X text 473 377 e;
#X text 431 404 d# =;
#X text 494 376 =;
#X text 647 278 =;
#X text 526 344 f =;
#X text 572 309 f# =;
#X text 626 279 g;
#X text 773 191 =;
#X text 669 250 g# =;
#X text 709 222 a =;
#X text 752 191 a#;
#X text 358 473 =;
#X text 777 166 b =;
#X text 279 507 c =;
#X text 330 476 c#;
#X text 56 430 d =;
#X text 60 493 e;
#X text 59 466 d# =;
#X text 81 492 =;
#X text 81 592 =;
#X text 56 530 f =;
#X text 59 566 f# =;
#X text 60 593 g;
#X msg 101 433 0.965;
#X msg 104 493 0.99;
#X msg 104 529 1.02;
#X msg 106 590 1.05;
#X msg 190 473 text \$1;
#X obj 189 438 l2s;
#X msg 237 405 # q;
#X msg 189 404 q;
#X obj 493 76 inlet;
#X text 557 73 pitch-class;
#X obj 191 642 outlet;
#X text 198 666 acidente;
#X obj 481 651 outlet;
#X text 563 649 posição Y;
#X obj 481 615 f;
#X msg 425 436 -0.55;
#X msg 471 405 -0.55;
#X msg 671 278 -0.465;
#X msg 752 220 -0.44;
#X msg 708 248 -0.465;
#X msg 790 195 -0.44;
#X msg 818 165 -0.41;
#X msg 322 510 -0.39;
#X msg 375 475 -0.39;
#X msg 512 378 -0.52;
#X msg 571 345 -0.49;
#X msg 616 309 -0.49;
#X connect 0 0 47 0;
#X connect 0 0 32 0;
#X connect 0 1 48 0;
#X connect 0 1 31 0;
#X connect 0 2 40 0;
#X connect 0 2 32 0;
#X connect 0 3 31 0;
#X connect 0 3 41 0;
#X connect 0 4 32 0;
#X connect 0 4 49 0;
#X connect 0 5 32 0;
#X connect 0 5 50 0;
#X connect 0 6 31 0;
#X connect 0 6 51 0;
#X connect 0 7 32 0;
#X connect 0 7 42 0;
#X connect 0 8 31 0;
#X connect 0 8 44 0;
#X connect 0 9 32 0;
#X connect 0 9 43 0;
#X connect 0 10 31 0;
#X connect 0 10 45 0;
#X connect 0 11 32 0;
#X connect 0 11 46 0;
#X connect 25 0 39 0;
#X connect 26 0 39 0;
#X connect 27 0 39 0;
#X connect 28 0 39 0;
#X connect 29 0 35 0;
#X connect 30 0 29 0;
#X connect 31 0 30 0;
#X connect 32 0 30 0;
#X connect 33 0 0 0;
#X connect 39 0 37 0;
#X connect 40 0 39 0;
#X connect 41 0 39 0;
#X connect 42 0 39 0;
#X connect 43 0 39 0;
#X connect 44 0 39 0;
#X connect 45 0 39 0;
#X connect 46 0 39 0;
#X connect 47 0 39 0;
#X connect 48 0 39 0;
#X connect 49 0 39 0;
#X connect 50 0 39 0;
#X connect 51 0 39 0;
#X restore 134 49 pd escolhe nota;
#X text 199 10 pitch class;
#X obj 134 10 inlet;
#X obj 73 54 tgl 15 0 empty empty empty 17 7 0 10 -262144 -1 -1 0 1
;
#X obj 354 -22 inlet;
#N canvas 693 57 444 566 animax 0;
#X msg 328 330 1;
#X msg 51 125 0.7;
#X msg 68 165 0.45;
#X obj 39 504 line;
#X msg 83 202 0.2;
#X msg 96 233 0;
#X msg 39 461 \$1 400;
#X msg 103 268 -0.2;
#X msg 105 315 -0.5;
#X obj 206 12 inlet;
#X obj 206 92 sel 0 1 2 3 4 5 6 7;
#X obj 39 538 outlet;
#X obj 325 12 bng 15 250 50 0 empty empty empty 17 7 0 10 -262144 -1
-1;
#X obj 206 47 counter 7;
#X msg 126 357 -0.8;
#X connect 0 0 3 0;
#X connect 1 0 6 0;
#X connect 2 0 6 0;
#X connect 3 0 11 0;
#X connect 4 0 6 0;
#X connect 5 0 6 0;
#X connect 6 0 3 0;
#X connect 7 0 6 0;
#X connect 8 0 6 0;
#X connect 9 0 13 0;
#X connect 10 0 0 0;
#X connect 10 1 1 0;
#X connect 10 2 2 0;
#X connect 10 3 4 0;
#X connect 10 4 5 0;
#X connect 10 5 7 0;
#X connect 10 6 8 0;
#X connect 10 7 14 0;
#X connect 12 0 13 0;
#X connect 13 0 10 0;
#X connect 14 0 6 0;
#X restore 354 14 pd animax;
#X text 430 -21 bang de nota nova;
#X obj 355 57 + 1.1;
#X msg 235 428 text q;
#X obj 195 481 text2d;
#X connect 0 0 17 0;
#X connect 1 0 5 0;
#X connect 1 0 17 1;
#X connect 2 0 5 1;
#X connect 2 0 7 0;
#X connect 2 0 17 2;
#X connect 3 0 5 2;
#X connect 3 0 7 0;
#X connect 3 0 17 3;
#X connect 5 0 6 0;
#X connect 6 0 11 0;
#X connect 7 0 5 0;
#X connect 8 0 27 0;
#X connect 9 0 8 0;
#X connect 9 0 15 0;
#X connect 9 0 12 0;
#X connect 9 0 26 0;
#X connect 10 0 27 1;
#X connect 12 0 13 0;
#X connect 13 0 1 0;
#X connect 13 1 2 0;
#X connect 13 2 3 0;
#X connect 15 0 27 1;
#X connect 17 0 27 0;
#X connect 18 0 27 0;
#X connect 18 1 17 2;
#X connect 20 0 18 0;
#X connect 21 0 0 0;
#X connect 22 0 23 0;
#X connect 23 0 25 0;
#X connect 25 0 1 0;
#X connect 26 0 27 0;
#X restore 65 250 pd nota6;
#N canvas 357 24 923 663 nota7 0;
#X obj 195 100 gemhead;
#X obj 195 481 text2d;
#X obj 356 118 hsl 128 15 -8 8 0 0 empty empty X 12 8 1 12 -233017
-1 -1 5800 1;
#X obj 356 138 hsl 200 15 -6 6 0 0 empty empty Y 12 8 1 12 -233017
-1 -1 11282 1;
#X obj 356 158 hsl 128 15 -6 6 0 0 empty empty Z 12 8 1 12 -233017
-1 -1 9200 1;
#X text 351 171 rotate;
#X obj 466 229 pack f f f;
#X obj 466 260 prepend set;
#X obj 466 206 bng 15 250 50 0 empty empty empty 17 7 0 10 -262144
-1 -1;
#X msg 235 385 font pgjazz.ttf;
#X obj 235 352 loadbang;
#X floatatom 313 513 5 0 0 0 - - -;
#X msg 466 290 -0.692913 0.803216 2.69291;
#X msg 646 46 -0.692913 0.80315 2.69291;
#X obj 645 73 unpack f f f;
#X msg 311 451 41;
#X text 464 311 usar essa msg para guardar preset de posição;
#X obj 194 175 translateXYZ;
#N canvas 0 0 875 647 escolhe 0;
#X obj 503 133 sel 0 1 2 3 4 5 6 7 8 9 10 11;
#X text 390 443 d =;
#X text 483 387 e;
#X text 441 414 d# =;
#X text 504 386 =;
#X text 657 288 =;
#X text 536 354 f =;
#X text 582 319 f# =;
#X text 636 289 g;
#X text 783 201 =;
#X text 679 260 g# =;
#X text 719 232 a =;
#X text 762 201 a#;
#X text 368 483 =;
#X text 787 176 b =;
#X text 289 517 c =;
#X text 340 486 c#;
#X text 66 440 d =;
#X text 70 503 e;
#X text 69 476 d# =;
#X text 91 502 =;
#X text 91 602 =;
#X text 66 540 f =;
#X text 69 576 f# =;
#X text 70 603 g;
#X msg 111 443 0.965;
#X msg 114 503 0.99;
#X msg 114 539 1.02;
#X msg 116 600 1.05;
#X msg 200 483 text \$1;
#X obj 199 448 l2s;
#X msg 247 415 # q;
#X msg 199 414 q;
#X obj 503 86 inlet;
#X text 567 83 pitch-class;
#X obj 201 652 outlet;
#X text 208 676 acidente;
#X obj 491 661 outlet;
#X text 573 659 posição Y;
#X obj 491 625 f;
#X msg 435 446 -0.55;
#X msg 481 415 -0.55;
#X msg 681 288 -0.465;
#X msg 762 230 -0.44;
#X msg 718 258 -0.465;
#X msg 800 205 -0.44;
#X msg 828 175 -0.41;
#X msg 332 520 -0.39;
#X msg 385 485 -0.39;
#X msg 522 388 -0.52;
#X msg 581 355 -0.49;
#X msg 626 319 -0.49;
#X connect 0 0 47 0;
#X connect 0 0 32 0;
#X connect 0 1 48 0;
#X connect 0 1 31 0;
#X connect 0 2 40 0;
#X connect 0 2 32 0;
#X connect 0 3 31 0;
#X connect 0 3 41 0;
#X connect 0 4 32 0;
#X connect 0 4 49 0;
#X connect 0 5 32 0;
#X connect 0 5 50 0;
#X connect 0 6 31 0;
#X connect 0 6 51 0;
#X connect 0 7 32 0;
#X connect 0 7 42 0;
#X connect 0 8 31 0;
#X connect 0 8 44 0;
#X connect 0 9 32 0;
#X connect 0 9 43 0;
#X connect 0 10 31 0;
#X connect 0 10 45 0;
#X connect 0 11 32 0;
#X connect 0 11 46 0;
#X connect 25 0 39 0;
#X connect 26 0 39 0;
#X connect 27 0 39 0;
#X connect 28 0 39 0;
#X connect 29 0 35 0;
#X connect 30 0 29 0;
#X connect 31 0 30 0;
#X connect 32 0 30 0;
#X connect 33 0 0 0;
#X connect 39 0 37 0;
#X connect 40 0 39 0;
#X connect 41 0 39 0;
#X connect 42 0 39 0;
#X connect 43 0 39 0;
#X connect 44 0 39 0;
#X connect 45 0 39 0;
#X connect 46 0 39 0;
#X connect 47 0 39 0;
#X connect 48 0 39 0;
#X connect 49 0 39 0;
#X connect 50 0 39 0;
#X connect 51 0 39 0;
#X restore 134 49 pd escolhe nota;
#X text 199 10 pitch class;
#X obj 134 10 inlet;
#X obj 76 54 tgl 15 0 empty empty empty 17 7 0 10 -262144 -1 -1 0 1
;
#X obj 355 -20 inlet;
#N canvas 693 57 444 566 animax 0;
#X msg 328 330 1;
#X msg 51 125 0.7;
#X msg 68 165 0.45;
#X obj 39 504 line;
#X msg 83 202 0.2;
#X msg 96 233 0;
#X msg 39 461 \$1 400;
#X msg 103 268 -0.2;
#X msg 105 315 -0.5;
#X obj 206 12 inlet;
#X obj 206 92 sel 0 1 2 3 4 5 6 7;
#X obj 39 538 outlet;
#X obj 325 12 bng 15 250 50 0 empty empty empty 17 7 0 10 -262144 -1
-1;
#X obj 206 47 counter 7;
#X msg 126 357 -0.8;
#X connect 0 0 3 0;
#X connect 1 0 6 0;
#X connect 2 0 6 0;
#X connect 3 0 11 0;
#X connect 4 0 6 0;
#X connect 5 0 6 0;
#X connect 6 0 3 0;
#X connect 7 0 6 0;
#X connect 8 0 6 0;
#X connect 9 0 13 0;
#X connect 10 0 0 0;
#X connect 10 1 1 0;
#X connect 10 2 2 0;
#X connect 10 3 4 0;
#X connect 10 4 5 0;
#X connect 10 5 7 0;
#X connect 10 6 8 0;
#X connect 10 7 14 0;
#X connect 12 0 13 0;
#X connect 13 0 10 0;
#X connect 14 0 6 0;
#X restore 355 16 pd animax;
#X text 431 -19 bang de nota nova;
#X text 354 99 translate;
#X obj 353 65 + 1.3;
#X msg 235 428 text q;
#X connect 0 0 17 0;
#X connect 2 0 6 0;
#X connect 2 0 17 1;
#X connect 3 0 6 1;
#X connect 3 0 8 0;
#X connect 3 0 17 2;
#X connect 4 0 6 2;
#X connect 4 0 8 0;
#X connect 4 0 17 3;
#X connect 6 0 7 0;
#X connect 7 0 12 0;
#X connect 8 0 6 0;
#X connect 9 0 1 0;
#X connect 10 0 9 0;
#X connect 10 0 15 0;
#X connect 10 0 13 0;
#X connect 10 0 27 0;
#X connect 11 0 1 1;
#X connect 13 0 14 0;
#X connect 14 0 2 0;
#X connect 14 1 3 0;
#X connect 14 2 4 0;
#X connect 15 0 1 1;
#X connect 17 0 1 0;
#X connect 18 0 1 0;
#X connect 18 1 17 2;
#X connect 20 0 18 0;
#X connect 21 0 0 0;
#X connect 22 0 23 0;
#X connect 23 0 26 0;
#X connect 26 0 2 0;
#X connect 27 0 1 0;
#X restore 155 250 pd nota7;
#N canvas 357 24 923 663 nota8 0;
#X obj 195 100 gemhead;
#X obj 195 481 text2d;
#X obj 364 93 hsl 128 15 -8 8 0 0 empty empty X 12 8 1 12 -233017 -1
-1 5800 1;
#X obj 364 113 hsl 200 15 -6 6 0 0 empty empty Y 12 8 1 12 -233017
-1 -1 11282 1;
#X obj 364 133 hsl 128 15 -6 6 0 0 empty empty Z 12 8 1 12 -233017
-1 -1 9200 1;
#X text 359 146 rotate;
#X obj 466 229 pack f f f;
#X obj 466 260 prepend set;
#X obj 466 206 bng 15 250 50 0 empty empty empty 17 7 0 10 -262144
-1 -1;
#X msg 235 385 font pgjazz.ttf;
#X obj 235 352 loadbang;
#X floatatom 313 513 5 0 0 0 - - -;
#X msg 466 290 -0.692913 0.803216 2.69291;
#X msg 646 46 -0.692913 0.80315 2.69291;
#X obj 645 73 unpack f f f;
#X text 362 74 translate;
#X msg 311 451 41;
#X text 464 311 usar essa msg para guardar preset de posição;
#X text 199 10 pitch class;
#X obj 134 10 inlet;
#X obj 69 53 tgl 15 0 empty empty empty 17 7 0 10 -262144 -1 -1 0 1
;
#X obj 358 -20 inlet;
#N canvas 693 57 444 566 animax 0;
#X msg 328 330 1;
#X msg 51 125 0.7;
#X msg 68 165 0.45;
#X obj 39 504 line;
#X msg 83 202 0.2;
#X msg 96 233 0;
#X msg 39 461 \$1 400;
#X msg 103 268 -0.2;
#X msg 105 315 -0.5;
#X obj 206 12 inlet;
#X obj 206 92 sel 0 1 2 3 4 5 6 7;
#X obj 39 538 outlet;
#X obj 325 12 bng 15 250 50 0 empty empty empty 17 7 0 10 -262144 -1
-1;
#X obj 206 47 counter 7;
#X msg 126 357 -0.8;
#X connect 0 0 3 0;
#X connect 1 0 6 0;
#X connect 2 0 6 0;
#X connect 3 0 11 0;
#X connect 4 0 6 0;
#X connect 5 0 6 0;
#X connect 6 0 3 0;
#X connect 7 0 6 0;
#X connect 8 0 6 0;
#X connect 9 0 13 0;
#X connect 10 0 0 0;
#X connect 10 1 1 0;
#X connect 10 2 2 0;
#X connect 10 3 4 0;
#X connect 10 4 5 0;
#X connect 10 5 7 0;
#X connect 10 6 8 0;
#X connect 10 7 14 0;
#X connect 12 0 13 0;
#X connect 13 0 10 0;
#X connect 14 0 6 0;
#X restore 357 10 pd animax;
#X text 434 -19 bang de nota nova;
#X obj 355 44 + 1.5;
#X msg 235 418 text q;
#N canvas 0 0 875 647 escolhe 0;
#X obj 513 143 sel 0 1 2 3 4 5 6 7 8 9 10 11;
#X text 400 453 d =;
#X text 493 397 e;
#X text 451 424 d# =;
#X text 514 396 =;
#X text 667 298 =;
#X text 546 364 f =;
#X text 592 329 f# =;
#X text 646 299 g;
#X text 793 211 =;
#X text 689 270 g# =;
#X text 729 242 a =;
#X text 772 211 a#;
#X text 378 493 =;
#X text 797 186 b =;
#X text 299 527 c =;
#X text 350 496 c#;
#X text 76 450 d =;
#X text 80 513 e;
#X text 79 486 d# =;
#X text 101 512 =;
#X text 101 612 =;
#X text 76 550 f =;
#X text 79 586 f# =;
#X text 80 613 g;
#X msg 121 453 0.965;
#X msg 124 513 0.99;
#X msg 124 549 1.02;
#X msg 126 610 1.05;
#X msg 210 493 text \$1;
#X obj 209 458 l2s;
#X msg 257 425 # q;
#X msg 209 424 q;
#X obj 513 96 inlet;
#X text 577 93 pitch-class;
#X obj 211 662 outlet;
#X text 218 686 acidente;
#X obj 501 671 outlet;
#X text 583 669 posição Y;
#X obj 501 635 f;
#X msg 445 456 -0.55;
#X msg 491 425 -0.55;
#X msg 691 298 -0.465;
#X msg 772 240 -0.44;
#X msg 728 268 -0.465;
#X msg 810 215 -0.44;
#X msg 838 185 -0.41;
#X msg 342 530 -0.39;
#X msg 395 495 -0.39;
#X msg 532 398 -0.52;
#X msg 591 365 -0.49;
#X msg 636 329 -0.49;
#X connect 0 0 47 0;
#X connect 0 0 32 0;
#X connect 0 1 48 0;
#X connect 0 1 31 0;
#X connect 0 2 40 0;
#X connect 0 2 32 0;
#X connect 0 3 31 0;
#X connect 0 3 41 0;
#X connect 0 4 32 0;
#X connect 0 4 49 0;
#X connect 0 5 32 0;
#X connect 0 5 50 0;
#X connect 0 6 31 0;
#X connect 0 6 51 0;
#X connect 0 7 32 0;
#X connect 0 7 42 0;
#X connect 0 8 31 0;
#X connect 0 8 44 0;
#X connect 0 9 32 0;
#X connect 0 9 43 0;
#X connect 0 10 31 0;
#X connect 0 10 45 0;
#X connect 0 11 32 0;
#X connect 0 11 46 0;
#X connect 25 0 39 0;
#X connect 26 0 39 0;
#X connect 27 0 39 0;
#X connect 28 0 39 0;
#X connect 29 0 35 0;
#X connect 30 0 29 0;
#X connect 31 0 30 0;
#X connect 32 0 30 0;
#X connect 33 0 0 0;
#X connect 39 0 37 0;
#X connect 40 0 39 0;
#X connect 41 0 39 0;
#X connect 42 0 39 0;
#X connect 43 0 39 0;
#X connect 44 0 39 0;
#X connect 45 0 39 0;
#X connect 46 0 39 0;
#X connect 47 0 39 0;
#X connect 48 0 39 0;
#X connect 49 0 39 0;
#X connect 50 0 39 0;
#X connect 51 0 39 0;
#X restore 134 49 pd escolhe nota;
#X obj 194 175 translateXYZ;
#X connect 0 0 27 0;
#X connect 2 0 6 0;
#X connect 2 0 27 1;
#X connect 3 0 6 1;
#X connect 3 0 8 0;
#X connect 3 0 27 2;
#X connect 4 0 6 2;
#X connect 4 0 8 0;
#X connect 4 0 27 3;
#X connect 6 0 7 0;
#X connect 7 0 12 0;
#X connect 8 0 6 0;
#X connect 9 0 1 0;
#X connect 10 0 9 0;
#X connect 10 0 16 0;
#X connect 10 0 13 0;
#X connect 10 0 25 0;
#X connect 11 0 1 1;
#X connect 13 0 14 0;
#X connect 14 0 2 0;
#X connect 14 1 3 0;
#X connect 14 2 4 0;
#X connect 16 0 1 1;
#X connect 19 0 26 0;
#X connect 20 0 0 0;
#X connect 21 0 22 0;
#X connect 22 0 24 0;
#X connect 24 0 2 0;
#X connect 25 0 1 0;
#X connect 26 0 1 0;
#X connect 26 1 27 2;
#X connect 27 0 1 0;
#X restore 255 250 pd nota8;
#N canvas 0 0 1142 447 gate 0;
#X obj 116 43 inlet;
#X obj 116 74 t f b;
#X obj 244 10 counter 8;
#X obj 106 337 spigot;
#X msg 203 295 1;
#X msg 159 296 0;
#X obj 216 337 spigot;
#X msg 313 295 1;
#X msg 269 296 0;
#X msg 423 295 1;
#X msg 379 296 0;
#X obj 436 337 spigot;
#X msg 533 295 1;
#X msg 489 296 0;
#X obj 326 337 spigot;
#X obj 244 37 sel 0 1 2 3;
#X obj 556 347 spigot;
#X msg 653 305 1;
#X msg 609 306 0;
#X obj 666 347 spigot;
#X msg 763 305 1;
#X msg 719 306 0;
#X msg 873 305 1;
#X msg 829 306 0;
#X msg 983 305 1;
#X msg 939 306 0;
#X obj 776 347 spigot;
#X obj 886 347 spigot;
#X obj 694 47 sel 4 5 6 7;
#X obj 107 388 outlet;
#X obj 217 388 outlet;
#X obj 327 388 outlet;
#X obj 437 388 outlet;
#X obj 557 388 outlet;
#X obj 667 388 outlet;
#X obj 777 388 outlet;
#X obj 887 388 outlet;
#X connect 0 0 1 0;
#X connect 1 0 3 0;
#X connect 1 0 6 0;
#X connect 1 0 14 0;
#X connect 1 0 11 0;
#X connect 1 0 16 0;
#X connect 1 0 19 0;
#X connect 1 0 26 0;
#X connect 1 0 27 0;
#X connect 1 1 2 0;
#X connect 2 0 15 0;
#X connect 2 0 28 0;
#X connect 3 0 29 0;
#X connect 4 0 3 1;
#X connect 5 0 3 1;
#X connect 6 0 30 0;
#X connect 7 0 6 1;
#X connect 8 0 6 1;
#X connect 9 0 14 1;
#X connect 10 0 14 1;
#X connect 11 0 32 0;
#X connect 12 0 11 1;
#X connect 13 0 11 1;
#X connect 14 0 31 0;
#X connect 15 0 4 0;
#X connect 15 0 8 0;
#X connect 15 0 10 0;
#X connect 15 0 13 0;
#X connect 15 1 5 0;
#X connect 15 1 7 0;
#X connect 15 1 10 0;
#X connect 15 1 13 0;
#X connect 15 2 5 0;
#X connect 15 2 8 0;
#X connect 15 2 9 0;
#X connect 15 2 13 0;
#X connect 15 3 5 0;
#X connect 15 3 8 0;
#X connect 15 3 10 0;
#X connect 15 3 12 0;
#X connect 15 4 5 0;
#X connect 15 4 8 0;
#X connect 15 4 10 0;
#X connect 15 4 13 0;
#X connect 16 0 33 0;
#X connect 17 0 16 1;
#X connect 18 0 16 1;
#X connect 19 0 34 0;
#X connect 20 0 19 1;
#X connect 21 0 19 1;
#X connect 22 0 26 1;
#X connect 23 0 26 1;
#X connect 24 0 27 1;
#X connect 25 0 27 1;
#X connect 26 0 35 0;
#X connect 27 0 36 0;
#X connect 28 0 17 0;
#X connect 28 0 21 0;
#X connect 28 0 23 0;
#X connect 28 0 25 0;
#X connect 28 1 18 0;
#X connect 28 1 20 0;
#X connect 28 1 23 0;
#X connect 28 1 25 0;
#X connect 28 2 18 0;
#X connect 28 2 21 0;
#X connect 28 2 22 0;
#X connect 28 2 25 0;
#X connect 28 3 18 0;
#X connect 28 3 21 0;
#X connect 28 3 23 0;
#X connect 28 3 24 0;
#X connect 28 4 18 0;
#X connect 28 4 21 0;
#X connect 28 4 23 0;
#X connect 28 4 25 0;
#X restore -27 124 pd gate -------------;
#N canvas 355 24 923 663 nota2 0;
#X obj 195 100 gemhead;
#X obj 357 75 hsl 128 15 -8 8 0 0 empty empty X 12 8 1 12 -233017 -1
-1 5800 1;
#X obj 357 95 hsl 200 15 -6 6 0 0 empty empty Y 12 8 1 12 -233017 -1
-1 11282 1;
#X obj 357 115 hsl 128 15 -6 6 0 0 empty empty Z 12 8 1 12 -233017
-1 -1 9200 1;
#X obj 466 229 pack f f f;
#X obj 466 260 prepend set;
#X obj 466 206 bng 15 250 50 0 empty empty empty 17 7 0 10 -262144
-1 -1;
#X msg 235 385 font pgjazz.ttf;
#X obj 235 352 loadbang;
#X floatatom 313 513 5 0 0 0 - - -;
#X msg 466 290 -0.692913 0.803216 2.69291;
#X msg 646 46 -0.692913 0.80315 2.69291;
#X obj 645 73 unpack f f f;
#X text 511 117 translate;
#X msg 311 451 41;
#X text 464 311 usar essa msg para guardar preset de posição;
#X obj 194 175 translateXYZ;
#N canvas 0 0 875 647 escolhe 0;
#X obj 453 83 sel 0 1 2 3 4 5 6 7 8 9 10 11;
#X text 340 393 d =;
#X text 433 337 e;
#X text 391 364 d# =;
#X text 454 336 =;
#X text 607 238 =;
#X text 486 304 f =;
#X text 532 269 f# =;
#X text 586 239 g;
#X text 733 151 =;
#X text 629 210 g# =;
#X text 669 182 a =;
#X text 712 151 a#;
#X text 318 433 =;
#X text 737 126 b =;
#X text 239 467 c =;
#X text 290 436 c#;
#X text 16 390 d =;
#X text 20 453 e;
#X text 19 426 d# =;
#X text 41 452 =;
#X text 41 552 =;
#X text 16 490 f =;
#X text 19 526 f# =;
#X text 20 553 g;
#X msg 61 393 0.965;
#X msg 64 453 0.99;
#X msg 64 489 1.02;
#X msg 66 550 1.05;
#X msg 150 433 text \$1;
#X obj 149 398 l2s;
#X msg 197 365 # q;
#X msg 149 364 q;
#X obj 453 36 inlet;
#X text 517 33 pitch-class;
#X obj 151 602 outlet;
#X text 158 626 acidente;
#X obj 441 611 outlet;
#X text 523 609 posição Y;
#X obj 441 575 f;
#X msg 385 396 -0.55;
#X msg 431 365 -0.55;
#X msg 631 238 -0.465;
#X msg 712 180 -0.44;
#X msg 668 208 -0.465;
#X msg 750 155 -0.44;
#X msg 778 125 -0.41;
#X msg 282 470 -0.39;
#X msg 335 435 -0.39;
#X msg 472 338 -0.52;
#X msg 531 305 -0.49;
#X msg 576 269 -0.49;
#X connect 0 0 47 0;
#X connect 0 0 32 0;
#X connect 0 1 48 0;
#X connect 0 1 31 0;
#X connect 0 2 40 0;
#X connect 0 2 32 0;
#X connect 0 3 31 0;
#X connect 0 3 41 0;
#X connect 0 4 32 0;
#X connect 0 4 49 0;
#X connect 0 5 32 0;
#X connect 0 5 50 0;
#X connect 0 6 31 0;
#X connect 0 6 51 0;
#X connect 0 7 32 0;
#X connect 0 7 42 0;
#X connect 0 8 31 0;
#X connect 0 8 44 0;
#X connect 0 9 32 0;
#X connect 0 9 43 0;
#X connect 0 10 31 0;
#X connect 0 10 45 0;
#X connect 0 11 32 0;
#X connect 0 11 46 0;
#X connect 25 0 39 0;
#X connect 26 0 39 0;
#X connect 27 0 39 0;
#X connect 28 0 39 0;
#X connect 29 0 35 0;
#X connect 30 0 29 0;
#X connect 31 0 30 0;
#X connect 32 0 30 0;
#X connect 33 0 0 0;
#X connect 39 0 37 0;
#X connect 40 0 39 0;
#X connect 41 0 39 0;
#X connect 42 0 39 0;
#X connect 43 0 39 0;
#X connect 44 0 39 0;
#X connect 45 0 39 0;
#X connect 46 0 39 0;
#X connect 47 0 39 0;
#X connect 48 0 39 0;
#X connect 49 0 39 0;
#X connect 50 0 39 0;
#X connect 51 0 39 0;
#X restore 134 49 pd escolhe nota;
#X text 199 10 pitch class;
#X obj 134 10 inlet;
#X obj 68 89 tgl 15 0 empty empty empty 17 7 0 10 -262144 -1 -1 0 1
;
#X obj 353 -20 inlet;
#N canvas 693 57 444 566 animax 0;
#X msg 328 330 1;
#X msg 51 125 0.7;
#X msg 68 165 0.45;
#X obj 39 504 line;
#X msg 83 202 0.2;
#X msg 96 233 0;
#X msg 39 461 \$1 400;
#X msg 103 268 -0.2;
#X msg 105 315 -0.5;
#X obj 206 12 inlet;
#X obj 206 92 sel 0 1 2 3 4 5 6 7;
#X obj 39 538 outlet;
#X obj 325 12 bng 15 250 50 0 empty empty empty 17 7 0 10 -262144 -1
-1;
#X obj 206 47 counter 7;
#X msg 126 357 -0.8;
#X connect 0 0 3 0;
#X connect 1 0 6 0;
#X connect 2 0 6 0;
#X connect 3 0 11 0;
#X connect 4 0 6 0;
#X connect 5 0 6 0;
#X connect 6 0 3 0;
#X connect 7 0 6 0;
#X connect 8 0 6 0;
#X connect 9 0 13 0;
#X connect 10 0 0 0;
#X connect 10 1 1 0;
#X connect 10 2 2 0;
#X connect 10 3 4 0;
#X connect 10 4 5 0;
#X connect 10 5 7 0;
#X connect 10 6 8 0;
#X connect 10 7 14 0;
#X connect 12 0 13 0;
#X connect 13 0 10 0;
#X connect 14 0 6 0;
#X restore 353 16 pd animax;
#X text 429 -19 bang de nota nova;
#X obj 354 46 + 0.3;
#X msg 235 428 text q;
#X obj 195 481 text2d;
#X connect 0 0 16 0;
#X connect 1 0 4 0;
#X connect 1 0 16 1;
#X connect 2 0 4 1;
#X connect 2 0 6 0;
#X connect 2 0 16 2;
#X connect 3 0 4 2;
#X connect 3 0 6 0;
#X connect 3 0 16 3;
#X connect 4 0 5 0;
#X connect 5 0 10 0;
#X connect 6 0 4 0;
#X connect 7 0 26 0;
#X connect 8 0 7 0;
#X connect 8 0 14 0;
#X connect 8 0 11 0;
#X connect 8 0 25 0;
#X connect 9 0 26 1;
#X connect 11 0 12 0;
#X connect 12 0 1 0;
#X connect 12 1 2 0;
#X connect 12 2 3 0;
#X connect 14 0 26 1;
#X connect 16 0 26 0;
#X connect 17 0 26 0;
#X connect 17 1 16 2;
#X connect 19 0 17 0;
#X connect 20 0 0 0;
#X connect 21 0 22 0;
#X connect 22 0 24 0;
#X connect 24 0 1 0;
#X connect 25 0 26 0;
#X restore 25 210 pd nota2;
#N canvas 357 24 923 663 nota5 0;
#X obj 195 100 gemhead;
#X obj 357 92 hsl 128 15 -8 8 0 0 empty empty X 12 8 1 12 -233017 -1
-1 5800 1;
#X obj 357 112 hsl 200 15 -6 6 0 0 empty empty Y 12 8 1 12 -233017
-1 -1 11282 1;
#X obj 357 132 hsl 128 15 -6 6 0 0 empty empty Z 12 8 1 12 -233017
-1 -1 9200 1;
#X text 352 145 rotate;
#X obj 466 229 pack f f f;
#X obj 466 260 prepend set;
#X obj 466 206 bng 15 250 50 0 empty empty empty 17 7 0 10 -262144
-1 -1;
#X msg 235 385 font pgjazz.ttf;
#X obj 235 352 loadbang;
#X floatatom 313 513 5 0 0 0 - - -;
#X msg 466 290 -0.692913 0.803216 2.69291;
#X msg 646 46 -0.692913 0.80315 2.69291;
#X obj 645 73 unpack f f f;
#X text 355 73 translate;
#X msg 311 451 41;
#X text 464 311 usar essa msg para guardar preset de posição;
#N canvas 0 0 875 647 escolhe 0;
#X obj 483 113 sel 0 1 2 3 4 5 6 7 8 9 10 11;
#X text 370 423 d =;
#X text 463 367 e;
#X text 421 394 d# =;
#X text 484 366 =;
#X text 637 268 =;
#X text 516 334 f =;
#X text 562 299 f# =;
#X text 616 269 g;
#X text 763 181 =;
#X text 659 240 g# =;
#X text 699 212 a =;
#X text 742 181 a#;
#X text 348 463 =;
#X text 767 156 b =;
#X text 269 497 c =;
#X text 320 466 c#;
#X text 46 420 d =;
#X text 50 483 e;
#X text 49 456 d# =;
#X text 71 482 =;
#X text 71 582 =;
#X text 46 520 f =;
#X text 49 556 f# =;
#X text 50 583 g;
#X msg 91 423 0.965;
#X msg 94 483 0.99;
#X msg 94 519 1.02;
#X msg 96 580 1.05;
#X msg 180 463 text \$1;
#X obj 179 428 l2s;
#X msg 227 395 # q;
#X msg 179 394 q;
#X obj 483 66 inlet;
#X text 547 63 pitch-class;
#X obj 181 632 outlet;
#X text 188 656 acidente;
#X obj 471 641 outlet;
#X text 553 639 posição Y;
#X obj 471 605 f;
#X msg 415 426 -0.55;
#X msg 461 395 -0.55;
#X msg 661 268 -0.465;
#X msg 742 210 -0.44;
#X msg 698 238 -0.465;
#X msg 780 185 -0.44;
#X msg 808 155 -0.41;
#X msg 312 500 -0.39;
#X msg 365 465 -0.39;
#X msg 502 368 -0.52;
#X msg 561 335 -0.49;
#X msg 606 299 -0.49;
#X connect 0 0 47 0;
#X connect 0 0 32 0;
#X connect 0 1 48 0;
#X connect 0 1 31 0;
#X connect 0 2 40 0;
#X connect 0 2 32 0;
#X connect 0 3 31 0;
#X connect 0 3 41 0;
#X connect 0 4 32 0;
#X connect 0 4 49 0;
#X connect 0 5 32 0;
#X connect 0 5 50 0;
#X connect 0 6 31 0;
#X connect 0 6 51 0;
#X connect 0 7 32 0;
#X connect 0 7 42 0;
#X connect 0 8 31 0;
#X connect 0 8 44 0;
#X connect 0 9 32 0;
#X connect 0 9 43 0;
#X connect 0 10 31 0;
#X connect 0 10 45 0;
#X connect 0 11 32 0;
#X connect 0 11 46 0;
#X connect 25 0 39 0;
#X connect 26 0 39 0;
#X connect 27 0 39 0;
#X connect 28 0 39 0;
#X connect 29 0 35 0;
#X connect 30 0 29 0;
#X connect 31 0 30 0;
#X connect 32 0 30 0;
#X connect 33 0 0 0;
#X connect 39 0 37 0;
#X connect 40 0 39 0;
#X connect 41 0 39 0;
#X connect 42 0 39 0;
#X connect 43 0 39 0;
#X connect 44 0 39 0;
#X connect 45 0 39 0;
#X connect 46 0 39 0;
#X connect 47 0 39 0;
#X connect 48 0 39 0;
#X connect 49 0 39 0;
#X connect 50 0 39 0;
#X connect 51 0 39 0;
#X restore 134 49 pd escolhe nota;
#X text 199 10 pitch class;
#X obj 134 10 inlet;
#X obj 76 69 tgl 15 0 empty empty empty 17 7 0 10 -262144 -1 -1 0 1
;
#X obj 353 -21 inlet;
#N canvas 693 57 444 566 animax 0;
#X msg 328 330 1;
#X msg 51 125 0.7;
#X msg 68 165 0.45;
#X obj 39 504 line;
#X msg 83 202 0.2;
#X msg 96 233 0;
#X msg 39 461 \$1 400;
#X msg 103 268 -0.2;
#X msg 105 315 -0.5;
#X obj 206 12 inlet;
#X obj 206 92 sel 0 1 2 3 4 5 6 7;
#X obj 39 538 outlet;
#X obj 325 12 bng 15 250 50 0 empty empty empty 17 7 0 10 -262144 -1
-1;
#X obj 206 47 counter 7;
#X msg 126 357 -0.8;
#X connect 0 0 3 0;
#X connect 1 0 6 0;
#X connect 2 0 6 0;
#X connect 3 0 11 0;
#X connect 4 0 6 0;
#X connect 5 0 6 0;
#X connect 6 0 3 0;
#X connect 7 0 6 0;
#X connect 8 0 6 0;
#X connect 9 0 13 0;
#X connect 10 0 0 0;
#X connect 10 1 1 0;
#X connect 10 2 2 0;
#X connect 10 3 4 0;
#X connect 10 4 5 0;
#X connect 10 5 7 0;
#X connect 10 6 8 0;
#X connect 10 7 14 0;
#X connect 12 0 13 0;
#X connect 13 0 10 0;
#X connect 14 0 6 0;
#X restore 353 15 pd animax;
#X text 429 -20 bang de nota nova;
#X obj 353 49 + 0.9;
#X msg 235 418 text q;
#X obj 194 175 translateXYZ;
#X obj 195 481 text2d;
#X connect 0 0 26 0;
#X connect 1 0 5 0;
#X connect 1 0 26 1;
#X connect 2 0 5 1;
#X connect 2 0 7 0;
#X connect 2 0 26 2;
#X connect 3 0 5 2;
#X connect 3 0 7 0;
#X connect 3 0 26 3;
#X connect 5 0 6 0;
#X connect 6 0 11 0;
#X connect 7 0 5 0;
#X connect 8 0 27 0;
#X connect 9 0 8 0;
#X connect 9 0 15 0;
#X connect 9 0 12 0;
#X connect 9 0 25 0;
#X connect 10 0 27 1;
#X connect 12 0 13 0;
#X connect 13 0 1 0;
#X connect 13 1 2 0;
#X connect 13 2 3 0;
#X connect 15 0 27 1;
#X connect 17 0 27 0;
#X connect 17 1 26 2;
#X connect 19 0 17 0;
#X connect 20 0 0 0;
#X connect 21 0 22 0;
#X connect 22 0 24 0;
#X connect 24 0 1 0;
#X connect 25 0 27 0;
#X connect 26 0 27 0;
#X restore -35 250 pd nota5;
#N canvas 357 24 923 663 nota4 0;
#X obj 195 100 gemhead;
#X obj 195 481 text2d;
#X obj 358 82 hsl 128 15 -8 8 0 0 empty empty X 12 8 1 12 -233017 -1
-1 5800 1;
#X obj 358 102 hsl 200 15 -6 6 0 0 empty empty Y 12 8 1 12 -233017
-1 -1 11282 1;
#X obj 358 122 hsl 128 15 -6 6 0 0 empty empty Z 12 8 1 12 -233017
-1 -1 9200 1;
#X obj 466 229 pack f f f;
#X obj 466 260 prepend set;
#X obj 466 206 bng 15 250 50 0 empty empty empty 17 7 0 10 -262144
-1 -1;
#X msg 235 385 font pgjazz.ttf;
#X obj 235 352 loadbang;
#X floatatom 313 513 5 0 0 0 - - -;
#X msg 466 290 -0.692913 0.803216 2.69291;
#X msg 646 46 -0.692913 0.80315 2.69291;
#X obj 645 73 unpack f f f;
#X text 514 128 translate;
#X msg 311 451 41;
#X text 464 311 usar essa msg para guardar preset de posição;
#X obj 194 175 translateXYZ;
#N canvas 0 0 875 647 escolhe 0;
#X obj 473 103 sel 0 1 2 3 4 5 6 7 8 9 10 11;
#X text 360 413 d =;
#X text 453 357 e;
#X text 411 384 d# =;
#X text 474 356 =;
#X text 627 258 =;
#X text 506 324 f =;
#X text 552 289 f# =;
#X text 606 259 g;
#X text 753 171 =;
#X text 649 230 g# =;
#X text 689 202 a =;
#X text 732 171 a#;
#X text 338 453 =;
#X text 757 146 b =;
#X text 259 487 c =;
#X text 310 456 c#;
#X text 36 410 d =;
#X text 40 473 e;
#X text 39 446 d# =;
#X text 61 472 =;
#X text 61 572 =;
#X text 36 510 f =;
#X text 39 546 f# =;
#X text 40 573 g;
#X msg 81 413 0.965;
#X msg 84 473 0.99;
#X msg 84 509 1.02;
#X msg 86 570 1.05;
#X msg 170 453 text \$1;
#X obj 169 418 l2s;
#X msg 217 385 # q;
#X msg 169 384 q;
#X obj 473 56 inlet;
#X text 537 53 pitch-class;
#X obj 171 622 outlet;
#X text 178 646 acidente;
#X obj 461 631 outlet;
#X text 543 629 posição Y;
#X obj 461 595 f;
#X msg 405 416 -0.55;
#X msg 451 385 -0.55;
#X msg 651 258 -0.465;
#X msg 732 200 -0.44;
#X msg 688 228 -0.465;
#X msg 770 175 -0.44;
#X msg 798 145 -0.41;
#X msg 302 490 -0.39;
#X msg 355 455 -0.39;
#X msg 492 358 -0.52;
#X msg 551 325 -0.49;
#X msg 596 289 -0.49;
#X connect 0 0 47 0;
#X connect 0 0 32 0;
#X connect 0 1 48 0;
#X connect 0 1 31 0;
#X connect 0 2 40 0;
#X connect 0 2 32 0;
#X connect 0 3 31 0;
#X connect 0 3 41 0;
#X connect 0 4 32 0;
#X connect 0 4 49 0;
#X connect 0 5 32 0;
#X connect 0 5 50 0;
#X connect 0 6 31 0;
#X connect 0 6 51 0;
#X connect 0 7 32 0;
#X connect 0 7 42 0;
#X connect 0 8 31 0;
#X connect 0 8 44 0;
#X connect 0 9 32 0;
#X connect 0 9 43 0;
#X connect 0 10 31 0;
#X connect 0 10 45 0;
#X connect 0 11 32 0;
#X connect 0 11 46 0;
#X connect 25 0 39 0;
#X connect 26 0 39 0;
#X connect 27 0 39 0;
#X connect 28 0 39 0;
#X connect 29 0 35 0;
#X connect 30 0 29 0;
#X connect 31 0 30 0;
#X connect 32 0 30 0;
#X connect 33 0 0 0;
#X connect 39 0 37 0;
#X connect 40 0 39 0;
#X connect 41 0 39 0;
#X connect 42 0 39 0;
#X connect 43 0 39 0;
#X connect 44 0 39 0;
#X connect 45 0 39 0;
#X connect 46 0 39 0;
#X connect 47 0 39 0;
#X connect 48 0 39 0;
#X connect 49 0 39 0;
#X connect 50 0 39 0;
#X connect 51 0 39 0;
#X restore 134 49 pd escolhe nota;
#X text 199 10 pitch class;
#X obj 134 10 inlet;
#X obj 73 78 tgl 15 0 empty empty empty 17 7 0 10 -262144 -1 -1 0 1
;
#X obj 355 -20 inlet;
#N canvas 693 57 444 566 animax 0;
#X msg 328 330 1;
#X msg 51 125 0.7;
#X msg 68 165 0.45;
#X obj 39 504 line;
#X msg 83 202 0.2;
#X msg 96 233 0;
#X msg 39 461 \$1 400;
#X msg 103 268 -0.2;
#X msg 105 315 -0.5;
#X obj 206 12 inlet;
#X obj 206 92 sel 0 1 2 3 4 5 6 7;
#X obj 39 538 outlet;
#X obj 325 12 bng 15 250 50 0 empty empty empty 17 7 0 10 -262144 -1
-1;
#X obj 206 47 counter 7;
#X msg 126 357 -0.8;
#X connect 0 0 3 0;
#X connect 1 0 6 0;
#X connect 2 0 6 0;
#X connect 3 0 11 0;
#X connect 4 0 6 0;
#X connect 5 0 6 0;
#X connect 6 0 3 0;
#X connect 7 0 6 0;
#X connect 8 0 6 0;
#X connect 9 0 13 0;
#X connect 10 0 0 0;
#X connect 10 1 1 0;
#X connect 10 2 2 0;
#X connect 10 3 4 0;
#X connect 10 4 5 0;
#X connect 10 5 7 0;
#X connect 10 6 8 0;
#X connect 10 7 14 0;
#X connect 12 0 13 0;
#X connect 13 0 10 0;
#X connect 14 0 6 0;
#X restore 355 16 pd animax;
#X text 429 -19 bang de nota nova;
#X obj 357 50 + 0.7;
#X msg 225 438 text q;
#X connect 0 0 17 0;
#X connect 2 0 5 0;
#X connect 2 0 17 1;
#X connect 3 0 5 1;
#X connect 3 0 7 0;
#X connect 3 0 17 2;
#X connect 4 0 5 2;
#X connect 4 0 7 0;
#X connect 4 0 17 3;
#X connect 5 0 6 0;
#X connect 6 0 11 0;
#X connect 7 0 5 0;
#X connect 8 0 1 0;
#X connect 9 0 8 0;
#X connect 9 0 15 0;
#X connect 9 0 12 0;
#X connect 9 0 26 0;
#X connect 10 0 1 1;
#X connect 12 0 13 0;
#X connect 13 0 2 0;
#X connect 13 1 3 0;
#X connect 13 2 4 0;
#X connect 15 0 1 1;
#X connect 17 0 1 0;
#X connect 18 0 1 0;
#X connect 18 1 17 2;
#X connect 20 0 18 0;
#X connect 21 0 0 0;
#X connect 22 0 23 0;
#X connect 23 0 25 0;
#X connect 25 0 2 0;
#X connect 26 0 1 0;
#X restore 215 210 pd nota4;
#X obj 245 73 t f b;
#X obj 219 19 inlet;
#X connect 5 0 0 0;
#X connect 5 1 6 0;
#X connect 5 2 1 0;
#X connect 5 3 8 0;
#X connect 5 4 7 0;
#X connect 5 5 2 0;
#X connect 5 6 3 0;
#X connect 5 7 4 0;
#X connect 9 0 5 0;
#X connect 9 1 0 1;
#X connect 9 1 6 1;
#X connect 9 1 1 1;
#X connect 9 1 7 1;
#X connect 9 1 2 1;
#X connect 9 1 3 1;
#X connect 9 1 4 1;
#X connect 9 1 8 1;
#X connect 10 0 9 0;
#X restore 251 319 pd notas saida;
#X connect 1 0 0 0;
#X connect 2 0 0 0;
#X connect 13 0 14 0;
#X connect 15 0 16 0;
#X coords 0 0 1 1 200 80 0;
