#N canvas 0 0 331 310 10;
#X obj 77 78 sel 1 0;
#X msg 77 124 1;
#X obj 127 122 random 2;
#X obj 127 153 sel 0 1;
#X msg 127 180 2;
#X msg 170 180 3;
#X obj 77 37 inlet;
#X obj 77 244 outlet;
#X obj 240 119 r stop;
#X msg 240 186 0;
#X obj 240 154 sel 1;
#X msg 28 166 2;
#X connect 0 0 1 0;
#X connect 0 1 11 0;
#X connect 1 0 7 0;
#X connect 2 0 3 0;
#X connect 3 0 4 0;
#X connect 3 1 5 0;
#X connect 4 0 7 0;
#X connect 5 0 7 0;
#X connect 6 0 0 0;
#X connect 8 0 10 0;
#X connect 9 0 7 0;
#X connect 10 0 9 0;
#X connect 11 0 7 0;
