#N canvas 507 175 935 597 10;
#X obj 498 315 unpack f f f;
#X text 334 62 bpm:120;
#X obj 255 31 tgl 15 0 empty empty empty 17 7 0 10 -262144 -1 -1 0
1;
#X obj 255 101 bng 15 250 50 0 empty empty empty 17 7 0 10 -262144
-1 -1;
#X obj 70 81 sel 0;
#X obj 97 117 bng 15 250 50 0 empty empty empty 17 7 0 10 -262144 -1
-1;
#X obj 19 28 notein 10;
#X floatatom 19 55 5 0 0 0 - - -;
#X floatatom 70 55 5 0 0 0 - - -;
#X obj 19 165 bng 15 250 50 0 empty empty empty 17 7 0 10 -262144 -1
-1;
#X msg 498 287 50 100 500;
#X obj 97 166 timer;
#X obj 97 141 alternate;
#X floatatom 97 190 5 0 0 0 - - -;
#X obj 13 342 speedlim 2000;
#X obj 21 254 bng 15 250 50 0 empty empty empty 17 7 0 10 -262144 -1
-1;
#X obj 21 230 change;
#X obj 19 395 delay 250;
#X obj 160 91 counter;
#X obj 180 54 bng 15 250 50 0 empty empty empty 17 7 0 10 -262144 -1
-1;
#X obj 161 123 select 0;
#X obj 166 154 bng 15 250 50 0 empty empty empty 17 7 0 10 -262144
-1 -1;
#X msg 171 181 1;
#X obj 199 24 sel 0;
#X obj 256 129 t b b b;
#X obj 399 84 random 4;
#X obj 399 105 sel 0 1 2 3;
#X msg 398 146 125;
#X msg 433 149 250;
#X msg 465 150 500;
#X msg 501 150 750;
#X obj 255 60 metro 500;
#X obj 365 373 play2;
#X obj 323 190 drunk 100 127 3;
#X obj 170 236 drunk 90 110 4;
#N canvas 0 0 450 300 (subpatch) 0;
#X array notas 12 float 3;
#A 0 74.3858 83.4572 86.1786 92.5286 97.9715 101.6 103.414 107.043
111.579 113.393 114.3 115.207;
#X coords 0 127 12 0 200 140 1;
#X restore 116 390 graph;
#X obj 20 371 delay 125;
#X obj 267 229 counter 12;
#X obj 268 259 tabread notas;
#X obj 270 292 int;
#X connect 0 0 32 0;
#X connect 0 1 32 1;
#X connect 0 2 32 2;
#X connect 2 0 23 0;
#X connect 2 0 31 0;
#X connect 3 0 24 0;
#X connect 4 1 5 0;
#X connect 5 0 12 0;
#X connect 5 0 18 0;
#X connect 6 0 7 0;
#X connect 6 1 8 0;
#X connect 7 0 9 0;
#X connect 8 0 4 0;
#X connect 9 0 16 0;
#X connect 10 0 0 0;
#X connect 11 0 13 0;
#X connect 12 0 11 0;
#X connect 12 1 11 1;
#X connect 16 0 15 0;
#X connect 18 0 20 0;
#X connect 19 0 18 2;
#X connect 19 0 37 2;
#X connect 20 0 21 0;
#X connect 21 0 22 0;
#X connect 22 0 2 0;
#X connect 23 0 19 0;
#X connect 24 0 34 0;
#X connect 24 0 37 0;
#X connect 24 1 33 0;
#X connect 25 0 26 0;
#X connect 26 0 27 0;
#X connect 26 1 28 0;
#X connect 26 2 29 0;
#X connect 26 3 30 0;
#X connect 27 0 31 1;
#X connect 27 0 32 2;
#X connect 28 0 31 1;
#X connect 28 0 32 2;
#X connect 29 0 31 1;
#X connect 29 0 32 2;
#X connect 30 0 31 1;
#X connect 30 0 32 2;
#X connect 31 0 3 0;
#X connect 31 0 25 0;
#X connect 33 0 32 1;
#X connect 37 0 38 0;
#X connect 38 0 39 0;
#X connect 39 0 32 0;
