#N canvas 246 114 526 489 10;
#X obj 6 346 readsf~;
#X msg 6 233 start;
#X msg 21 278 stop;
#X obj -89 10 playlist wav 150 200 {Helvetica 10 bold} #457782 yellow
black red;
#X msg -89 -32 location /home/livre/pesquisa/SINCOPA/samples;
#X msg -89 351 open \$1;
#X obj -89 382 prepend set;
#X msg -89 410 open /home/livre/pesquisa/SINCOPA/samples/marcha_stravinsky.wav
;
#X obj -89 -55 loadbang;
#X obj -73 236 delay 10;
#X obj -73 263 t b b;
#X obj -46 291 bng 15 250 50 0 empty empty empty 17 7 0 10 -262144
-1 -1;
#X obj -72 294 bng 15 250 50 0 empty empty empty 17 7 0 10 -262144
-1 -1;
#X obj -74 216 bng 15 250 50 0 empty empty empty 17 7 0 10 -262144
-1 -1;
#X obj 6 384 outlet~;
#X msg 109 194 open \$1;
#X obj 109 113 openpanel;
#X obj 226 111 bng 15 250 50 0 empty empty abrir_arquiv -6 -5 0 5 -262144
-1 -1;
#X obj 109 222 prepend set;
#X msg 109 248 open /home/livre/pd-externals/a_caetano/img/0001.wav
;
#X obj 93 43 hradio 15 1 0 20 empty empty navega_pasta 0 -8 0 8 -262144
-1 -1 8;
#X msg 91 77 seek \$1;
#X obj 94 -5 inlet;
#X obj 226 76 inlet;
#X obj 68 345 bng 15 250 50 0 empty empty empty 17 7 0 10 -262144 -1
-1;
#X obj 326 95 inlet;
#X obj 292 132 spigot;
#X obj 295 399 outlet;
#X connect 0 0 14 0;
#X connect 0 1 24 0;
#X connect 0 1 27 0;
#X connect 1 0 0 0;
#X connect 2 0 0 0;
#X connect 3 0 5 0;
#X connect 3 0 13 0;
#X connect 4 0 3 0;
#X connect 5 0 6 0;
#X connect 6 0 7 0;
#X connect 7 0 0 0;
#X connect 7 0 6 0;
#X connect 8 0 4 0;
#X connect 9 0 10 0;
#X connect 10 0 12 0;
#X connect 10 1 11 0;
#X connect 11 0 7 0;
#X connect 12 0 1 0;
#X connect 13 0 9 0;
#X connect 15 0 0 0;
#X connect 15 0 18 0;
#X connect 16 0 15 0;
#X connect 17 0 16 0;
#X connect 18 0 19 0;
#X connect 20 0 21 0;
#X connect 21 0 3 0;
#X connect 22 0 20 0;
#X connect 23 0 17 0;
#X connect 24 0 26 0;
#X connect 25 0 26 1;
#X connect 26 0 20 0;
#X coords 0 0 1 1 150 70 0;
