#N canvas 365 62 913 604 16;
#X obj 122 55 separator;
#X obj 122 22 r gemhtype;
#X obj 127 334 text3d;
#X obj 16 243 r text\$1;
#X obj 355 34 r nulltxt\$1;
#X msg 354 111 text;
#X obj 355 69 t b b;
#X obj 122 209 translateXYZ -3 0 0;
#X msg 358 233 9;
#X obj 445 130 \$3;
#X obj 122 146 alpha;
#X obj 122 98 colorRGB 1 1 1 1;
#X obj 522 128 \$4;
#X obj 598 127 \$5;
#X obj 251 133 \$2;
#X msg 344 191 justify left;
#X text 266 394 [sinc-nota X Y];
#X connect 0 0 11 0;
#X connect 1 0 0 0;
#X connect 3 0 2 0;
#X connect 4 0 6 0;
#X connect 5 0 2 0;
#X connect 6 0 5 0;
#X connect 6 1 8 0;
#X connect 6 1 9 0;
#X connect 6 1 12 0;
#X connect 6 1 13 0;
#X connect 6 1 14 0;
#X connect 6 1 15 0;
#X connect 7 0 2 0;
#X connect 8 0 2 1;
#X connect 9 0 7 1;
#X connect 10 0 7 0;
#X connect 11 0 10 0;
#X connect 12 0 2 1;
#X connect 13 0 11 4;
#X connect 14 0 7 2;
#X connect 15 0 2 0;
#X coords 0 0 1 1 200 80 0;
