#N canvas 12 87 646 598 10;
#N canvas 0 0 450 300 prob 0;
#X restore 185 285 pd prob ritmo;
#N canvas 0 0 450 300 prob 0;
#X restore 186 313 pd prob amplit;
#N canvas 207 98 450 300 prob 0;
#X restore 184 340 pd prob registro;
#X text 98 429 entender isso;
#N canvas 335 108 706 495 graphical-example 0;
#X obj 164 217 loadbang;
#X obj 90 154 max;
#X obj 90 175 until;
#N canvas 0 0 450 300 (subpatch) 0;
#X array \$0-test 4 float 2;
#X coords 0 100 4 0 200 140 1;
#X restore 350 328 graph;
#X obj 90 331 tabread \$0-test;
#X obj 90 390 tabwrite \$0-test;
#X obj 90 295 t f f;
#X obj 214 155 s \$0-test;
#X msg 214 129 const 0;
#X obj 90 360 + 0.1;
#X msg 90 244 \$1 \$1;
#X msg 164 242 100 40 20 90;
#X msg 90 129 200;
#N canvas 0 0 450 300 (subpatch) 0;
#X array \$0-prob 4 float 0;
#X coords 0 100 3 0 200 140 1;
#X restore 349 171 graph;
#X obj 187 269 list prepend 0;
#X obj 187 290 s \$0-prob;
#X text 219 107 reset;
#X obj 90 198 f 0;
#X obj 123 199 + 1;
#X obj 90 220 mod 4;
#X text 62 19 Each time you press the 200 \, the numbers 0 \, 1 \,
2 \, 3 get sent as pairs into the c_multipass object and are passed
according to the probabilities stored inside.;
#X text 68 69 See how the grand total approaches the probability curve.
;
#X obj 90 267 c_multipass;
#X floatatom 21 345 5 0 0 0 - - -;
#X floatatom 214 343 5 0 0 0 - - -;
#X obj -2 277 prepend set;
#X msg -4 308 3 3;
#X floatatom 42 386 5 0 0 0 - - -;
#X connect 0 0 11 0;
#X connect 1 0 2 0;
#X connect 2 0 17 0;
#X connect 4 0 9 0;
#X connect 4 0 27 0;
#X connect 6 0 4 0;
#X connect 6 0 23 0;
#X connect 6 1 5 1;
#X connect 6 1 24 0;
#X connect 8 0 7 0;
#X connect 9 0 5 0;
#X connect 10 0 22 0;
#X connect 10 0 25 0;
#X connect 11 0 14 0;
#X connect 11 0 22 1;
#X connect 12 0 1 0;
#X connect 14 0 15 0;
#X connect 17 0 19 0;
#X connect 18 0 17 1;
#X connect 19 0 18 0;
#X connect 19 0 10 0;
#X connect 22 0 6 0;
#X connect 25 0 26 0;
#X restore 188 426 pd graphical-example;
#N canvas 0 0 571 562 prob 0;
#X obj -187 -10 inlet;
#X obj -188 35 sel 0 1 2 3 4 5 6 7 8 9 10 11;
#X obj -188 300 counter 100;
#X obj -176 280 counter 100;
#X obj -164 260 counter 100;
#X obj -152 240 counter 100;
#X obj -140 220 counter 100;
#X obj -128 200 counter 100;
#X obj -116 180 counter 100;
#X obj -104 160 counter 100;
#X obj -79 140 counter 100;
#X obj -67 120 counter 100;
#X obj -55 100 counter 100;
#X obj -43 80 counter 100;
#X obj -188 358 pack f f f f f f f f f f f f;
#X obj -232 331 bng 15 250 50 0 empty empty empty 17 7 0 10 -262144
-1 -1;
#X obj -188 427 prepend set;
#X msg -188 451 0 5 10 5 5 40 30 10 10 5 10 80;
#X floatatom 84 28 5 0 0 0 - - -;
#X obj -251 476 c_multipass;
#X floatatom -251 521 5 0 0 0 - - -;
#X obj -323 405 hradio 10 1 0 12 empty empty empty 0 -8 0 10 -262144
-1 -1 0;
#X obj -213 521 bng 15 250 50 0 empty empty empty 17 7 0 10 -262144
-1 -1;
#X obj -293 141 counter 50;
#X obj -293 168 sel 50;
#X obj -188 401 list-math * 5;
#X obj -88 7 hradio 10 1 0 12 empty empty empty 0 -8 0 10 -262144 -1
-1 0;
#X floatatom -309 199 5 0 0 0 - - -;
#X obj -277 241 bng 15 250 50 0 empty empty empty 17 7 0 10 -262144
-1 -1;
#X obj -187 11 t b f;
#X obj -301 43 s \$0-batual;
#X obj -98 428 r \$0-batual;
#N canvas 0 0 450 300 (subpatch) 0;
#X array \$0-prob_pitch 12 float 3;
#A 0 0 5 10 5 5 40 30 10 10 5 10 80;
#X coords 0 100 12 0 200 140 1 0 0;
#X restore 17 385 graph;
#X obj -147 493 list prepend 0;
#X obj -146 521 s \$0-prob_pitch;
#X msg 29 219 dump;
#X obj 29 278 prepend set;
#X msg 29 300 0 5 10 5 5 40 30 10 10 5 10 80;
#X obj 29 252 tabletool \$0-prob_pitch;
#X connect 0 0 29 0;
#X connect 1 0 2 0;
#X connect 1 0 23 0;
#X connect 1 1 3 0;
#X connect 1 1 23 0;
#X connect 1 2 4 0;
#X connect 1 2 23 0;
#X connect 1 3 5 0;
#X connect 1 3 23 0;
#X connect 1 4 6 0;
#X connect 1 4 23 0;
#X connect 1 5 7 0;
#X connect 1 5 23 0;
#X connect 1 6 8 0;
#X connect 1 6 23 0;
#X connect 1 7 9 0;
#X connect 1 7 23 0;
#X connect 1 8 10 0;
#X connect 1 8 23 0;
#X connect 1 9 11 0;
#X connect 1 9 23 0;
#X connect 1 10 12 0;
#X connect 1 10 23 0;
#X connect 1 11 13 0;
#X connect 1 11 23 0;
#X connect 2 0 14 0;
#X connect 3 0 14 1;
#X connect 3 0 15 0;
#X connect 4 0 14 2;
#X connect 4 0 15 0;
#X connect 5 0 14 3;
#X connect 5 0 15 0;
#X connect 6 0 15 0;
#X connect 6 0 14 4;
#X connect 7 0 15 0;
#X connect 7 0 14 5;
#X connect 8 0 15 0;
#X connect 8 0 14 6;
#X connect 9 0 15 0;
#X connect 9 0 14 7;
#X connect 10 0 15 0;
#X connect 10 0 14 8;
#X connect 11 0 15 0;
#X connect 11 0 14 9;
#X connect 12 0 15 0;
#X connect 12 0 14 10;
#X connect 13 0 15 0;
#X connect 13 0 14 11;
#X connect 14 0 25 0;
#X connect 15 0 14 0;
#X connect 16 0 17 0;
#X connect 17 0 19 1;
#X connect 17 0 33 0;
#X connect 18 0 13 4;
#X connect 18 0 12 4;
#X connect 18 0 11 4;
#X connect 18 0 10 4;
#X connect 18 0 9 4;
#X connect 18 0 8 4;
#X connect 18 0 7 4;
#X connect 18 0 6 4;
#X connect 18 0 5 4;
#X connect 18 0 4 4;
#X connect 18 0 3 4;
#X connect 18 0 2 4;
#X connect 19 0 20 0;
#X connect 19 0 22 0;
#X connect 21 0 19 0;
#X connect 23 0 24 0;
#X connect 23 0 27 0;
#X connect 24 0 13 3;
#X connect 24 0 12 3;
#X connect 24 0 11 3;
#X connect 24 0 10 3;
#X connect 24 0 9 3;
#X connect 24 0 8 3;
#X connect 24 0 7 3;
#X connect 24 0 6 3;
#X connect 24 0 5 3;
#X connect 24 0 4 3;
#X connect 24 0 3 3;
#X connect 24 0 2 3;
#X connect 24 0 28 0;
#X connect 25 0 16 0;
#X connect 26 0 1 0;
#X connect 29 0 30 0;
#X connect 29 1 1 0;
#X connect 31 0 17 0;
#X connect 33 0 34 0;
#X connect 35 0 38 0;
#X connect 36 0 37 0;
#X connect 38 1 36 0;
#X restore 201 396 pd prob pitch;
#N canvas 112 166 641 490 probalizer 0;
#X obj 372 155 probalizer 200 200 12 50 1 0 1 1 3 2 1 3 3 4 1 5 1 6
3 7 1 8 7 9 1 10 3 11 1;
#X obj 372 81 bng 15 250 50 0 empty empty empty 17 7 0 10 -262144 -1
-1;
#X floatatom 372 402 5 0 0 0 - - -;
#X symbolatom 17 287 10 0 0 0 - - -;
#X floatatom 169 266 5 0 0 0 - - -;
#X msg 169 402 equi;
#X obj 169 73 inlet;
#X obj 169 109 bng 15 250 50 0 empty empty empty 17 7 0 10 -262144
-1 -1;
#X text 179 42 note on;
#X obj 169 145 del 50;
#X obj 372 43 inlet;
#X text 448 35 pede nota;
#X obj 372 456 outlet;
#N canvas 0 0 835 400 pitch 0;
#X obj 84 35 inlet;
#X obj 73 78 sel 0 1 2 3 4 5 6 7 8 9 10 11;
#X obj 43 221 counter 10;
#X obj 58 191 counter 10;
#X obj 83 161 counter 10;
#X obj 104 130 counter 10;
#X obj 154 224 counter 10;
#X obj 169 194 counter 10;
#X obj 194 164 counter 10;
#X obj 209 134 counter 10;
#X obj 268 222 counter 10;
#X obj 283 192 counter 10;
#X obj 308 162 counter 10;
#X obj 323 132 counter 10;
#X obj 158 316 sel 9;
#X obj 161 365 outlet;
#X obj 468 29 inlet;
#X text 543 28 quantas ocorrencias;
#X text 540 46 do mesmo pitch pra resetar;
#X text 538 65 probabilidades;
#X connect 0 0 1 0;
#X connect 1 0 2 0;
#X connect 1 1 3 0;
#X connect 1 2 4 0;
#X connect 1 3 5 0;
#X connect 1 4 6 0;
#X connect 1 5 7 0;
#X connect 1 6 8 0;
#X connect 1 7 9 0;
#X connect 1 8 10 0;
#X connect 1 9 11 0;
#X connect 1 10 12 0;
#X connect 1 11 13 0;
#X connect 2 0 14 0;
#X connect 3 0 14 0;
#X connect 4 0 14 0;
#X connect 5 0 14 0;
#X connect 6 0 14 0;
#X connect 7 0 14 0;
#X connect 8 0 14 0;
#X connect 9 0 14 0;
#X connect 10 0 14 0;
#X connect 11 0 14 0;
#X connect 12 0 14 0;
#X connect 13 0 14 0;
#X connect 14 0 15 0;
#X connect 16 0 13 4;
#X connect 16 0 12 4;
#X connect 16 0 11 4;
#X connect 16 0 10 4;
#X connect 16 0 9 4;
#X connect 16 0 8 4;
#X connect 16 0 7 4;
#X connect 16 0 6 4;
#X connect 16 0 5 4;
#X connect 16 0 4 4;
#X connect 16 0 3 4;
#X connect 16 0 2 4;
#X restore 169 369 pd pitch counter;
#X obj 17 343 s nota_atual;
#X msg 17 312 label \$1;
#X msg 217 284 30;
#X msg 289 279 10;
#X msg 247 246 50;
#X obj 282 67 loadbang;
#X msg 382 127 zero;
#X text 436 404 nota de saida;
#X msg 282 245 100;
#X text 231 399 reseta;
#X obj 111 110 t b f;
#X connect 0 0 2 0;
#X connect 1 0 0 0;
#X connect 2 0 12 0;
#X connect 3 0 15 0;
#X connect 4 0 0 0;
#X connect 4 0 13 0;
#X connect 5 0 0 0;
#X connect 6 0 7 0;
#X connect 6 0 24 0;
#X connect 7 0 9 0;
#X connect 9 0 4 0;
#X connect 10 0 1 0;
#X connect 13 0 5 0;
#X connect 15 0 14 0;
#X connect 16 0 13 1;
#X connect 17 0 13 1;
#X connect 18 0 13 1;
#X connect 19 0 20 0;
#X connect 19 0 22 0;
#X connect 20 0 0 0;
#X connect 22 0 13 1;
#X connect 24 1 4 0;
#X restore -191 55 pd probalizer pitch;
#X obj -191 19 inlet;
#X text -153 20 pitch;
#X obj -87 19 inlet;
#X text -77 33 pede nota;
#N canvas 35 25 1012 668 calcula 0;
#X obj 149 130 timer;
#X obj 149 99 t b b;
#X obj 149 23 key;
#X obj 149 59 select 32;
#X obj 149 364 /;
#X floatatom 170 391 5 0 0 0 - - -;
#X obj 554 275 list prepend 0;
#N canvas 0 0 450 300 (subpatch) 0;
#X array \$0-taps 8 float 0;
#X coords 0 1000 7 50 200 140 1 0 0;
#X restore 742 372 graph;
#X obj 947 374 vsl 15 135 50 1000 0 0 empty \$0-gmean gm 0 -9 0 10
-262144 -1 -1 3222 1;
#X obj 963 374 vsl 15 135 50 1000 0 0 empty \$0-mean mean 0 -9 0 10
-262144 -1 -1 3419 1;
#X obj 749 543 cnv 15 100 60 empty \$0-quality instavel 10 35 0 30
-191407 -1 0;
#X obj 32 492 s \$0-quality;
#X obj 149 440 moses 0.99;
#X obj 348 321 s \$0-mean;
#X obj 158 322 s \$0-gmean;
#X obj 149 236 t a a a;
#X obj 173 419 hsl 128 15 0 1 0 0 empty empty empty -2 -8 0 10 -262144
-1 -1 12093 1;
#X obj 554 305 s \$0-taps;
#N canvas 534 229 450 300 show-bpm 0;
#X floatatom 107 144 5 0 0 1 IOI_in_bpm - -;
#X floatatom 107 126 5 0 0 1 IOI - -;
#N canvas 0 0 450 300 ms2bpm 0;
#X obj 93 50 inlet;
#X obj 93 102 swap 60000;
#X obj 93 131 /;
#X obj 93 182 outlet;
#X connect 0 0 1 0;
#X connect 1 0 2 0;
#X connect 1 1 2 1;
#X connect 2 0 3 0;
#X restore 248 99 pd ms2bpm;
#X obj 248 37 inlet;
#X connect 2 0 0 0;
#X connect 3 0 1 0;
#X connect 3 0 2 0;
#X coords 0 -1 1 1 125 60 1 100 100;
#X restore 468 388 pd show-bpm;
#N canvas 534 229 450 300 show-bpm 0;
#X floatatom 107 144 5 0 0 1 IOI_in_bpm - -;
#X floatatom 107 126 5 0 0 1 IOI - -;
#N canvas 0 0 450 300 ms2bpm 0;
#X obj 93 50 inlet;
#X obj 93 102 swap 60000;
#X obj 93 131 /;
#X obj 93 182 outlet;
#X connect 0 0 1 0;
#X connect 1 0 2 0;
#X connect 1 1 2 1;
#X connect 2 0 3 0;
#X restore 248 99 pd ms2bpm;
#X obj 248 37 inlet;
#X connect 2 0 0 0;
#X connect 3 0 1 0;
#X connect 3 0 2 0;
#X coords 0 -1 1 1 125 60 1 100 100;
#X restore 604 388 pd show-bpm;
#X obj 604 362 r \$0-mean;
#X obj 468 362 r \$0-gmean;
#X obj 40 201 s \$0-last;
#N canvas 534 229 450 300 show-bpm 0;
#X floatatom 107 144 5 0 0 1 IOI_in_bpm - -;
#X floatatom 107 126 5 0 0 1 IOI - -;
#N canvas 0 0 450 300 ms2bpm 0;
#X obj 93 50 inlet;
#X obj 93 102 swap 60000;
#X obj 93 131 /;
#X obj 93 182 outlet;
#X connect 0 0 1 0;
#X connect 1 0 2 0;
#X connect 1 1 2 1;
#X connect 2 0 3 0;
#X restore 248 99 pd ms2bpm;
#X obj 248 37 inlet;
#X connect 2 0 0 0;
#X connect 3 0 1 0;
#X connect 3 0 2 0;
#X coords 0 -1 1 1 125 60 1 100 100;
#X restore 442 182 pd show-bpm;
#X obj 442 152 r \$0-last;
#X obj 560 129 s \$0-taps;
#X msg 560 86 resize \$1;
#X obj 257 202 r \$0-buffer-size;
#X obj 368 102 s \$0-buffer-size;
#X floatatom 560 60 5 0 0 0 - - -;
#X msg 560 34 8;
#X msg 597 33 16;
#X msg 702 302 403.447 194.467 377.324 255.419 313.469 194.467 191.565
409.252;
#N canvas 0 0 778 583 last-x 0;
#X obj 153 175 cnv 15 150 80 empty empty empty 20 12 0 14 -233017 -66577
0;
#X floatatom 370 79 5 0 0 2 change-size - -;
#X obj 326 112 t f b;
#X text 378 110 first reset (b) \, then set new length (f).;
#X text 311 195 Right outlet is responsible to first fill the list
;
#X text 312 211 Left outlet then only lets the smaller list pass.;
#X obj 180 183 list;
#X obj 326 54 inlet;
#X obj 180 149 inlet;
#X obj 180 302 outlet;
#X obj 180 228 list split \$1;
#X obj 326 78 f \$1;
#X connect 1 0 2 0;
#X connect 2 0 10 1;
#X connect 2 1 6 1;
#X connect 6 0 10 0;
#X connect 7 0 11 0;
#X connect 8 0 6 0;
#X connect 10 0 6 1;
#X connect 10 0 9 0;
#X connect 10 2 6 1;
#X connect 11 0 2 0;
#X restore 149 202 pd last-x;
#X obj 560 9 loadbang;
#X obj 437 538 hsl 128 15 0 1 0 0 empty empty empty -2 -8 0 10 -262144
-1 -1 0 1;
#X floatatom 434 575 5 0 0 0 - - -;
#X msg 117 579 label instavel;
#X msg 271 578 label estavel;
#X text 190 28 para testar;
#X obj 278 68 r bong;
#X text 572 531 <= sensibilidade;
#X msg 117 611 0;
#X msg 271 611 1;
#X obj 150 656 outlet;
#X obj 278 112 bng 15 250 50 0 empty empty empty 17 7 0 10 -262144
-1 -1;
#N canvas 112 376 872 310 tamanho-filtro 0;
#X obj 200 256 outlet;
#X obj 297 223 outlet;
#X obj 297 189 b;
#X obj 200 120 moses 2000;
#X text 305 122 filter viable range \, reset else (Handel \, 1989)
;
#X obj 123 64 inlet;
#X obj 123 90 moses 50;
#X text 368 218 reset timer from here;
#X connect 2 0 1 0;
#X connect 3 0 0 0;
#X connect 3 1 2 0;
#X connect 5 0 6 0;
#X connect 6 0 2 0;
#X connect 6 1 3 0;
#X restore 149 168 pd tamanho-filtro;
#N canvas 0 0 566 431 media-geometrica 0;
#X obj 127 69 inlet;
#X obj 127 337 outlet;
#X obj 154 144 list-drip;
#X obj 154 170 route float;
#X obj 127 274 f;
#X obj 291 176 pow -1;
#X obj 154 199 pow;
#N canvas 370 313 450 300 product 0;
#X obj 135 79 inlet;
#X obj 205 77 inlet;
#X obj 135 169 outlet;
#X obj 210 139 f;
#X obj 135 137 *;
#X obj 205 100 1;
#X connect 0 0 4 0;
#X connect 1 0 5 0;
#X connect 3 0 4 1;
#X connect 4 0 2 0;
#X connect 4 0 3 0;
#X connect 5 0 4 1;
#X restore 154 231 pd product;
#X obj 127 105 t b a b a;
#X obj 291 148 list length;
#X connect 0 0 8 0;
#X connect 2 0 3 0;
#X connect 3 0 6 0;
#X connect 4 0 1 0;
#X connect 5 0 6 1;
#X connect 6 0 7 0;
#X connect 7 0 4 1;
#X connect 8 0 4 0;
#X connect 8 1 2 0;
#X connect 8 2 7 1;
#X connect 8 3 9 0;
#X connect 9 0 5 0;
#X restore 149 280 pd media-geometrica;
#N canvas 0 0 566 431 media-aritmetica 0;
#X obj 127 69 inlet;
#X obj 127 337 outlet;
#X obj 147 138 list-drip;
#X obj 147 164 route float;
#X obj 127 274 f;
#N canvas 370 313 450 300 product 0;
#X obj 135 79 inlet;
#X obj 182 79 inlet;
#X obj 135 169 outlet;
#X obj 168 138 f;
#X obj 182 102 0;
#X obj 135 137 +;
#X connect 0 0 5 0;
#X connect 1 0 4 0;
#X connect 3 0 5 1;
#X connect 4 0 5 1;
#X connect 5 0 2 0;
#X connect 5 0 3 0;
#X restore 147 225 pd product;
#X obj 127 105 t b a b a;
#X obj 254 222 list length;
#X obj 127 306 /;
#X connect 0 0 6 0;
#X connect 2 0 3 0;
#X connect 3 0 5 0;
#X connect 4 0 8 0;
#X connect 5 0 4 1;
#X connect 6 0 4 0;
#X connect 6 1 2 0;
#X connect 6 2 5 1;
#X connect 6 3 7 0;
#X connect 7 0 8 1;
#X connect 8 0 1 0;
#X restore 348 279 pd media-aritmetica;
#N canvas 0 0 450 300 mostra 0;
#X obj 41 39 inlet;
#X obj 186 36 inlet;
#X obj 41 124 outlet;
#X msg 186 76 set;
#X obj 41 59 list prepend set;
#X obj 41 83 list trim;
#X obj 186 57 b;
#X connect 0 0 4 0;
#X connect 1 0 6 0;
#X connect 3 0 2 0;
#X connect 4 0 5 0;
#X connect 5 0 2 0;
#X connect 6 0 3 0;
#X restore 702 273 pd mostra buffer;
#X obj 777 91 tabletool \$0-taps;
#X msg 765 21 min;
#X msg 778 60 max;
#X floatatom 779 148 5 0 0 0 - - -;
#X obj 645 239 s min_ritmo;
#X obj 830 235 s max_ritmo;
#X obj 645 209 spigot;
#X msg 706 178 0;
#X msg 754 178 1;
#X obj 681 118 t b b b;
#X obj 668 64 t b b;
#X obj 830 206 spigot;
#X msg 864 174 0;
#X msg 931 175 1;
#X obj 864 133 t b b b;
#X obj 508 586 r min_ritmo;
#X obj 628 587 r max_ritmo;
#X floatatom 508 626 5 0 0 0 - - -;
#X floatatom 628 623 5 0 0 0 - - -;
#X obj 780 118 int;
#X obj 284 17 inlet;
#X obj 284 41 bng 15 250 50 0 empty empty empty 17 7 0 10 -262144 -1
-1;
#X connect 0 0 46 0;
#X connect 1 0 0 0;
#X connect 1 1 0 1;
#X connect 2 0 3 0;
#X connect 3 0 1 0;
#X connect 4 0 5 0;
#X connect 4 0 12 0;
#X connect 5 0 16 0;
#X connect 6 0 17 0;
#X connect 12 0 37 0;
#X connect 12 1 38 0;
#X connect 15 0 47 0;
#X connect 15 1 48 0;
#X connect 15 2 6 0;
#X connect 15 2 49 0;
#X connect 20 0 19 0;
#X connect 21 0 18 0;
#X connect 24 0 23 0;
#X connect 26 0 25 0;
#X connect 27 0 33 1;
#X connect 29 0 26 0;
#X connect 29 0 28 0;
#X connect 30 0 29 0;
#X connect 31 0 29 0;
#X connect 33 0 15 0;
#X connect 34 0 30 0;
#X connect 35 0 36 0;
#X connect 35 0 12 1;
#X connect 37 0 11 0;
#X connect 37 0 42 0;
#X connect 38 0 11 0;
#X connect 38 0 43 0;
#X connect 40 0 1 0;
#X connect 40 0 45 0;
#X connect 42 0 44 0;
#X connect 43 0 44 0;
#X connect 45 0 60 0;
#X connect 46 0 22 0;
#X connect 46 0 33 0;
#X connect 46 1 0 0;
#X connect 47 0 14 0;
#X connect 47 0 4 0;
#X connect 48 0 13 0;
#X connect 48 0 4 1;
#X connect 49 0 32 0;
#X connect 50 0 69 0;
#X connect 51 0 50 0;
#X connect 52 0 50 0;
#X connect 53 0 56 0;
#X connect 53 0 61 0;
#X connect 56 0 54 0;
#X connect 57 0 56 1;
#X connect 58 0 56 1;
#X connect 59 0 57 0;
#X connect 59 1 51 0;
#X connect 59 2 58 0;
#X connect 60 0 64 0;
#X connect 60 1 59 0;
#X connect 61 0 55 0;
#X connect 62 0 61 1;
#X connect 63 0 61 1;
#X connect 64 0 62 0;
#X connect 64 1 52 0;
#X connect 64 2 63 0;
#X connect 65 0 67 0;
#X connect 66 0 68 0;
#X connect 69 0 53 0;
#X connect 70 0 71 0;
#X connect 71 0 1 0;
#X restore -2 57 pd calcula ritmo entrada;
#X obj -3 22 inlet;
#X text 42 27 ataque;
#X obj 10 180 outlet;
#X connect 7 0 6 0;
#X connect 9 0 6 1;
#X connect 11 0 14 0;
#X connect 12 0 11 0;
