#N canvas 66 0 658 689 12;
#X obj 28 78 env~;
#X obj 404 110 t b f;
#X floatatom 404 133 0 0 0 0 - - -;
#X obj 411 188 pack;
#X obj 411 211 route 0 1;
#X obj 411 234 > 55;
#X obj 461 234 < 45;
#X obj 411 257 sel 1;
#X obj 461 257 sel 1;
#X msg 375 268 1;
#X msg 375 246 0;
#X obj 411 294 print attack;
#X obj 404 165 != 0;
#X obj 383 351 t b f;
#X floatatom 374 377 0 0 0 0 - - -;
#X obj 386 427 pack;
#X obj 386 450 route 0 1;
#X obj 386 488 sel 1;
#X msg 365 595 1;
#X msg 366 618 0;
#X obj 379 405 != 0;
#X obj 417 378 < 45;
#X obj 390 522 timer;
#X obj 472 451 sel 0;
#X obj 454 571 sel 0;
#X obj 404 571 sel 1;
#X obj 404 612 print rest;
#X floatatom 138 355 5 0 0 0 - - -;
#X obj 131 328 + 3.01;
#X obj 27 17 inlet~;
#X obj 513 294 outlet;
#X obj 552 616 outlet;
#X obj 390 545 > 100;
#X text 158 283 ????????dB peak;
#X obj 103 524 dbtorms;
#X floatatom 112 550 0 0 0 0 - - -;
#X obj 204 356 dbtorms;
#X floatatom 213 379 0 0 0 0 - - -;
#X obj 28 168 lop~ 1;
#X obj 28 192 lop~ 1;
#X obj 28 216 lop~ 1;
#X obj 28 264 snapshot~;
#X obj 36 240 bang~;
#X text 34 149 smooth;
#X obj 28 606 outlet;
#X obj 28 577 pack 0 0 0;
#X text 85 607 RMS: dBsmooth \, dB \, amplitude;
#X obj 131 431 outlet;
#X text 185 431 PEAK: dBsmooth \, amplitude;
#X obj 131 402 pack 0 0;
#X text 138 298 always +3.01 for peak?;
#X connect 0 0 1 0;
#X connect 0 0 13 0;
#X connect 0 0 38 0;
#X connect 0 0 45 1;
#X connect 1 0 2 0;
#X connect 1 1 3 1;
#X connect 2 0 12 0;
#X connect 3 0 4 0;
#X connect 4 0 5 0;
#X connect 4 1 6 0;
#X connect 5 0 7 0;
#X connect 6 0 8 0;
#X connect 7 0 9 0;
#X connect 7 0 11 0;
#X connect 7 0 30 0;
#X connect 8 0 10 0;
#X connect 9 0 2 0;
#X connect 10 0 2 0;
#X connect 12 0 3 0;
#X connect 13 0 14 0;
#X connect 13 1 21 0;
#X connect 14 0 20 0;
#X connect 15 0 16 0;
#X connect 16 0 17 0;
#X connect 16 1 24 0;
#X connect 17 0 22 1;
#X connect 18 0 14 0;
#X connect 19 0 14 0;
#X connect 20 0 15 0;
#X connect 21 0 15 1;
#X connect 21 0 23 0;
#X connect 22 0 32 0;
#X connect 23 0 22 0;
#X connect 24 0 19 0;
#X connect 25 0 18 0;
#X connect 25 0 26 0;
#X connect 25 0 31 0;
#X connect 28 0 27 0;
#X connect 28 0 36 0;
#X connect 28 0 49 0;
#X connect 29 0 0 0;
#X connect 32 0 25 0;
#X connect 34 0 35 0;
#X connect 34 0 45 2;
#X connect 36 0 37 0;
#X connect 36 0 49 1;
#X connect 38 0 39 0;
#X connect 39 0 40 0;
#X connect 40 0 41 0;
#X connect 41 0 28 0;
#X connect 41 0 34 0;
#X connect 41 0 45 0;
#X connect 42 0 41 0;
#X connect 45 0 44 0;
#X connect 49 0 47 0;
