#N canvas 82 24 728 525 10;
#X obj 271 250 bonk~;
#X obj 271 294 bng 15 250 50 0 empty empty empty 17 7 0 10 -262144
-1 -1;
#X obj 102 258 pitch;
#X floatatom 102 208 5 0 0 0 - - -;
#X obj 102 233 round;
#X obj 2 95 *~;
#X obj 67 62 hsl 128 15 0 1 0 0 empty empty empty -2 -8 0 10 -262144
-1 -1 5080 1;
#X floatatom 102 383 5 0 0 0 - - -;
#X floatatom 115 334 5 0 0 0 - - -;
#X floatatom 122 312 5 0 0 0 - - -;
#X floatatom 129 289 5 0 0 0 - - -;
#X symbolatom 108 359 7 0 0 0 - - -;
#X text 62 493 MIDI note number;
#X text 155 335 pitch class;
#X text 170 491 register;
#X text 168 357 note name (symbol);
#X obj 270 224 *~ 0.5;
#X obj 3 40 inlet~;
#X obj 359 335 hsl 100 15 0 1 0 0 empty empty volume_de_entrada -2
-8 0 10 -262144 -1 -1 3960 1;
#X msg 28 421 label \$1;
#X obj 28 451 s \$0-nota;
#X obj 356 419 cnv 15 20 20 empty \$0-nota C4 20 12 1 40 -233017 -1
0;
#X text 355 389 nota de;
#X text 354 397 entrada;
#X obj 359 360 bng 30 250 50 0 empty empty empty 17 7 0 10 -4034 -1
-1;
#X text 393 369 ataques;
#X obj 355 234 loadbang;
#X obj 68 473 outlet;
#X obj 171 473 outlet;
#X obj 224 475 outlet;
#X obj 271 474 outlet;
#X obj 443 363 vsl 15 80 0 1 0 0 empty empty empty 0 -9 0 10 -262144
-1 -1 3160 1;
#X text 409 350 saida~;
#X obj 429 485 dac~;
#X obj 428 460 *~;
#X obj 319 474 outlet~;
#X obj 468 323 vu 15 120 empty empty -1 -8 0 10 -66577 -1 1 0;
#X obj 2 178 sigmund~ -hop 4096 pitch notes;
#N canvas 65 117 496 540 parametros 0;
#X msg 75 329 minpower \$1;
#X text 149 326 50;
#X text 159 302 7;
#X msg 97 306 growth \$1;
#X msg 115 284 stabletime \$1;
#X text 205 283 50;
#X msg 131 256 vibrato \$1;
#X text 205 256 1;
#X msg 181 223 maxfreq \$1;
#X text 259 224 1e+06;
#X msg 234 194 hop \$1;
#X text 279 194 512;
#X msg 306 130 npts \$1;
#X text 359 130 1024;
#X obj 97 423 outlet;
#X floatatom 36 284 5 0 50 0 - - -;
#X floatatom 57 258 5 0 7 0 - - -;
#X floatatom 78 231 5 0 50 0 - - -;
#X obj 99 84 vsl 15 128 0 1 0 0 empty empty empty 0 -9 0 10 -262144
-1 -1 11900 1;
#X msg 219 118 512;
#X msg 251 121 1024;
#X msg 265 140 2048;
#X msg 269 163 4096;
#X msg 306 73 512;
#X msg 343 72 1024;
#X msg 370 91 2048;
#X msg 406 92 4096;
#X text 156 363 npts - number of points in each analysis window (1024)
;
#X text 156 381 hop - number of points between each analysis (512)
;
#X text 156 398 npeak - number of sinusoidal peaks (20);
#X text 157 435 vibrato - depth of vibrato to expect in 1/2-tones (1)
;
#X text 156 454 stabletime - time (msec) to wait to report notes (50)
;
#X text 158 472 minpower - minimum power (dB) to report a pitch (50)
;
#X text 158 491 growth - growth (dB) to report a new note (7);
#X text 157 416 maxfreq - maximum sinusoid frequency in Hz. (1000000)
;
#X floatatom 182 197 5 0 0 0 - - -;
#X obj 36 48 unpack f f f f f f;
#X floatatom 136 224 5 0 0 0 - - -;
#X msg 36 15 50 1 14 0.937 4096 4096;
#X obj 202 38 loadbang;
#X connect 0 0 14 0;
#X connect 3 0 14 0;
#X connect 4 0 14 0;
#X connect 6 0 14 0;
#X connect 8 0 14 0;
#X connect 10 0 14 0;
#X connect 12 0 14 0;
#X connect 15 0 0 0;
#X connect 16 0 3 0;
#X connect 17 0 4 0;
#X connect 18 0 6 0;
#X connect 18 0 37 0;
#X connect 19 0 10 0;
#X connect 20 0 10 0;
#X connect 21 0 10 0;
#X connect 22 0 10 0;
#X connect 23 0 12 0;
#X connect 24 0 12 0;
#X connect 25 0 12 0;
#X connect 26 0 12 0;
#X connect 35 0 8 0;
#X connect 36 0 15 0;
#X connect 36 1 16 0;
#X connect 36 2 17 0;
#X connect 36 3 18 0;
#X connect 36 4 10 0;
#X connect 36 5 12 0;
#X connect 38 0 36 0;
#X connect 39 0 38 0;
#X restore 19 144 pd parametros sigmund;
#X obj 477 190 env~;
#X floatatom 477 216 5 0 0 0 - - -;
#X obj 477 241 - 100;
#X obj 225 100 vsl 30 70 0 127 0 0 empty empty empty 0 -9 0 10 -262144
-1 -1 0 1;
#X obj 225 187 s \$0-amp_attack;
#X text 225 490 env;
#X text 271 493 bonk;
#X msg 355 259 0.4;
#X obj 115 471 outlet;
#X connect 0 0 1 0;
#X connect 1 0 24 0;
#X connect 1 0 30 0;
#X connect 2 0 7 0;
#X connect 2 1 11 0;
#X connect 2 2 8 0;
#X connect 2 3 9 0;
#X connect 2 4 10 0;
#X connect 3 0 4 0;
#X connect 4 0 2 0;
#X connect 5 0 16 0;
#X connect 5 0 37 0;
#X connect 5 0 39 0;
#X connect 6 0 5 1;
#X connect 7 0 27 0;
#X connect 8 0 47 0;
#X connect 10 0 28 0;
#X connect 11 0 19 0;
#X connect 16 0 0 0;
#X connect 17 0 5 0;
#X connect 17 0 34 0;
#X connect 17 0 35 0;
#X connect 18 0 6 0;
#X connect 19 0 20 0;
#X connect 26 0 46 0;
#X connect 31 0 34 1;
#X connect 34 0 33 0;
#X connect 34 0 33 1;
#X connect 37 1 3 0;
#X connect 38 0 37 0;
#X connect 39 0 40 0;
#X connect 40 0 41 0;
#X connect 40 0 42 0;
#X connect 41 0 36 1;
#X connect 42 0 43 0;
#X connect 42 0 29 0;
#X connect 46 0 18 0;
#X connect 46 0 31 0;
#X coords 0 -1 1 1 170 150 1 350 300;
