#N canvas 427 247 216 232 12;
#X msg 51 123 1;
#X msg 91 123 0;
#X obj 51 36 key;
#X floatatom 51 62 5 0 0;
#X obj 115 36 keyup;
#X floatatom 115 63 5 0 0;
#X obj 51 89 sel \$1;
#X obj 115 89 sel \$1;
#X obj 51 159 outlet;
#X text 38 185 input from keyboard;
#X text 39 201 \$1 = asci;
#X connect 0 0 8 0;
#X connect 1 0 8 0;
#X connect 2 0 3 0;
#X connect 3 0 6 0;
#X connect 4 0 5 0;
#X connect 5 0 7 0;
#X connect 6 0 0 0;
#X connect 7 0 1 0;
