#N canvas 263 45 464 454 12;
#X obj 35 214 mtof;
#X msg 102 214 \$1 20;
#X obj 102 241 line~;
#X obj 35 23 keyboard;
#X obj 35 275 *~;
#X obj 35 381 *~ 0.1;
#X obj 35 408 dac~;
#X obj 35 187 unpack;
#X obj 35 241 osc~;
#X obj 163 214 mtof;
#X msg 230 214 \$1 20;
#X obj 230 241 line~;
#X obj 163 275 *~;
#X obj 163 187 unpack;
#X obj 163 241 osc~;
#X obj 291 213 mtof;
#X msg 358 213 \$1 20;
#X obj 358 240 line~;
#X obj 291 274 *~;
#X obj 291 186 unpack;
#X obj 291 240 osc~;
#X obj 35 91 pack 0 0 0;
#X obj 35 60 poly 3;
#X obj 35 121 route 1 2 3;
#X floatatom 140 377 5 0 0 0 - - -;
#X text 200 375 Volume (0-1);
#X text 167 37 very simple test for keyboard;
#X obj 199 59 keyboard;
#X obj 249 86 prepend set;
#X msg 253 112 54 0;
#X connect 0 0 8 0;
#X connect 1 0 2 0;
#X connect 2 0 4 1;
#X connect 3 0 22 0;
#X connect 4 0 5 0;
#X connect 5 0 6 0;
#X connect 5 0 6 1;
#X connect 7 0 0 0;
#X connect 7 1 1 0;
#X connect 8 0 4 0;
#X connect 9 0 14 0;
#X connect 10 0 11 0;
#X connect 11 0 12 1;
#X connect 12 0 5 0;
#X connect 13 0 9 0;
#X connect 13 1 10 0;
#X connect 14 0 12 0;
#X connect 15 0 20 0;
#X connect 16 0 17 0;
#X connect 17 0 18 1;
#X connect 18 0 5 0;
#X connect 19 0 15 0;
#X connect 19 1 16 0;
#X connect 20 0 18 0;
#X connect 21 0 23 0;
#X connect 22 0 21 0;
#X connect 22 1 21 1;
#X connect 22 2 21 2;
#X connect 23 0 7 0;
#X connect 23 1 13 0;
#X connect 23 2 19 0;
#X connect 24 0 5 1;
#X connect 27 0 28 0;
#X connect 28 0 29 0;
