#N canvas 137 30 1101 708 10;
#X obj 599 27 bng 15 250 50 0 empty empty empty 17 7 0 10 -262144 -1
-1;
#X obj 599 683 bng 15 250 50 0 empty empty empty 17 7 0 10 -262144
-1 -1;
#X obj -11 17 comment 0 32 Typewriter ? 0 0 0 0 Prototipo 3;
#X obj -12 86 comment 0 14 Typewriter ? 0 0 0 0 Dialogo ritmico em
4 modos;
#X obj 139 393 hradio 10 1 0 12 empty empty empty 0 -8 0 10 -262144
-1 -1 0;
#X obj 122 342 bng 15 250 50 0 empty empty empty 17 7 0 10 -262144
-1 -1;
#X obj 139 369 counter 11;
#N canvas 0 0 450 300 (subpatch) 0;
#X array decays 11 float 2;
#X coords 0 127 11 0 400 100 1 0 0;
#X restore 123 456 graph;
#X obj 435 355 bng 40 250 50 0 empty empty Silencio 17 7 0 20 -262144
-1 -1;
#X obj 139 325 spigot;
#X obj 172 297 tgl 15 0 empty empty empty 17 7 0 10 -262144 -1 -1 0
1;
#N canvas 366 68 580 423 controle_modos 0;
#X obj 107 107 tgl 15 0 empty empty empty 17 7 0 10 -262144 -1 -1 0
1;
#X obj 107 131 tgl 15 0 empty empty empty 17 7 0 10 -262144 -1 -1 0
1;
#X text 127 101 manual;
#X text 129 126 automatico;
#X obj 211 233 random 4;
#X obj 209 203 metro;
#X obj 302 168 random 1000;
#X obj 39 302 outlet;
#X obj 129 305 outlet;
#X obj 214 306 outlet;
#X obj 298 308 outlet;
#X obj 381 305 outlet;
#X obj 204 106 tgl 15 0 empty empty empty 17 7 0 10 -262144 -1 -1 0
1;
#X text 226 103 grava loop;
#X obj 204 131 tgl 15 0 empty empty empty 17 7 0 10 -262144 -1 -1 0
1;
#X text 229 128 toca loop;
#X connect 1 0 5 0;
#X connect 5 0 6 0;
#X connect 5 0 4 0;
#X connect 6 0 5 1;
#X coords 0 -1 1 1 200 60 2 100 100;
#X restore 659 100 pd controle_modos;
#N canvas 0 0 1196 707 modo1 0;
#X obj 76 20 inlet;
#X obj 79 250 outlet;
#X obj 591 297 probalizer 200 200 10 100 1 0 10 1 51 2 10 3 10 4 10
5 10 6 10 7 10 8 10 9 10;
#X obj 612 221 bng 15 250 50 0 empty empty empty 17 7 0 10 -262144
-1 -1;
#X floatatom 597 556 5 0 0 0 - - -;
#X floatatom 772 551 5 0 0 0 - - -;
#X msg 694 214 1;
#X msg 737 220 2;
#X msg 783 227 3;
#X msg 814 231 4;
#X connect 2 0 4 0;
#X connect 2 1 5 0;
#X connect 3 0 2 0;
#X connect 6 0 2 0;
#X connect 7 0 2 0;
#X connect 8 0 2 0;
#X connect 9 0 2 0;
#X restore 659 266 pd modo1;
#N canvas 0 0 450 300 modo2 0;
#X obj 76 20 inlet;
#X obj 79 250 outlet;
#X restore 707 235 pd modo2;
#N canvas 0 0 450 300 modo3 0;
#X obj 76 20 inlet;
#X obj 79 250 outlet;
#X restore 755 205 pd modo3;
#N canvas 0 0 450 300 modo4 0;
#X obj 76 20 inlet;
#X obj 79 250 outlet;
#X restore 803 179 pd modo4;
#X obj 764 303 tgl 40 0 empty empty empty 17 7 0 10 -257985 -1 -1 0
1;
#X obj 809 298 comment 0 10 Typewriter ? 0 0 0 0 salva texto com lista
de onsets e decays;
#X obj -9 133 s_tabritmo;
#N canvas 0 0 450 300 (subpatch) 0;
#X array onsets 11 float 3;
#A 0 62.0659 35 47 46 35 52 49 35 36 48 44;
#X coords 0 127 11 0 400 100 1 0 0;
#X restore 122 569 graph;
#X obj -9 436 tabwrite decays;
#X obj 4 403 tabwrite onsets;
#N canvas 0 0 450 300 gerador_ritmico 0;
#X obj 28 25 inlet;
#X obj 275 29 inlet;
#X obj 249 235 outlet;
#X restore 659 352 pd gerador_ritmico;
#N canvas 316 87 624 393 (subpatch) 0;
#X array decays_out 11 float 2;
#X coords 0 127 11 0 400 100 1 0 0;
#X restore 664 435 graph;
#N canvas 0 0 450 300 (subpatch) 0;
#X array onsets_out 11 float 3;
#A 0 43 35 121.93 120.66 95.26 68.59 40.65 26.68 127.01 100.34 66.05
;
#X coords 0 127 11 0 400 100 1 0 0;
#X restore 664 551 graph;
#X connect 0 0 1 0;
#X connect 4 0 20 1;
#X connect 4 0 21 1;
#X connect 5 0 6 0;
#X connect 6 0 4 0;
#X connect 9 0 5 0;
#X connect 10 0 9 1;
#X connect 11 0 12 0;
#X connect 11 1 13 0;
#X connect 11 2 14 0;
#X connect 11 3 15 0;
#X connect 12 0 22 0;
#X connect 13 0 22 0;
#X connect 14 0 22 0;
#X connect 15 0 22 0;
#X connect 16 0 22 1;
#X connect 18 0 20 0;
#X connect 18 1 21 0;
#X connect 18 3 8 0;
#X connect 18 4 9 0;
