#N canvas 6 25 1262 713 10;
#X obj 92 1 adc~;
#X obj 258 83 tabwrite~ s1;
#X obj 152 362 tabplay~ s1;
#X obj 152 328 bng 15 250 50 0 empty empty empty 17 7 0 10 -262144
-1 -1;
#X obj 152 406 ezdac~;
#X msg 234 -1 set s3;
#X obj 237 335 bng 15 250 50 0 empty empty empty 17 7 0 10 -262144
-1 -1;
#X msg 333 -2 set s5;
#X msg 383 -1 set s6;
#X msg 489 -53 stop;
#X obj 830 -115 table s1 500000;
#X obj 830 -86 table s2 500000;
#X obj 832 -55 table s3 500000;
#X obj 832 -26 table s4 500000;
#X obj 832 5 table s5 500000;
#X obj 832 34 table s6 500000;
#X msg 131 0 set s1;
#X msg 181 0 set s2;
#X msg 285 -2 set s4;
#X obj 152 303 spigot;
#X msg 185 273 1;
#X msg 217 272 0;
#X obj 272 328 bng 15 250 50 0 empty empty empty 17 7 0 10 -262144
-1 -1;
#X obj 272 406 ezdac~;
#X obj 357 335 bng 15 250 50 0 empty empty empty 17 7 0 10 -262144
-1 -1;
#X obj 272 303 spigot;
#X msg 305 273 1;
#X msg 337 272 0;
#X obj 392 328 bng 15 250 50 0 empty empty empty 17 7 0 10 -262144
-1 -1;
#X obj 392 406 ezdac~;
#X obj 477 335 bng 15 250 50 0 empty empty empty 17 7 0 10 -262144
-1 -1;
#X obj 392 303 spigot;
#X msg 425 273 1;
#X msg 457 272 0;
#X obj 502 328 bng 15 250 50 0 empty empty empty 17 7 0 10 -262144
-1 -1;
#X obj 502 406 ezdac~;
#X obj 587 335 bng 15 250 50 0 empty empty empty 17 7 0 10 -262144
-1 -1;
#X obj 502 303 spigot;
#X msg 535 273 1;
#X msg 567 272 0;
#X obj 622 328 bng 15 250 50 0 empty empty empty 17 7 0 10 -262144
-1 -1;
#X obj 622 406 ezdac~;
#X obj 707 335 bng 15 250 50 0 empty empty empty 17 7 0 10 -262144
-1 -1;
#X obj 622 303 spigot;
#X msg 655 273 1;
#X msg 687 272 0;
#X obj 730 328 bng 15 250 50 0 empty empty empty 17 7 0 10 -262144
-1 -1;
#X obj 730 406 ezdac~;
#X obj 809 334 bng 15 250 50 0 empty empty empty 17 7 0 10 -262144
-1 -1;
#X obj 730 303 spigot;
#X msg 763 273 1;
#X msg 795 272 0;
#X obj 272 362 tabplay~ s2;
#X obj 392 362 tabplay~ s3;
#X obj 502 362 tabplay~ s4;
#X obj 622 362 tabplay~ s5;
#X obj 730 362 tabplay~ s6;
#X obj 484 172 bng 15 250 50 0 empty empty empty 17 7 0 10 -262144
-1 -1;
#X obj 591 20 bonk~;
#X obj 589 -43 adc~;
#X obj 590 -5 *~;
#X obj 594 42 bng 15 250 50 0 empty empty empty 17 7 0 10 -262144 -1
-1;
#X msg 689 -35 0;
#X msg 636 -36 0.002;
#X obj 568 -155 key;
#X obj 567 -132 sel 32 10;
#X msg 497 53 bang;
#X obj 733 122 tgl 15 0 empty empty empty 17 7 0 10 -262144 -1 -1 1
1;
#X obj 732 169 bng 60 250 50 0 empty empty empty 17 7 0 10 -262144
-1 -1;
#X obj 733 146 metro 2000;
#X obj 790 122 * 1000;
#X obj 790 93 hradio 15 1 0 8 empty empty empty 0 -8 0 10 -262144 -1
-1 7;
#X obj 188 -151 key;
#X obj 188 -127 sel 49 50 51 52 53 54 55 56 57 58;
#X obj 944 268 hsl 200 50 0 11.3 0 0 empty tamanho_loop tamanho_das_tabelas
-2 -8 0 10 -4034 -1 -1 6225 1;
#X obj 846 202 counter;
#X obj 846 180 metro 1;
#X floatatom 846 231 10 0 0 0 - - -;
#X obj 1042 -16 / 44100;
#X floatatom 1042 -46 10 0 0 0 - - -;
#X floatatom 1042 10 5 0 0 0 - - -;
#X msg 873 140 0;
#X obj 1042 34 send tamanho_loop;
#X text 1037 51 remonta tamanho do slider;
#X msg 1016 -75 500000;
#X obj 1016 -99 loadbang;
#X obj 861 262 / 1000;
#X floatatom 867 290 5 0 0 0 - - -;
#X connect 0 0 1 0;
#X connect 0 1 1 0;
#X connect 2 0 4 0;
#X connect 2 0 4 1;
#X connect 2 1 6 0;
#X connect 3 0 2 0;
#X connect 5 0 1 0;
#X connect 6 0 57 0;
#X connect 7 0 1 0;
#X connect 8 0 1 0;
#X connect 9 0 1 0;
#X connect 16 0 1 0;
#X connect 17 0 1 0;
#X connect 18 0 1 0;
#X connect 19 0 3 0;
#X connect 20 0 19 1;
#X connect 21 0 19 1;
#X connect 22 0 52 0;
#X connect 24 0 57 0;
#X connect 25 0 22 0;
#X connect 26 0 25 1;
#X connect 27 0 25 1;
#X connect 28 0 53 0;
#X connect 30 0 57 0;
#X connect 31 0 28 0;
#X connect 32 0 31 1;
#X connect 33 0 31 1;
#X connect 34 0 54 0;
#X connect 36 0 57 0;
#X connect 37 0 34 0;
#X connect 38 0 37 1;
#X connect 39 0 37 1;
#X connect 40 0 55 0;
#X connect 42 0 57 0;
#X connect 43 0 40 0;
#X connect 44 0 43 1;
#X connect 45 0 43 1;
#X connect 46 0 56 0;
#X connect 48 0 57 0;
#X connect 49 0 46 0;
#X connect 50 0 49 1;
#X connect 51 0 49 1;
#X connect 52 0 23 0;
#X connect 52 0 23 1;
#X connect 52 1 24 0;
#X connect 53 0 29 0;
#X connect 53 0 29 1;
#X connect 53 1 30 0;
#X connect 54 0 35 0;
#X connect 54 0 35 1;
#X connect 54 1 36 0;
#X connect 55 0 41 0;
#X connect 55 0 41 1;
#X connect 55 1 42 0;
#X connect 56 0 47 0;
#X connect 56 0 47 1;
#X connect 56 1 48 0;
#X connect 57 0 19 0;
#X connect 57 0 25 0;
#X connect 57 0 31 0;
#X connect 57 0 37 0;
#X connect 57 0 43 0;
#X connect 57 0 49 0;
#X connect 57 0 76 0;
#X connect 57 0 81 0;
#X connect 58 0 61 0;
#X connect 59 0 60 0;
#X connect 59 1 60 0;
#X connect 60 0 58 0;
#X connect 61 0 62 0;
#X connect 61 0 66 0;
#X connect 62 0 60 1;
#X connect 63 0 60 1;
#X connect 64 0 65 0;
#X connect 65 0 63 0;
#X connect 65 1 9 0;
#X connect 66 0 1 0;
#X connect 66 0 57 0;
#X connect 67 0 69 0;
#X connect 69 0 68 0;
#X connect 69 0 57 0;
#X connect 70 0 69 1;
#X connect 71 0 70 0;
#X connect 72 0 73 0;
#X connect 73 0 16 0;
#X connect 73 1 17 0;
#X connect 73 2 5 0;
#X connect 73 3 18 0;
#X connect 73 4 7 0;
#X connect 73 5 8 0;
#X connect 75 0 77 0;
#X connect 76 0 75 0;
#X connect 77 0 86 0;
#X connect 78 0 80 0;
#X connect 79 0 78 0;
#X connect 80 0 82 0;
#X connect 81 0 75 2;
#X connect 84 0 78 0;
#X connect 85 0 84 0;
#X connect 86 0 87 0;
#X connect 87 0 74 0;
